<svg width="20" height="20" viewBox="0 0 20 20" fill="none" xmlns="http://www.w3.org/2000/svg">
<path d="M9.06266 0.0250378C6.06396 0.318508 3.33929 1.94628 1.65203 4.4662C1.04132 5.37791 0.469771 6.70439 0.234885 7.75305C0.0430623 8.60998 0 9.02084 0 10.003C0 10.9812 0.0430623 11.3921 0.234885 12.2529C0.520662 13.5363 1.18226 14.9489 2.00435 16.0367C3.60549 18.1536 5.91911 19.5114 8.62812 19.93C9.2584 20.024 10.7382 20.024 11.3684 19.9261C13.1379 19.6561 14.6568 19.0223 16.0544 17.9814C16.5477 17.6136 17.6125 16.5493 17.9805 16.0563C19.0218 14.6593 19.656 13.1411 19.9261 11.3725C20.024 10.7425 20.024 9.26344 19.93 8.63346C19.609 6.55961 18.7399 4.71663 17.4011 3.26102C15.8117 1.53934 13.8034 0.463285 11.4976 0.103296C10.9183 0.00938606 9.63813 -0.0297432 9.06266 0.0250378ZM11.572 4.00448C12.2962 4.34881 12.6055 5.13922 12.2884 5.84746C12.171 6.1018 11.846 6.42657 11.5838 6.54396C10.8204 6.89221 9.86127 6.587 9.4972 5.87485C9.35235 5.58921 9.32886 5.104 9.45413 4.77923C9.56375 4.48576 9.90042 4.1336 10.2058 3.99274C10.6286 3.801 11.1492 3.80492 11.572 4.00448ZM10.057 8.06217C10.9731 8.25782 11.4624 8.9191 11.388 9.86211C11.345 10.3904 11.298 10.6017 10.9378 11.889C10.4759 13.5168 10.4172 13.7789 10.4132 14.2289C10.4054 14.7963 10.5268 14.945 11.0514 15.0115C11.3332 15.0467 11.7012 15.0037 12.0261 14.8902C12.1436 14.8511 12.2454 14.8159 12.2493 14.8159C12.2884 14.8159 12.077 15.4967 12.03 15.5202C11.8852 15.6024 10.699 16.025 10.4876 16.0719C10.1901 16.1345 9.46196 16.1345 9.15661 16.068C8.79645 15.9937 8.51459 15.8411 8.2523 15.5789C7.91172 15.2424 7.82951 15.0154 7.82951 14.4246C7.83342 13.865 7.8804 13.6224 8.29928 12.1433C8.7299 10.6134 8.79645 10.3317 8.80037 9.90516C8.80428 9.49821 8.73773 9.33778 8.51068 9.20083C8.39323 9.13431 8.31102 9.12257 7.96261 9.12648C7.62203 9.12648 7.50067 9.14605 7.26579 9.23213L6.98392 9.33387L7.0035 9.24778C7.01524 9.20083 7.05439 9.0404 7.09354 8.89171L7.16009 8.62563L7.3754 8.53955C7.80602 8.36347 8.56157 8.11695 8.81603 8.06608C9.15661 7.99956 9.75948 7.99565 10.057 8.06217Z" fill="#002670"/>
</svg>
