<svg width="32" height="32" viewBox="0 0 32 32" fill="none" xmlns="http://www.w3.org/2000/svg">
<g clip-path="url(#clip0_2788_5192)">
<path d="M22.625 0H9.375C4.19733 0 0 4.19733 0 9.375V22.625C0 27.8027 4.19733 32 9.375 32H22.625C27.8027 32 32 27.8027 32 22.625V9.375C32 4.19733 27.8027 0 22.625 0Z" fill="#002670" fill-opacity="0.8"/>
<path d="M25.8914 20.855L24.1202 19.0844C23.6852 18.6494 23.4408 18.0594 23.4408 17.4444V14.2381C23.4408 10.6712 20.8795 7.70312 17.4964 7.07062V5.62375C17.4964 4.79625 16.8252 4.125 15.9977 4.125C15.1702 4.125 14.4989 4.79625 14.4989 5.62375V7.07062C11.1158 7.70312 8.55453 10.6712 8.55453 14.2381V17.4444C8.55453 18.0594 8.31016 18.6494 7.87516 19.0844L6.10453 20.855C5.82953 21.13 5.67578 21.5025 5.67578 21.8906C5.67578 22.6994 6.33141 23.3556 7.14078 23.3556H12.7652V24.6419C12.7652 26.4275 14.2127 27.875 15.9983 27.875C17.7839 27.875 19.2314 26.4275 19.2314 24.6419V23.3556H24.8558C25.6645 23.3556 26.3208 22.7 26.3208 21.8906C26.3208 21.5019 26.1664 21.1294 25.8914 20.855Z" fill="white"/>
</g>
<defs>
<clipPath id="clip0_2788_5192">
<rect width="32" height="32" fill="white"/>
</clipPath>
</defs>
</svg>
