<svg width="42" height="42" viewBox="0 0 42 42" fill="none" xmlns="http://www.w3.org/2000/svg">
<g filter="url(#filter0_d_1666_4191)">
<circle cx="21" cy="20" r="20" fill="white"/>
<path d="M20.1222 13.102C19.9742 12.6992 19.6778 12.3683 19.2936 12.1772C18.9094 11.986 18.4667 11.9491 18.0562 12.074C16.1102 12.674 14.7502 14.344 15.0422 16.276C15.3708 18.4198 16.0972 20.4832 17.1842 22.36C18.2611 24.2318 19.6733 25.8894 21.3502 27.25C22.8582 28.47 24.9742 28.134 26.4662 26.734C26.78 26.4394 26.9704 26.0368 26.999 25.6073C27.0276 25.1779 26.8922 24.7536 26.6202 24.42L25.5522 23.114C25.3383 22.8514 25.0504 22.6591 24.7258 22.5621C24.4013 22.4651 24.0551 22.4679 23.7322 22.57L21.2682 23.35L20.8382 22.906C20.2966 22.3439 19.8227 21.7203 19.4262 21.048C19.0421 20.3676 18.7426 19.643 18.5342 18.89L18.3682 18.3L20.2682 16.55C20.5196 16.3177 20.6959 16.0156 20.7747 15.6825C20.8534 15.3493 20.8309 15.0003 20.7102 14.68L20.1222 13.102ZM17.4682 10.162C18.3665 9.88716 19.3359 9.96626 20.1778 10.3831C21.0196 10.7999 21.6702 11.523 21.9962 12.404L22.5822 13.98C22.8415 14.6723 22.8887 15.4261 22.7177 16.1453C22.5467 16.8645 22.1653 17.5165 21.6222 18.018L20.6422 18.92C20.7682 19.268 20.9382 19.666 21.1582 20.052C21.3782 20.432 21.6342 20.778 21.8682 21.06L23.1282 20.66C23.8326 20.4376 24.5876 20.4317 25.2954 20.6432C26.0031 20.8546 26.6312 21.2737 27.0982 21.846L28.1662 23.152C28.7597 23.8778 29.0556 24.8019 28.9939 25.7375C28.9323 26.673 28.5178 27.5503 27.8342 28.192C25.8462 30.058 22.6002 30.832 20.0942 28.804C18.2267 27.2893 16.6538 25.4439 15.4542 23.36C14.2414 21.2668 13.4308 18.9652 13.0642 16.574C12.5842 13.388 14.8702 10.962 17.4682 10.164" fill="#002670"/>
</g>
<defs>
<filter id="filter0_d_1666_4191" x="0" y="0" width="42" height="42" filterUnits="userSpaceOnUse" color-interpolation-filters="sRGB">
<feFlood flood-opacity="0" result="BackgroundImageFix"/>
<feColorMatrix in="SourceAlpha" type="matrix" values="0 0 0 0 0 0 0 0 0 0 0 0 0 0 0 0 0 0 127 0" result="hardAlpha"/>
<feOffset dy="1"/>
<feGaussianBlur stdDeviation="0.5"/>
<feComposite in2="hardAlpha" operator="out"/>
<feColorMatrix type="matrix" values="0 0 0 0 0 0 0 0 0 0 0 0 0 0 0 0 0 0 0.25 0"/>
<feBlend mode="normal" in2="BackgroundImageFix" result="effect1_dropShadow_1666_4191"/>
<feBlend mode="normal" in="SourceGraphic" in2="effect1_dropShadow_1666_4191" result="shape"/>
</filter>
</defs>
</svg>
