<svg width="24" height="24" viewBox="0 0 24 24" fill="none" xmlns="http://www.w3.org/2000/svg">
<path d="M3 2.25C3.19891 2.25 3.38968 2.32902 3.53033 2.46967C3.67098 2.61032 3.75 2.80109 3.75 3V18.375C3.75 18.8723 3.94754 19.3492 4.29917 19.7008C4.65081 20.0525 5.12772 20.25 5.625 20.25H21C21.1989 20.25 21.3897 20.329 21.5303 20.4697C21.671 20.6103 21.75 20.8011 21.75 21C21.75 21.1989 21.671 21.3897 21.5303 21.5303C21.3897 21.671 21.1989 21.75 21 21.75H5.625C4.72989 21.75 3.87145 21.3944 3.23851 20.7615C2.60558 20.1285 2.25 19.2701 2.25 18.375V3C2.25 2.80109 2.32902 2.61032 2.46967 2.46967C2.61032 2.32902 2.80109 2.25 3 2.25ZM14.25 6C14.25 5.80109 14.329 5.61032 14.4697 5.46967C14.6103 5.32902 14.8011 5.25 15 5.25H20.25C20.4489 5.25 20.6397 5.32902 20.7803 5.46967C20.921 5.61032 21 5.80109 21 6V11.25C21 11.4489 20.921 11.6397 20.7803 11.7803C20.6397 11.921 20.4489 12 20.25 12C20.0511 12 19.8603 11.921 19.7197 11.7803C19.579 11.6397 19.5 11.4489 19.5 11.25V7.8105L14.0303 13.2803C13.8896 13.4209 13.6989 13.4998 13.5 13.4998C13.3011 13.4998 13.1104 13.4209 12.9697 13.2803L10.5 10.8105L6.53025 14.7803C6.3888 14.9169 6.19935 14.9925 6.0027 14.9908C5.80605 14.989 5.61794 14.9102 5.47889 14.7711C5.33983 14.6321 5.26095 14.4439 5.25924 14.2473C5.25754 14.0507 5.33313 13.8612 5.46975 13.7197L9.96975 9.21975C10.1104 9.07915 10.3011 9.00016 10.5 9.00016C10.6989 9.00016 10.8896 9.07915 11.0302 9.21975L13.5 11.6895L18.4395 6.75H15C14.8011 6.75 14.6103 6.67098 14.4697 6.53033C14.329 6.38968 14.25 6.19891 14.25 6Z" fill="#002670"/>
</svg>
