<svg width="24" height="24" viewBox="0 0 24 24" fill="none" xmlns="http://www.w3.org/2000/svg">
<path d="M12.0017 1.92871C14.2181 1.92871 16.3438 2.80919 17.9111 4.37646C19.4783 5.94373 20.3588 8.0694 20.3588 10.2859C20.3588 13.8173 17.8774 17.6659 12.9788 21.8727C12.7064 22.1067 12.3592 22.2352 12.0001 22.2349C11.641 22.2346 11.2939 22.1055 11.022 21.871L10.698 21.5899C6.01625 17.4927 3.64453 13.7384 3.64453 10.2859C3.64453 8.0694 4.52501 5.94373 6.09228 4.37646C7.65955 2.80919 9.78522 1.92871 12.0017 1.92871ZM12.0017 3.21443C10.1262 3.21443 8.32757 3.95945 7.00142 5.2856C5.67527 6.61175 4.93025 8.41039 4.93025 10.2859C4.93025 13.2876 7.11425 16.7461 11.5422 20.6204L11.862 20.8973C11.9008 20.9307 11.9504 20.9491 12.0017 20.9491C12.0529 20.9491 12.1025 20.9307 12.1414 20.8973C16.7837 16.9099 19.0731 13.3587 19.0731 10.2859C19.0731 9.35722 18.8902 8.43768 18.5348 7.57974C18.1794 6.72179 17.6586 5.94224 17.0019 5.2856C16.3453 4.62896 15.5657 4.10808 14.7078 3.75271C13.8498 3.39733 12.9303 3.21443 12.0017 3.21443ZM12.0017 7.07157C12.8542 7.07157 13.6717 7.41021 14.2745 8.01301C14.8773 8.61581 15.216 9.43337 15.216 10.2859C15.216 11.1383 14.8773 11.9559 14.2745 12.5587C13.6717 13.1615 12.8542 13.5001 12.0017 13.5001C11.1492 13.5001 10.3316 13.1615 9.72883 12.5587C9.12604 11.9559 8.78739 11.1383 8.78739 10.2859C8.78739 9.43337 9.12604 8.61581 9.72883 8.01301C10.3316 7.41021 11.1492 7.07157 12.0017 7.07157ZM12.0017 8.35728C11.4902 8.35728 10.9996 8.56047 10.638 8.92215C10.2763 9.28383 10.0731 9.77436 10.0731 10.2859C10.0731 10.7973 10.2763 11.2879 10.638 11.6496C10.9996 12.0112 11.4902 12.2144 12.0017 12.2144C12.5132 12.2144 13.0037 12.0112 13.3654 11.6496C13.7271 11.2879 13.9302 10.7973 13.9302 10.2859C13.9302 9.77436 13.7271 9.28383 13.3654 8.92215C13.0037 8.56047 12.5132 8.35728 12.0017 8.35728Z" fill="#002670"/>
</svg>
