<svg width="80" height="80" viewBox="0 0 80 80" fill="none" xmlns="http://www.w3.org/2000/svg">
<circle cx="40" cy="40" r="40" fill="#002670"/>
<path d="M41.1767 23.8217C41.022 23.6668 40.8384 23.5439 40.6362 23.46C40.434 23.3762 40.2172 23.333 39.9983 23.333C39.7795 23.333 39.5627 23.3762 39.3605 23.46C39.1583 23.5439 38.9747 23.6668 38.82 23.8217L23.82 38.8217C23.587 39.0548 23.4283 39.3517 23.364 39.675C23.2998 39.9982 23.3328 40.3333 23.4589 40.6378C23.585 40.9423 23.7986 41.2025 24.0726 41.3857C24.3466 41.5688 24.6688 41.6666 24.9983 41.6667H26.665V53.3333C26.665 55.1717 28.16 56.6667 29.9983 56.6667H49.9983C51.8367 56.6667 53.3317 55.1717 53.3317 53.3333V41.6667H54.9983C55.3283 41.6674 55.651 41.5701 55.9255 41.3871C56.2001 41.2041 56.414 40.9436 56.5403 40.6388C56.6666 40.334 56.6994 39.9985 56.6347 39.675C56.5699 39.3514 56.4105 39.0545 56.1767 38.8217L41.1767 23.8217ZM50 53.3333H29.9983V37.3567L39.9983 27.3567L49.9983 37.3567V45L50 53.3333Z" fill="white"/>
<path d="M41.6654 36.667H38.332V41.667H33.332V45.0003H38.332V50.0003H41.6654V45.0003H46.6654V41.667H41.6654V36.667Z" fill="white"/>
</svg>
