<svg width="40" height="40" viewBox="0 0 40 40" fill="none" xmlns="http://www.w3.org/2000/svg">
<circle cx="20" cy="20" r="20" fill="#58B60E" fill-opacity="0.5"/>
<path d="M17.001 24.1998L13.501 20.6998C13.4095 20.6071 13.3005 20.5336 13.1803 20.4834C13.0602 20.4332 12.9313 20.4073 12.801 20.4073C12.6708 20.4073 12.5419 20.4332 12.4217 20.4834C12.3016 20.5336 12.1926 20.6071 12.101 20.6998C12.0084 20.7913 11.9348 20.9003 11.8846 21.0204C11.8344 21.1406 11.8086 21.2695 11.8086 21.3998C11.8086 21.53 11.8344 21.6589 11.8846 21.7791C11.9348 21.8992 12.0084 22.0082 12.101 22.0998L16.291 26.2898C16.681 26.6798 17.311 26.6798 17.701 26.2898L28.301 15.6998C28.3937 15.6082 28.4672 15.4992 28.5174 15.3791C28.5676 15.2589 28.5935 15.13 28.5935 14.9998C28.5935 14.8695 28.5676 14.7406 28.5174 14.6204C28.4672 14.5003 28.3937 14.3913 28.301 14.2998C28.2095 14.2071 28.1005 14.1336 27.9803 14.0834C27.8602 14.0332 27.7313 14.0073 27.601 14.0073C27.4708 14.0073 27.3419 14.0332 27.2217 14.0834C27.1016 14.1336 26.9926 14.2071 26.901 14.2998L17.001 24.1998Z" fill="#58B60E"/>
</svg>
