<svg width="20" height="20" viewBox="0 0 20 20" fill="none" xmlns="http://www.w3.org/2000/svg">
<path d="M8.70504 0.0678272C5.73392 0.468828 3.22026 2.06339 1.56021 4.59206C1.21122 5.12515 0.749048 6.1017 0.527393 6.76218C-0.316781 9.30027 -0.142287 12.0365 1.01315 14.4048C1.86675 16.1456 3.23913 17.6364 4.88975 18.6082C7.79956 20.3207 11.3979 20.4622 14.4115 18.9809C17.8636 17.2873 20 13.8481 20 9.99377C20 7.29527 18.9719 4.80907 17.0808 2.91257C15.4914 1.32272 13.5296 0.360321 11.2611 0.0631104C10.5867 -0.0218086 9.36057 -0.0218086 8.70504 0.0678272ZM7.18647 4.74302C7.32795 4.82794 8.53998 6.22436 8.73334 6.52629C8.8701 6.74331 8.85124 7.12072 8.69089 7.46982C8.52111 7.82837 8.07309 8.39448 7.6958 8.72472C7.54017 8.86153 7.40812 9.00778 7.40812 9.05024C7.40812 9.22007 8.04479 10.0409 8.77578 10.8099C9.47376 11.5459 10.7377 12.5885 10.9405 12.5885C10.9829 12.5885 11.1338 12.4564 11.2706 12.3007C11.6007 11.9233 12.1666 11.4751 12.525 11.3053C12.874 11.1402 13.2513 11.126 13.4683 11.2628C13.7937 11.4751 15.1708 12.6734 15.2604 12.8244C15.3311 12.9517 15.3547 13.0697 15.3547 13.3244C15.35 13.7962 15.1236 14.2585 14.7086 14.6454C13.5343 15.7304 11.6243 15.5653 9.59637 14.2113C8.93613 13.7679 8.50696 13.4046 7.65336 12.5649C6.14422 11.0835 5.31891 9.90413 4.88503 8.6115C4.44172 7.28584 4.6115 6.08755 5.35664 5.28555C5.62074 4.99777 6.02632 4.74774 6.35173 4.66754C6.60639 4.60149 7.00726 4.63923 7.18647 4.74302Z" fill="#002670"/>
</svg>
