<svg width="50" height="50" viewBox="0 0 50 50" fill="none" xmlns="http://www.w3.org/2000/svg">
<circle cx="25" cy="25" r="25" fill="#002670"/>
<path d="M17.355 17.387C18.355 16.552 19.644 16 20.75 16C21.619 16 22.301 16.138 22.857 16.37C23.417 16.605 23.809 16.918 24.112 17.213C24.244 17.343 24.362 17.471 24.459 17.577L24.489 17.61C24.599 17.73 24.676 17.812 24.749 17.877C24.873 17.987 24.929 18 25 18C25.071 18 25.127 17.987 25.25 17.877C25.324 17.812 25.402 17.73 25.511 17.61L25.541 17.577C25.639 17.471 25.756 17.342 25.888 17.213C26.2474 16.8532 26.6738 16.5672 27.143 16.371C27.699 16.138 28.38 16 29.25 16C30.356 16 31.645 16.552 32.645 17.387C33.651 18.227 34.5 19.468 34.5 20.948C34.5 21.726 34.498 23.254 33.127 24.886C32.757 25.471 32.503 26.161 32.5 26.754C32.49 28.68 32.063 30.307 31.417 31.479C30.801 32.599 29.861 33.5 28.75 33.5C28.392 33.5 28.059 33.4 27.774 33.19C27.5217 32.9958 27.3223 32.7414 27.194 32.45C26.955 31.938 26.851 31.276 26.776 30.647C26.7453 30.3812 26.7166 30.1152 26.69 29.849C26.575 28.74 26.456 27.589 26.063 26.553C25.877 26.196 25.557 26 25.25 26H24.75C24.436 26 24.107 26.205 23.924 26.58C23.38 27.69 23.313 28.943 23.248 30.145L23.222 30.613C23.185 31.228 23.127 31.909 22.892 32.439C22.7611 32.7481 22.5463 33.0145 22.272 33.208C21.9685 33.406 21.6123 33.5078 21.25 33.5C20.01 33.5 19.061 32.629 18.46 31.46C17.853 30.28 17.51 28.654 17.5 26.754C17.497 26.222 17.293 25.609 16.976 25.057C16.8989 24.9343 16.8112 24.8185 16.714 24.711C15.5 23.27 15.5 21.68 15.5 20.966V20.948C15.5 19.468 16.349 18.227 17.355 17.387ZM28.75 19C28.5511 19 28.3603 19.079 28.2197 19.2197C28.079 19.3603 28 19.5511 28 19.75C28 19.9489 28.079 20.1397 28.2197 20.2803C28.3603 20.421 28.5511 20.5 28.75 20.5C29.464 20.5 30 21.036 30 21.75C30 21.9489 30.079 22.1397 30.2197 22.2803C30.3603 22.421 30.5511 22.5 30.75 22.5C30.9489 22.5 31.1397 22.421 31.2803 22.2803C31.421 22.1397 31.5 21.9489 31.5 21.75C31.504 21.3877 31.4356 21.0283 31.2989 20.6929C31.1621 20.3574 30.9597 20.0527 30.7035 19.7965C30.4473 19.5403 30.1426 19.3379 29.8071 19.2011C29.4717 19.0644 29.1123 18.996 28.75 19Z" fill="white"/>
</svg>
