<svg width="18" height="18" viewBox="0 0 18 18" fill="none" xmlns="http://www.w3.org/2000/svg">
<path d="M2.0625 8.99959H11.3287M11.3287 8.99959C11.3287 8.56596 11.5018 8.1501 11.8084 7.84347C12.115 7.53685 12.5309 7.36459 12.9645 7.36459C13.3981 7.36459 13.814 7.53685 14.1206 7.84347C14.4272 8.1501 14.5995 8.56596 14.5995 8.99959M11.3287 8.99959C11.3287 9.43322 11.5018 9.84909 11.8084 10.1557C12.115 10.4623 12.5309 10.6346 12.9645 10.6346C13.3981 10.6346 13.814 10.4623 14.1206 10.1557C14.4272 9.84909 14.5995 9.43322 14.5995 8.99959M14.5995 8.99959H15.9375M2.0625 4.04434L6.3735 4.04434M6.3735 4.04434C6.3735 3.61062 6.54617 3.19428 6.85287 2.88758C7.15956 2.58089 7.57552 2.40859 8.00925 2.40859C8.44288 2.40859 8.85875 2.5816 9.16537 2.88822C9.47199 3.19485 9.64425 3.61071 9.64425 4.04434M6.3735 4.04434C6.3735 4.47807 6.54617 4.89366 6.85287 5.20035C7.15956 5.50705 7.57552 5.67934 8.00925 5.67934C8.44288 5.67934 8.85875 5.50709 9.16537 5.20046C9.47199 4.89384 9.64425 4.47797 9.64425 4.04434M9.64425 4.04434H15.9375M2.0625 13.9548L4.39125 13.9548M4.39125 13.9548C4.39125 13.7401 4.43429 13.5275 4.51646 13.3292C4.59862 13.1308 4.71906 12.9505 4.87088 12.7987C5.0227 12.6469 5.20294 12.5265 5.40131 12.4443C5.59968 12.3621 5.81229 12.3198 6.027 12.3198C6.46063 12.3198 6.8765 12.4921 7.18312 12.7987C7.48974 13.1053 7.662 13.5212 7.662 13.9548M4.39125 13.9548C4.39125 14.1696 4.43429 14.3822 4.51646 14.5805C4.59862 14.7789 4.71906 14.9591 4.87088 15.111C5.0227 15.2628 5.20294 15.3832 5.40131 15.4654C5.59968 15.5476 5.81229 15.5898 6.027 15.5898C6.46063 15.5898 6.8765 15.4176 7.18312 15.111C7.48974 14.8043 7.662 14.3885 7.662 13.9548M7.662 13.9548H15.9375" stroke="black" stroke-miterlimit="10" stroke-linecap="round"/>
</svg>
