<svg width="20" height="20" viewBox="0 0 20 20" fill="none" xmlns="http://www.w3.org/2000/svg">
<path d="M10 0C4.477 0 0 4.477 0 10C0 15.523 4.477 20 10 20C15.523 20 20 15.523 20 10C20 4.477 15.523 0 10 0ZM11 16H9V14H11V16ZM11 11.859V13H9V11C9 10.7348 9.10536 10.4804 9.29289 10.2929C9.48043 10.1054 9.73478 10 10 10C11.103 10 12 9.103 12 8C12 6.897 11.103 6 10 6C8.897 6 8 6.897 8 8H6C6 6.93913 6.42143 5.92172 7.17157 5.17157C7.92172 4.42143 8.93913 4 10 4C11.0609 4 12.0783 4.42143 12.8284 5.17157C13.5786 5.92172 14 6.93913 14 8C13.9984 8.88478 13.7029 9.74396 13.1599 10.4425C12.6168 11.141 11.8571 11.6393 11 11.859Z" fill="#002670"/>
</svg>
