<svg width="16" height="16" viewBox="0 0 16 16" fill="none" xmlns="http://www.w3.org/2000/svg">
<path fill-rule="evenodd" clip-rule="evenodd" d="M3.33333 4.16699C2.8471 4.16699 2.38079 4.36015 2.03697 4.70396C1.69315 5.04778 1.5 5.5141 1.5 6.00033V12.0003C1.5 12.4866 1.69315 12.9529 2.03697 13.2967C2.38079 13.6405 2.8471 13.8337 3.33333 13.8337H12.6667C13.1529 13.8337 13.6192 13.6405 13.963 13.2967C14.3068 12.9529 14.5 12.4866 14.5 12.0003V6.00033C14.5 5.5141 14.3068 5.04778 13.963 4.70396C13.6192 4.36015 13.1529 4.16699 12.6667 4.16699H3.33333ZM11 8.16699C10.779 8.16699 10.567 8.25479 10.4107 8.41107C10.2545 8.56735 10.1667 8.77931 10.1667 9.00033C10.1667 9.22134 10.2545 9.4333 10.4107 9.58958C10.567 9.74586 10.779 9.83366 11 9.83366C11.221 9.83366 11.433 9.74586 11.5893 9.58958C11.7455 9.4333 11.8333 9.22134 11.8333 9.00033C11.8333 8.77931 11.7455 8.56735 11.5893 8.41107C11.433 8.25479 11.221 8.16699 11 8.16699Z" fill="white"/>
<path d="M10.99 2.04594C11.1874 1.99334 11.3942 1.98679 11.5945 2.02681C11.7949 2.06683 11.9833 2.15234 12.1453 2.27674C12.3074 2.40115 12.4386 2.56111 12.529 2.7443C12.6194 2.92749 12.6665 3.129 12.6667 3.33327H6L10.99 2.04594Z" fill="white"/>
</svg>
