<svg width="24" height="24" viewBox="0 0 24 24" fill="none" xmlns="http://www.w3.org/2000/svg">
<path d="M11.9604 17.9862H18.7704C19.0356 18.0011 19.3002 17.9478 19.5389 17.8314C19.7777 17.715 19.9826 17.5393 20.1342 17.3212C20.2858 17.1032 20.3791 16.8499 20.405 16.5855C20.4309 16.3212 20.3887 16.0546 20.2824 15.8112C19.9224 14.7232 18.4874 13.4182 18.4874 12.1342C18.4874 9.28422 18.4874 8.53422 17.0834 6.85822C16.6291 6.31875 16.0657 5.88151 15.4304 5.57522L14.6474 5.19522C14.516 5.11592 14.4027 5.01 14.3147 4.88428C14.2267 4.75856 14.166 4.61581 14.1364 4.46522C14.0582 3.95763 13.7898 3.4988 13.3857 3.18181C12.9816 2.86481 12.4721 2.71338 11.9604 2.75822C11.458 2.72805 10.9624 2.88623 10.5704 3.20188C10.1784 3.51752 9.91813 3.96796 9.84042 4.46522C9.80517 4.62101 9.73611 4.76715 9.63813 4.8933C9.54015 5.01944 9.41564 5.12252 9.27342 5.19522L8.49042 5.57522C7.85546 5.88163 7.29247 6.31886 6.83842 6.85822C5.43542 8.53422 5.43542 9.28422 5.43542 12.1342C5.43542 13.4182 4.06542 14.5922 3.70542 15.7452C3.48842 16.4422 3.36842 17.9862 5.18542 17.9862H11.9604Z" stroke="#002670" stroke-width="1.5" stroke-linecap="round" stroke-linejoin="round"/>
<path d="M15.225 17.9863C15.2335 18.4172 15.155 18.8453 14.994 19.2451C14.8331 19.6448 14.5931 20.008 14.2883 20.3127C13.9836 20.6174 13.6205 20.8575 13.2207 21.0184C12.821 21.1794 12.3928 21.2579 11.962 21.2493C11.531 21.2585 11.1026 21.1803 10.7027 21.0195C10.3027 20.8588 9.93942 20.6188 9.63467 20.3139C9.32991 20.0091 9.08999 19.6457 8.92935 19.2457C8.76872 18.8457 8.69069 18.4173 8.69996 17.9863" stroke="#002670" stroke-width="1.5" stroke-linecap="round" stroke-linejoin="round"/>
</svg>
