<svg width="80" height="80" viewBox="0 0 80 80" fill="none" xmlns="http://www.w3.org/2000/svg">
<circle cx="40" cy="40" r="40" fill="#002670"/>
<path d="M21.9905 22.6904C21.9742 22.6611 21.964 22.6287 21.9602 22.5953C21.9565 22.5619 21.9594 22.5282 21.9689 22.4959C21.9783 22.4637 21.994 22.4336 22.0151 22.4074C22.0362 22.3813 22.0622 22.3596 22.0918 22.3436L23.948 21.3323C23.9774 21.3161 24.0098 21.3059 24.0432 21.3023C24.0766 21.2986 24.1104 21.3017 24.1426 21.3112C24.1748 21.3208 24.2048 21.3366 24.2308 21.3578C24.2569 21.379 24.2784 21.4052 24.2943 21.4348L25.0387 22.7929C27.853 21.9492 30.9712 23.1492 32.4355 25.8311L28.8387 27.7948C29.1243 28.3187 29.1902 28.9346 29.0218 29.5071C28.8534 30.0795 28.4644 30.5616 27.9405 30.8473C27.4166 31.133 26.8007 31.1989 26.2283 31.0304C25.6558 30.862 25.1737 30.4731 24.888 29.9492L21.2899 31.9104C19.8243 29.2298 20.4974 25.9586 22.7337 24.0492L21.9905 22.6904ZM47.3324 47.1542H59.438V59.6679H47.3324V47.1542ZM45.9449 53.4086H36.168C35.3487 53.4084 34.5629 53.083 33.9833 52.5039C33.4036 51.9247 33.0776 51.1392 33.0768 50.3198C33.0773 49.5004 33.4032 48.7147 33.9829 48.1356C34.5626 47.5565 35.3486 47.2314 36.168 47.2317H45.9449V53.4086ZM24.8655 55.9142C24.8655 55.2236 25.4249 54.6629 26.1162 54.6629H45.9443V59.6667H24.8655V55.9136V55.9142ZM32.3843 49.6798C32.3833 50.6694 31.9893 51.6181 31.2891 52.3173C30.5888 53.0166 29.6395 53.4091 28.6499 53.4086C28.1598 53.409 27.6745 53.3129 27.2215 53.1257C26.7686 52.9385 26.357 52.664 26.0102 52.3177C25.6633 51.9715 25.3881 51.5603 25.2002 51.1077C25.0122 50.6551 24.9153 50.1699 24.9149 49.6798C24.9149 47.6217 26.5868 45.9529 28.6499 45.9529C30.7118 45.9529 32.3843 47.6217 32.3843 49.6798ZM52.7968 39.2379L50.6962 33.2573C50.2887 32.1298 49.5062 31.2498 47.2974 31.2498H37.5999C35.3918 31.2498 34.608 32.1298 34.2024 33.2573L32.1024 39.2379C31.9455 39.6242 31.8643 40.4923 32.7187 41.0736L37.6568 44.3273C38.0031 44.5556 38.4257 44.6373 38.8322 44.5545C39.2386 44.4717 39.5956 44.2311 39.8249 43.8854C39.938 43.7139 40.0162 43.5217 40.055 43.3199C40.0938 43.1181 40.0925 42.9107 40.0511 42.7094C40.0097 42.5081 39.9291 42.3169 39.8138 42.1468C39.6986 41.9767 39.5509 41.831 39.3793 41.7179L35.4599 39.1348L36.563 36.0917H38.0899L37.1955 38.5604L40.1712 40.5217C40.5005 40.7374 40.7838 41.0164 41.0045 41.3424C41.2252 41.6685 41.3789 42.0351 41.4568 42.4211C41.5376 42.8069 41.541 43.2048 41.4667 43.592C41.3925 43.9791 41.2421 44.3476 41.0243 44.6761C40.8497 44.9365 40.6354 45.168 40.3893 45.3623H44.5093C44.2636 45.1674 44.0492 44.936 43.8737 44.6761C43.6559 44.3475 43.5055 43.979 43.4311 43.592C43.3566 43.2049 43.3596 42.807 43.4399 42.4211C43.5183 42.0352 43.6723 41.6687 43.893 41.3427C44.1138 41.0167 44.397 40.7377 44.7262 40.5217L47.7037 38.5604L46.8055 36.0917H48.3337L49.4393 39.1348L45.518 41.7179C44.7974 42.1929 44.5962 43.1661 45.073 43.8854C45.5499 44.6048 46.5212 44.8036 47.2418 44.3273L52.1793 41.0736C53.0343 40.4917 52.953 39.6242 52.7968 39.2379ZM43.4137 25.3967C43.2956 25.6528 43.1067 25.8698 42.8692 26.0218C42.6317 26.1739 42.3557 26.2548 42.0737 26.2548C41.7912 26.2549 41.5147 26.1742 41.2766 26.0221C41.0386 25.87 40.8491 25.653 40.7305 25.3967H38.0255C37.9818 25.6342 37.9562 25.8773 37.9562 26.1279C37.957 27.2231 38.3927 28.273 39.1676 29.0469C39.9424 29.8208 40.9929 30.2553 42.088 30.2548C42.6304 30.2552 43.1675 30.1488 43.6687 29.9416C44.1698 29.7344 44.6253 29.4306 45.0091 29.0473C45.3928 28.6641 45.6973 28.2091 45.9052 27.7081C46.113 27.2072 46.2202 26.6703 46.2205 26.1279C46.2205 25.8767 46.1937 25.6342 46.1518 25.3967H43.4137ZM40.6393 24.4223C40.7199 24.103 40.9048 23.8197 41.1646 23.6173C41.4244 23.4149 41.7443 23.3049 42.0737 23.3048C42.7649 23.3048 43.348 23.7823 43.5055 24.4223H45.8493C45.5212 23.7001 44.9921 23.0876 44.3252 22.658C43.6583 22.2285 42.8819 21.9999 42.0887 21.9998C41.2954 22.0001 40.5191 22.2287 39.8522 22.6582C39.1854 23.0878 38.6563 23.7002 38.328 24.4223H40.6393Z" fill="white"/>
</svg>
