<svg width="20" height="20" viewBox="0 0 20 20" fill="none" xmlns="http://www.w3.org/2000/svg">
<path d="M11.1246 9.5397C13.7185 9.5397 16.3124 9.5397 18.9848 9.5397C18.9899 11.8005 18.9899 11.8005 18.9909 12.7476C18.9912 12.964 18.9914 13.1804 18.9917 13.3968C18.9917 13.4239 18.9918 13.451 18.9918 13.479C18.9923 13.9164 18.9933 14.3538 18.9945 14.7912C18.9956 15.2404 18.9963 15.6895 18.9966 16.1387C18.9967 16.3909 18.9971 16.643 18.998 16.8952C18.9989 17.1327 18.9991 17.3702 18.9989 17.6076C18.999 17.6947 18.9992 17.7817 18.9997 17.8688C19.0003 17.9879 19.0002 18.107 18.9998 18.2261C19.0002 18.2603 19.0006 18.2945 19.0009 18.3297C18.9973 18.8061 18.8013 19.2125 18.4598 19.5624C18.1502 19.8384 17.7689 19.9862 17.3461 19.9859C17.2914 19.986 17.2367 19.986 17.1803 19.9861C17.1196 19.9859 17.0588 19.9858 16.998 19.9857C16.933 19.9856 16.868 19.9857 16.803 19.9857C16.629 19.9857 16.455 19.9855 16.2809 19.9852C16.1176 19.985 15.9543 19.985 15.791 19.9849C15.3134 19.9847 14.8358 19.9842 14.3581 19.9837C13.2911 19.9829 12.224 19.9821 11.1246 19.9812C11.1246 16.5355 11.1246 13.0898 11.1246 9.5397Z" fill="#BEBBBB"/>
<path d="M1.01867 9.5397C3.61254 9.5397 6.2064 9.5397 8.87887 9.5397C8.87887 12.9854 8.87887 16.4311 8.87887 19.9812C7.81782 19.9845 6.75677 19.9877 5.66357 19.991C5.16176 19.9931 5.16176 19.9931 4.6498 19.9953C4.24005 19.996 4.24005 19.996 4.04798 19.9961C3.91436 19.9963 3.78075 19.9968 3.64713 19.9977C3.47627 19.9988 3.30542 19.9991 3.13455 19.9989C3.07211 19.9989 3.00967 19.9992 2.94723 19.9998C2.36473 20.0052 1.93868 19.8939 1.51383 19.5137C1.13366 19.1416 1.01192 18.7511 1.01367 18.2495C1.01363 18.2123 1.0136 18.1751 1.01356 18.1367C1.01349 18.0119 1.01372 17.887 1.01395 17.7622C1.01396 17.6727 1.01395 17.5832 1.01393 17.4938C1.01392 17.2508 1.01416 17.0078 1.01445 16.7648C1.01471 16.5109 1.01474 16.2569 1.01479 16.003C1.0149 15.5768 1.01516 15.1506 1.01553 14.7244C1.01592 14.2854 1.01621 13.8465 1.01639 13.4075C1.0164 13.3802 1.01641 13.3528 1.01642 13.3247C1.01652 13.0868 1.01661 12.849 1.01669 12.6112C1.01709 11.5873 1.01791 10.5635 1.01867 9.5397Z" fill="#BEBBBB"/>
<path d="M2.05652 4.54385C2.13116 4.54387 2.2058 4.54386 2.28044 4.54381C2.48181 4.54379 2.68319 4.54425 2.88457 4.54479C3.09549 4.54528 3.3064 4.54533 3.51732 4.54542C3.91616 4.54566 4.31501 4.5463 4.71385 4.54708C5.2532 4.54812 5.79255 4.54854 6.3319 4.54899C7.18089 4.54972 8.02987 4.55128 8.87885 4.55269C8.87885 6.00555 8.87885 7.4584 8.87885 8.95528C6.88983 8.96156 6.88983 8.96156 6.05669 8.96289C5.4813 8.96382 4.90591 8.9649 4.33053 8.96704C3.91149 8.96859 3.49245 8.9696 3.07341 8.96994C2.85155 8.97015 2.6297 8.97062 2.40784 8.97176C2.19893 8.97282 1.99004 8.97314 1.78113 8.97291C1.70454 8.97295 1.62796 8.97326 1.55138 8.97386C1.44658 8.97464 1.34183 8.97445 1.23703 8.97402C1.20693 8.97448 1.17683 8.97493 1.14582 8.9754C0.839054 8.97206 0.571984 8.84313 0.353234 8.64359C0.136097 8.37829 0.0109301 8.14608 0.00844443 7.80573C0.00791377 7.75618 0.00738312 7.70663 0.00683638 7.65558C0.00670919 7.60195 0.00661656 7.54833 0.00655589 7.4947C0.00628823 7.4391 0.00600838 7.38349 0.00571697 7.32789C0.00522016 7.21153 0.00506471 7.09518 0.00511411 6.97882C0.00512255 6.83053 0.00398787 6.68227 0.00255466 6.53398C0.00162472 6.41916 0.00146121 6.30435 0.00150505 6.18953C0.00140761 6.1349 0.00104377 6.08027 0.000396106 6.02565C-0.00302451 5.70734 0.0122154 5.45378 0.18688 5.17607C0.214704 5.12944 0.214704 5.12944 0.24309 5.08186C0.479916 4.77357 0.773611 4.63305 1.1665 4.56896C1.4619 4.53543 1.75943 4.54261 2.05652 4.54385Z" fill="#BEBBBB"/>
<path d="M11.1246 4.55272C13.0043 4.54958 13.0043 4.54958 13.7929 4.54892C14.337 4.54845 14.8812 4.54791 15.4253 4.54684C15.8217 4.54606 16.218 4.54556 16.6143 4.54539C16.8241 4.54529 17.0338 4.54505 17.2436 4.54448C17.4413 4.54395 17.6389 4.54379 17.8366 4.54391C17.9089 4.54389 17.9812 4.54373 18.0535 4.54343C19.1326 4.53917 19.1326 4.53917 19.5671 4.86441C19.9538 5.2335 20.0022 5.59157 19.9995 6.09031C19.9996 6.14493 19.9997 6.19955 19.9999 6.25417C20.0001 6.36823 19.9998 6.48228 19.9992 6.59633C19.9985 6.74165 19.9989 6.88694 19.9997 7.03226C20.0001 7.14494 20 7.25762 19.9997 7.3703C19.9996 7.42384 19.9997 7.47737 20 7.53091C20.0021 8.02033 19.9437 8.31804 19.5789 8.67588C19.3326 8.89519 19.1305 8.96125 18.7915 8.95999C18.7587 8.96003 18.726 8.96006 18.6923 8.96009C18.5824 8.96016 18.4724 8.95994 18.3624 8.95973C18.2838 8.95972 18.2051 8.95973 18.1264 8.95975C17.9124 8.95976 17.6985 8.95953 17.4846 8.95926C17.2611 8.95902 17.0376 8.95899 16.8142 8.95895C16.3909 8.95882 15.9676 8.9585 15.5442 8.95811C14.9723 8.9576 14.4004 8.95739 13.8285 8.95716C12.9272 8.95679 12.0259 8.95602 11.1246 8.95531C11.1246 7.50245 11.1246 6.0496 11.1246 4.55272Z" fill="#BEBBBB"/>
<path d="M16.1906 0.298674C16.4839 0.479886 16.6519 0.736593 16.7889 1.03239C16.804 1.06394 16.819 1.09549 16.8345 1.128C16.866 1.19434 16.8973 1.26077 16.9283 1.32731C16.9754 1.42808 17.0232 1.52851 17.0712 1.6289C17.1019 1.69384 17.1326 1.7588 17.1632 1.82378C17.1773 1.8533 17.1913 1.88282 17.2058 1.91323C17.4933 2.53253 17.5868 3.1584 17.3187 3.80272C17.2469 3.96008 17.2469 3.96008 17.1965 4.00727C17.1313 4.01101 17.0659 4.01202 17.0005 4.01195C16.9581 4.01201 16.9157 4.01206 16.872 4.01212C16.8251 4.01198 16.7782 4.01184 16.7299 4.01169C16.6808 4.0117 16.6317 4.0117 16.5811 4.01171C16.4461 4.01169 16.3112 4.01149 16.1762 4.01122C16.0352 4.01098 15.8943 4.01095 15.7534 4.01091C15.4864 4.01078 15.2193 4.01046 14.9523 4.01007C14.6484 4.00964 14.3444 4.00942 14.0405 4.00923C13.4151 4.00882 12.7897 4.00814 12.1643 4.00727C12.1702 3.97799 12.1761 3.94872 12.1821 3.91856C12.1897 3.88008 12.1973 3.84159 12.2052 3.80194C12.2127 3.76383 12.2203 3.72572 12.2281 3.68645C12.2508 3.5603 12.26 3.43875 12.2605 3.31084C12.2612 3.26996 12.2619 3.22908 12.2626 3.18696C12.2405 2.96169 12.181 2.74596 12.1228 2.52675C12.1616 2.52628 12.1616 2.52628 12.2012 2.5258C12.4732 2.52242 12.7451 2.51854 13.017 2.51439C13.1182 2.5129 13.2194 2.51155 13.3206 2.51032C13.4669 2.50852 13.6132 2.50626 13.7595 2.50392C13.804 2.50347 13.8485 2.50302 13.8944 2.50256C14.5309 2.49117 15.1531 2.39744 15.6358 1.97399C15.8635 1.72091 16.062 1.46127 16.0321 1.12416C15.9217 0.91328 15.7932 0.833269 15.5746 0.734549C15.4222 0.687377 15.2716 0.686331 15.1119 0.683413C15.0603 0.681957 15.0088 0.6805 14.9556 0.678999C14.5787 0.697388 14.2551 0.908011 13.9543 1.10285C13.8974 1.13903 13.8974 1.13903 13.8394 1.17594C13.7192 1.25249 13.5994 1.32954 13.4796 1.40663C13.3996 1.45775 13.3195 1.50883 13.2395 1.55988C13.0869 1.65721 12.9344 1.75463 12.782 1.85217C12.7475 1.87425 12.713 1.89633 12.6774 1.91908C12.6162 1.95825 12.5551 1.99744 12.4939 2.03667C12.4226 2.08231 12.3512 2.1277 12.2797 2.17306C12.2238 2.20867 12.2238 2.20867 12.1668 2.24501C12.0812 2.29299 12.0812 2.29299 11.998 2.29299C11.9171 2.20335 11.9171 2.20335 11.8264 2.08601C11.7963 2.04759 11.7662 2.00917 11.7351 1.96958C11.6653 1.86442 11.6653 1.86442 11.6653 1.74753C11.7287 1.69321 11.7287 1.69321 11.8189 1.63673C11.8694 1.6047 11.8694 1.6047 11.9209 1.57202C11.9579 1.54913 11.9949 1.52624 12.0331 1.50266C12.0712 1.47867 12.1093 1.45468 12.1486 1.42996C12.2714 1.35281 12.3946 1.27624 12.5178 1.19965C12.5984 1.14908 12.6789 1.09847 12.7594 1.04783C13.1136 0.825618 13.4691 0.605549 13.8298 0.392728C13.856 0.37722 13.8821 0.361712 13.909 0.345733C14.6141 -0.065686 15.4747 -0.11413 16.1906 0.298674Z" fill="#BEBBBB"/>
<path d="M6.28231 0.446481C6.38783 0.511514 6.49247 0.577608 6.59682 0.644283C6.63488 0.668384 6.67294 0.692485 6.71215 0.717316C6.83234 0.793493 6.95233 0.869936 7.07233 0.946382C7.15286 0.997459 7.23341 1.04852 7.31398 1.09956C7.6711 1.32611 8.02699 1.554 8.37976 1.78648C8.36188 1.80842 8.344 1.83035 8.32557 1.85296C8.20967 1.99546 8.09942 2.13649 8.00546 2.29297C7.86362 2.24368 7.74322 2.18721 7.61834 2.10743C7.58429 2.08582 7.55025 2.06421 7.51518 2.04195C7.47883 2.01861 7.44248 1.99528 7.40503 1.97124C7.36692 1.94701 7.3288 1.92278 7.28953 1.89782C7.16761 1.82029 7.04588 1.74253 6.92417 1.66472C5.85938 0.911386 5.85938 0.911386 4.59522 0.695571C4.35415 0.74245 4.14606 0.849943 3.99999 1.03891C3.94435 1.20475 3.93909 1.333 4.01997 1.4929C4.08298 1.59381 4.14999 1.69031 4.22092 1.78648C4.25095 1.82746 4.28097 1.86844 4.3119 1.91067C4.86381 2.42771 5.52584 2.48924 6.26428 2.5001C6.31077 2.50091 6.35726 2.50172 6.40515 2.50256C6.55216 2.50508 6.69918 2.50739 6.84619 2.50969C6.94648 2.51138 7.04677 2.51307 7.14705 2.51479C7.3916 2.51894 7.63615 2.52291 7.8807 2.52674C7.87184 2.56008 7.86299 2.59342 7.85386 2.62777C7.76685 2.96529 7.76685 2.96529 7.74294 3.31082C7.7431 3.35191 7.74326 3.39299 7.74343 3.43532C7.76021 3.62765 7.80226 3.81739 7.83911 4.00725C6.17849 4.00725 4.51786 4.00725 2.80692 4.00725C2.52812 3.48488 2.44052 2.98168 2.59898 2.40985C2.66984 2.21965 2.75306 2.03652 2.84069 1.85264C2.89822 1.73024 2.95332 1.60696 3.00853 1.48362C3.0513 1.38974 3.09414 1.29589 3.13703 1.20206C3.16681 1.13512 3.16681 1.13512 3.1972 1.06682C3.38058 0.672463 3.59875 0.371332 4.02338 0.189079C4.07249 0.167383 4.12159 0.145686 4.17219 0.123332C4.89597 -0.157243 5.65664 0.0795397 6.28231 0.446481Z" fill="#BEBBBB"/>
<path d="M10.9947 1.97399C11.3681 2.22723 11.622 2.60694 11.7069 3.03324C11.733 3.3615 11.704 3.65826 11.5821 3.96831C11.5405 4.00727 11.5405 4.00727 11.4187 4.01195C11.3641 4.01187 11.3095 4.01178 11.2533 4.01169C11.2232 4.0117 11.1932 4.0117 11.1623 4.01171C11.0626 4.01168 10.9629 4.01138 10.8632 4.01107C10.7943 4.011 10.7253 4.01094 10.6564 4.01091C10.4746 4.01076 10.2928 4.01037 10.111 4.00994C9.92564 4.00955 9.74027 4.00937 9.5549 4.00917C9.19092 4.00875 8.82694 4.00809 8.46296 4.00727C8.25653 3.56432 8.22307 3.1361 8.40805 2.67681C8.62816 2.23146 8.96085 1.94563 9.4502 1.77584C9.98265 1.6156 10.5236 1.69918 10.9947 1.97399Z" fill="#BEBBBB"/>
</svg>
