<svg width="24" height="24" viewBox="0 0 24 24" fill="none" xmlns="http://www.w3.org/2000/svg">
<path d="M2.12785 0.0474815C1.12798 0.192804 0.259341 0.858477 0.0656165 1.63666C-0.0218722 1.97887 -0.0218722 22.0147 0.0656165 22.3569C0.26559 23.1538 1.12798 23.8008 2.18409 23.9508C2.64653 24.0164 21.3628 24.0164 21.8128 23.9508C22.8751 23.8008 23.7375 23.1538 23.9375 22.3616C23.975 22.1975 24 19.1598 24 13.7688C24 6.44169 23.9875 5.40568 23.9063 5.27442C23.7813 5.07753 17.1446 0.108423 16.9197 0.0474815C16.701 -0.0181484 2.54654 -0.0134602 2.12785 0.0474815ZM20.2067 5.00253C18.357 5.01659 18.157 4.98846 17.7508 4.68844C17.3509 4.38842 17.3134 4.23841 17.3134 2.84143V1.70698L19.5006 3.34772L21.6878 4.98846L20.2067 5.00253ZM10.4518 4.15872L10.658 4.30873L10.6767 5.15254L10.7017 5.99166L11.8266 6.00573L12.9514 6.01979L13.1327 6.17449L13.3139 6.3245V7.49646V8.66842L13.1327 8.81843L12.9514 8.97313L11.8266 8.98719L10.7017 9.00126L10.6767 9.84038L10.658 10.6842L10.4518 10.8342L10.2518 10.9889L8.92071 11.003C7.33342 11.0217 7.1022 11.003 6.86473 10.8248L6.68975 10.6936V9.84507V8.99657H5.62739C3.96511 8.99657 4.0026 9.03407 4.0026 7.49646C4.0026 5.95885 3.96511 5.99635 5.62739 5.99635H6.68975V5.15723C6.68975 4.38373 6.70225 4.31342 6.82099 4.19622C6.88973 4.13059 7.03971 4.05558 7.14594 4.03214C7.25843 4.00402 8.00208 3.98995 8.79573 3.99464L10.2518 4.00402L10.4518 4.15872ZM6.62726 13.0844C7.8521 13.3703 8.37078 14.4813 7.65213 15.3111C7.28343 15.7424 6.68975 15.9814 6.00234 15.9814C5.31493 15.9814 4.72126 15.7424 4.35256 15.3111C3.83388 14.711 3.92761 13.9376 4.58378 13.4594C5.16495 13.0375 5.86486 12.9109 6.62726 13.0844ZM19.7443 14.1344C19.9818 14.2845 20.0505 14.5095 19.913 14.711C19.7068 15.0111 19.8693 15.0017 15.2449 14.9876L11.0517 14.9736L10.8705 14.8189C10.6142 14.6032 10.6205 14.3548 10.883 14.1579L11.0767 14.0126H15.3136H19.5506L19.7443 14.1344ZM6.82724 18.1472C8.07082 18.5785 8.37703 19.8255 7.40841 20.5521C6.64601 21.1193 5.35868 21.1193 4.59628 20.5521C4.10884 20.1864 3.90262 19.5958 4.08384 19.1176C4.44005 18.2082 5.70238 17.7628 6.82724 18.1472ZM19.7006 19.0895C20.063 19.2723 20.063 19.7223 19.7006 19.9052C19.5443 19.9849 19.2881 19.9896 15.5636 20.0036C13.3826 20.013 11.4704 20.0036 11.3204 19.9896C10.9392 19.9474 10.6892 19.7552 10.6892 19.5067C10.6892 19.2817 10.8705 19.0942 11.1454 19.0332C11.2642 19.0051 13.0452 18.991 15.4386 18.9957C19.2944 19.0051 19.5443 19.0098 19.7006 19.0895Z" fill="#002670"/>
</svg>
