<svg width="20" height="20" viewBox="0 0 20 20" fill="none" xmlns="http://www.w3.org/2000/svg">
<path d="M8.0009 0.0213108C5.6008 0.166267 3.43091 0.746094 2.03263 1.61157C1.03508 2.23403 0.408414 2.94176 0.131316 3.75181C-0.0349424 4.24211 -0.0349424 4.84325 0.131316 5.32928C0.391362 6.09244 0.954084 6.75753 1.81948 7.32883C4.13858 8.86367 8.26094 9.46481 12.1361 8.84235C13.756 8.58228 15.312 8.02803 16.3735 7.32457C16.8723 6.99628 17.5416 6.34824 17.759 5.98159C18.326 5.01805 18.326 4.06304 17.759 3.09951C17.5373 2.72433 16.8723 2.08055 16.3693 1.75226C15.0221 0.873997 13.189 0.30696 10.9765 0.0852623C10.1921 0.00852013 8.73841 -0.0255871 8.0009 0.0213108Z" fill="#002670"/>
<path d="M0.0162212 8.45022C0.0588516 8.76572 0.156902 9.10679 0.267741 9.32423C1.03509 10.8548 3.19219 12.0187 6.13796 12.492C7.23782 12.6668 7.77497 12.7051 9.15193 12.7009C10.4991 12.7009 11.1428 12.6497 12.2213 12.4664C14.8005 12.0315 16.8339 10.9998 17.7036 9.69088C17.921 9.36686 18.1214 8.85525 18.1683 8.50991C18.2024 8.24984 18.2365 8.24131 17.7633 8.59518C16.4801 9.55019 14.6342 10.275 12.5624 10.6331C11.3005 10.8505 10.968 10.8719 9.1093 10.8719C7.2975 10.8719 6.94367 10.8505 5.83102 10.6757C3.56308 10.3176 1.5765 9.54592 0.310371 8.53123C0.148376 8.39906 0.00769506 8.29247 0.00343201 8.29247C-0.00509408 8.29247 0.00343201 8.36495 0.0162212 8.45022Z" fill="#002670"/>
<path d="M19.3491 10.5009C18.812 11.4346 17.7036 12.3896 16.4247 13.0334C14.5276 13.9841 12.3748 14.4531 9.47166 14.5427C7.04599 14.6151 4.64589 14.2101 2.51011 13.3702L2.28416 13.2807L2.3609 13.4171C2.50158 13.6644 3.17088 14.2911 3.59718 14.5768C4.6331 15.2632 6.10385 15.8089 7.7025 16.0903C9.39919 16.393 11.6884 16.4356 13.4363 16.1969C16.949 15.7151 19.4429 14.2826 19.9204 12.4706C20.0653 11.9079 19.9929 11.2044 19.7243 10.6587C19.5111 10.2195 19.5111 10.2195 19.3491 10.5009Z" fill="#002670"/>
<path d="M1.81948 15.6128C1.81948 15.6554 1.84932 15.8217 1.88343 15.9837C2.25431 17.736 4.51799 19.1813 7.76643 19.7398C10.8145 20.2642 14.2932 19.9828 16.6975 19.015C18.326 18.3627 19.4344 17.429 19.8309 16.3759C19.9289 16.1116 20.0355 15.5829 19.9886 15.5829C19.9801 15.5829 19.8351 15.6852 19.6646 15.8132C19.1658 16.1883 18.8418 16.3845 18.1683 16.717C16.8254 17.3778 15.376 17.7914 13.5898 18.0131C9.07945 18.5759 4.61604 17.6933 2.13068 15.7492C1.98148 15.6341 1.85359 15.5403 1.8408 15.5403C1.82801 15.5403 1.81948 15.5744 1.81948 15.6128Z" fill="#002670"/>
</svg>
