<svg width="20" height="20" viewBox="0 0 20 20" fill="none" xmlns="http://www.w3.org/2000/svg">
<path d="M8.67808 0.0544491C5.25527 0.547955 2.39197 2.63478 0.939156 5.69452C0.539515 6.53583 0.276222 7.36774 0.088156 8.39705C-0.0293853 9.03626 -0.0293853 10.9539 0.088156 11.5931C0.4972 13.8068 1.39992 15.5599 2.91385 17.0734C4.42308 18.5821 6.20031 19.4986 8.37247 19.8934C8.94137 19.9968 10.4506 20.0344 11.0806 19.9639C13.8593 19.6443 16.3747 18.2061 18.0203 15.9923C18.9935 14.6904 19.5859 13.3039 19.8915 11.6166C20.0138 10.9492 20.0373 9.53916 19.9385 8.77305C19.3884 4.4208 16.1396 0.961559 11.8423 0.143749C11.2922 0.0403481 11.0336 0.0168476 10.1591 0.00274849C9.45385 -0.00665283 8.98369 0.0074482 8.67808 0.0544491ZM10.7045 3.8615C12.0868 4.78741 13.6806 5.36081 15.1805 5.47361C15.6929 5.51122 15.7494 5.52532 15.8622 5.64282L15.9892 5.76502L16.0033 8.32655C16.0127 10.3899 16.0033 10.9727 15.9468 11.344C15.6459 13.3415 14.447 14.9865 12.6416 15.8889C11.2358 16.5892 9.48676 16.6973 8.01044 16.1709C6.13919 15.5035 4.69578 13.9525 4.1927 12.0725C3.99053 11.3158 3.97172 10.9445 3.98583 8.27015L3.99993 5.76502L4.12688 5.64282C4.23972 5.52532 4.29614 5.51122 4.80862 5.47361C6.31315 5.36081 7.8976 4.79211 9.27519 3.8709C9.56669 3.67819 9.82998 3.50429 9.8629 3.49019C9.99924 3.43379 10.1967 3.52309 10.7045 3.8615Z" fill="#002670"/>
<path d="M9.57139 4.87677C9.0401 5.23398 7.97753 5.73689 7.26758 5.97189C6.69398 6.16459 5.78656 6.37139 5.18475 6.44659L4.95907 6.47479L4.97787 8.81072C4.99198 10.6907 5.01079 11.2125 5.07191 11.4757C5.37281 12.834 6.12978 13.9526 7.25348 14.6811C7.75185 15.0054 8.14679 15.184 8.71569 15.3438C9.12944 15.4566 9.24698 15.4707 9.99454 15.4707C10.7045 15.4707 10.869 15.4566 11.217 15.3626C13.2716 14.8033 14.715 13.1489 14.9736 11.0526C15.0018 10.8035 15.0253 9.77893 15.0253 8.55222V6.47479L14.8043 6.44659C13.2998 6.25389 11.6871 5.68048 10.4459 4.90028C10.2202 4.75457 10.0086 4.63707 9.97573 4.64177C9.94752 4.64177 9.76416 4.74987 9.57139 4.87677ZM13.2998 8.35012C13.4644 8.47702 13.5396 8.71672 13.4738 8.89532C13.3985 9.09273 9.82058 12.6601 9.63251 12.7259C9.51967 12.7635 9.44915 12.7588 9.32691 12.7071C9.24228 12.6648 8.69218 12.1572 8.09037 11.5509L7.00899 10.4651V10.2489C7.00899 10.0656 7.0325 10.0139 7.16414 9.89644C7.28169 9.79303 7.36161 9.76013 7.51207 9.76013C7.70483 9.76013 7.72834 9.77893 8.60285 10.6531L9.50087 11.5462L11.1464 9.90114C12.7732 8.27492 12.7967 8.25612 12.9848 8.25612C13.107 8.25612 13.2246 8.28902 13.2998 8.35012Z" fill="#002670"/>
</svg>
