<svg width="20" height="20" viewBox="0 0 20 20" fill="none" xmlns="http://www.w3.org/2000/svg">
<path d="M9.29522 0.0129986C9.22083 0.0208244 8.98982 0.0482159 8.78622 0.0716915C7.10258 0.25951 5.37197 0.959917 3.93892 2.03205C3.47298 2.38029 2.61159 3.21374 2.22788 3.68719C1.29992 4.82976 0.544244 6.36752 0.234926 7.75659C0.0430697 8.6096 0 9.02828 0 10.0065C0 10.9847 0.0430697 11.4034 0.234926 12.2564C0.544244 13.6455 1.29992 15.1872 2.22788 16.3258C2.5881 16.7719 3.3007 17.4762 3.74315 17.8284C4.86688 18.7244 6.38606 19.46 7.74863 19.7652C8.56695 19.9491 9.05638 20 10 20C11.6641 20 12.9405 19.7065 14.4049 18.9866C16.0376 18.1883 17.3414 17.0458 18.3594 15.5237C18.9585 14.6315 19.5341 13.2972 19.7651 12.2564C19.9569 11.4034 20 10.9847 20 10.0065C20 9.02828 19.9569 8.6096 19.7651 7.75659C19.4558 6.36752 18.7001 4.82584 17.7721 3.68719C17.4119 3.24113 16.6993 2.53681 16.2569 2.18465C14.8943 1.09687 13.2146 0.365158 11.48 0.102995C10.9867 0.0286503 9.63587 -0.0261307 9.29522 0.0129986ZM10.6852 3.06113C11.7384 3.28417 12.6116 4.00414 13.0462 5.00584C13.2263 5.42843 13.2968 5.80015 13.2968 6.32839C13.2929 7.25183 12.9522 8.03832 12.2749 8.68395C11.9146 9.03219 11.527 9.27088 11.0846 9.42348C9.06813 10.1161 6.93031 8.75438 6.71104 6.6336C6.53876 4.96279 7.65857 3.41721 9.29914 3.06113C9.63195 2.9907 10.3446 2.9907 10.6852 3.06113ZM12.7604 11.3291C13.7745 11.6108 14.538 12.2486 14.9687 13.1838C15.3602 14.025 15.3798 14.8389 15.0235 15.3593C14.7298 15.7858 13.6844 16.4823 12.7604 16.8658C11.1081 17.5466 9.02114 17.5623 7.33751 16.9049C6.41738 16.5449 5.22318 15.7663 4.96085 15.3554C4.65544 14.8741 4.63978 14.2442 4.90603 13.4616C5.30149 12.3112 6.35865 11.4464 7.59201 11.2625C7.72122 11.243 8.86844 11.2312 10.137 11.2351C12.3923 11.243 12.455 11.243 12.7604 11.3291Z" fill="#002670"/>
</svg>
