<svg width="21" height="20" viewBox="0 0 21 20" fill="none" xmlns="http://www.w3.org/2000/svg">
<path d="M9.38266 0.0389004C5.98535 0.311619 2.96166 2.21212 1.28473 5.13532C-0.122845 7.58978 -0.387852 10.5939 0.559222 13.2828C1.06317 14.706 1.8104 15.8864 2.90519 16.9858C6.49364 20.5993 12.2413 21.0126 16.3554 17.9616C17.1634 17.3608 18.0844 16.402 18.6492 15.5796C19.6441 14.118 20.2045 12.503 20.3566 10.6664C20.4087 10.0144 20.3913 9.82266 20.2697 9.5883C19.9829 9.0386 19.2183 8.94059 18.7796 9.39654C18.6014 9.57977 18.5276 9.7971 18.5276 10.1337C18.5276 11.8936 17.7847 13.841 16.5639 15.2685C15.4561 16.5682 13.9312 17.5056 12.2499 17.9275C11.4897 18.1193 11.1117 18.1619 10.1864 18.1619C8.78748 18.1619 7.83606 17.9531 6.59357 17.3778C4.8645 16.5724 3.50471 15.2429 2.67494 13.5384C2.30566 12.7842 2.11451 12.1834 1.94508 11.2843C1.84081 10.7175 1.84081 9.29427 1.94508 8.72753C2.11017 7.83267 2.30566 7.22758 2.67059 6.4776C3.2006 5.39525 3.90439 4.50466 4.82106 3.75042C7.04538 1.92236 10.0517 1.35136 12.7887 2.23769C13.1753 2.36127 14.1919 2.79591 14.2657 2.86835C14.2744 2.88113 14.0094 3.16237 13.6749 3.49901C13.0537 4.11689 12.9668 4.24046 12.9668 4.55153C12.9668 4.88391 13.197 5.22907 13.5098 5.36543C13.6706 5.43787 13.8443 5.44639 15.7472 5.44639C17.663 5.44639 17.8238 5.43787 17.9845 5.36543C18.0801 5.32281 18.2104 5.23333 18.2756 5.16515C18.5276 4.90095 18.5276 4.90521 18.5276 2.72773V0.733479L18.4146 0.507635C18.2191 0.128386 17.8064 -0.0591087 17.3807 0.0389004C17.1765 0.0857735 17.1026 0.14543 16.4075 0.818703L15.6559 1.54737L15.5169 1.46641C14.0311 0.614164 12.5627 0.158215 10.9119 0.0346394C10.2733 -0.0122337 10.0169 -0.0122337 9.38266 0.0389004Z" fill="#002670"/>
</svg>
