<svg width="18" height="18" viewBox="0 0 18 18" fill="none" xmlns="http://www.w3.org/2000/svg">
<path d="M10.1029 5.64701C10.2083 5.75234 10.3513 5.81151 10.5004 5.81151C10.6494 5.81151 10.7924 5.75234 10.8979 5.64701L11.4379 5.10701V12.7495C11.4379 12.8987 11.4971 13.0418 11.6026 13.1473C11.7081 13.2527 11.8512 13.312 12.0004 13.312C12.1495 13.312 12.2926 13.2527 12.3981 13.1473C12.5036 13.0418 12.5629 12.8987 12.5629 12.7495V5.10701L13.1029 5.64701C13.1544 5.70227 13.2165 5.7466 13.2855 5.77734C13.3545 5.80808 13.4289 5.82462 13.5045 5.82595C13.58 5.82728 13.655 5.81339 13.7251 5.7851C13.7951 5.75681 13.8587 5.7147 13.9121 5.66128C13.9656 5.60787 14.0077 5.54424 14.036 5.4742C14.0642 5.40416 14.0781 5.32914 14.0768 5.25361C14.0755 5.17809 14.0589 5.1036 14.0282 5.0346C13.9975 4.9656 13.9531 4.9035 13.8979 4.852L12.3979 3.352C12.2924 3.24667 12.1494 3.1875 12.0004 3.1875C11.8513 3.1875 11.7083 3.24667 11.6029 3.352L10.1029 4.852C9.99752 4.95747 9.93835 5.10044 9.93835 5.24951C9.93835 5.39857 9.99752 5.54154 10.1029 5.64701ZM6.56286 12.892L7.10286 12.352C7.15436 12.2967 7.21646 12.2524 7.28546 12.2217C7.35446 12.1909 7.42894 12.1744 7.50447 12.1731C7.57999 12.1717 7.65502 12.1856 7.72506 12.2139C7.7951 12.2422 7.85872 12.2843 7.91214 12.3377C7.96555 12.3911 8.00766 12.4548 8.03595 12.5248C8.06424 12.5948 8.07814 12.6699 8.0768 12.7454C8.07547 12.8209 8.05894 12.8954 8.0282 12.9644C7.99745 13.0334 7.95312 13.0955 7.89786 13.147L6.39786 14.647C6.29239 14.7523 6.14942 14.8115 6.00036 14.8115C5.8513 14.8115 5.70833 14.7523 5.60286 14.647L4.10286 13.147C4.04759 13.0955 4.00327 13.0334 3.97252 12.9644C3.94178 12.8954 3.92525 12.8209 3.92392 12.7454C3.92258 12.6699 3.93648 12.5948 3.96477 12.5248C3.99306 12.4548 4.03517 12.3911 4.08858 12.3377C4.14199 12.2843 4.20562 12.2422 4.27566 12.2139C4.3457 12.1856 4.42072 12.1717 4.49625 12.1731C4.57178 12.1744 4.64626 12.1909 4.71526 12.2217C4.78426 12.2524 4.84636 12.2967 4.89786 12.352L5.43786 12.892V5.24951C5.43786 5.10032 5.49712 4.95725 5.60261 4.85176C5.7081 4.74627 5.85118 4.68701 6.00036 4.68701C6.14954 4.68701 6.29262 4.74627 6.39811 4.85176C6.5036 4.95725 6.56286 5.10032 6.56286 5.24951V12.892Z" fill="black"/>
</svg>
