<svg width="20" height="20" viewBox="0 0 20 20" fill="none" xmlns="http://www.w3.org/2000/svg">
<path d="M2.98836 0.00571823C2.96883 0.0108395 2.90242 0.0313225 2.84383 0.0466843C2.68367 0.0927696 2.47274 0.359041 2.40243 0.604832C2.34774 0.799416 2.34383 1.5419 2.35165 8.07582L2.36337 15.3266L2.48446 15.5263C2.6993 15.8745 2.79305 15.9155 3.46101 15.9565C4.15241 16.0025 4.34381 16.0281 4.98052 16.1613C6.69926 16.53 8.18752 17.4517 9.26954 18.8138L9.45313 19.0442V11.6756C9.45313 7.62008 9.43751 4.21487 9.41798 4.10734C9.32423 3.58503 8.40627 2.25367 7.7344 1.6648C6.73832 0.799416 5.46489 0.236147 4.14069 0.0825272C3.63679 0.02108 3.04695 -0.0147648 2.98836 0.00571823Z" fill="#002670"/>
<path d="M16.3476 0.0261974C14.707 0.154213 13.3984 0.681637 12.2656 1.66992C11.5937 2.24855 10.6758 3.58503 10.582 4.10733C10.5625 4.21486 10.5469 7.62008 10.5469 11.6705V19.0391L10.7539 18.7882C11.8672 17.4158 13.3046 16.53 15.0195 16.1613C15.6562 16.0281 15.8476 16.0025 16.539 15.9564C17.207 15.9155 17.3007 15.8745 17.5155 15.5263L17.6366 15.3266L17.6484 8.10142C17.6562 3.0576 17.6484 0.814772 17.6171 0.681637C17.5702 0.456329 17.414 0.205418 17.2694 0.108126C17.1132 0.000593185 16.9023 -0.0147686 16.3476 0.0261974Z" fill="#002670"/>
<path d="M0.410262 3.34955C0.222764 3.4622 0.140733 3.57486 0.0587029 3.83089C0.00792216 3.99475 0.000109748 4.89598 0.000109748 11.6245C0.000109748 19.8892 -0.0116089 19.4232 0.207139 19.7304C0.418074 20.0325 0.64854 20.0684 1.25791 19.8994C3.58991 19.2593 6.04301 19.1723 7.91018 19.6639C8.16408 19.7304 8.38283 19.7816 8.39064 19.7714C8.41408 19.7355 8.01955 19.3105 7.69534 19.0289C6.88675 18.3222 5.8438 17.8204 4.63678 17.5593C4.44928 17.5183 3.92194 17.4569 3.46492 17.4159C2.95711 17.3698 2.5743 17.3135 2.47274 17.2623C1.92587 17.0062 1.49619 16.4174 1.32822 15.7005C1.254 15.3881 1.2501 15.1935 1.2501 9.31507V3.25226H0.910256C0.660259 3.25226 0.523542 3.28298 0.410262 3.34955Z" fill="#002670"/>
<path d="M18.7499 9.31507C18.7499 15.1935 18.746 15.3881 18.6718 15.7005C18.5038 16.4174 18.0741 17.0062 17.5273 17.2623C17.4257 17.3135 17.0507 17.3698 16.5429 17.4159C16.0937 17.4517 15.6015 17.5081 15.4492 17.5388C14.2382 17.7846 13.1172 18.3171 12.3047 19.0289C11.9844 19.3105 11.5859 19.7355 11.6094 19.7714C11.6172 19.7816 11.8359 19.7304 12.0898 19.6639C13.957 19.1723 16.4101 19.2593 18.7421 19.8994C19.3515 20.0684 19.5819 20.0325 19.7929 19.7304C20.0116 19.4232 19.9999 19.8892 19.9999 11.6142C19.9999 4.33271 19.996 3.98451 19.9257 3.78992C19.785 3.39051 19.5702 3.25226 19.0819 3.25226H18.7499V9.31507Z" fill="#002670"/>
</svg>
