<svg width="50" height="50" viewBox="0 0 50 50" fill="none" xmlns="http://www.w3.org/2000/svg">
<circle cx="25" cy="25" r="25" fill="#D9D9D9"/>
<path d="M21.4317 14.5562L21.4457 16.1078L21.8446 16.2437C22.0651 16.3141 22.4545 16.4781 22.7126 16.6047C25.0399 17.7437 26.6399 19.975 26.9824 22.5531C27.4563 26.1484 25.3261 29.6172 21.8915 30.8312L21.4457 30.9906L21.4317 32.5422L21.4223 34.0938H29.2111H37V26.3594V18.625H34.1847H31.3695V15.8125V13H26.3959H21.4223L21.4317 14.5562ZM33.4809 22.1406V22.8438H30.6657H27.8504V22.1406V21.4375H30.6657H33.4809V22.1406ZM33.4809 24.9531V25.6562H30.3138H27.1466V24.9531V24.25H30.3138H33.4809V24.9531ZM33.4809 27.7656V28.4688H29.9619H26.4428V27.7656V27.0625H29.9619H33.4809V27.7656Z" fill="#686868"/>
<path d="M32.7772 15.3203V17.2188H34.6868H36.6012L34.7009 15.3203C33.6546 14.275 32.7959 13.4219 32.7912 13.4219C32.7819 13.4219 32.7772 14.275 32.7772 15.3203Z" fill="#686868"/>
<path d="M18.654 17.2469C17.6123 17.3781 16.6129 17.7437 15.7449 18.3203C15.2944 18.6203 14.3795 19.5344 14.0792 19.9844C13.6006 20.7062 13.2674 21.5078 13.0845 22.375C12.9718 22.9234 12.9718 24.1562 13.0845 24.7281C13.3378 25.9937 13.9009 27.0437 14.8299 27.9812C15.773 28.9375 16.8663 29.5234 18.1566 29.7625L18.607 29.8469V33.4234V37H19.3109H20.0147V33.4187V29.8422L20.3806 29.7859C20.5777 29.7531 20.9953 29.6453 21.305 29.5422C22.2856 29.2187 22.9801 28.7875 23.7496 28.0234C24.7021 27.0859 25.2463 26.0781 25.5372 24.7141C25.6499 24.1703 25.6545 22.9281 25.5372 22.375C25.3543 21.5078 25.0211 20.7062 24.5425 19.9844C24.2328 19.5203 23.3273 18.6156 22.8534 18.3062C22.1449 17.8375 21.3284 17.4953 20.5261 17.3359C20.1789 17.2656 18.9683 17.2094 18.654 17.2469ZM20.0147 22.8437V25.6562H19.3109H18.607V22.8437V20.0312H19.3109H20.0147V22.8437ZM22.8299 23.5469V25.6562H22.1261H21.4223V23.5469V21.4375H22.1261H22.8299V23.5469ZM17.1994 24.25V25.6562H16.4956H15.7918V24.25V22.8437H16.4956H17.1994V24.25Z" fill="#686868"/>
</svg>
