<svg width="20" height="20" viewBox="0 0 20 20" fill="none" xmlns="http://www.w3.org/2000/svg">
<path d="M1.0573 0.0606117C0.735016 0.140629 0.182521 0.570724 0.0838609 0.825779C-0.0279536 1.12585 -0.0279536 16.4692 0.0838609 16.7693C0.189098 17.0443 0.735016 17.4594 1.09677 17.5395C1.72819 17.6795 2.29384 17.5595 2.72137 17.1994C2.87922 17.0694 3.04366 16.8693 3.08312 16.7593C3.14232 16.6193 3.16205 15.8091 3.16205 13.8787V11.1981H4.69457H6.2205L9.37762 13.5986L12.5282 15.9991L11.0811 17.1094C9.56179 18.2796 9.47628 18.3696 9.47628 18.7997C9.47628 19.4199 10.2393 20 11.0548 20C11.6205 20 11.7389 19.935 13.278 18.7797L14.7381 17.6795L16.2049 18.7797C17.7374 19.935 17.8558 20 18.4214 20C19.237 20 20 19.4199 20 18.7997C20 18.3696 19.9145 18.2796 18.3951 17.1094L16.9481 15.9991L18.3951 14.8839C19.9145 13.7186 20 13.6286 20 13.1985C20 12.5784 19.237 11.9982 18.4214 11.9982C17.8558 11.9982 17.7374 12.0633 16.1983 13.2185L14.7381 14.3187L12.5019 12.6234L10.2721 10.928L11.1075 10.6179C12.0743 10.2579 12.811 9.83776 13.4227 9.29764C15.8694 7.13217 15.8694 4.06149 13.4227 1.89602C12.3243 0.930803 10.6142 0.235649 8.85143 0.0456085C8.20028 -0.0244064 1.35986 -0.00940323 1.0573 0.0606117ZM8.78566 2.47114C10.6799 2.77121 12.1072 4.1165 12.1072 5.59683C12.1072 6.78209 11.1798 7.92234 9.80515 8.44246C8.91063 8.77753 8.68042 8.79753 5.74694 8.79753H3.16205V5.59683V2.39613H5.74694C7.75302 2.39613 8.42391 2.41613 8.78566 2.47114Z" fill="#002670"/>
</svg>
