<svg width="20" height="20" viewBox="0 0 20 20" fill="none" xmlns="http://www.w3.org/2000/svg">
<path d="M9.19264 0.041235C8.28877 0.146709 7.32786 0.474853 6.4898 0.967067C6.03348 1.23661 5.19542 1.97493 4.87512 2.38902C4.57236 2.78357 4.2389 3.38126 4.08094 3.81879C3.94492 4.18599 3.81329 4.72899 3.81329 4.92041C3.81329 4.99463 3.75186 5.0962 3.629 5.22121C3.25604 5.60404 3.26482 5.54544 3.25166 7.41664C3.23849 9.2644 3.24727 9.33081 3.52808 9.65895C3.63339 9.78396 3.76941 9.87381 3.96686 9.96366C4.51093 10.202 5.1296 10.1004 5.51134 9.70974L5.67807 9.53785L5.9194 9.97538C6.46347 10.9637 7.27959 11.702 8.27999 12.1239L8.54765 12.2372L8.73193 12.0536C8.96887 11.8153 9.22336 11.663 9.55244 11.5653C9.80254 11.4911 9.921 11.4833 11.1759 11.4833C12.7599 11.4833 12.8652 11.4676 13.2118 11.1825C13.3303 11.0809 13.5102 10.8856 13.6155 10.745C13.8129 10.4793 14.221 9.77224 14.2692 9.60817C14.2956 9.52223 14.3043 9.52613 14.4974 9.70974L14.6992 9.90115L14.6729 10.3152C14.6598 10.5418 14.6203 10.8231 14.5808 10.9403C14.3745 11.5653 13.7822 12.1044 13.0758 12.3075C12.8125 12.3857 12.6633 12.3974 11.2944 12.4169C9.82009 12.4404 9.80254 12.4404 9.65774 12.5302C9.22774 12.8037 9.24091 13.4013 9.67968 13.6709L9.84203 13.7686H11.4216C13.203 13.7686 13.2908 13.7568 13.984 13.4717C14.9801 13.0615 15.7128 12.3271 16.0463 11.4051C16.1823 11.0301 16.2306 10.7332 16.2306 10.2918V9.89334L16.3929 9.74099C16.4807 9.65895 16.5947 9.51051 16.643 9.41285C16.7308 9.24487 16.7351 9.17846 16.7351 7.49868C16.7351 5.52982 16.7483 5.60795 16.371 5.22121C16.2481 5.0962 16.1867 4.99463 16.1867 4.92041C16.1867 4.52195 15.8971 3.65472 15.5724 3.07656C15.2477 2.4984 14.9493 2.13901 14.3877 1.63898C13.5321 0.873312 12.6765 0.435787 11.5357 0.174054C10.7986 0.00607681 9.94294 -0.0447073 9.19264 0.041235ZM10.9433 1.47881C12.7906 1.81868 14.2254 3.11562 14.5895 4.77196L14.6641 5.10792L14.4711 5.30715L14.278 5.50638L14.1157 5.18996C13.5409 4.08443 12.4571 3.17813 11.2944 2.83045C10.6757 2.64685 9.8157 2.59997 9.17509 2.71716C7.84561 2.95936 6.6346 3.85394 5.93695 5.10011L5.71756 5.49857L5.52889 5.30715L5.34022 5.11183L5.39287 4.85791C5.72195 3.17422 7.16112 1.83821 9.03468 1.48272C9.54805 1.38115 10.4212 1.38115 10.9433 1.47881Z" fill="#002670"/>
<path d="M5.36656 12.284C3.43157 12.7958 1.90903 13.8583 0.943727 15.3818C0.351384 16.3116 0.0617939 17.2647 0.0091411 18.4367C-0.0259607 19.2063 0.0310798 19.4094 0.338221 19.6829C0.728729 20.0305 -0.188307 19.9993 10 19.9993C20.1883 19.9993 19.2713 20.0305 19.6618 19.6829C19.9689 19.4094 20.026 19.2063 19.9909 18.4367C19.9514 17.5577 19.7978 16.8897 19.4731 16.1553C18.929 14.9287 17.9462 13.8583 16.6737 13.1083L16.349 12.9169L16.1955 13.0887C15.6119 13.7372 14.7607 14.2568 13.8612 14.5068C13.2206 14.6865 12.7862 14.7255 11.2944 14.7255C9.85959 14.7255 9.64021 14.706 9.26286 14.5341C8.99521 14.413 8.66613 14.124 8.52134 13.8857C8.3897 13.663 8.38532 13.663 7.95971 13.5106C7.23573 13.2606 6.43716 12.7997 5.96329 12.366C5.85798 12.2684 5.75707 12.1863 5.7439 12.1902C5.73074 12.1902 5.56401 12.2332 5.36656 12.284Z" fill="#002670"/>
</svg>
