<svg width="50" height="50" viewBox="0 0 50 50" fill="none" xmlns="http://www.w3.org/2000/svg">
<circle cx="25" cy="25" r="25" fill="#D9D9D9"/>
<path fill-rule="evenodd" clip-rule="evenodd" d="M22.3336 37H27.6664C31.4116 37 33.2848 37 34.63 36.02C35.2104 35.5973 35.7103 35.0518 36.1012 34.4147C37 32.948 37 30.904 37 26.8187C37 22.732 37 20.6894 36.1012 19.2227C35.7104 18.5855 35.2104 18.0401 34.63 17.6174C33.766 16.9867 32.6836 16.7614 31.0264 16.6814C30.2356 16.6814 29.5552 16.0281 29.4004 15.1814C29.2821 14.5612 28.9747 14.0054 28.5302 13.608C28.0857 13.2105 27.5313 12.9958 26.9608 13.0001H23.0392C21.8536 13.0001 20.8324 13.9134 20.5996 15.1814C20.4448 16.0281 19.7644 16.6814 18.9736 16.6814C17.3176 16.7614 16.2352 16.9881 15.37 17.6174C14.7899 18.0401 14.2904 18.5856 13.9 19.2227C13 20.6894 13 22.732 13 26.8187C13 30.904 13 32.9467 13.8988 34.4147C14.2876 35.0493 14.7868 35.5947 15.37 36.02C16.7152 37 18.5884 37 22.3336 37ZM25 21.364C22.2388 21.364 19.9996 23.8054 19.9996 26.8174C19.9996 29.8307 22.2388 32.2733 25 32.2733C27.7612 32.2733 30.0004 29.8307 30.0004 26.8187C30.0004 23.8054 27.7612 21.364 25 21.364ZM25 23.5454C23.344 23.5454 22 25.0107 22 26.8187C22 28.6254 23.344 30.0907 25 30.0907C26.656 30.0907 28 28.6254 28 26.8187C28 25.0107 26.656 23.5454 25 23.5454ZM30.6664 22.4547C30.6664 21.852 31.114 21.364 31.6672 21.364H32.9992C33.5512 21.364 34 21.852 34 22.4547C33.9975 22.7466 33.8908 23.0254 33.7033 23.2299C33.5159 23.4344 33.2631 23.5479 33.0004 23.5454H31.6672C31.537 23.5468 31.4079 23.5197 31.2871 23.4656C31.1664 23.4116 31.0564 23.3316 30.9635 23.2304C30.8706 23.1291 30.7965 23.0084 30.7455 22.8754C30.6945 22.7423 30.6677 22.5993 30.6664 22.4547Z" fill="#686868"/>
</svg>
