<svg width="18" height="18" viewBox="0 0 18 18" fill="none" xmlns="http://www.w3.org/2000/svg">
<path fill-rule="evenodd" clip-rule="evenodd" d="M7.0002 18H10.9998C13.8087 18 15.2136 18 16.2225 17.265C16.6578 16.948 17.0327 16.5389 17.3259 16.061C18 14.961 18 13.428 18 10.364C18 7.29903 18 5.76703 17.3259 4.66703C17.0328 4.18915 16.6578 3.78004 16.2225 3.46304C15.5745 2.99004 14.7627 2.82104 13.5198 2.76104C12.9267 2.76104 12.4164 2.27104 12.3003 1.63604C12.2116 1.17091 11.981 0.754081 11.6477 0.455996C11.3143 0.157912 10.8985 -0.0031448 10.4706 4.65307e-05H7.5294C6.6402 4.65307e-05 5.8743 0.685045 5.6997 1.63604C5.5836 2.27104 5.0733 2.76104 4.4802 2.76104C3.2382 2.82104 2.4264 2.99104 1.7775 3.46304C1.34246 3.7801 0.967837 4.18921 0.675 4.66703C0 5.76703 0 7.29903 0 10.364C0 13.428 5.36442e-08 14.96 0.6741 16.061C0.9657 16.537 1.3401 16.946 1.7775 17.265C2.7864 18 4.1913 18 7.0002 18ZM9 6.27303C6.9291 6.27303 5.2497 8.10403 5.2497 10.363C5.2497 12.623 6.9291 14.455 9 14.455C11.0709 14.455 12.7503 12.623 12.7503 10.364C12.7503 8.10403 11.0709 6.27303 9 6.27303ZM9 7.90903C7.758 7.90903 6.75 9.00802 6.75 10.364C6.75 11.719 7.758 12.818 9 12.818C10.242 12.818 11.25 11.719 11.25 10.364C11.25 9.00802 10.242 7.90903 9 7.90903ZM13.2498 7.09103C13.2498 6.63903 13.5855 6.27303 14.0004 6.27303H14.9994C15.4134 6.27303 15.75 6.63903 15.75 7.09103C15.7481 7.30992 15.6681 7.51903 15.5275 7.67241C15.3869 7.82579 15.1973 7.91089 15.0003 7.90903H14.0004C13.9028 7.91008 13.8059 7.88976 13.7154 7.84922C13.6248 7.80869 13.5423 7.74872 13.4726 7.67277C13.4029 7.59681 13.3474 7.50634 13.3091 7.40652C13.2709 7.30671 13.2507 7.1995 13.2498 7.09103Z" fill="black"/>
</svg>
