<svg width="24" height="24" viewBox="0 0 24 24" fill="none" xmlns="http://www.w3.org/2000/svg">
<path d="M8.82656 0.083106C8.72813 0.141791 7.80469 1.41686 5.92969 4.07904L3.17813 7.99494H1.87031C0.646875 7.99494 0.548438 8.00028 0.375 8.10164C0.046875 8.2937 0 8.47509 0 9.59545C0 10.7158 0.046875 10.8972 0.375 11.0893C0.557813 11.196 0.623438 11.196 12 11.196C23.3766 11.196 23.4422 11.196 23.625 11.0893C23.9531 10.8972 24 10.7158 24 9.59545C24 8.47509 23.9531 8.2937 23.625 8.10164C23.4516 8.00028 23.3531 7.99494 22.1297 7.99494H20.8219L18.0703 4.07904C16.0078 1.14478 15.2813 0.147126 15.1594 0.0777712C14.5734 -0.236996 13.9359 0.477898 14.2313 1.12344C14.2734 1.21413 15.3563 2.78263 16.6453 4.61254C17.9297 6.44245 18.9844 7.95226 18.9844 7.96827C18.9844 7.98427 15.8438 7.99494 12 7.99494C8.15625 7.99494 5.01562 7.98427 5.01562 7.96827C5.01562 7.95226 6.07031 6.44245 7.35469 4.61254C8.64375 2.78263 9.72656 1.21413 9.76875 1.12344C10.0641 0.472563 9.40781 -0.247665 8.82656 0.083106Z" fill="#002670"/>
<path d="M1.59375 12.8231C1.59375 12.9352 4.2375 23.3811 4.3125 23.5572C4.37344 23.7172 4.45781 23.8133 4.58906 23.8933C4.77656 24 4.82813 24 12 24C19.1719 24 19.2234 24 19.4109 23.8933C19.5422 23.8133 19.6266 23.7172 19.6875 23.5572C19.7625 23.3811 22.4062 12.9352 22.4062 12.8231C22.4062 12.8071 17.7234 12.7965 12 12.7965C6.27656 12.7965 1.59375 12.8071 1.59375 12.8231ZM7.82344 14.541C7.88906 14.5997 7.98281 14.7171 8.025 14.8024C8.11406 14.9731 8.8125 19.6093 8.8125 20.0147C8.8125 20.8043 7.88906 21.0764 7.5375 20.3935C7.44844 20.2228 6.75 15.5867 6.75 15.1812C6.75 14.5677 7.39688 14.1836 7.82344 14.541ZM12.3281 14.5037C12.45 14.573 12.5484 14.6851 12.6094 14.8238C12.6984 15.0265 12.7031 15.1332 12.7031 17.598C12.7031 20.0628 12.6984 20.1695 12.6094 20.3722C12.5016 20.6123 12.2344 20.799 12 20.799C11.7656 20.799 11.4984 20.6123 11.3906 20.3722C11.3016 20.1695 11.2969 20.0681 11.2969 17.5873C11.3016 14.6904 11.2922 14.7704 11.6531 14.525C11.8781 14.3703 12.0844 14.365 12.3281 14.5037ZM16.9219 14.493C17.1516 14.621 17.2969 14.8931 17.2969 15.1812C17.2969 15.5867 16.5984 20.2228 16.5094 20.3935C16.1578 21.0764 15.2344 20.8043 15.2344 20.0147C15.2344 19.6733 15.9281 14.9998 16.0031 14.8344C16.1813 14.4396 16.575 14.2956 16.9219 14.493Z" fill="#002670"/>
</svg>
