<svg width="20" height="20" viewBox="0 0 20 20" fill="none" xmlns="http://www.w3.org/2000/svg">
<path d="M11.9235 0.0419521C11.8532 0.0777512 11.2086 0.507341 10.4936 1.00406L9.18878 1.89903H5.52037C1.48472 1.89903 1.5902 1.89456 1.11749 2.17648C0.812767 2.35995 0.402561 2.82981 0.242385 3.17886C-0.0115515 3.73822 0.000168683 3.31758 0.000168683 10.9607C0.000168683 18.6352 -0.0154582 18.1787 0.254106 18.7649C0.492416 19.284 0.957316 19.736 1.43003 19.915C1.65271 19.9955 1.87149 20 9.5521 20H17.4437L17.639 19.8792C17.8734 19.736 18.0844 19.4899 18.2094 19.2169C18.3032 19.02 18.3032 18.9842 18.3149 17.6194L18.3266 16.2232L19.0454 16.2098L19.7682 16.1963L19.8737 16.071L19.983 15.9502L19.9948 12.9386C20.0065 10.1955 20.0026 9.91805 19.9401 9.78828C19.9049 9.71221 19.8463 9.63166 19.8112 9.60929C19.776 9.59139 19.4322 9.56454 19.0454 9.55111L18.3422 9.52874L18.3227 8.14152C18.3032 6.78562 18.2993 6.74982 18.2094 6.53503C18.0805 6.23969 17.8539 5.98909 17.5843 5.84142C17.3734 5.72955 17.3343 5.72507 16.5959 5.71165L15.8263 5.69375L15.8146 4.30206C15.8029 2.94616 15.799 2.90141 15.713 2.71347C15.5763 2.41812 15.3692 2.18095 15.127 2.04671C14.9082 1.92588 14.8887 1.92141 14.0995 1.90798L13.2908 1.89456L12.8494 1.01748C12.6033 0.534191 12.3688 0.118025 12.3259 0.0822258C12.197 -0.0117474 12.0602 -0.0251713 11.9235 0.0419521ZM13.1072 3.4205L14.2558 5.68032L12.0368 5.69375C10.814 5.69822 8.79811 5.69822 7.56358 5.69375L5.31331 5.68032L8.60277 3.41155C10.4155 2.16753 11.9118 1.15173 11.9274 1.1562C11.943 1.1562 12.4743 2.17648 13.1072 3.4205ZM7.75501 2.87904C7.73157 2.89694 6.80177 3.5458 5.68054 4.311L3.64514 5.70717L2.6919 5.69375C1.78554 5.68032 1.73085 5.67585 1.55504 5.5774C1.30501 5.4342 1.0667 5.15676 0.953409 4.87932C0.816674 4.53475 0.812767 4.06041 0.945595 3.72927C1.1214 3.29073 1.39487 3.02223 1.79335 2.90141C2.00432 2.83429 7.81361 2.81191 7.75501 2.87904ZM14.748 2.90141C14.9864 3.01776 15.0059 3.11621 14.9942 4.22598L14.9824 5.21493L14.3964 4.06489C14.0761 3.42945 13.8065 2.89694 13.7987 2.87456C13.7753 2.81191 14.6035 2.83429 14.748 2.90141ZM1.21125 6.44553C1.62536 6.67375 1.16437 6.66033 9.47397 6.68718C13.7518 6.7006 17.2757 6.72745 17.3109 6.74535C17.3421 6.76325 17.4007 6.83932 17.4359 6.90645C17.4945 7.02279 17.5023 7.19284 17.5023 8.28919V9.54664L16.1662 9.56006L14.8262 9.57349L14.5136 9.69878C13.576 10.0747 12.9119 10.8667 12.615 11.9676C12.4939 12.4016 12.4861 13.2653 12.5915 13.7128C12.8142 14.6525 13.408 15.4714 14.1581 15.8831C14.6933 16.174 14.7715 16.1874 16.2052 16.2053L17.5062 16.2232L17.4945 17.5209L17.4827 18.8142L17.3734 18.935L17.2679 19.0603H9.52085H1.77773L1.57067 18.9529C1.32064 18.8231 1.01201 18.4517 0.914342 18.1563C0.844021 17.9505 0.840114 17.6686 0.828394 12.0615L0.82058 6.18151L0.926062 6.26654C0.988569 6.31129 1.11358 6.39183 1.21125 6.44553ZM19.1744 12.8715L19.1626 15.2566H17.1311C15.1426 15.2566 15.0957 15.2566 14.8262 15.1582C13.9315 14.836 13.3455 13.9231 13.3494 12.8625C13.3494 12.4285 13.3963 12.1958 13.5643 11.8065C13.8339 11.171 14.4003 10.6788 15.0215 10.5356C15.1075 10.5177 16.0802 10.4998 17.1819 10.4953L19.1822 10.4908L19.1744 12.8715Z" fill="#002670"/>
<path d="M15.1464 11.4798C14.9159 11.5425 14.6932 11.6901 14.5096 11.9049C14.0525 12.4464 14.076 13.3727 14.5604 13.8962C14.7948 14.1513 15.0175 14.2632 15.3535 14.2856C15.5879 14.299 15.6895 14.2856 15.8692 14.205C16.5138 13.9276 16.8419 13.0281 16.5607 12.3256C16.3731 11.8646 16.1231 11.6185 15.7168 11.4977C15.4707 11.4216 15.3652 11.4216 15.1464 11.4798ZM15.709 12.5448C15.9004 12.7686 15.8496 13.14 15.6074 13.2877C15.3613 13.4443 15.0605 13.2698 15.0136 12.9386C14.955 12.5046 15.4355 12.2316 15.709 12.5448Z" fill="#002670"/>
</svg>
