<svg width="20" height="20" viewBox="0 0 20 20" fill="none" xmlns="http://www.w3.org/2000/svg">
<path d="M6.93164 0.0386114C6.36161 0.136261 5.78713 0.526856 5.54665 0.979948C5.38188 1.28852 5.32398 1.55022 5.32398 1.99159V2.33532L3.1552 2.34703C1.03986 2.35875 0.977511 2.36266 0.77711 2.44078C0.509909 2.55014 0.220441 2.80403 0.1002 3.03839C-0.0334001 3.28837 -0.0334001 3.73365 0.1002 3.98363C0.220441 4.21799 0.509909 4.47188 0.77711 4.58124L0.981964 4.66327H10H19.018L19.2229 4.58124C19.4901 4.47188 19.7796 4.21799 19.8998 3.98363C20.0334 3.73365 20.0334 3.28837 19.8998 3.03839C19.7796 2.80403 19.4901 2.55014 19.2229 2.44078C19.0225 2.36266 18.9601 2.35875 16.8493 2.34703L14.676 2.33532V1.99159C14.676 1.8002 14.6538 1.55412 14.6315 1.43695C14.4801 0.733872 13.8343 0.167508 13.0327 0.0347056C12.7388 -0.012166 7.21666 -0.012166 6.93164 0.0386114ZM12.9837 1.24555C13.2509 1.36664 13.34 1.55022 13.34 1.98769V2.33922H10H6.65999V1.98769C6.65999 1.55803 6.74905 1.36664 7.00735 1.24946C7.16767 1.17525 7.27455 1.17134 9.99109 1.16743C12.7299 1.16743 12.8145 1.17134 12.9837 1.24555Z" fill="white"/>
<path d="M1.38286 6.01861C1.39622 6.11236 1.65897 8.85825 1.9618 12.1236C2.26908 15.389 2.54073 18.2091 2.56745 18.3927C2.67433 19.1622 3.27554 19.7676 4.09495 19.9356C4.50021 20.0215 15.5 20.0215 15.9052 19.9356C16.7247 19.7676 17.3259 19.1622 17.4327 18.3927C17.4595 18.2091 17.7311 15.389 18.0384 12.1236C18.3412 8.85825 18.604 6.11236 18.6173 6.01861L18.6396 5.85456H10.0001H1.3606L1.38286 6.01861ZM6.37952 7.13572C6.45523 7.18259 6.5443 7.27633 6.58438 7.34664C6.63782 7.44819 6.72688 8.53405 6.99408 12.3189L7.33699 17.1584L7.24347 17.3264C7.0787 17.6271 6.66899 17.7326 6.33054 17.5607C5.99208 17.3928 6.03661 17.7131 5.65808 12.358L5.31517 7.5185L5.40869 7.35055C5.57792 7.04198 6.05888 6.93651 6.37952 7.13572ZM10.3118 7.10447C10.4276 7.15525 10.5211 7.23727 10.579 7.33883C10.6681 7.49116 10.6681 7.55756 10.6681 12.3385C10.6681 17.1194 10.6681 17.1858 10.579 17.3381C10.4766 17.5139 10.2228 17.6506 10.0001 17.6506C9.77743 17.6506 9.52359 17.5139 9.42116 17.3381C9.33209 17.1858 9.33209 17.1194 9.33209 12.3385C9.33209 7.56147 9.33209 7.49116 9.42116 7.33883C9.58594 7.05369 9.97338 6.95214 10.3118 7.10447ZM14.3243 7.10447C14.4445 7.15915 14.5292 7.23727 14.5915 7.35055L14.685 7.5185L14.3421 12.358C13.9636 17.7131 14.0081 17.3928 13.6697 17.5607C13.3312 17.7326 12.9215 17.6271 12.7567 17.3264L12.6632 17.1584L13.0017 12.3385C13.3178 7.82707 13.3446 7.50288 13.4336 7.35055C13.5004 7.23727 13.585 7.16306 13.7142 7.10447C13.9458 7.00682 14.0972 7.00682 14.3243 7.10447Z" fill="white"/>
</svg>
