<svg width="80" height="80" viewBox="0 0 80 80" fill="none" xmlns="http://www.w3.org/2000/svg">
<circle cx="40" cy="40" r="40" fill="#002670"/>
<path d="M31.2837 25.1469C28.3644 25.9857 25.9485 28.9117 25.1532 32.579C24.9318 33.5934 24.9519 35.1052 25.2036 35.9732C25.4452 36.8218 26.0592 38.041 26.9752 39.4747C28.1731 41.3474 28.4349 42.0887 29.2301 45.951C30.0556 49.9792 30.6495 51.6373 31.7769 53.1198C32.6225 54.2317 33.7499 54.9145 34.8773 54.9925C36.8 55.1193 37.5852 53.6758 38.8032 47.7067C39.1857 45.834 39.3166 45.5999 40.0011 45.5999C40.6856 45.5999 40.8165 45.834 41.199 47.7067C42.1755 52.4956 42.8197 54.144 43.9773 54.7974C44.3196 54.9828 44.4907 55.012 45.0846 54.9828C46.6248 54.895 48.024 53.7928 49.0306 51.8519C49.6648 50.6327 50.148 49.0136 50.7721 45.9803C51.5674 42.0789 51.8291 41.3474 53.027 39.4747C54.547 37.0754 55 35.8952 55 34.2664C55 31.0575 53.0572 27.4779 50.45 25.9174C49.242 25.1956 48.628 25.0201 47.1482 25.0201C45.5779 25.0201 44.8934 25.2151 43.3834 26.0929C41.7627 27.039 41.3802 27.1561 40.0011 27.1561C38.622 27.1561 38.2194 27.0293 36.649 26.1027C35.2196 25.2737 34.5049 25.0493 33.0553 25.0103C32.1594 24.981 31.7568 25.0103 31.2837 25.1469ZM33.307 29.1165C33.7902 29.5749 33.5687 30.0919 32.703 30.482C31.8876 30.8624 31.1226 31.9645 30.7904 33.2813C30.6998 33.6129 30.579 34.0615 30.5287 34.2664C30.4481 34.5492 30.3475 34.676 30.116 34.7735C29.7435 34.9198 29.2804 34.8028 29.1295 34.5297C28.8577 34.042 29.1496 32.7253 29.7838 31.4379C30.7501 29.5164 32.5218 28.346 33.307 29.1165Z" fill="white"/>
</svg>
