<svg width="80" height="80" viewBox="0 0 80 80" fill="none" xmlns="http://www.w3.org/2000/svg">
<circle cx="40" cy="40" r="40" fill="#002670"/>
<path d="M34.1446 25.0773C33.7431 25.2029 33.2851 25.6614 33.147 26.076C33.0843 26.2518 33.0404 26.5784 33.0404 26.836C33.0404 27.2254 33.0215 27.3196 32.8898 27.4641C32.7768 27.596 32.689 27.6399 32.5071 27.6399C32.1871 27.6399 32.0051 27.4264 31.9549 26.993C31.8545 26.1325 31.2083 25.5421 30.3738 25.5421C29.7527 25.5421 29.2131 25.8875 28.9245 26.4591C28.8116 26.6915 28.8053 26.9239 28.7739 32.357C28.7551 35.4661 28.7175 38.0601 28.6861 38.1229C28.5543 38.393 28.0963 38.437 27.8642 38.1983L27.7073 38.0476V34.2099V30.3785L27.5379 30.4161C26.8791 30.5732 26.1701 31.0066 25.7749 31.4776C25.48 31.8356 25.2102 32.3821 25.1035 32.8343C24.9655 33.431 24.9655 39.5173 25.1035 40.2271C25.2917 41.1692 25.5615 41.5901 27.8391 44.4793C28.981 45.9302 30.0288 47.3058 30.1668 47.5382C30.3048 47.7706 30.4868 48.1663 30.5746 48.4175C30.8695 49.2654 30.9009 49.6423 30.9071 52.2238V54.6357L31.0891 54.8179L31.271 55H36.7986H42.3199L42.4956 54.8493C42.665 54.7048 42.6712 54.6671 42.6901 54.039L42.7152 53.3858L41.6548 53.3481C39.1765 53.2602 36.9806 52.4373 35.023 50.8671C31.1958 47.7894 29.828 42.482 31.6851 37.8968C32.2749 36.4396 33.1345 35.1834 34.3077 34.0528C35.205 33.1861 35.983 32.6271 37.0245 32.112C39.4777 30.8872 41.887 30.592 44.6351 31.1699L44.8421 31.2138L44.8233 29.8069C44.8045 28.2366 44.7605 28.0482 44.3339 27.6274C43.7127 26.9993 42.8093 26.9742 42.1693 27.5583C41.8493 27.8535 41.7113 28.1173 41.636 28.6009C41.5607 29.0469 41.385 29.2479 41.0713 29.2479C40.6635 29.2479 40.5882 29.0971 40.5506 28.1487C40.5192 27.2254 40.4502 27.0118 40.0925 26.6099C39.5216 25.9818 38.7812 25.8875 38.0472 26.3523C37.6833 26.5847 37.4574 26.9616 37.3382 27.5269C37.2378 28.0168 37.0935 28.1801 36.7735 28.1801C36.6166 28.1801 36.5225 28.1299 36.4033 27.9854C36.2465 27.8032 36.2402 27.7593 36.2402 27.0307C36.2402 26.3963 36.2151 26.2141 36.1084 25.9818C35.7571 25.2029 34.9352 24.826 34.1446 25.0773Z" fill="white"/>
<path d="M41.1653 31.9928C41.0273 32.0053 40.6069 32.0744 40.2368 32.1435C37.0746 32.7339 34.339 34.8632 32.9399 37.8215C31.6035 40.6543 31.6662 43.9895 33.1093 46.7657C34.6465 49.7366 37.4196 51.7277 40.7073 52.2113C41.6484 52.3495 43.2797 52.3055 44.1644 52.1108C48.2175 51.244 51.2479 48.2103 52.1138 44.1528C52.3083 43.2672 52.3522 41.6341 52.2142 40.692C51.7311 37.4007 49.7421 34.6245 46.7745 33.0857C45.0742 32.2 43.1166 31.8169 41.1653 31.9928ZM42.4892 33.1673C42.7276 33.3683 42.7339 33.7263 42.5017 33.9273C42.37 34.0404 42.2319 34.0718 41.6924 34.1095C39.6972 34.2476 37.9781 35.0014 36.5601 36.3706C33.6363 39.1971 33.3038 43.8136 35.7946 47.0483C36.1523 47.5131 36.9616 48.292 37.451 48.65C37.9843 49.0394 38.9443 49.5356 39.5842 49.7492C40.4062 50.0193 41.0399 50.126 41.8869 50.126L42.6711 50.1323L42.7088 48.248C42.7339 46.6903 42.7653 46.3072 42.8531 46.0245C42.9158 45.8361 43.3425 44.8374 43.8005 43.7948C44.2585 42.7521 44.6726 41.7911 44.7165 41.653C44.7793 41.4645 44.8044 40.5601 44.8169 37.9723L44.842 34.5429L44.4279 34.4298C43.8005 34.2539 43.5872 33.8645 43.9134 33.4876C44.1017 33.2615 44.3463 33.2678 45.0742 33.5128C48.1234 34.5366 50.3758 37.0992 51.0848 40.3653C51.2542 41.1253 51.2542 43.1227 51.0848 43.8827C50.677 45.7733 49.8802 47.2556 48.5689 48.5621C47.2952 49.8434 45.8584 50.6285 44.0515 51.0493C43.1605 51.2503 41.6296 51.2817 40.6634 51.1184C38.7435 50.7855 37.0683 49.9188 35.7068 48.5558C34.452 47.2996 33.5987 45.7105 33.2159 43.9267C33.1093 43.4054 33.0842 43.0725 33.0779 42.1554C33.0779 40.9369 33.1846 40.2397 33.5171 39.2348C34.1947 37.2123 35.6817 35.3845 37.5577 34.2665C38.7937 33.5316 40.4752 33.0543 41.8994 33.0228C42.257 33.0166 42.3449 33.0354 42.4892 33.1673ZM43.6123 35.3405C43.7691 35.4976 43.8193 36.2324 43.6938 36.4711C43.5182 36.804 43.0852 36.8605 42.828 36.5842C42.7276 36.4711 42.7025 36.3643 42.7025 35.9686C42.7025 35.4787 42.7464 35.3531 42.9848 35.2212C43.148 35.127 43.4554 35.1898 43.6123 35.3405ZM41.4539 35.8807C41.5857 36.0189 41.6045 36.1005 41.6045 36.5025C41.6045 36.9045 41.5857 36.9862 41.4539 37.1243C41.2594 37.3316 40.9206 37.3442 40.7136 37.1495C40.5881 37.0301 40.5693 36.9548 40.5693 36.4962C40.5693 36.0126 40.5818 35.9686 40.7324 35.8493C40.9646 35.6672 41.2657 35.6797 41.4539 35.8807ZM39.2768 36.9171C39.4274 37.0364 39.4399 37.0804 39.4399 37.5577C39.4399 37.9911 39.4211 38.0853 39.3019 38.211C39.1074 38.4182 38.756 38.4057 38.5553 38.1921C38.4235 38.0539 38.4047 37.9723 38.4047 37.5577C38.4047 37.1181 38.4172 37.0804 38.5804 36.9359C38.7937 36.7538 39.0572 36.7412 39.2768 36.9171ZM43.5558 37.9974C43.6938 38.1167 43.7315 38.211 43.7566 38.4999C43.7879 38.927 43.744 39.1343 43.5809 39.2976C43.4052 39.4734 43.035 39.4672 42.8468 39.285C42.7213 39.1657 42.7025 39.0903 42.7025 38.6569C42.7025 38.2172 42.7213 38.1419 42.8594 38.01C43.0539 37.809 43.3299 37.809 43.5558 37.9974ZM41.2845 38.4434C41.5543 38.5564 41.6673 38.8642 41.6171 39.3541C41.5857 39.6305 41.5418 39.7372 41.4163 39.844C41.1967 40.0325 40.9206 40.0325 40.7261 39.8315C40.5881 39.6996 40.5693 39.6242 40.5693 39.1845C40.5693 38.7511 40.5881 38.6758 40.7136 38.5627C40.8265 38.4559 40.9332 38.3931 41.0587 38.3617C41.0649 38.3554 41.1716 38.3931 41.2845 38.4434ZM37.1499 39.0777C37.2879 39.2096 37.3067 39.285 37.3067 39.7247C37.3067 40.1644 37.2879 40.2334 37.1561 40.3591C37.0746 40.4344 36.924 40.5035 36.8236 40.5035C36.397 40.5161 36.2087 40.2209 36.2527 39.6053C36.2777 39.2787 36.3091 39.1908 36.4534 39.0652C36.6793 38.8767 36.9554 38.8767 37.1499 39.0777ZM39.2956 39.6242C39.4211 39.7435 39.4399 39.8189 39.4399 40.2523C39.4399 40.692 39.4211 40.7673 39.2831 40.8992C38.9505 41.2384 38.4486 40.9997 38.3921 40.4784C38.3482 40.0953 38.4172 39.7561 38.5678 39.6053C38.7372 39.4358 39.1074 39.4483 39.2956 39.6242ZM43.5809 40.6794C43.744 40.8427 43.7879 41.05 43.7566 41.4771C43.7315 41.766 43.6938 41.8602 43.5558 41.9796C43.3299 42.168 43.0539 42.168 42.8594 41.967C42.7213 41.8351 42.7025 41.7597 42.7025 41.3326C42.7025 40.9181 42.7213 40.8239 42.8405 40.6982C43.0162 40.5098 43.3989 40.4972 43.5809 40.6794ZM41.4163 41.1944C41.5418 41.3075 41.5857 41.4143 41.6171 41.6906C41.6861 42.3815 41.3849 42.7835 40.9081 42.6265C40.7889 42.5888 40.6634 42.5009 40.632 42.4381C40.5505 42.2811 40.5505 41.4582 40.6383 41.3012C40.7763 41.0374 41.1716 40.9872 41.4163 41.1944ZM37.175 41.7849C37.2816 41.923 37.3067 42.0424 37.3067 42.4192C37.3067 42.8275 37.2879 42.9029 37.1499 43.0348C36.924 43.2672 36.6103 43.2483 36.4032 42.9971C36.2652 42.8401 36.2401 42.7396 36.2401 42.4318C36.2401 42.0549 36.353 41.722 36.5036 41.6655C36.5475 41.6467 36.6918 41.6278 36.8173 41.6278C36.993 41.6215 37.0746 41.6592 37.175 41.7849ZM39.3333 42.3187C39.4148 42.4192 39.4399 42.5637 39.4399 42.9217C39.4399 43.4619 39.3897 43.5875 39.1262 43.6943C38.8627 43.8011 38.5741 43.6817 38.4612 43.4054C38.2792 42.972 38.411 42.3062 38.6996 42.1868C38.9066 42.0989 39.2015 42.1617 39.3333 42.3187ZM41.4539 43.9204C41.5857 44.0586 41.6045 44.1402 41.6045 44.5422C41.6045 44.9442 41.5857 45.0259 41.4539 45.164C41.2594 45.3713 40.9206 45.3839 40.7136 45.1892C40.5881 45.0698 40.5693 44.9944 40.5693 44.5359C40.5693 44.0523 40.5818 44.0083 40.7324 43.889C40.9646 43.7068 41.2657 43.7194 41.4539 43.9204ZM37.0118 44.3349C37.2565 44.4606 37.3004 44.5862 37.3067 45.0887C37.3067 45.4969 37.2879 45.5974 37.1812 45.7042C36.9114 45.9743 36.4911 45.9178 36.3217 45.5786C36.2213 45.3776 36.2213 44.7746 36.3217 44.5736C36.397 44.4229 36.6354 44.2596 36.7922 44.2596C36.8361 44.2596 36.9365 44.291 37.0118 44.3349ZM39.2768 44.9568C39.4274 45.0761 39.4399 45.1201 39.4399 45.5974C39.4399 46.0308 39.4211 46.125 39.3019 46.2506C39.1074 46.4579 38.756 46.4454 38.5553 46.2318C38.4235 46.0936 38.4047 46.012 38.4047 45.5974C38.4047 45.1578 38.4172 45.1201 38.5804 44.9756C38.7937 44.7935 39.0572 44.7809 39.2768 44.9568ZM41.2845 46.483C41.5543 46.5961 41.6673 46.9039 41.6171 47.3938C41.5857 47.6702 41.5418 47.7769 41.4163 47.8837C41.1967 48.0721 40.9206 48.0721 40.7261 47.8711C40.5881 47.7392 40.5693 47.6639 40.5693 47.2242C40.5693 46.7908 40.5881 46.7154 40.7136 46.6024C40.8265 46.4956 40.9332 46.4328 41.0587 46.4014C41.0649 46.3951 41.1716 46.4328 41.2845 46.483Z" fill="white"/>
<path d="M45.8897 38.2422C45.8646 41.2571 45.8583 41.4958 45.7391 41.904C45.6701 42.1427 45.2372 43.1791 44.7855 44.1966C44.3337 45.2204 43.9196 46.2191 43.8632 46.4263C43.7879 46.7153 43.769 47.1612 43.769 48.3923V49.9877L44.0075 49.9437C44.1329 49.9249 44.4529 49.8306 44.7102 49.749C46.2285 49.2402 47.6151 48.229 48.5939 46.8974C49.0582 46.2756 49.673 45.0508 49.855 44.385C50.5075 42.0296 50.1185 39.624 48.7696 37.6015C48.2112 36.7599 47.1257 35.7549 46.1407 35.1582L45.9085 35.02L45.8897 38.2422Z" fill="white"/>
<path d="M50.0562 50.0882L49.4727 50.6849L49.8052 51.024L50.1314 51.3569L50.7463 50.7477L51.3612 50.1384L51.0349 49.8055C50.853 49.6234 50.6898 49.4789 50.671 49.4789C50.6522 49.4852 50.3761 49.7553 50.0562 50.0882Z" fill="white"/>
<path d="M51.5305 51.5329L50.9219 52.1421L52.3524 53.5742C53.4127 54.6294 53.8205 55 53.9335 55C54.1405 55 55.0001 54.1395 55.0001 53.9322C55.0001 53.8192 54.6362 53.4109 53.5696 52.3494L52.1453 50.9173L51.5305 51.5329Z" fill="white"/>
</svg>
