<svg width="80" height="80" viewBox="0 0 80 80" fill="none" xmlns="http://www.w3.org/2000/svg">
<circle cx="40" cy="40" r="40" fill="#002670"/>
<path d="M27.0446 25.1273C26.1985 25.4161 25.5993 25.9515 25.2256 26.7475L25 27.2195V37.9621V48.7047L25.1551 49.2753C25.5993 50.9519 26.4664 52.3255 27.6932 53.3188C28.5745 54.0302 29.4557 54.474 30.6613 54.8192L31.2042 54.9742L39.7279 54.9953C47.1377 55.0094 48.3363 54.9953 48.8298 54.9037C51.946 54.3191 54.3008 51.9733 54.893 48.8526C54.9847 48.3595 55.0058 47.3452 54.9988 41.6533C54.9988 35.7924 54.9847 34.9823 54.8859 34.6442C54.7238 34.1159 54.4911 33.7425 54.0611 33.3269C53.2785 32.5943 52.7709 32.4675 50.5783 32.4675H49.0131L48.992 29.8752C48.9708 27.4097 48.9637 27.2758 48.8157 26.9166C48.5901 26.353 48.1318 25.8036 47.6454 25.4866C46.8416 24.9653 47.5819 25.0005 36.9572 25.0005C28.0739 25.0075 27.3689 25.0146 27.0446 25.1273ZM32.8469 32.552C33.3122 32.6647 33.7987 33.1649 33.9115 33.6369C34.0807 34.3272 33.7705 34.9964 33.136 35.3134C32.9315 35.412 32.6566 35.4966 32.5226 35.4966C31.6554 35.4966 30.9574 34.7992 30.9574 33.9327C30.9574 33.3621 31.5215 32.6718 32.0996 32.5379C32.4309 32.4605 32.4803 32.4605 32.8469 32.552ZM41.8712 32.552C42.3365 32.6647 42.823 33.1649 42.9358 33.6369C43.105 34.3272 42.7948 34.9964 42.1603 35.3134L41.7866 35.4966H39.2908C36.4778 35.4966 36.365 35.4825 35.9279 35.0387C35.4414 34.5597 35.3497 33.9398 35.6529 33.3199C35.8503 32.9254 36.2099 32.6295 36.6117 32.5379C36.9995 32.4464 41.4976 32.4534 41.8712 32.552ZM52.0236 40.9348C52.0024 46.3519 52.0024 46.3801 51.8473 46.6619C51.5582 47.2043 51.1211 47.472 50.5219 47.472C50.2962 47.472 50.0142 47.4226 49.8803 47.3592C49.556 47.2043 49.1753 46.7605 49.0836 46.4364C49.0343 46.2603 49.0061 44.3795 49.0061 40.8291V35.4966H50.5219H52.0447L52.0236 40.9348ZM33.2981 38.7792C34.4403 39.5752 33.982 41.3575 32.6143 41.4702C31.2254 41.5829 30.4287 39.9979 31.3664 38.9906C31.8528 38.4693 32.7271 38.3777 33.2981 38.7792ZM42.0827 38.6313C43.1544 39.0821 43.2954 40.5544 42.3224 41.2377L42.0122 41.449L39.3049 41.4702C36.7457 41.4913 36.5906 41.4843 36.3368 41.3504C35.1805 40.7587 35.1876 39.2512 36.3509 38.6454C36.6681 38.4763 41.6879 38.4693 42.0827 38.6313ZM33.136 44.6965C34.0666 45.1614 34.2429 46.3096 33.4955 47.0493C32.7553 47.796 31.6061 47.6199 31.1408 46.69C30.8376 46.0701 30.9292 45.4502 31.4157 44.9712C31.8951 44.4851 32.5156 44.3865 33.136 44.6965ZM42.1603 44.6965C43.0909 45.1614 43.2672 46.3096 42.5198 47.0563C42.0334 47.5424 41.8924 47.5565 38.9947 47.5283L36.5624 47.5072L36.231 47.3099C35.6388 46.9648 35.3568 46.2533 35.5401 45.5841C35.6388 45.2107 36.1253 44.6894 36.4707 44.5908C36.5976 44.5556 37.8455 44.5204 39.2485 44.5204L41.7866 44.5133L42.1603 44.6965Z" fill="white"/>
</svg>
