<svg width="20" height="20" viewBox="0 0 20 20" fill="none" xmlns="http://www.w3.org/2000/svg">
<path d="M9.74509 0.0498219C9.67868 0.0771732 9.2177 0.499182 8.72155 0.987617L7.81131 1.87852L6.58463 1.55811C5.67829 1.31976 5.32279 1.24161 5.22512 1.26114C5.06104 1.2924 4.8618 1.40963 4.78758 1.52685C4.75242 1.57765 4.57662 2.16377 4.39691 2.82414C4.2133 3.4845 4.05704 4.03546 4.04922 4.04718C4.0375 4.055 3.48667 4.2113 2.82645 4.39495C2.16623 4.57469 1.58023 4.75053 1.52945 4.7857C1.41225 4.85994 1.29505 5.05922 1.2638 5.22333C1.24426 5.32102 1.32239 5.6766 1.5607 6.58314L1.88104 7.81009L0.994238 8.71663C0.505909 9.21679 0.0800859 9.68178 0.0527395 9.75211C-0.0175798 9.91232 -0.0175798 10.0842 0.0527395 10.2445C0.0800859 10.3148 0.505909 10.7798 0.994238 11.2799L1.88104 12.1865L1.5607 13.4134C1.32239 14.32 1.24426 14.6755 1.2638 14.7732C1.29505 14.9374 1.41225 15.1366 1.52945 15.2109C1.58023 15.246 2.16623 15.4219 2.82645 15.6016C3.48667 15.7853 4.0375 15.9416 4.04922 15.9494C4.05704 15.9611 4.2133 16.5121 4.39691 17.1724C4.57662 17.8328 4.75242 18.4189 4.78758 18.4697C4.8618 18.5869 5.06104 18.7042 5.22512 18.7354C5.32279 18.755 5.67829 18.6768 6.58463 18.4385L7.81131 18.118L8.72155 19.009C9.2177 19.4974 9.68259 19.9194 9.7529 19.9507C9.91308 20.0171 10.085 20.0171 10.2451 19.9468C10.3155 19.9194 10.7843 19.4935 11.2804 19.005L12.1867 18.118L13.4134 18.4385C14.3237 18.6768 14.6714 18.755 14.769 18.7354C14.937 18.7042 15.1362 18.5869 15.2105 18.4697C15.2456 18.4189 15.4214 17.8328 15.6011 17.1724C15.7847 16.5121 15.941 15.9611 15.9488 15.9533C15.9566 15.9455 16.5075 15.7853 17.1716 15.6055C17.8357 15.4219 18.4178 15.2421 18.4686 15.2109C18.5858 15.1366 18.703 14.9374 18.7343 14.7732C18.7538 14.6755 18.6757 14.32 18.4373 13.4134L18.117 12.1865L19.0077 11.276C19.496 10.7798 19.918 10.3148 19.9492 10.2445C19.9766 10.1741 20 10.0647 20 9.99829C20 9.93186 19.9766 9.82245 19.9492 9.75211C19.918 9.68178 19.496 9.21679 19.0077 8.72054L18.117 7.81009L18.4373 6.58314C18.6757 5.6766 18.7538 5.32102 18.7343 5.22333C18.703 5.05922 18.5858 4.85994 18.4686 4.7857C18.4178 4.75444 17.8357 4.57469 17.1716 4.39104C16.5075 4.2113 15.9566 4.05109 15.9488 4.04327C15.941 4.03546 15.7847 3.4845 15.6011 2.82414C15.4214 2.16377 15.2456 1.57765 15.2105 1.52685C15.1362 1.40963 14.937 1.2924 14.769 1.26114C14.6714 1.24161 14.3237 1.31976 13.4134 1.55811L12.1867 1.87852L11.2804 0.991526C10.7843 0.50309 10.3155 0.0771732 10.2451 0.0498219C10.0889 -0.0166054 9.89745 -0.0166054 9.74509 0.0498219ZM8.06133 5.31321C8.78797 5.55938 9.35443 6.19239 9.51069 6.94263C9.66696 7.67724 9.45991 8.35714 8.90907 8.9081C8.48325 9.33401 7.94413 9.56846 7.38158 9.56846C6.47915 9.56846 5.61578 8.93154 5.30716 8.04454C5.20559 7.74757 5.18605 7.12237 5.26809 6.83322C5.44389 6.21974 5.88925 5.69223 6.4518 5.42652C6.63541 5.34056 6.88153 5.25459 6.99482 5.23506C7.28782 5.18035 7.77615 5.21943 8.06133 5.31321ZM13.2923 6.34088C13.4642 6.41121 13.6634 6.64566 13.6947 6.81759C13.7611 7.16536 13.8822 7.02859 10.4561 10.4555C7.01826 13.8901 7.16672 13.7612 6.81121 13.6909C6.60807 13.6557 6.34242 13.39 6.30726 13.1868C6.23694 12.8312 6.11192 12.9758 9.50288 9.57237C11.6515 7.42325 12.6868 6.41121 12.7923 6.36041C12.9798 6.27445 13.1204 6.26663 13.2923 6.34088ZM13.0657 10.4867C13.8119 10.643 14.433 11.2057 14.6909 11.952C14.7925 12.249 14.812 12.8742 14.73 13.1634C14.519 13.9019 13.9017 14.5192 13.1634 14.7303C13.0657 14.7576 12.8118 14.7811 12.5969 14.7771C12.1711 14.7771 11.9094 14.7107 11.5421 14.5075C11.2452 14.3434 10.8155 13.8941 10.671 13.5932C10.2451 12.7218 10.4014 11.7762 11.089 11.0885C11.6437 10.5336 12.3196 10.3304 13.0657 10.4867Z" fill="#D50000"/>
<path d="M7.00261 6.59882C6.67055 6.76684 6.50647 7.06381 6.52991 7.44284C6.55726 7.88439 6.86979 8.20089 7.30343 8.23215C7.5847 8.25169 7.78003 8.18917 7.97146 8.01724C8.38166 7.64603 8.31915 6.96222 7.84645 6.64962C7.61986 6.50113 7.24092 6.47769 7.00261 6.59882Z" fill="#D50000"/>
<path d="M12.2454 11.8269C11.636 12.1121 11.5852 12.9718 12.1555 13.3469C12.2962 13.4407 12.3548 13.4563 12.6165 13.4563C12.8783 13.4563 12.9369 13.4407 13.0775 13.3469C13.1674 13.2883 13.2885 13.1671 13.3471 13.0773C13.4408 12.9366 13.4564 12.878 13.4564 12.6162C13.4564 12.3544 13.4408 12.2958 13.3471 12.1551C13.1791 11.9011 12.9681 11.78 12.6595 11.7644C12.4681 11.7565 12.3587 11.7722 12.2454 11.8269Z" fill="#D50000"/>
</svg>
