<svg width="24" height="24" viewBox="0 0 24 24" fill="none" xmlns="http://www.w3.org/2000/svg">
<path d="M11.4047 0.0270538C10.5984 0.172491 9.77813 0.693249 9.30938 1.35945C8.925 1.90366 8.75156 2.34466 8.66719 3.00148C8.625 3.3205 8.60156 3.38618 8.49375 3.47063C7.52813 4.21189 6.77813 5.44106 6.51094 6.71247C6.34688 7.50064 6.4125 7.81497 6.74531 7.81497C6.98906 7.81497 7.07812 7.69299 7.12969 7.27545C7.36875 5.28155 8.83125 3.60668 10.7578 3.1C13.0031 2.51825 15.3563 3.59261 16.3828 5.68033C16.7719 6.46851 16.9219 7.15816 16.9219 8.16684V8.64068L16.4438 8.62191C15.9984 8.60784 15.9516 8.59846 15.8578 8.49055C15.7781 8.40141 15.75 8.31697 15.75 8.14807C15.75 7.40681 15.3984 6.67963 14.8828 6.3606C14.7938 6.3043 14.7188 6.24331 14.7188 6.22924C14.7188 6.21047 14.85 6.11195 15.0047 6.01343C15.3094 5.81639 15.3984 5.67564 15.3281 5.49736C15.2812 5.37538 15.1125 5.23464 15.0047 5.23464C14.9672 5.23464 14.7141 5.37069 14.4375 5.53489C12.8344 6.50135 10.8234 7.20977 9 7.45842C8.59219 7.51472 8.32969 7.77275 8.26875 8.18091C8.2125 8.54685 8.14688 8.58438 7.5375 8.61722C6.92344 8.65006 6.675 8.73451 6.39844 9.01131C6.14063 9.26934 6.02344 9.55553 6.02813 9.92616C6.03281 10.278 6.1125 10.4938 6.32813 10.7425C6.5625 11.0099 6.83906 11.1506 7.20469 11.1835L7.51875 11.2163L7.58438 11.6151C7.75781 12.666 8.34375 13.67 9.16875 14.3315C9.37031 14.4957 9.58125 14.6505 9.64219 14.6787C9.75 14.7256 9.75 14.735 9.75 15.5419C9.75 16.4474 9.72656 16.5459 9.45938 16.7429C9.375 16.8039 8.52656 17.1886 7.57031 17.5968C6.61875 18.0003 5.7375 18.3897 5.61563 18.4553C5.325 18.6102 4.92188 19.0371 4.75781 19.3514C4.52813 19.8112 4.5 20.0645 4.5 21.9974V23.7708L4.61719 23.8834C4.75781 24.0242 4.91719 24.0336 5.08125 23.9022L5.20312 23.8084V22.0115C5.20312 20.5102 5.21719 20.1771 5.27813 19.966C5.41406 19.5156 5.65781 19.2154 6.07031 19.0136C6.3375 18.8823 8.18438 18.0894 8.22188 18.0894C8.23594 18.0894 8.25 18.5867 8.25 19.1919V20.2944H7.56094C6.79219 20.2944 6.61406 20.3413 6.34688 20.6134C6.04219 20.9184 6.02344 21.0075 6.02344 22.1476C6.02344 23.1234 6.02813 23.1891 6.12656 23.3721C6.38906 23.8694 7.02188 24.1462 7.33125 23.9022C7.575 23.7098 7.42031 23.297 7.09688 23.297C7.04063 23.297 6.92813 23.2454 6.85781 23.1844L6.72656 23.0718L6.7125 22.1757L6.69844 21.2796L6.83906 21.1389L6.975 20.9981H8.625H10.2703L10.3828 21.1154C10.5 21.228 10.5 21.2327 10.5 22.1476C10.5 23.0624 10.5 23.0671 10.3828 23.1797C10.3219 23.2454 10.2141 23.297 10.1484 23.297C9.97031 23.297 9.8625 23.3721 9.80625 23.5222C9.75 23.6817 9.83438 23.921 9.96094 23.9726C10.2188 24.0711 10.7156 23.8928 10.9406 23.6207C11.1891 23.3298 11.2031 23.2407 11.2031 22.1382C11.2031 20.97 11.175 20.8621 10.8328 20.5712C10.5656 20.3366 10.3734 20.2944 9.61406 20.2944H8.95312V19.3045C8.95312 18.4647 8.9625 18.3193 9.01875 18.3381C9.05625 18.3521 9.63281 18.7274 10.2984 19.1731C11.6625 20.088 11.8172 20.1584 12.2484 20.0505C12.4266 20.0035 12.8109 19.7737 13.7016 19.1731C14.3672 18.7274 14.9438 18.3521 14.9813 18.3381C15.0375 18.3193 15.0469 18.521 15.0469 19.6892V21.0685L14.7891 21.1811C14.4656 21.3172 14.1047 21.7019 13.9969 22.0115C13.9031 22.2977 13.9031 22.7481 13.9969 23.0343C14.1 23.3345 14.4656 23.7239 14.775 23.8647C15.1453 24.0289 15.6844 24.0242 16.0172 23.8459C16.5516 23.5691 16.8469 23.0953 16.8469 22.5182C16.8516 21.9271 16.5234 21.4298 15.975 21.1717L15.75 21.0685V19.5813C15.75 18.7603 15.7641 18.0894 15.7781 18.0894C15.8156 18.0894 17.6625 18.8823 17.9297 19.0136C18.3422 19.2154 18.5859 19.5156 18.7219 19.966C18.7828 20.1771 18.7969 20.5102 18.7969 22.0115V23.8084L18.9188 23.9022C19.0734 24.0242 19.2234 24.0289 19.3641 23.9116L19.4766 23.8224L19.4906 22.0678C19.5047 20.1584 19.4813 19.8675 19.2703 19.4171C19.0969 19.0512 18.6797 18.6102 18.3422 18.4319C18.1922 18.3521 17.3109 17.9627 16.3828 17.5686C15.4547 17.1746 14.625 16.8039 14.5406 16.7429C14.2734 16.5459 14.25 16.4474 14.25 15.5466L14.2547 14.735L14.4609 14.6036C15.4828 13.9562 16.2141 12.8208 16.425 11.5682L16.4813 11.2163L16.7859 11.1882C16.95 11.1741 17.1703 11.1178 17.2781 11.0662C17.9672 10.7049 18.1969 9.82763 17.7609 9.22243C17.625 9.03946 17.625 9.03008 17.625 8.37796C17.625 7.24261 17.5078 6.51542 17.1891 5.73663C16.875 4.95315 16.2516 4.08522 15.6609 3.60668C15.3984 3.39087 15.3844 3.36741 15.3516 3.12346C15.3047 2.69184 15.1875 2.25083 15.0422 1.94588C14.4844 0.768314 13.4109 0.0458202 12.15 0.00359535C11.8734 -0.0057869 11.5406 0.00359535 11.4047 0.0270538ZM12.5766 0.754238C13.3125 0.90906 14.025 1.46735 14.3578 2.14762C14.5547 2.55109 14.6391 2.87481 14.5266 2.82789C13.7297 2.48541 13.2375 2.34466 12.525 2.2696C11.6391 2.17577 10.6781 2.32121 9.83906 2.67776C9.62344 2.7669 9.44063 2.84196 9.42656 2.84196C9.37031 2.84196 9.48281 2.46664 9.63281 2.15231C9.75938 1.89897 9.89531 1.70662 10.1203 1.48612C10.7859 0.81992 11.6625 0.557196 12.5766 0.754238ZM14.3297 6.8579C14.7891 7.07841 14.9859 7.43496 15.0422 8.134C15.0797 8.62661 15.1219 8.7392 15.3469 8.97847C15.5906 9.2412 15.7219 9.28342 16.3266 9.31626C16.95 9.3491 17.0672 9.40071 17.2219 9.71035C17.2969 9.86048 17.3016 9.91677 17.2547 10.0622C17.2266 10.156 17.1516 10.2874 17.0813 10.3531C16.9734 10.4516 16.9078 10.4704 16.4672 10.4938C15.8484 10.5267 15.8203 10.5501 15.7734 11.1084C15.7266 11.6198 15.5578 12.2062 15.3141 12.6707C15.1641 12.9569 15.0094 13.1539 14.6484 13.5152C14.2453 13.9233 14.1188 14.0219 13.7344 14.2095C13.125 14.5145 12.6656 14.6271 12.0234 14.6271C11.3578 14.6318 10.9359 14.5332 10.3359 14.2424C9.55781 13.8623 9.00469 13.3087 8.625 12.53C8.37656 12.0139 8.27344 11.6433 8.22188 11.085C8.17969 10.5595 8.14219 10.5267 7.55625 10.4938C7.00781 10.461 6.8625 10.3859 6.75469 10.081C6.69375 9.91208 6.69844 9.87924 6.77813 9.71504C6.93281 9.40071 7.05 9.3491 7.67344 9.31626C8.25938 9.28811 8.36719 9.25058 8.61563 9.016C8.81719 8.83303 8.90625 8.65476 8.94844 8.38734L8.97656 8.17622L9.60938 8.06832C10.8891 7.85251 12.3797 7.38335 13.5234 6.82975C13.8422 6.67963 13.9547 6.67963 14.3297 6.8579ZM11.0156 15.237C11.7188 15.4105 12.8438 15.3496 13.4672 15.1103C13.5422 15.0774 13.5469 15.1291 13.5469 15.753C13.5469 16.2503 13.5656 16.4896 13.6219 16.6491C13.7297 16.9634 14.0578 17.3059 14.4188 17.4842C14.5828 17.564 14.7188 17.639 14.7188 17.6437C14.7188 17.6484 14.1375 18.0378 13.4297 18.5116C12.4828 19.145 12.1031 19.3702 12 19.3702C11.8969 19.3702 11.5172 19.145 10.5703 18.5116C9.8625 18.0378 9.28125 17.6484 9.28125 17.639C9.28125 17.6296 9.40781 17.5686 9.5625 17.4983C9.90938 17.3434 10.2703 16.9681 10.3781 16.6538C10.4344 16.4896 10.4531 16.2503 10.4531 15.753C10.4531 15.1291 10.4578 15.0774 10.5375 15.1103C10.5797 15.1244 10.7953 15.1854 11.0156 15.237ZM15.7594 21.852C16.2281 22.1147 16.2938 22.7152 15.8953 23.0765C15.5953 23.3439 15.1922 23.3674 14.9062 23.1234C14.7094 22.9592 14.625 22.7809 14.625 22.5229C14.625 21.9224 15.2391 21.5611 15.7594 21.852Z" fill="#002670"/>
<path d="M9.98415 9.42417C9.81071 9.51331 9.74509 9.67751 9.76384 9.98246C9.78259 10.3109 9.88102 10.4422 10.1107 10.4422C10.3685 10.4422 10.4529 10.3156 10.4529 9.91209C10.4529 9.63998 10.4341 9.55084 10.3732 9.49454C10.2466 9.38195 10.1154 9.35849 9.98415 9.42417Z" fill="#002670"/>
<path d="M13.7813 9.39602C13.5891 9.46639 13.5469 9.56022 13.5469 9.91208C13.5469 10.1936 13.5656 10.2733 13.6406 10.3484C13.7672 10.4751 14.0203 10.4704 14.1375 10.3437C14.2688 10.1983 14.2641 9.63998 14.1328 9.50861C14.025 9.4054 13.8844 9.35849 13.7813 9.39602Z" fill="#002670"/>
<path d="M10.6173 11.7558C10.5141 11.8684 10.5048 12.0936 10.5985 12.2062C10.7063 12.3376 10.9923 12.4971 11.2923 12.6003C11.8595 12.7927 12.6798 12.7035 13.1626 12.3939C13.397 12.2485 13.4673 12.1499 13.4673 11.9904C13.4673 11.6714 13.1345 11.5635 12.8157 11.7793C12.5907 11.9341 12.3704 11.9904 12.0001 11.9904C11.6298 11.9904 11.4095 11.9341 11.1845 11.7793C10.9735 11.6339 10.7345 11.6245 10.6173 11.7558Z" fill="#002670"/>
<path d="M2.34844 10.5407C1.875 10.6252 1.41094 11.0052 1.2375 11.4556C1.15781 11.6573 1.14844 11.8168 1.14844 12.8349C1.14844 13.9139 1.15313 14.0031 1.25625 14.2987C1.39688 14.7068 1.65469 15.0962 1.98281 15.4059L2.25 15.6545V16.1424V16.6256L1.51406 16.8743C1.10625 17.0057 0.698438 17.1558 0.604688 17.2027C0.379688 17.3153 0.121875 17.6156 0.05625 17.8501C0.01875 17.9721 0 18.5398 0 19.586V21.1436L0.117188 21.2562C0.2625 21.4063 0.440625 21.4063 0.585938 21.2562L0.703125 21.1436V19.5954C0.703125 18.0566 0.703125 18.0472 0.80625 17.9299C0.88125 17.8501 1.11094 17.7469 1.54688 17.6015C1.89375 17.4842 2.19375 17.3857 2.2125 17.3857C2.23594 17.3857 2.25 17.7845 2.25 18.2771V19.1684H1.95C1.72031 19.1684 1.62188 19.1919 1.5 19.2717C1.19531 19.4828 1.14844 19.5907 1.13438 20.1677C1.125 20.4633 1.13906 20.7636 1.16719 20.8621C1.275 21.214 1.74375 21.472 2.01094 21.3219C2.27344 21.1764 2.24531 20.8058 1.96875 20.7026C1.82813 20.651 1.82813 20.6463 1.82813 20.2616V19.8722H2.60156H3.375V20.271C3.375 20.5994 3.36094 20.6697 3.30469 20.6697C3.1875 20.6697 3 20.8902 3 21.0216C3 21.092 3.05156 21.1952 3.12188 21.2656C3.33281 21.4767 3.73125 21.3547 3.975 20.9981C4.06875 20.8574 4.07812 20.787 4.07812 20.2756C4.07812 19.7737 4.06406 19.6845 3.97031 19.525C3.82969 19.2764 3.60938 19.1684 3.24844 19.1684H2.95312V18.5351C2.95312 18.1879 2.9625 17.9017 2.97188 17.9017C2.98125 17.9017 3.09844 17.9721 3.22969 18.0613C3.69844 18.3803 3.8625 18.3474 4.6125 17.7845L5.16563 17.3716L5.41875 17.4326C5.65781 17.4889 5.68594 17.4889 5.80313 17.3997C5.95781 17.2825 5.99531 17.0432 5.88281 16.9118C5.83594 16.8649 5.66719 16.7805 5.50313 16.7289L5.20312 16.6256V16.1424V15.6592L5.41406 15.4903C5.69531 15.2557 6.01875 14.796 6.17344 14.4019C6.3 14.0875 6.3 14.05 6.31875 12.9147C6.3375 11.5916 6.31406 11.4556 6 11.0568C5.86875 10.8926 5.72344 10.78 5.49844 10.6674L5.17969 10.5126L3.89063 10.5032C3.18281 10.4985 2.48438 10.5173 2.34844 10.5407ZM5.21719 11.3055C5.325 11.3571 5.4375 11.4697 5.50781 11.5916C5.61094 11.7652 5.625 11.8403 5.625 12.2625C5.625 12.8255 5.6625 12.8068 4.95938 12.6285C4.49063 12.5112 3.96094 12.2672 3.47344 11.9529C3.25781 11.8075 3.12656 11.7558 2.99531 11.7558C2.74688 11.7558 2.65313 11.7981 2.20781 12.1312L1.81875 12.422L1.8375 12.0655C1.85625 11.6902 1.92188 11.5494 2.16563 11.3665C2.36719 11.2163 2.55469 11.1976 3.82031 11.2069C4.90781 11.2163 5.05781 11.2257 5.21719 11.3055ZM3.22969 12.6238C3.75 12.9991 4.66875 13.3463 5.3625 13.426L5.63906 13.4589L5.61094 13.7404C5.54063 14.5145 4.86094 15.2182 4.04063 15.3683C2.97188 15.5607 1.91719 14.7209 1.84688 13.6231L1.82344 13.2806L2.37656 12.8724C2.68125 12.6472 2.94375 12.4643 2.9625 12.4596C2.98594 12.4596 3.10313 12.5346 3.22969 12.6238ZM3.95625 16.0908C4.11094 16.0767 4.29375 16.0439 4.36875 16.0251L4.5 15.9829V16.2972C4.5 16.4708 4.51406 16.6866 4.52813 16.7805C4.55625 16.9447 4.55156 16.9541 4.16719 17.2402C3.95156 17.3997 3.75938 17.5311 3.74063 17.5405C3.72188 17.5452 3.525 17.4138 3.30469 17.2496C2.96719 17.001 2.90156 16.9306 2.925 16.8508C2.93906 16.7945 2.95312 16.5834 2.95312 16.3723V15.997L3.31875 16.058C3.53438 16.0955 3.7875 16.1096 3.95625 16.0908Z" fill="#002670"/>
<path d="M19.2281 10.5361C18.6469 10.6205 18.1078 11.0334 17.8266 11.6057L17.6953 11.8731V12.9756C17.6953 14.0688 17.6953 14.0828 17.8266 14.4019C17.9859 14.8006 18.3 15.2463 18.5813 15.4809L18.7969 15.6545V16.1424V16.6256L18.4969 16.7289C18.3328 16.7805 18.1641 16.8649 18.1172 16.9118C18.0047 17.0432 18.0422 17.2825 18.1969 17.3997C18.3141 17.4889 18.3422 17.4889 18.5813 17.4326L18.8391 17.3716L19.3875 17.7844C19.6875 18.0096 20.0109 18.2161 20.1 18.2395C20.3438 18.3052 20.5594 18.2255 21 17.9017C21.2063 17.7469 21.3844 17.6202 21.3984 17.6202C21.4125 17.6202 21.4219 17.9768 21.4219 18.4178V19.2154L21.2484 19.3045C20.7281 19.5672 20.5266 20.2193 20.7938 20.7542C21.1313 21.4344 21.9844 21.5705 22.5328 21.0357C23.0391 20.5384 22.9547 19.7174 22.3547 19.342L22.125 19.2013V18.3427V17.4842L22.6078 17.6484C23.3484 17.897 23.2969 17.7469 23.2969 19.5954V21.1436L23.4141 21.2562C23.475 21.3219 23.5828 21.3735 23.6484 21.3735C23.7141 21.3735 23.8219 21.3219 23.8828 21.2562L24 21.1436V19.586C24 18.5398 23.9813 17.9721 23.9438 17.8501C23.8781 17.6156 23.6203 17.3153 23.3953 17.2027C23.3016 17.1558 22.8938 17.0057 22.4906 16.8743L21.75 16.6256V16.1424V15.6545L22.0312 15.3871C22.3641 15.0681 22.5656 14.7678 22.725 14.3456C22.8328 14.0594 22.8469 13.9515 22.8656 13.1398C22.8797 12.5346 22.8656 12.1687 22.8281 11.9904C22.6547 11.2069 22.0547 10.6533 21.2578 10.5361C20.8781 10.4844 19.5938 10.4844 19.2281 10.5361ZM21.4688 11.3148C21.7219 11.4321 21.9375 11.6386 22.0594 11.8825C22.1391 12.0373 22.1484 12.1734 22.1484 12.9991V13.9374L21.9984 14.2517C21.2906 15.7483 19.275 15.7718 18.5484 14.294L18.3984 13.989L18.3844 13.0554C18.3703 12.1312 18.3703 12.1218 18.4922 11.8731C18.6609 11.526 18.9703 11.2961 19.3594 11.221C19.425 11.2116 19.8797 11.2069 20.3672 11.2116C21.1547 11.221 21.2813 11.2304 21.4688 11.3148ZM20.0438 16.0908C20.2125 16.1096 20.4656 16.0955 20.6859 16.058L21.0469 15.997V16.3723C21.0469 16.5834 21.0609 16.7945 21.075 16.8508C21.0984 16.9306 21.0328 17.001 20.7094 17.2402C20.4938 17.3997 20.3063 17.5311 20.2875 17.5405C20.2688 17.5452 20.0719 17.4138 19.8516 17.2496C19.4484 16.9494 19.4438 16.9447 19.4719 16.7805C19.4859 16.6866 19.5 16.4708 19.5 16.2972V15.9829L19.6313 16.0251C19.7063 16.0439 19.8891 16.0767 20.0438 16.0908ZM21.9891 19.9332C22.0875 20.0082 22.1719 20.1724 22.1719 20.2944C22.1719 20.4352 21.9234 20.6697 21.7734 20.6697C21.5953 20.6697 21.375 20.4352 21.375 20.2475C21.375 19.9613 21.7641 19.7596 21.9891 19.9332Z" fill="#002670"/>
</svg>
