<svg width="50" height="50" viewBox="0 0 50 50" fill="none" xmlns="http://www.w3.org/2000/svg">
<circle cx="25" cy="25" r="25" fill="#002670"/>
<path d="M24.3999 15.0121C24.3299 15.0199 24.1398 15.0473 23.9748 15.0707C23.2947 15.1606 22.4795 15.4225 21.8744 15.743C21.4393 15.9736 20.7492 16.5129 20.4492 16.8491C20.0991 17.2438 19.769 17.7988 19.614 18.26C19.494 18.604 19.479 18.7095 19.479 19.327C19.479 19.9407 19.494 20.0501 19.609 20.3901C20.1491 21.9496 21.6344 23.1261 23.5947 23.5403C24.0298 23.6342 24.1598 23.642 25 23.642C25.8402 23.642 25.9702 23.6342 26.4103 23.5403C28.3656 23.1261 29.8509 21.9496 30.391 20.3901C30.506 20.0501 30.521 19.9407 30.521 19.327C30.521 18.7095 30.506 18.604 30.386 18.26C30.121 17.4822 29.6059 16.7982 28.8657 16.2354C28.0606 15.6218 27.2104 15.2622 26.1302 15.0824C25.7851 15.0238 24.6499 14.9769 24.3999 15.0121Z" fill="white"/>
<path d="M23.3997 24.369C22.9346 24.4081 22.3295 24.498 21.8894 24.5918L21.6094 24.6504L21.3093 25.2445C20.6592 26.5225 20.2141 27.8123 19.874 29.3796C19.854 29.4734 19.879 29.493 20.1741 29.6024C20.6292 29.7666 21.0093 30.0597 21.2393 30.4232C21.4193 30.7085 21.4243 30.728 21.4243 31.1463C21.4243 31.5527 21.4143 31.5957 21.2643 31.8459C21.0443 32.2094 20.6692 32.5064 20.2041 32.6862C19.839 32.8269 19.814 32.8308 19.2739 32.8308C18.7338 32.8308 18.7088 32.8269 18.3438 32.6862C17.8787 32.5064 17.5036 32.2094 17.2836 31.8459C17.1335 31.5957 17.1235 31.5527 17.1235 31.1502C17.1235 30.7476 17.1335 30.7046 17.2836 30.4545C17.4986 30.0988 17.8737 29.7978 18.3138 29.6259C18.5038 29.5516 18.6888 29.4891 18.7188 29.4891C18.7538 29.4891 18.8289 29.2311 18.9139 28.8403C19.0989 27.9882 19.519 26.6828 19.8891 25.8229C20.0541 25.4438 20.1841 25.1272 20.1741 25.1194C20.1441 25.096 19.584 25.3539 19.0739 25.6236C18.0837 26.1473 17.2936 26.7766 16.5934 27.5896C15.6733 28.6566 15.1682 29.8096 15.0482 31.115C14.9831 31.8498 14.9831 34.5075 15.0532 34.699C15.0882 34.8007 15.1582 34.871 15.2632 34.9218C15.4182 35 15.6033 35 25 35C34.3967 35 34.5818 35 34.7368 34.9218C34.8418 34.871 34.9118 34.8007 34.9468 34.699C35.0169 34.5036 35.0169 31.7951 34.9518 31.0915C34.6968 28.5041 32.8215 26.3076 29.8559 25.1155C29.5708 25.0021 29.3358 24.9162 29.3208 24.924C29.3108 24.9357 29.3458 25.1077 29.4058 25.3109C29.5759 25.9128 29.7009 26.6672 29.7009 27.0854V27.4762L30.241 27.9061C31.8313 29.1803 32.5064 30.4154 32.1763 31.4238C32.0163 31.9045 31.5212 32.3618 30.8811 32.6158C30.281 32.8503 29.9259 32.7995 29.7959 32.4595C29.7059 32.2289 29.8359 32.0843 30.291 31.9084C30.491 31.8302 30.7261 31.7169 30.8061 31.6544C31.5962 31.072 31.1561 29.9229 29.6559 28.6292C29.4558 28.4572 29.2158 28.2696 29.1208 28.2149L28.9507 28.1133L28.4456 28.3361C27.5155 28.7465 26.6503 29.3171 26.2352 29.79C25.8602 30.216 25.7501 30.7007 25.9552 31.0525C26.0152 31.158 26.1952 31.3339 26.4153 31.4902C26.7603 31.7442 26.7753 31.7638 26.7753 31.9358C26.7753 32.0882 26.7503 32.1312 26.6103 32.2289C26.3703 32.397 26.1302 32.3852 25.8152 32.1898C25.025 31.7013 24.6549 31.0446 24.795 30.3802C24.915 29.8174 25.22 29.3718 25.8502 28.852C26.5103 28.3048 27.3854 27.8084 28.3156 27.4528L28.6507 27.3238V27.0971C28.6507 26.675 28.3256 25.1741 28.1356 24.7325C28.0656 24.5683 28.0556 24.5644 27.2004 24.4432C26.7253 24.3729 26.3853 24.3573 25.225 24.3494C24.4549 24.3416 23.6347 24.3494 23.3997 24.369Z" fill="white"/>
</svg>
