<svg width="26" height="26" viewBox="0 0 26 26" fill="none" xmlns="http://www.w3.org/2000/svg">
<path d="M11.7651 0.0326118C7.69647 0.454885 4.13138 2.66293 1.96486 6.11744C-0.54749 10.1163 -0.659376 15.3261 1.68006 19.4115C2.91589 21.5636 4.72132 23.329 6.85224 24.4686C8.66785 25.4404 10.6716 25.9746 12.5533 25.9949L13.2399 26L13.2552 20.948L13.2653 15.901H11.8668H10.4682V14.273V12.6449L11.8566 12.6347L13.2399 12.6195L13.2704 10.9151C13.2959 9.36846 13.306 9.17513 13.4077 8.80373C13.7993 7.39953 14.73 6.46341 16.1388 6.07166C16.505 5.9699 16.6677 5.95973 17.7408 5.95973C18.3968 5.95464 19.1597 5.97499 19.4343 6.00043L19.9276 6.04113V7.50638V8.97162L18.7223 8.99197C17.517 9.00723 17.5119 9.00723 17.2475 9.1446C16.688 9.43968 16.6219 9.6788 16.6219 11.3577V12.6449H18.2239C19.1038 12.6449 19.8259 12.6602 19.8259 12.6805C19.8259 12.706 19.7344 13.4182 19.6225 14.2679C19.5106 15.1226 19.4191 15.8349 19.4191 15.8603C19.4191 15.8807 18.7884 15.901 18.0205 15.901H16.6219V20.7088C16.6219 23.3544 16.6321 25.5167 16.6423 25.5167C16.7389 25.5167 17.9493 25.0588 18.407 24.8502C19.9378 24.1481 21.1228 23.3035 22.3434 22.052C23.4063 20.9581 24.0623 20.0169 24.7387 18.6229C25.3389 17.3815 25.7508 15.9977 25.939 14.5782C26.0203 13.9473 26.0203 11.9886 25.939 11.3984C25.5118 8.39163 24.2709 5.85798 22.2111 3.79748C20.1921 1.78276 17.6798 0.521027 14.8165 0.0987511C14.1909 0.00717354 12.3855 -0.0335293 11.7651 0.0326118Z" fill="#3D5A98"/>
</svg>
