<svg width="63" height="17" viewBox="0 0 63 17" fill="none" xmlns="http://www.w3.org/2000/svg">
<path d="M38.7225 8.99227C38.8808 8.50364 39.0165 8.01501 39.1748 7.5045C39.3708 6.86271 39.5517 6.23552 39.7553 5.60102C39.8985 5.14886 40.1322 4.97383 40.6146 4.97383C40.9539 4.97383 41.2931 4.97383 41.6248 4.97383C42.062 4.97383 42.3183 5.14886 42.4389 5.55727C42.7631 6.59287 43.0721 7.64306 43.3812 8.67867C43.4114 8.77348 43.4491 8.88288 43.5244 8.97769C43.5772 8.81724 43.6224 8.66409 43.6827 8.50364C43.9617 7.57743 44.2481 6.63663 44.5421 5.71042C44.708 5.16344 44.9944 4.95924 45.5673 4.95924C45.9367 4.95924 46.2985 4.95924 46.6529 4.95924C46.9619 4.95924 47.0901 5.09781 47.0222 5.38223C46.9242 5.74688 46.7961 6.11883 46.683 6.46889C46.1327 8.1317 45.5673 9.80909 45.0246 11.4646C44.8663 11.9168 44.5723 12.1064 44.0974 12.121C43.8335 12.121 43.5621 12.121 43.2983 12.121C42.8234 12.121 42.5068 11.9022 42.3711 11.4646C41.9942 10.2831 41.5946 9.09437 41.2177 7.91291C41.2026 7.84727 41.1725 7.78893 41.1348 7.66494C41.0896 7.77434 41.082 7.82539 41.0519 7.88373C40.6599 9.0652 40.2754 10.2685 39.8834 11.45C39.7402 11.9022 39.4311 12.1064 38.9411 12.1064C38.6622 12.1064 38.3908 12.1064 38.1119 12.1064C37.6596 12.1064 37.3656 11.8876 37.2224 11.4792C36.6193 9.67052 36.0238 7.86915 35.4207 6.06048C35.368 5.87086 35.2926 5.69583 35.2398 5.49892C35.2097 5.40411 35.1946 5.3093 35.1946 5.21449C35.1946 5.02488 35.2926 4.93007 35.4886 4.93007C35.9409 4.93007 36.3781 4.91548 36.8229 4.93007C37.2299 4.94465 37.5239 5.17803 37.6521 5.55727C37.9762 6.62204 38.3004 7.67953 38.6396 8.74431C38.6547 8.80995 38.6848 8.86829 38.6924 8.93393C38.6848 8.99227 38.6999 8.99227 38.7225 8.99227Z" fill="#006E9C"/>
<path d="M32.3908 11.5812C32.2777 11.6469 32.1797 11.7052 32.0817 11.7563C31.3806 12.1793 30.5891 12.3178 29.775 12.2887C29.2398 12.2595 28.7347 12.1793 28.2372 11.9605C27.3476 11.5667 26.8576 10.8301 26.8878 9.95491C26.9179 8.97764 27.4381 8.33586 28.3653 7.97851C28.8553 7.78889 29.3754 7.70866 29.9107 7.70866C30.6042 7.70866 31.3053 7.70866 31.9912 7.70866C32.1722 7.70866 32.2174 7.65761 32.2023 7.48987C32.1043 6.65847 31.75 6.33029 30.8756 6.33029C30.5213 6.33029 30.182 6.37404 29.873 6.53449C29.7599 6.60013 29.6468 6.68764 29.5488 6.78245C29.3377 7.01583 29.0814 7.12522 28.7724 7.12522C28.4784 7.12522 28.1844 7.12522 27.8828 7.12522C27.5285 7.12522 27.3778 6.95019 27.4079 6.60742C27.4607 5.93646 27.8301 5.50618 28.4482 5.22904C28.9533 5.01025 29.4885 4.93003 30.0388 4.87168C30.8002 4.82063 31.5616 4.79146 32.3079 4.98108C33.122 5.1707 33.7854 5.56452 34.1774 6.3157C34.3884 6.72411 34.4714 7.1471 34.4714 7.59927C34.4714 8.96306 34.4714 10.3269 34.4714 11.6979C34.4714 12.0261 34.3281 12.1501 34.004 12.1501C33.6346 12.1501 33.2728 12.1501 32.9185 12.1501C32.5491 12.1501 32.4285 12.0407 32.4134 11.6761C32.4059 11.6615 32.4059 11.6323 32.3908 11.5812ZM31.0565 9.19644C30.7173 9.21102 30.363 9.19644 30.0313 9.21102C29.6921 9.22561 29.4131 9.37147 29.2548 9.68507C29.0287 10.1445 29.3076 10.655 29.8579 10.7644C30.6871 10.9249 31.4334 10.6696 32.142 10.2612C32.1872 10.232 32.2099 10.1518 32.2099 10.0862C32.2249 9.85281 32.2099 9.61214 32.2099 9.37876C32.2099 9.24019 32.1571 9.20373 32.0289 9.20373C31.6972 9.19644 31.3806 9.19644 31.0565 9.19644Z" fill="#006E9C"/>
<path d="M58.1115 11.6178C57.8853 11.5886 57.6893 11.574 57.5084 11.5376C56.8752 11.4282 56.3701 11.1146 55.9706 10.6259C55.5333 10.079 55.2695 9.46634 55.0584 8.82456C54.689 7.69414 54.3423 6.56372 54.0031 5.43331C53.9201 5.16347 54.0483 4.99573 54.3423 4.99573C54.7644 4.99573 55.2017 4.99573 55.6238 4.99573C55.963 4.99573 56.1892 5.15617 56.2872 5.48436C56.6113 6.49079 56.9204 7.49723 57.2445 8.51096C57.3727 8.91937 57.5385 9.31319 57.825 9.65596C57.9758 9.83099 58.1642 9.96956 58.4054 10.0133C58.5487 10.0425 58.6165 10.0133 58.6618 9.86016C59.0387 8.52554 59.4231 7.19092 59.8 5.8563C59.8453 5.71774 59.883 5.57188 59.9282 5.43331C60.0111 5.14888 60.2222 4.99573 60.5313 4.99573C60.9534 4.99573 61.3756 4.99573 61.7977 4.99573C62.1218 4.99573 62.25 5.15617 62.1671 5.44789C61.564 7.57016 60.9685 9.7143 60.3503 11.8366C60.2071 12.3252 59.981 12.8065 59.7473 13.2514C59.295 14.0828 58.5487 14.5204 57.5762 14.5058C56.9882 14.5058 56.3927 14.4402 55.8047 14.3672C55.5107 14.3381 55.3826 14.1776 55.3826 13.8932C55.3826 13.6744 55.3826 13.4702 55.3826 13.2514C55.3826 12.9962 55.5409 12.843 55.8047 12.843C56.0836 12.8576 56.3852 12.8868 56.6641 12.9232C57.0712 12.9889 57.4255 12.8795 57.6893 12.5805C57.8853 12.3179 58.0135 11.9897 58.1115 11.6178Z" fill="#006E9C"/>
<path d="M21.227 8.55466C21.227 7.51906 21.1968 6.49804 21.242 5.46243C21.2571 5.05402 21.3551 4.63102 21.4833 4.2372C21.7622 3.42038 22.4256 2.99739 23.2548 2.80777C24.1669 2.58898 25.1017 2.60357 26.0289 2.68379C26.2701 2.69838 26.5038 2.73484 26.7299 2.7786C27.0239 2.82965 27.1521 2.98281 27.1521 3.26723C27.1521 3.47144 27.1521 3.66105 27.1521 3.86526C27.137 4.14969 26.9938 4.30284 26.6847 4.30284C26.4736 4.30284 26.2626 4.28825 26.0515 4.25179C25.4861 4.14239 24.9283 4.18615 24.378 4.31743C23.8428 4.44141 23.5865 4.75501 23.5186 5.35303C23.4885 5.52807 23.4885 5.71768 23.4734 5.90001C23.4583 6.06045 23.5186 6.1188 23.6995 6.1188C24.3931 6.10421 25.0941 6.1188 25.7801 6.1188C26.1495 6.1188 26.2701 6.24278 26.2852 6.59284C26.2852 6.81163 26.2852 7.03042 26.2852 7.24922C26.2852 7.53364 26.1269 7.6868 25.8178 7.6868C25.1167 7.6868 24.3931 7.6868 23.692 7.6868C23.5262 7.6868 23.4658 7.73785 23.4658 7.90559C23.4658 9.15998 23.4658 10.4144 23.4658 11.6761C23.4658 12.0553 23.3377 12.1793 22.9457 12.1793C22.5386 12.1793 22.1165 12.1793 21.7094 12.1793C21.3325 12.1793 21.2043 12.0553 21.2043 11.6907C21.2119 10.6259 21.2119 9.59027 21.227 8.55466Z" fill="#006E9C"/>
<path d="M50.2726 5.79078C50.4837 5.65221 50.642 5.54281 50.7928 5.448C51.524 4.98854 52.3381 4.84998 53.1975 4.84998C53.4387 4.84998 53.5895 5.00313 53.6046 5.2438C53.6197 5.57199 53.6197 5.91475 53.6046 6.23565C53.5895 6.4909 53.4463 6.62947 53.1824 6.62947C52.8734 6.62947 52.5492 6.62947 52.2401 6.6003C51.622 6.54925 51.1169 6.76074 50.6496 7.16186C50.3706 7.40982 50.2425 7.66508 50.2576 8.04431C50.2877 9.24037 50.2726 10.4437 50.2726 11.6544C50.2726 12.0336 50.1445 12.1576 49.7374 12.1576C49.3002 12.1576 48.878 12.1576 48.4408 12.1576C48.1468 12.1576 47.9885 12.0044 47.9885 11.72C47.9885 9.6196 47.9885 7.52651 47.9885 5.42612C47.9885 5.1417 48.1468 4.98854 48.4408 4.98854C48.9082 4.98854 49.368 4.98854 49.8354 4.98854C50.1143 4.98854 50.2576 5.1417 50.2726 5.41154C50.2726 5.52093 50.2726 5.63033 50.2726 5.79078Z" fill="#006E9C"/>
<path d="M17.6915 8.50365C17.6915 13.2003 13.764 17 8.90933 17C7.98211 17 7.09259 16.8614 6.26337 16.6062C5.01201 16.2269 3.87372 15.5706 2.92389 14.71C1.19007 13.1712 0.119629 10.9541 0.119629 8.49635C0.119629 3.79966 4.0471 0 8.90179 0C9.95716 0 10.9598 0.175034 11.887 0.503219C13.1006 0.926214 14.1937 1.60446 15.0832 2.46504C16.6964 4.01845 17.6915 6.14801 17.6915 8.50365Z" fill="#FFD200"/>
<path d="M12.9804 12.1138L11.7969 11.5449C11.7969 11.5449 9.78414 15.0966 6.24866 16.6136C4.9973 16.2343 3.85901 15.5779 2.90918 14.7174C3.68563 14.608 4.93699 14.2287 6.24866 12.9743C8.40463 10.9323 8.89462 9.80188 8.89462 9.80188L7.9674 9.20386C7.64325 8.99965 7.7111 8.5329 8.0654 8.41621L12.121 7.05242C12.3999 6.95761 12.7015 7.13264 12.7241 7.41707L13.3272 11.8585C13.3875 12.0554 13.1764 12.2086 12.9804 12.1138Z" fill="#006E9C"/>
<path d="M14.2013 7.19083C14.1033 7.43879 13.7339 7.39504 13.6962 7.13978L13.4324 5.64472L11.4347 6.24274C11.2086 6.30838 11.0126 6.08959 11.1106 5.88538C11.3744 5.33841 11.7589 4.42678 12.068 3.2599C12.3469 2.14407 12.1509 1.15952 11.9097 0.525024C13.1233 0.948019 14.2164 1.62627 15.1059 2.48684C15.2567 4.25175 14.6235 6.14793 14.2013 7.19083Z" fill="#006E9C"/>
</svg>
