<svg width="25" height="25" viewBox="0 0 25 25" fill="none" xmlns="http://www.w3.org/2000/svg">
<circle cx="12.5" cy="12.5" r="12.5" fill="url(#paint0_linear_960_2113)"/>
<path d="M11.864 18.14C11.1733 18.14 10.4967 18.042 9.834 17.846C9.18067 17.6407 8.63 17.3607 8.182 17.006L8.952 15.592C9.30667 15.8813 9.736 16.1147 10.24 16.292C10.7533 16.4693 11.2853 16.558 11.836 16.558C12.48 16.558 12.984 16.4227 13.348 16.152C13.7213 15.8813 13.908 15.5173 13.908 15.06C13.908 14.752 13.8287 14.4813 13.67 14.248C13.5207 14.0147 13.25 13.8373 12.858 13.716C12.4753 13.5947 11.948 13.534 11.276 13.534H8.91L9.414 8.2H15.168V9.726H10.086L11.038 8.858L10.66 12.848L9.708 11.994H11.682C12.6527 11.994 13.432 12.1247 14.02 12.386C14.6173 12.638 15.0513 12.9927 15.322 13.45C15.602 13.898 15.742 14.4113 15.742 14.99C15.742 15.5593 15.602 16.082 15.322 16.558C15.042 17.034 14.6127 17.4167 14.034 17.706C13.4647 17.9953 12.7413 18.14 11.864 18.14Z" fill="white"/>
<defs>
<linearGradient id="paint0_linear_960_2113" x1="18.5" y1="1.25" x2="3.75" y2="22.75" gradientUnits="userSpaceOnUse">
<stop stop-color="#002670" stop-opacity="0.49"/>
<stop offset="1" stop-color="#C5DFF8"/>
</linearGradient>
</defs>
</svg>
