<svg width="51" height="50" viewBox="0 0 51 50" fill="none" xmlns="http://www.w3.org/2000/svg">
<circle cx="25.5" cy="25" r="25" fill="#D9D9D9"/>
<path d="M32.1978 20.5349C32.1978 21.127 31.9626 21.6949 31.5439 22.1136C31.1252 22.5322 30.5573 22.7675 29.9652 22.7675C29.3731 22.7675 28.8053 22.5322 28.3866 22.1136C27.9679 21.6949 27.7327 21.127 27.7327 20.5349C27.7327 19.9428 27.9679 19.3749 28.3866 18.9562C28.8053 18.5376 29.3731 18.3023 29.9652 18.3023C30.5573 18.3023 31.1252 18.5376 31.5439 18.9562C31.9626 19.3749 32.1978 19.9428 32.1978 20.5349Z" fill="#686868"/>
<path fill-rule="evenodd" clip-rule="evenodd" d="M25.4364 13H25.5636C28.1411 13 30.1605 13 31.7367 13.2121C33.3486 13.4287 34.6211 13.8819 35.6202 14.8798C36.6193 15.8789 37.0714 17.1514 37.2879 18.7645C37.5 20.3395 37.5 22.3589 37.5 24.9364V25.0346C37.5 27.1656 37.5 28.9092 37.3839 30.3291C37.2678 31.758 37.03 32.949 36.4965 33.9403C36.262 34.3767 35.9718 34.7686 35.6202 35.1202C34.6211 36.1193 33.3486 36.5714 31.7355 36.7879C30.1605 37 28.1411 37 25.5636 37H25.4364C22.8589 37 20.8395 37 19.2633 36.7879C17.6514 36.5714 16.3789 36.1181 15.3798 35.1202C14.4946 34.235 14.0369 33.1332 13.7947 31.7647C13.5547 30.4218 13.5112 28.7507 13.5022 26.6767C13.5 26.1487 13.5 25.5905 13.5 25.0011V24.9364C13.5 22.3589 13.5 20.3395 13.7121 18.7633C13.9287 17.1514 14.3819 15.8789 15.3798 14.8798C16.3789 13.8807 17.6514 13.4287 19.2645 13.2121C20.8395 13 22.8589 13 25.4364 13ZM19.4866 14.8709C18.06 15.0629 17.1993 15.429 16.5642 16.0642C15.9279 16.7005 15.5629 17.56 15.3709 18.9877C15.1767 20.4389 15.1744 22.3455 15.1744 25V25.9421L16.2918 24.9643C16.7819 24.5352 17.4168 24.3085 18.0679 24.3301C18.7189 24.3516 19.3374 24.6198 19.798 25.0804L24.5869 29.8692C24.9585 30.2408 25.4493 30.4693 25.9728 30.5146C26.4963 30.56 27.0191 30.4192 27.449 30.117L27.7817 29.8826C28.402 29.4467 29.1518 29.2342 29.9086 29.2799C30.6653 29.3255 31.3842 29.6265 31.9476 30.1338L35.1067 32.9769C35.426 32.3094 35.6146 31.432 35.7151 30.194C35.8245 28.8489 35.8256 27.1723 35.8256 25C35.8256 22.3455 35.8233 20.4389 35.6291 18.9877C35.4371 17.56 35.071 16.6993 34.4358 16.0631C33.7995 15.4279 32.94 15.0629 31.5123 14.8709C30.0611 14.6767 28.1545 14.6744 25.5 14.6744C22.8455 14.6744 20.9378 14.6767 19.4866 14.8709Z" fill="#686868"/>
</svg>
