<svg width="18" height="18" viewBox="0 0 18 18" fill="none" xmlns="http://www.w3.org/2000/svg">
<path d="M4.40155 0.0489273C3.78968 0.229464 3.28682 0.748024 3.07934 1.40871L3.00198 1.66223L2.99143 6.32927C2.98439 9.39453 2.99494 11.1 3.01604 11.3036C3.06176 11.6685 3.25165 12.1295 3.47319 12.406C3.65253 12.6288 3.95144 12.8478 4.25034 12.9745L4.47892 13.0705L10.3972 13.0821C16.9133 13.0936 16.5335 13.1051 16.9872 12.8554C17.4443 12.6019 17.8558 12.0104 17.9613 11.4457C17.9894 11.3036 17.9999 9.8017 17.9999 6.52901C17.9999 1.31268 18.0105 1.5662 17.7714 1.07068C17.5604 0.632788 17.1876 0.275558 16.7516 0.0950222L16.5406 0.0105162L10.5625 0.00283337C5.50574 -0.00484848 4.55628 0.00283337 4.40155 0.0489273ZM16.2593 1.65839C16.5019 1.76978 16.4878 1.57772 16.4808 4.85041L16.4702 7.80428L15.2324 6.23324C14.3955 5.16539 13.9489 4.62378 13.8434 4.55464C13.3827 4.24734 12.8412 4.25503 12.3981 4.57384C12.2786 4.66219 11.8109 5.24605 10.784 6.59047L9.33875 8.48417L8.80423 7.908C8.13258 7.18201 8.02357 7.11671 7.50312 7.11671C6.92641 7.11671 6.92993 7.11287 5.61475 8.54947L4.4965 9.76713V5.8568C4.4965 1.53547 4.48243 1.77362 4.71804 1.66223C4.88683 1.58156 16.0799 1.57772 16.2593 1.65839Z" fill="black"/>
<path d="M6.28989 2.51844C6.03318 2.61063 5.85032 2.74507 5.64636 2.98322C5.1013 3.62086 5.1224 4.59652 5.6956 5.22648C6.56066 6.17141 8.01298 5.65285 8.22397 4.32764C8.30837 3.80524 8.13254 3.27131 7.75276 2.87951C7.45737 2.5799 7.23231 2.48003 6.79978 2.46082C6.56066 2.45314 6.43406 2.46466 6.28989 2.51844Z" fill="black"/>
<path d="M0.934261 9.07548C0.382167 11.0844 0.0164492 12.4826 0.00589964 12.6247C-0.0538812 13.3277 0.347002 14.1036 0.920195 14.407C1.02921 14.4647 1.73603 14.6951 2.48505 14.9141C3.74748 15.2828 5.32639 15.7438 10.8262 17.3532C11.9972 17.6989 13.0487 17.987 13.1647 17.9947C13.7696 18.0485 14.4096 17.6874 14.719 17.1189C14.7893 16.9883 14.9617 16.4544 15.1867 15.667C15.3836 14.9832 15.5524 14.3994 15.563 14.3686C15.577 14.3264 14.6592 14.3187 10.0139 14.3187C4.64419 14.3187 4.4332 14.3149 4.11319 14.2419C3.23055 14.0421 2.44636 13.3469 2.11581 12.4634C1.87317 11.8181 1.88372 11.9948 1.86262 8.72209L1.84152 5.76053L0.934261 9.07548Z" fill="black"/>
</svg>
