<svg width="150" height="150" viewBox="0 0 150 150" fill="none" xmlns="http://www.w3.org/2000/svg">
<circle cx="75" cy="75" r="75" fill="#C5DFF8"/>
<path d="M63.2095 35.1409C61.0997 35.4691 58.521 36.485 56.5674 37.7821C55.3015 38.6104 53.1135 40.767 52.1914 42.111C51.1287 43.6582 50.2222 45.5961 49.7378 47.4558C49.3783 48.7842 49.3314 49.2843 49.3158 51.4722C49.3158 53.5507 49.3627 54.2071 49.6596 55.3479C50.4254 58.4267 52.0039 61.0365 54.6764 63.7089C56.7081 65.7406 58.3022 66.9908 64.1316 71.1479C68.9296 74.5704 70.8987 76.0707 73.368 78.1805C74.2276 78.915 74.9621 79.5245 75.009 79.5245C75.0559 79.5245 76.0093 78.7431 77.1189 77.7898C79.4475 75.805 83.2765 72.8982 87.6681 69.757C96.2481 63.6308 99.1238 60.3645 100.358 55.3479C100.765 53.6758 100.843 50.222 100.499 48.5029C99.1394 41.6266 93.8101 36.3912 86.9805 35.2191C82.8233 34.5158 79.2131 35.5004 76.0249 38.2509L74.9309 39.1886L74.1495 38.4385C72.7429 37.0788 70.8519 36.0161 68.8827 35.4379C67.5699 35.0628 64.7099 34.9222 63.2095 35.1409ZM77.3533 51.5503V53.8945H79.6976H82.0419V56.2387V58.5829H79.6976H77.3533V60.9271V63.2713H75.009H72.6648V60.9271V58.5829H70.3205H67.9762V56.2387V53.8945H70.3205H72.6648V51.5503V49.2061H75.009H77.3533V51.5503Z" fill="#002670"/>
<path d="M37.0786 56.7701C35.672 57.9578 35 61.8804 35 68.9755C35 74.5391 35.5626 83.3689 36.0315 85.2287C36.1565 85.7444 36.5785 86.8071 36.9536 87.5729C38.3132 90.4015 40.5325 93.0739 45.4711 97.7936C51.1286 103.201 54.5825 106.733 55.6765 108.202C57.2862 110.343 58.599 113.234 58.599 114.641V115H65.6318H72.6803L72.6334 104.185L72.5865 93.3552L72.1489 91.9487C71.3831 89.4951 69.8359 87.0259 68.1637 85.6506C67.7573 85.3224 66.6946 84.5567 65.7881 83.9472C60.9277 80.7122 56.5986 78.6962 53.6135 78.2742C49.9721 77.7585 48.5812 79.6338 50.2378 82.7907C51.1755 84.5723 52.4101 85.6662 58.052 89.7452C60.8964 91.7924 63.2719 93.5271 63.3501 93.6053C63.4282 93.6678 62.8812 94.5586 62.1154 95.6057L60.7401 97.4966L60.2556 97.1216C59.99 96.934 58.0833 95.5431 56.0203 94.0585C50.2847 89.9171 49.4564 89.2763 48.503 88.2292C46.6276 86.1663 44.8459 82.947 44.2364 80.5403C44.0645 79.8526 43.8145 77.9929 43.6738 76.3988C42.7361 65.7093 40.9857 58.4579 38.9853 56.9264C38.2038 56.3325 37.6412 56.3012 37.0786 56.7701Z" fill="#002670"/>
<path d="M111.47 56.6138C109.204 57.6296 107.438 64.4278 106.281 76.7427C105.86 81.1029 105.266 82.9157 103.171 86.0726C101.734 88.2449 100.405 89.4326 94.7008 93.5428C91.8251 95.6369 89.4183 97.356 89.3558 97.3716C89.2464 97.4185 86.574 93.9335 86.574 93.7459C86.574 93.6834 88.9495 91.9174 91.8408 89.8233C94.732 87.7291 97.5295 85.5725 98.0453 85.0568C100.061 83.0251 100.952 80.7122 100.249 79.3682C99.9676 78.8212 99.108 78.3523 98.139 78.2117C97.2013 78.071 95.0602 78.4617 93.4349 79.0556C89.5903 80.4621 83.7921 83.8378 81.4009 86.0569C80.2132 87.1509 78.7753 89.3076 78.244 90.7922C77.3688 93.1989 77.3531 93.2771 77.3531 104.56V115H84.3703H91.3719L91.4813 114.14C91.5282 113.672 91.7626 112.812 91.9814 112.218C92.9816 109.515 94.9352 107.077 99.9051 102.31C105.531 96.9028 109.188 93.1989 110.329 91.7455C111.861 89.792 113.064 87.8073 113.596 86.307C114.361 84.1816 114.783 79.587 114.971 71.5542C115.205 60.5677 114.018 55.5042 111.47 56.6138Z" fill="#002670"/>
</svg>
