<svg width="20" height="20" viewBox="0 0 20 20" fill="none" xmlns="http://www.w3.org/2000/svg">
<path d="M9.54446 0.0463238C9.03627 0.187172 9.177 0.0580597 4.6737 4.55742C2.33605 6.89709 0.36976 8.88854 0.307214 8.98244C-0.177516 9.70625 -0.0797883 10.6765 0.537852 11.2986C0.897491 11.6547 1.35486 11.8425 1.87868 11.8425H2.1445V14.9725C2.1445 17.0891 2.16014 18.165 2.1875 18.3059C2.33605 19.018 2.91069 19.6635 3.62215 19.91C3.88015 20 3.89969 20 5.7878 20C7.64854 20 7.69154 20 7.79708 19.9178C7.85572 19.8748 7.94172 19.7887 7.98472 19.73C8.06681 19.6244 8.06681 19.5735 8.08636 17.0109L8.1059 14.3973L8.22318 14.2056C8.37172 13.9669 8.67272 13.7752 8.962 13.74C9.07145 13.7244 9.61873 13.7205 10.1777 13.7283L11.1941 13.74L11.4013 13.8535C11.5967 13.963 11.7218 14.0921 11.843 14.3073C11.886 14.3895 11.9017 14.8707 11.9173 17.0148C11.9368 19.5735 11.9368 19.6244 12.0189 19.73C12.0619 19.7887 12.1479 19.8748 12.2066 19.9178C12.3121 20 12.3551 20 14.2159 20C16.104 20 16.1235 20 16.3815 19.91C17.093 19.6635 17.6676 19.018 17.8161 18.3059C17.8435 18.165 17.8591 17.0891 17.8591 14.9725V11.8425H18.125C19.0632 11.8425 19.8215 11.2047 19.9779 10.2853C20.0365 9.92535 19.9779 9.54193 19.8098 9.18198C19.6964 8.94723 19.3563 8.5951 15.4394 4.67088C13.1057 2.33121 11.112 0.363234 11.0104 0.296722C10.9087 0.230209 10.7328 0.140223 10.6195 0.0971851C10.3458 -0.00845146 9.822 -0.0319271 9.54446 0.0463238Z" fill="#BEBBBB"/>
</svg>
