<svg width="80" height="80" viewBox="0 0 80 80" fill="none" xmlns="http://www.w3.org/2000/svg">
<circle cx="40" cy="40" r="40" fill="#002670"/>
<path d="M39.4473 28.0365C39.4238 28.0708 39.4062 28.5593 39.4062 29.1165V30.1279H38.7031H38V31.4993V32.8708H38.7031H39.4062V33.8993V34.9279H40.3438H41.2812V33.8993V32.8708H41.9844H42.6875V31.4993V30.1279H41.9844H41.2871L41.2695 29.0736L41.252 28.0279L40.3672 28.0022C39.8867 27.9936 39.4707 28.0108 39.4473 28.0365Z" fill="white"/>
<path d="M34.9258 25.1629C34.6504 25.3514 34.457 25.6686 34.375 26.1057C34.3281 26.32 34.3164 30.46 34.3281 39.1257L34.3457 51.8286H34.0176C33.7246 51.8286 33.6777 51.8029 33.6367 51.6314C33.6074 51.5286 33.5781 46.9943 33.5723 41.56L33.5547 31.6771L30.5488 31.7029C27.8477 31.7286 27.5312 31.7457 27.3672 31.8743C27.1211 32.0714 26.8926 32.4829 26.8164 32.8686C26.7695 33.0914 26.7578 36.0229 26.7695 42.5114L26.7871 51.8286H25.8965H25V53.4143V55H40H55V53.4143V51.8286H54.1797H53.3594V42.3829C53.3594 32.9714 53.3594 32.9371 53.2363 32.5686C53.1484 32.3114 53.0312 32.1229 52.8438 31.96L52.5684 31.7286L49.5098 31.7029L46.4453 31.6771L46.4277 41.56C46.4219 46.9943 46.3926 51.5286 46.3633 51.64C46.3223 51.8029 46.2754 51.8286 45.9824 51.8286H45.6543L45.6719 39.1257C45.6836 30.46 45.6719 26.32 45.625 26.1057C45.543 25.6686 45.3496 25.3514 45.0742 25.1629C44.8457 25.0086 44.582 25 40 25C35.418 25 35.1543 25.0086 34.9258 25.1629ZM41.1602 25.9686C42.3203 26.56 43.1582 27.7943 43.5391 29.4571C43.6738 30.0486 43.7031 30.3486 43.709 31.0429C43.7148 32.08 43.6328 32.62 43.3281 33.5629C43.1348 34.1457 43 34.4286 42.6133 34.9857C41.8633 36.0743 41.0488 36.5714 40 36.5714C38.9512 36.5714 38.1309 36.0743 37.3926 34.9857C36.5312 33.7257 36.1562 32.1914 36.3027 30.4943C36.502 28.2229 37.6738 26.32 39.1914 25.8143C39.748 25.6257 40.627 25.6943 41.1602 25.9686ZM29.9219 36.7429V37.8657L29.1777 37.84L28.4277 37.8143L28.4102 36.7171L28.3926 35.6286H29.1602H29.9219V36.7429ZM32.3125 36.7171L32.2949 37.8143L31.5508 37.84L30.8008 37.8657V36.7429V35.6286H31.5625H32.3301L32.3125 36.7171ZM49.6094 36.7429V37.8571H48.877H48.1445V36.7429V35.6286H48.877H49.6094V36.7429ZM52 36.7171L51.9824 37.8143L51.2383 37.84L50.4883 37.8657V36.7429V35.6286H51.25H52.0176L52 36.7171ZM29.9219 40.5143V41.6371L29.1777 41.6114L28.4277 41.5857L28.4102 40.4886L28.3926 39.4H29.1602H29.9219V40.5143ZM32.3125 40.4886L32.2949 41.5857L31.5508 41.6114L30.8008 41.6371V40.5143V39.4H31.5625H32.3301L32.3125 40.4886ZM49.6094 40.5143V41.6286H48.877H48.1445V40.5143V39.4H48.877H49.6094V40.5143ZM52 40.4886L51.9824 41.5857L51.2383 41.6114L50.4883 41.6371V40.5143V39.4H51.25H52.0176L52 40.4886ZM29.9219 44.3714V45.4857H29.1602H28.3984V44.3714V43.2571H29.1602H29.9219V44.3714ZM32.3242 44.3714V45.4857H31.5625H30.8008V44.3714V43.2571H31.5625H32.3242V44.3714ZM49.6094 44.3714V45.4857H48.877H48.1445V44.3714V43.2571H48.877H49.6094V44.3714ZM52.0117 44.3714V45.4857H51.25H50.4883V44.3714V43.2571H51.25H52.0117V44.3714ZM42.3438 47.6714V51.7429H40.1172H37.8906V47.6714V43.6H40.1172H42.3438V47.6714Z" fill="white"/>
</svg>
