<svg width="80" height="80" viewBox="0 0 80 80" fill="none" xmlns="http://www.w3.org/2000/svg">
<circle cx="40" cy="40" r="40" fill="#002670"/>
<path d="M35.8891 25.0968C35.6531 25.2169 35.6084 25.4092 35.4808 26.9231C35.3596 28.455 35.3851 30.6177 35.551 31.6089C35.9465 34.048 36.7949 35.9343 38.2875 37.6765C39.3401 38.908 39.7228 40.0254 39.5442 41.3831C39.3273 43.0712 38.4981 44.525 37.4838 45.0056C37.133 45.1678 37.0373 45.1859 36.5142 45.1859C36.1953 45.1859 35.6467 45.1438 35.2958 45.0958C33.2354 44.8134 31.7938 45.2399 31.1304 46.3273C31.0411 46.4775 30.9645 46.6036 30.9582 46.6157C30.9518 46.6217 30.6903 46.5916 30.3841 46.5376C27.7623 46.111 25.855 47.1984 25.198 49.5053C25.0385 50.064 25.0322 50.1541 25.0066 52.2026C24.9939 53.3741 25.0003 54.3894 25.0194 54.4675C25.0768 54.6717 25.2171 54.7859 25.5042 54.8579C25.8487 54.9481 28.8595 55.0442 29.1657 54.9781C29.6122 54.882 29.5931 54.9481 29.6122 52.9596C29.625 50.8509 29.625 50.8569 30.097 50.911C30.5244 50.9591 30.8178 51.1153 32.3998 52.1065C34.9322 53.6985 36.5844 54.3233 38.868 54.5576C39.7037 54.6417 41.1262 54.5516 42.1468 54.3473C44.2774 53.9208 46.4079 52.9235 48.328 51.4577C49.2593 50.7428 51.1092 48.9826 51.8746 48.0815C53.3928 46.2912 54.1519 44.9336 54.6176 43.1493C55.3639 40.3318 55.0003 37.1538 53.6799 34.853C52.5381 32.8525 50.854 31.4948 48.8064 30.906C48.3088 30.7679 48.1366 30.7498 47.2563 30.7438C46.0635 30.7378 45.5595 30.846 44.4815 31.3326C43.6139 31.723 43.1292 32.0414 41.9554 32.9546L41.0369 33.6635L40.7179 33.3391C40.3798 32.9966 39.9652 32.2577 39.7356 31.6089C39.3592 30.4975 39.2316 29.1999 39.3401 27.5719C39.3847 26.9351 39.4358 26.1481 39.4549 25.8237C39.5059 24.9466 39.6207 25.0007 37.6624 25.0007C36.3739 25.0067 36.0294 25.0247 35.8891 25.0968ZM38.4087 26.4845C38.3131 27.4577 38.3513 30.0109 38.4789 30.6477C38.817 32.3779 39.4676 33.6334 40.3735 34.3123C40.8072 34.6307 40.9858 34.6607 41.4324 34.4625C43.7479 33.4412 44.7303 33.1709 46.0571 33.1709C47.773 33.1709 49.1636 33.7356 50.3054 34.883C52.1745 36.7694 52.806 40.0194 51.8428 42.8009C51.0964 44.9636 49.1062 47.4267 46.4717 49.4392C45.0747 50.5085 43.5438 51.2895 42.1851 51.6199C40.45 52.0404 39.1742 52.0584 37.5731 51.668C35.9911 51.2895 34.1349 50.2802 32.8081 49.0847C31.9724 48.3278 31.6854 47.733 31.8321 47.0782C31.9214 46.6817 32.336 46.2852 32.84 46.123C33.3566 45.9548 34.3709 45.9308 35.5638 46.057C36.6482 46.1711 37.0564 46.1531 37.656 45.9668C39.2125 45.4742 40.4054 43.4677 40.5393 41.1188C40.6222 39.5508 40.2842 38.6257 39.0594 37.1058C38.2557 36.1145 38.0069 35.7541 37.6624 35.0993C37.0692 33.9939 36.629 32.4379 36.4696 30.918C36.393 30.2152 36.4313 26.7128 36.5142 26.1841L36.5525 25.9619H37.5093H38.4662L38.4087 26.4845ZM48.4683 31.7651C49.4889 32.0114 50.4394 32.5701 51.3516 33.4592C53.1313 35.1954 54.018 37.4842 54.018 40.3498C54.018 42.7949 53.1058 45.1018 51.2878 47.2585C47.6773 51.5418 43.4991 53.7886 39.4102 53.6384C37.8665 53.5783 36.6482 53.272 35.1364 52.5691C34.205 52.1305 33.7968 51.8962 32.4126 50.9951C31.1687 50.1901 30.7923 50.0279 30.097 50.0039C29.6314 49.9859 29.5165 50.0039 29.2678 50.124C28.7319 50.3824 28.6299 50.7909 28.6299 52.7493V54.095L27.3987 54.0589C26.7162 54.0409 26.1166 54.0049 26.0592 53.9809C25.9635 53.9448 25.9507 53.7826 25.9507 52.3048C25.9507 50.3463 26.0209 49.8477 26.3972 49.1028C26.8055 48.2978 27.3732 47.8051 28.2216 47.5228C28.7574 47.3426 29.7079 47.3426 30.3203 47.5168L30.7668 47.6489L30.8816 48.0034C31.2388 49.0787 32.4317 50.2442 34.2433 51.2895C35.4617 51.9864 36.8842 52.515 38.1472 52.7373C39.0466 52.8995 40.8838 52.8815 41.7513 52.7073C43.1483 52.4249 44.5708 51.8602 45.77 51.1153C48.8 49.2289 51.881 45.7686 52.7677 43.2394C53.1441 42.1641 53.2206 41.6655 53.2142 40.1696C53.2142 38.9621 53.1951 38.7098 53.0739 38.1571C52.672 36.4209 51.9576 35.0812 50.8987 34.072C49.9036 33.1288 48.5512 32.486 47.116 32.2697C46.51 32.1796 45.2023 32.2217 44.7047 32.3538C44.3858 32.4379 44.3667 32.4379 44.4815 32.3538C44.7685 32.1376 45.6871 31.8132 46.3314 31.693C46.8863 31.5909 47.9006 31.6209 48.4683 31.7651Z" fill="white"/>
<path d="M44.6665 33.9218C42.9952 34.2642 41.7322 35.3396 41.4962 36.6192C41.375 37.286 41.5153 37.7005 42.2489 38.878C43.2695 40.512 43.3652 42.4344 42.5168 44.2787C42.2553 44.8374 41.7258 45.6244 41.3112 46.0569C40.9093 46.4775 40.8519 46.5976 40.9412 46.8079C40.9858 46.904 41.1007 47.0121 41.2091 47.0542C41.477 47.1563 41.7513 47.0121 42.1659 46.5436C43.0462 45.5463 43.5821 44.525 43.9138 43.1733C44.0988 42.4284 44.086 40.8845 43.8883 40.2056C43.6841 39.4968 43.3716 38.8059 42.9697 38.1811C42.5232 37.4842 42.4466 37.292 42.4466 36.9195C42.4594 36.1205 43.3078 35.3155 44.558 34.907C45.668 34.5466 46.982 34.7989 47.8815 35.5438C49.3422 36.7633 50.0822 39.4247 49.5464 41.5814C49.3805 42.2722 49.1828 42.5606 48.3088 43.4437C47.9006 43.8582 47.0905 44.7894 46.5036 45.5163C44.7749 47.661 43.9393 48.538 42.9952 49.2109C42.0129 49.9018 41.2729 50.1661 40.163 50.2262C39.2763 50.2682 39.0913 50.3403 39.0913 50.6467C39.0913 51.0612 39.4804 51.2294 40.2842 51.1693C41.6174 51.0672 42.8995 50.5325 44.035 49.6014C45.0365 48.7783 45.7381 48.0274 47.2755 46.105C47.8623 45.3721 48.6342 44.477 48.9978 44.1225C49.827 43.2935 50.0184 43.0652 50.2544 42.5906C50.5542 41.9779 50.669 41.329 50.6627 40.2297C50.6499 36.9015 49.0552 34.3844 46.6695 33.9278C46.0826 33.8137 45.2023 33.8137 44.6665 33.9218Z" fill="white"/>
</svg>
