<svg width="80" height="80" viewBox="0 0 80 80" fill="none" xmlns="http://www.w3.org/2000/svg">
<circle cx="40" cy="40" r="40" fill="#002670"/>
<path d="M32.7001 25.0686C32.0706 25.2361 31.2062 25.7455 30.9431 26.1141C30.7364 26.4023 30.6237 26.9183 30.7364 27.039C30.8022 27.106 31.1404 26.9719 32.1269 26.4693C32.841 26.1007 33.7054 25.6717 34.0342 25.5109L34.6356 25.2227L34.3725 25.1289C33.9967 24.9881 33.1229 24.9546 32.7001 25.0686Z" fill="white"/>
<path d="M35.7818 26.0404C35.3966 26.1074 31.8451 27.8834 31.5068 28.185C31.0653 28.567 31.0465 28.7882 31.4505 29.3512C31.6384 29.6193 31.9109 29.941 32.0612 30.0683L32.3431 30.3029L32.6531 30.0951C33.4611 29.5589 34.2691 29.3311 35.3778 29.3311C37.0314 29.3311 38.3468 29.9209 39.0609 30.9999C39.3333 31.4154 39.3521 31.4891 39.3521 32.1794C39.3521 32.8698 39.3333 32.9435 39.0515 33.3657C38.685 33.9287 38.0462 34.4179 37.3791 34.6726C37.0408 34.7933 36.8811 34.8938 36.9093 34.9541C37.0314 35.1753 40.6299 38.7609 40.8272 38.8413C41.1561 38.982 41.6165 39.0424 41.9829 38.982C42.1708 38.9552 43.1667 38.4995 44.2754 37.9432C45.9666 37.0988 46.2767 36.9178 46.4458 36.6765C46.6807 36.328 46.6807 36.1404 46.4552 35.7986C46.3518 35.6511 44.2284 33.4528 41.7292 30.9061C38.7038 27.8365 37.0878 26.2481 36.8999 26.1744C36.5429 26.0269 36.1389 25.98 35.7818 26.0404Z" fill="white"/>
<path d="M34.5322 30.4905C34.0718 30.5911 33.386 31.0602 33.1417 31.4422C32.6813 32.1325 32.935 32.977 33.743 33.4998C34.2503 33.8282 34.7201 33.9622 35.3778 33.9622C37.52 33.9689 38.6663 32.1727 37.2663 31.0066C36.6368 30.4838 35.5 30.2694 34.5322 30.4905Z" fill="white"/>
<path d="M30.5485 33.2183C28.7445 34.6458 27.5607 36.261 26.9782 38.1175C26.7903 38.7274 26.7621 38.9888 26.7621 40.2219C26.7715 41.4216 26.7997 41.7232 26.9688 42.2795C28.0963 45.8584 31.5914 48.6866 36.3268 49.8528C36.6744 49.9332 36.9563 50.0204 36.9563 50.0405C36.9563 50.0606 36.4865 50.4895 35.9228 50.9989L34.8892 51.917H32.39C30.5203 51.917 29.825 51.9372 29.5995 52.0042C28.7727 52.2522 28.2184 52.8687 28.2184 53.5389V53.9277H27.3446C26.593 53.9277 26.4426 53.9478 26.2641 54.0617C25.8883 54.3164 25.9165 54.685 26.3299 54.9129C26.4426 54.9799 29.7311 54.9933 41.0057 55C55.4655 55 55.5219 55 55.7286 54.866C55.9916 54.685 56.0762 54.4504 55.9259 54.2494C55.7192 53.9746 55.5501 53.9344 54.6481 53.9277H53.7743V53.5389C53.7743 52.8687 53.22 52.2522 52.3932 52.0042C52.1677 51.9372 51.4724 51.917 49.6027 51.917H47.1035L46.0699 50.9989C45.5062 50.4895 45.0364 50.0606 45.0364 50.0405C45.0364 50.0137 45.3277 49.9332 45.6753 49.8528C47.4229 49.4507 49.4054 48.5794 50.9368 47.5272L51.9704 46.8235H52.9945C53.9528 46.8235 54.0374 46.8101 54.2253 46.6693C54.6575 46.3476 54.3944 45.8718 53.7555 45.7847C53.5864 45.7645 51.6133 45.7511 49.3772 45.7645L45.2995 45.7847L45.074 45.9723C44.6136 46.361 44.9613 46.8235 45.7129 46.8235H46.1169L45.882 46.9575C45.5438 47.1385 44.3318 47.4736 43.3734 47.6411C42.2647 47.8355 40.1977 47.8489 39.0233 47.6679C35.312 47.0983 32.3618 45.3423 31.0089 42.9028C30.5485 42.0717 30.3512 41.2809 30.3512 40.2219C30.3606 38.3454 31.2062 36.6966 32.8974 35.2557C33.4517 34.7866 33.4893 34.7329 33.3296 34.6726C32.9913 34.5386 32.1645 33.9354 31.939 33.6606C31.8169 33.5065 31.6384 33.225 31.5538 33.0306C31.4599 32.843 31.3565 32.6821 31.3189 32.6821C31.272 32.6821 30.9337 32.9234 30.5485 33.2183ZM40.9963 50.4091C41.2312 50.4091 41.8607 50.389 42.4057 50.3622L43.3922 50.3153L44.2566 51.0994L45.1304 51.8835L43.0634 51.9036C41.9265 51.9103 40.0662 51.9103 38.9293 51.9036L36.8623 51.8835L37.7361 51.0994L38.6005 50.3153L39.587 50.3622C40.132 50.389 40.7615 50.4091 40.9963 50.4091Z" fill="white"/>
<path d="M45.1116 38.8346C44.2472 39.2702 43.5519 39.6456 43.5613 39.6858C43.6177 39.8064 44.4069 39.927 44.8485 39.8801C45.8633 39.7796 46.5961 39.2635 46.7746 38.533C46.8968 37.9767 46.8122 37.9902 45.1116 38.8346Z" fill="white"/>
<path d="M45.3559 43.7003C44.8861 43.8478 44.7828 44.2834 45.1586 44.5314C45.3747 44.6788 45.3935 44.6788 49.7436 44.6788H54.1219L54.3192 44.5247C54.6951 44.2365 54.5541 43.8075 54.0468 43.6802C53.577 43.5663 45.7411 43.5864 45.3559 43.7003Z" fill="white"/>
</svg>
