<svg width="390" height="173" viewBox="0 0 390 173" fill="none" xmlns="http://www.w3.org/2000/svg">
<path d="M389.892 73.0874C393.671 73.2743 391.681 144.85 390.191 172.934L-4.5198 174.117L-4.69838 114.5C11.2094 109.91 48.2004 105.148 78 100.5C115.249 94.6899 174.157 103.56 244 114.5C313.843 125.44 385.167 72.8538 389.892 73.0874Z" fill="url(#paint0_linear_241_1627)"/>
<path fill-rule="evenodd" clip-rule="evenodd" d="M126.5 13.7537C176.151 -33.9951 300.291 49.56 126.5 157C-47.2913 49.5705 76.8485 -33.9951 126.5 13.7537Z" fill="url(#paint1_linear_241_1627)"/>
<path d="M206 105H165.424L160.593 89.3182L155.763 105L151.898 70.5L145.136 105L143.203 13L129.678 105L124.847 47.5L118.085 105L114.22 40.1818L102.627 105L99.2613 76.7727L87.1695 105V85.1364L79.4407 105H35" stroke="white"/>
<defs>
<linearGradient id="paint0_linear_241_1627" x1="-4.67453" y1="122.432" x2="392.123" y2="121.244" gradientUnits="userSpaceOnUse">
<stop stop-color="#DFF1FF" stop-opacity="0.54"/>
<stop offset="0.0639996" stop-color="#D4ECFF" stop-opacity="0.25"/>
<stop offset="1" stop-color="#39A7FF"/>
</linearGradient>
<linearGradient id="paint1_linear_241_1627" x1="208.84" y1="90.5367" x2="46.194" y2="41.1757" gradientUnits="userSpaceOnUse">
<stop stop-color="#038BF8"/>
<stop offset="1" stop-color="#99C3E5"/>
<stop offset="1" stop-color="#85BEED" stop-opacity="0.37"/>
</linearGradient>
</defs>
</svg>
