<svg width="150" height="150" viewBox="0 0 150 150" fill="none" xmlns="http://www.w3.org/2000/svg">
<circle cx="75" cy="75" r="75" fill="#C5DFF8"/>
<path d="M52.7316 35.2268C52.4815 35.3402 52.0907 35.6479 51.8718 35.8909L51.4811 36.3283L51.4342 51.2309C51.4029 64.8215 51.4185 66.1336 51.653 66.0364C51.7781 65.9878 52.6691 65.9392 53.6069 65.9392H55.3108V54.4706C55.3108 41.609 55.2639 42.1273 56.4363 40.7505C56.7802 40.3455 57.4367 39.811 57.8744 39.568L58.6716 39.1306L75.4599 39.082L92.2325 39.0496L92.1856 37.7537C92.1075 36.3121 91.8417 35.7613 90.9351 35.2916C90.4349 35.0162 89.2156 35 71.8021 35C56.6551 35.0162 53.1067 35.0486 52.7316 35.2268Z" fill="#002670"/>
<path d="M59.3282 41.8682C59.0155 41.9978 58.6247 42.1922 58.484 42.3056C57.8275 42.8887 57.8119 43.0345 57.8119 54.7622V65.9392H78.2111H98.6102V54.6326C98.6102 43.731 98.5946 43.3261 98.2976 42.8239C98.1413 42.5323 97.813 42.176 97.5629 42.014C97.1565 41.7386 96.1717 41.7224 78.5237 41.69C63.2204 41.6576 59.8127 41.69 59.3282 41.8682ZM94.6867 47.7321C95.14 48.3152 95.1088 48.9632 94.6086 49.4815L94.1865 49.9027H78.258H62.3138L61.8605 49.4329C61.6104 49.1737 61.4071 48.8336 61.4071 48.6878C61.4071 48.3314 61.8292 47.5215 62.0637 47.4243C62.1731 47.3757 69.4887 47.3271 78.3205 47.3271L94.3741 47.3109L94.6867 47.7321ZM78.8051 54.9242C79.0083 55.1024 79.2427 55.4264 79.2896 55.6531C79.3991 56.1229 79.0552 56.9328 78.68 57.0948C78.3361 57.2244 62.4545 57.2244 62.1106 57.0948C61.8292 56.9814 61.4071 56.2039 61.4071 55.8151C61.4071 55.6693 61.6104 55.3292 61.8605 55.07L62.3138 54.6002H70.364C78.1485 54.6002 78.4143 54.6164 78.8051 54.9242ZM94.6398 62.4241C95.14 63.0397 95.1244 63.5904 94.5617 64.1736L94.1084 64.6433H78.2423C62.6733 64.6433 62.3763 64.6433 61.9855 64.3194C61.2352 63.7038 61.3446 62.5537 62.1887 62.1002C62.5014 61.9382 65.8465 61.9058 78.4143 61.9382L94.2647 61.9706L94.6398 62.4241Z" fill="#002670"/>
<path d="M40.9454 45.6262C38.8977 46.1932 36.9281 47.7968 35.9746 49.6759C34.9429 51.6683 34.9898 50.5344 35.0054 74.2814L35.021 95.8255L37.4752 85.6204C40.07 74.8646 40.1638 74.5568 41.6019 72.3376C42.9306 70.2804 45.4004 68.1908 47.7139 67.1379L48.7455 66.6843V56.0257V45.3671L45.2753 45.3833C42.743 45.3833 41.555 45.448 40.9454 45.6262Z" fill="#002670"/>
<path d="M101.268 60.3345V65.9392H103.081H104.91L104.832 62.8129C104.753 60.0267 104.707 59.5894 104.363 58.6337C103.8 57.0462 102.674 55.5884 101.471 54.8594C101.314 54.7622 101.268 55.9123 101.268 60.3345Z" fill="#002670"/>
<path d="M51.0122 68.8063C50.1368 69.0007 48.3235 69.7458 47.4482 70.2642C46.9011 70.5882 45.8694 71.4953 45.0722 72.3214C43.6184 73.8441 42.8212 75.1399 42.2741 76.8732C41.8052 78.3797 35.1149 106.678 35.0367 107.488C34.8491 109.303 35.7089 111.587 37.0688 112.834C37.9442 113.66 38.8195 114.178 40.1482 114.632C40.9767 114.924 42.196 114.94 69.3792 114.988C89.6377 115.021 98.0475 114.988 98.7666 114.859C102.487 114.195 106.379 110.858 107.598 107.262C108.099 105.788 114.883 76.9866 114.976 75.9823C115.148 73.9575 114.367 71.7383 113.054 70.4748C112.663 70.1022 111.881 69.5677 111.303 69.2923L110.256 68.7739L80.7903 68.7577C64.5804 68.7415 51.1841 68.7577 51.0122 68.8063ZM78.6175 79.7565C79.5866 80.4207 79.6961 80.8904 79.6961 84.1139V86.9973H82.5723C85.2922 86.9973 85.4641 87.0135 85.9643 87.3698C86.9335 88.034 87.0429 88.4875 87.0429 91.8568C87.0429 95.3557 86.9335 95.7445 85.7924 96.3438C85.1515 96.684 84.8857 96.7164 82.4003 96.7164H79.6961V99.5835C79.6961 102.321 79.6804 102.467 79.3053 103.115C78.7113 104.184 78.1798 104.33 74.9753 104.33C72.5681 104.33 72.2242 104.297 71.6146 103.99C70.4578 103.406 70.3171 102.92 70.3171 99.5511V96.7164H67.6285C65.2212 96.7164 64.8774 96.684 64.2677 96.3762C63.111 95.7931 62.9703 95.3233 62.9703 91.8244C62.9703 88.4875 63.0797 88.034 64.0489 87.3698C64.5491 87.0135 64.721 86.9973 67.4409 86.9973H70.3171V84.1139C70.3171 80.8904 70.4266 80.4207 71.3957 79.7565C71.8959 79.4002 72.0679 79.384 75.0066 79.384C77.9453 79.384 78.1173 79.4002 78.6175 79.7565Z" fill="#002670"/>
<path d="M72.9432 85.3612C72.8963 88.6819 72.8963 88.7629 72.5212 89.1679L72.146 89.589L68.8477 89.6214L65.5495 89.67L65.5026 91.8082L65.4557 93.9626H68.6289C70.8642 93.9626 71.9115 94.0274 72.1929 94.1732C72.8338 94.4972 72.9588 95.2261 72.9588 98.5306L72.9745 101.576H75.0847H77.195V98.1904C77.195 95.0965 77.2262 94.7725 77.492 94.4324C77.789 94.0436 77.8359 94.0436 81.1654 93.995L84.5574 93.9464L84.5106 91.8082L84.4637 89.67L81.181 89.6214C76.8355 89.5728 77.2106 89.9454 77.1637 85.4746L77.1168 82.0567L75.0535 82.0081L72.9901 81.9595L72.9432 85.3612Z" fill="#002670"/>
</svg>
