<svg width="12" height="12" viewBox="0 0 12 12" fill="none" xmlns="http://www.w3.org/2000/svg">
<path d="M2.31892 0.0331545C1.98277 0.11381 1.5878 0.325901 1.24324 0.603712C0.694201 1.05179 0.206785 1.8673 0.0499157 2.60514C-0.00891035 2.88295 -0.0173141 3.4326 0.0331082 3.62378C0.0807293 3.79405 0.145158 3.84483 0.360853 3.87769C0.55694 3.90757 0.957517 4.06887 1.148 4.19434C1.24044 4.25707 1.28806 4.32876 1.41972 4.60358C1.73626 5.26675 2.02199 5.52066 2.68588 5.72379C3.21532 5.88808 3.70553 6.17486 4.09771 6.55125C4.319 6.76035 4.65515 7.22337 4.9913 7.77301C5.42829 8.48994 5.55715 8.60645 5.8933 8.60645C6.46755 8.60645 6.82611 8.04784 6.78129 7.22635C6.75328 6.66476 6.61602 6.35708 6.02496 5.50273C5.62998 4.93517 5.42549 4.59164 5.40028 4.45422C5.38628 4.3676 5.39188 4.35863 5.50673 4.31383C5.73083 4.22122 6.08939 4.13161 6.1146 4.16148C6.1258 4.17641 6.17903 4.40942 6.23225 4.68125C6.3359 5.22492 6.37511 5.30857 6.53758 5.30857C6.64123 5.30857 6.76168 5.19207 6.76168 5.09349C6.76168 5.05465 6.72247 4.81269 6.67204 4.5528C6.58801 4.12563 6.58521 4.07784 6.62442 4.05095C6.75608 3.97328 6.74488 3.74327 6.60762 3.64768C6.54319 3.60287 6.50677 3.60287 6.24906 3.63274C6.08939 3.65067 5.84848 3.70145 5.70842 3.74327C5.29383 3.86873 5.33585 3.86873 5.35266 3.72236C5.36106 3.65067 5.39188 3.51325 5.41989 3.42065C5.49272 3.18167 5.48992 3.08608 5.40028 3.0114C5.2182 2.85905 5.06693 2.98452 4.97169 3.36389C4.89886 3.65365 4.88485 4.13161 4.94088 4.43033C4.9913 4.69918 5.16498 5.0427 5.47311 5.4878C5.91011 6.1181 6.19023 6.56917 6.25186 6.75139C6.38072 7.11583 6.38072 7.59677 6.25186 7.87159C6.17622 8.0329 6.08378 8.11057 5.94092 8.13745C5.84288 8.15239 5.82607 8.14343 5.71682 8.02394C5.65239 7.94926 5.51233 7.74314 5.40588 7.56391C4.77 6.48254 4.25738 5.94185 3.48704 5.53261C3.26574 5.41611 2.74751 5.21895 2.66067 5.21895C2.64106 5.21895 2.54862 5.17713 2.45338 5.12635C2.19847 4.99192 1.99117 4.73502 1.79229 4.30785C1.6046 3.90757 1.55698 3.85977 1.1452 3.65067C0.89589 3.5252 0.809051 3.49234 0.57935 3.42662L0.458897 3.39376V3.13089C0.458897 2.81723 0.526126 2.50955 0.666188 2.18395C0.789443 1.90016 1.03035 1.51182 1.22083 1.29077C1.57099 0.881522 2.12563 0.546955 2.55422 0.484223L2.70269 0.463313L3.11447 0.762034C4.17614 1.52676 4.36102 1.60741 6.61322 2.27356C7.57965 2.56033 7.65248 2.59021 7.79254 2.75152C8.01664 3.0114 8.00543 2.93373 8.02224 4.34967L8.03625 5.61625L8.10908 5.67301C8.20152 5.74769 8.34158 5.72379 8.40041 5.6282C8.45083 5.53858 8.49005 3.42065 8.44523 3.1279C8.40601 2.86802 8.27715 2.60215 8.10628 2.41695C7.85137 2.13914 7.95501 2.18096 6.08939 1.61638C4.90166 1.25791 4.5263 1.1205 4.21256 0.932305C3.83999 0.708264 3.48984 0.469287 3.16209 0.221349C2.88477 0.00626945 2.88477 0.00626945 2.68588 0.000295639C2.57943 -0.00269127 2.41136 0.0122442 2.31892 0.0331545Z" fill="#002670"/>
<path d="M2.686 6.33924L2.61597 6.41093V9.13228V11.8536L2.686 11.9253L2.75323 12H7.30244H11.8517L11.9273 11.9373L12.0001 11.8775V9.13228V6.38703L11.9273 6.32729C11.8517 6.26456 11.8376 6.26456 9.54343 6.26456H7.23521L7.16798 6.33924C7.12316 6.38405 7.09795 6.44678 7.09795 6.50353C7.09795 6.56029 7.12316 6.62302 7.16798 6.66783L7.23521 6.74251H8.63583H10.0392L10.0561 6.82317C10.1457 7.26527 10.2942 7.57296 10.5659 7.85973C10.7676 8.07481 11.0869 8.26898 11.3642 8.34366L11.5519 8.39145V9.1502C11.5519 9.79245 11.5463 9.90895 11.5127 9.90895C11.4903 9.90895 11.3698 9.94181 11.2466 9.98363C10.6807 10.1748 10.2437 10.6737 10.0953 11.295L10.0449 11.5071L7.31644 11.5161L4.58524 11.522L4.53762 11.3219C4.51241 11.2084 4.44798 11.0172 4.38915 10.8947C4.18466 10.4467 3.70005 10.0434 3.24064 9.94181L3.06416 9.89999V9.1502V8.39743L3.22944 8.36158C3.70005 8.25703 4.34153 7.71634 4.2855 7.47438C4.26029 7.36983 4.15945 7.28021 4.06421 7.28021C4.00258 7.28021 3.94375 7.32203 3.8205 7.45944C3.72806 7.55503 3.602 7.67153 3.53757 7.71634C3.43113 7.78505 3.1482 7.90752 3.08657 7.90752C3.07537 7.90752 3.06416 7.56997 3.06416 7.16072V6.41093L2.99413 6.33924C2.95212 6.29144 2.89329 6.26456 2.84007 6.26456C2.78684 6.26456 2.72802 6.29144 2.686 6.33924ZM11.5519 7.32203V7.90454L11.4063 7.85674C10.9861 7.7253 10.6415 7.34294 10.5267 6.88291L10.493 6.74251H11.0225H11.5519V7.32203ZM3.27986 10.4496C3.49836 10.5363 3.73086 10.7155 3.85692 10.8888C3.96056 11.0381 4.08101 11.292 4.11183 11.4384L4.12864 11.522H3.5964H3.06416V10.9545C3.06416 10.6109 3.07537 10.3869 3.09218 10.3869C3.10618 10.3869 3.19022 10.4168 3.27986 10.4496ZM11.5519 10.9545V11.522H11.0309H10.5071L10.5239 11.4205C10.5687 11.1277 10.888 10.6856 11.1597 10.5363C11.2718 10.4735 11.4735 10.3929 11.5323 10.3899C11.5435 10.3869 11.5519 10.6408 11.5519 10.9545Z" fill="#002670"/>
<path d="M7.37786 7.68939V7.92538L7.53473 7.97915C7.80645 8.07175 8.01374 8.33761 8.12019 8.72894C8.18462 8.96493 8.16781 9.4369 8.08377 9.66393C7.94371 10.0463 7.62437 10.3271 7.32464 10.3271C7.05852 10.3271 6.75598 10.0941 6.61032 9.77446C6.54589 9.63406 6.51508 9.51756 6.46466 9.23079C6.43384 9.05155 6.22375 8.98584 6.1033 9.11727C6.01926 9.2039 6.01366 9.32339 6.07528 9.6012C6.25176 10.3988 6.92126 10.9335 7.54873 10.7752C8.03055 10.6557 8.42552 10.1986 8.56839 9.59523C8.62161 9.36521 8.62161 8.89622 8.56839 8.66919C8.44793 8.17332 8.17061 7.779 7.81485 7.5938C7.7056 7.53704 7.56274 7.48028 7.49831 7.47132L7.37786 7.45041V7.68939Z" fill="#002670"/>
</svg>
