<svg width="80" height="80" viewBox="0 0 80 80" fill="none" xmlns="http://www.w3.org/2000/svg">
<circle cx="40" cy="40" r="40" fill="#002670"/>
<path d="M39.9979 25.0632C34.3844 25.5789 29.6851 28.9071 28.2781 33.3663C28.0353 34.128 27.8568 35.089 27.8568 35.6457C27.8568 35.8391 27.7996 36.1555 27.7211 36.3488C27.6496 36.5364 27.0069 37.7903 26.2927 39.138C25.5642 40.5268 25 41.6694 25 41.769C25 41.892 25.0714 42.0034 25.2428 42.144L25.4856 42.3432H26.5998C27.6925 42.3432 27.7211 42.3491 27.8925 42.4897C28.1067 42.6596 28.1139 42.8296 27.9282 43.1812C27.7996 43.4214 27.7925 43.4624 27.8925 43.6558C27.9496 43.7671 27.9996 43.9663 27.9996 44.0953C27.9996 44.3882 28.0853 44.5816 28.3567 44.8511C28.8066 45.3141 28.8995 45.8649 28.6066 46.3746C28.3424 46.8434 28.3638 47.113 28.6995 47.3825C28.8495 47.5056 29.0923 47.6345 29.2494 47.6696C29.4137 47.7048 30.1564 47.7341 31.0135 47.7341C32.7632 47.7341 33.0418 47.7868 33.5917 48.2439C34.2202 48.7595 34.213 48.7126 34.213 52.0702V55H41.4906H48.7682L48.8039 51.701C48.8324 48.5837 48.8396 48.3786 48.9896 47.8337C49.4609 46.0934 50.1608 44.939 51.6392 43.4859C52.5105 42.6304 53.0533 41.9448 53.6104 41.0248C56.6171 36.0148 54.6102 29.9853 48.8896 26.8504C46.3471 25.45 43.019 24.782 39.9979 25.0632ZM40.755 28.5204L41.1978 28.702L41.6334 28.5731C41.9905 28.4618 42.1691 28.4442 42.6619 28.4677C43.376 28.497 43.8903 28.6786 44.3759 29.0595C44.6759 29.3056 44.6901 29.3056 45.033 29.2587C45.94 29.1298 47.0184 29.5341 47.5755 30.208C47.7826 30.4599 47.8611 30.5068 48.1611 30.5595C49.4681 30.7998 50.4251 31.8487 50.4251 33.0499C50.4251 33.3429 50.4679 33.4776 50.7036 33.8468C51.1107 34.5031 51.175 34.755 51.1678 35.6926C51.1678 36.425 51.1464 36.5657 50.9679 37.011C50.5822 37.9544 50.0251 38.6751 49.2967 39.1497L48.8824 39.4251L48.9681 39.7826C49.1324 40.4154 48.8824 41.0014 48.2682 41.435C48.0968 41.5522 47.3755 41.8862 46.6613 42.1733C45.1329 42.7886 45.0615 42.8413 44.8687 43.5913C44.7187 44.1597 44.5187 44.441 44.1188 44.6578C43.4332 45.0387 42.5619 44.9332 41.9762 44.4C41.612 44.0718 41.5334 43.7788 41.6263 43.1636C41.6834 42.8179 41.6834 42.5425 41.6334 42.2553C41.5406 41.7338 41.5192 40.8315 41.5977 40.392L41.6477 40.058H41.0978C39.9837 40.058 38.9338 39.7064 38.1696 39.0853C37.734 38.7337 37.7268 38.7278 37.2412 38.6927C35.5057 38.5755 34.0416 37.6907 33.4274 36.3957C33.206 35.9328 33.1846 34.9777 33.3846 34.5031C33.506 34.2159 33.506 34.1808 33.3917 33.9171C33.3274 33.7648 33.256 33.4366 33.2346 33.1905C33.156 32.3584 33.456 31.6084 34.1273 30.9228C34.3344 30.7178 34.4987 30.5068 34.4987 30.4541C34.4987 30.2607 34.9343 29.6161 35.2557 29.3349C35.8342 28.831 36.7555 28.5497 37.4626 28.6727C37.7125 28.7196 37.8054 28.702 38.2268 28.5204C39.0409 28.1805 39.9408 28.1805 40.755 28.5204Z" fill="white"/>
<path d="M38.7554 29.0419C38.5697 29.1005 38.3554 29.1884 38.2911 29.2353C38.0197 29.4345 37.8769 29.4579 37.477 29.37C36.8556 29.2353 36.3271 29.37 35.8486 29.7861C35.5415 30.0498 35.313 30.3955 35.2416 30.7119C35.213 30.8701 35.0916 31.0342 34.8916 31.21C34.0489 31.96 33.7703 33.0147 34.206 33.8234C34.3845 34.1456 34.3917 34.2687 34.256 34.4796C34.1988 34.5675 34.1131 34.8078 34.0631 35.0129C33.8489 35.927 34.4274 36.9407 35.5058 37.5325C36.1843 37.9016 37.3698 38.1595 37.2556 37.9075C37.1056 37.5911 37.0484 37.011 37.127 36.6243C37.2056 36.2668 37.1984 36.2141 37.0984 36.1613C36.4342 35.8273 35.9629 35.3586 35.7415 34.8019C35.5415 34.3038 35.5629 33.419 35.7772 32.9093C35.9915 32.4053 36.4842 31.8076 36.8985 31.544C37.2627 31.3096 37.4912 31.2744 37.6698 31.4209C37.8769 31.585 37.7983 31.7432 37.3555 32.0948C36.8699 32.4756 36.5485 32.9679 36.42 33.5187C36.2128 34.4503 36.8056 35.423 37.7055 35.6223C37.884 35.6633 38.0626 35.7512 38.1197 35.8215C38.2126 35.9387 38.2054 35.9856 38.0697 36.2903C37.527 37.4505 38.334 38.7454 39.9123 39.2435C40.2194 39.3431 40.4837 39.3724 40.9979 39.3783C41.3693 39.3841 41.7621 39.3666 41.8692 39.3431C41.9835 39.3138 42.1763 39.1615 42.3763 38.9271C43.0476 38.1536 44.0546 37.4856 44.3332 37.6321C44.7117 37.8255 44.626 38.0774 44.0832 38.4056C43.3762 38.8216 42.6905 39.6009 42.4691 40.2279C42.3334 40.6088 42.3192 41.4702 42.4406 42.2553C42.4977 42.6772 42.4977 42.9058 42.4334 43.2222C42.362 43.5855 42.3691 43.6675 42.4691 43.8433C42.662 44.1773 43.169 44.3121 43.5975 44.148C43.8618 44.0542 43.9975 43.8492 44.0761 43.4448C44.176 42.9409 44.4474 42.5014 44.8117 42.2612C44.9759 42.144 45.6401 41.8452 46.29 41.5932C47.4756 41.1244 47.9184 40.8783 48.1112 40.5795C48.2398 40.3685 48.2398 39.9642 48.1041 39.6478C47.9041 39.1908 47.9398 39.1146 48.4754 38.8216C49.0468 38.511 49.5539 38.0188 49.8895 37.4505C50.2109 36.9055 50.3538 36.4485 50.4038 35.8098C50.4609 35.0304 50.2681 34.4386 49.7467 33.8175C49.5967 33.63 49.5753 33.5597 49.611 33.2667C49.6896 32.6749 49.3825 31.9717 48.8611 31.5733C48.6111 31.374 48.1683 31.2217 47.7041 31.1631C47.3756 31.1279 47.297 31.0928 47.1756 30.9287C46.8185 30.4482 46.5829 30.2373 46.2115 30.0791C45.8544 29.9267 45.7687 29.915 45.283 29.9384C44.9902 29.956 44.6617 29.9853 44.5546 30.0087C44.3903 30.0439 44.326 30.0205 44.1975 29.8857C43.5975 29.288 43.2405 29.1298 42.4977 29.1298C42.0549 29.1357 41.8978 29.165 41.5907 29.2939C41.1193 29.4931 41.0408 29.4931 40.7122 29.2763C40.1623 28.9189 39.4196 28.831 38.7554 29.0419ZM40.8694 30.4892C41.8692 30.7822 42.6548 31.6553 42.7619 32.5928C42.7977 32.9386 42.7905 32.962 42.612 33.0557C42.4548 33.1436 42.3906 33.1495 42.2406 33.0968C42.0478 33.0206 42.0478 33.0264 41.9406 32.5342C41.7907 31.8897 41.3764 31.4209 40.7479 31.1748C40.4623 31.0635 40.2694 31.0342 39.8052 31.0342C39.2839 31.0342 39.2053 31.0225 39.1125 30.9053C38.9768 30.7471 38.9696 30.6767 39.091 30.542C39.291 30.3193 40.198 30.2959 40.8694 30.4892ZM46.3972 33.1143C46.4971 33.2374 46.5114 33.3663 46.4829 33.8351C46.4614 34.1456 46.4329 34.4386 46.4186 34.4855C46.3972 34.5382 46.4757 34.5851 46.6114 34.6144C47.4542 34.8078 48.0826 35.5461 48.2469 36.5539C48.2826 36.8 48.2683 36.8528 48.1112 36.9817C47.897 37.1575 47.847 37.1633 47.647 37.0227C47.5399 36.9524 47.4684 36.8118 47.4185 36.5481C47.2756 35.798 46.9399 35.3879 46.3543 35.2472L46.0758 35.1769L45.7115 35.5109C45.233 35.9387 44.5903 36.1965 43.9189 36.2375C43.4833 36.261 43.4404 36.2551 43.3262 36.1262C43.2619 36.05 43.2119 35.9563 43.2119 35.9152C43.2119 35.7687 43.4904 35.6047 43.7332 35.6047C44.4046 35.6047 45.2045 35.1476 45.4973 34.5968C45.6187 34.3624 45.6687 34.1398 45.6973 33.7003C45.7187 33.2608 45.7544 33.0968 45.8401 33.0382C46.0258 32.921 46.2686 32.9561 46.3972 33.1143ZM40.048 33.7589C41.0408 34.1281 41.7121 35.1008 41.7121 36.1613C41.7121 37.0051 41.3907 37.4505 40.9551 37.2161C40.7765 37.1223 40.7694 37.0989 40.8265 36.8411C40.8622 36.6946 40.8908 36.343 40.8836 36.0676C40.8836 35.6164 40.8551 35.5168 40.6551 35.1769C40.3837 34.7316 39.9909 34.4269 39.5053 34.2804C38.9839 34.1222 38.8553 33.9054 39.1482 33.6651C39.3196 33.5245 39.4624 33.5421 40.048 33.7589Z" fill="white"/>
</svg>
