<svg width="80" height="80" viewBox="0 0 80 80" fill="none" xmlns="http://www.w3.org/2000/svg">
<circle cx="40" cy="40" r="40" fill="#002670"/>
<path d="M38.7402 25.1465C38.5996 25.2812 38.5938 25.3164 38.5938 26.1016V26.916L37.791 27.0215C35.3359 27.332 33.5781 28.123 33.1152 29.1191C32.9863 29.3887 32.9688 29.5059 32.9688 30.1094C32.9688 30.4902 32.9863 30.8008 33.0039 30.8008C33.0215 30.8008 33.1094 30.7539 33.1914 30.6895C33.4609 30.502 34.1523 30.1738 34.668 29.9922C37.9961 28.8262 43.5156 29.0078 46.2402 30.373C46.4688 30.4902 46.7207 30.6309 46.8086 30.6895C46.8906 30.7539 46.9785 30.8008 46.9961 30.8008C47.0137 30.8008 47.0312 30.4902 47.0312 30.1094C47.0312 29.5059 47.0137 29.3887 46.8848 29.1133C46.4277 28.1289 44.6875 27.3438 42.2617 27.0215C41.8867 26.9746 41.5352 26.9336 41.4883 26.9336C41.4238 26.9336 41.4062 26.793 41.4062 26.1133C41.4062 25.3164 41.4004 25.2812 41.2598 25.1465C41.1191 25 41.1074 25 40 25C38.8926 25 38.8809 25 38.7402 25.1465Z" fill="white"/>
<path d="M33.4316 35.3887C32.2949 35.7109 31.7207 36.918 32.207 37.9785C32.4004 38.3887 34.5742 40.5683 34.9785 40.7558C35.4121 40.9551 35.9101 40.9785 36.3613 40.8262L36.7304 40.6972L37.0996 41.0547C37.5273 41.459 37.7324 41.5117 37.9785 41.2597C38.2304 41.0137 38.1777 40.8086 37.7734 40.3808L37.416 40.0117L37.5449 39.6426C37.6387 39.3496 37.6621 39.1855 37.6387 38.9043C37.5801 38.2773 37.4453 38.084 36.2265 36.8476C35.3183 35.9277 35.0429 35.6816 34.7558 35.5469C34.334 35.3418 33.8183 35.2832 33.4316 35.3887Z" fill="white"/>
<path d="M45.6192 35.3887C45.1387 35.5234 44.8516 35.7519 43.7442 36.8769C42.5547 38.084 42.4082 38.3008 42.3613 38.916C42.3379 39.1797 42.3613 39.3613 42.4551 39.6426L42.584 40.0117L42.2266 40.3808C41.8223 40.8086 41.7695 41.0137 42.0215 41.2597C42.2676 41.5117 42.4727 41.459 42.9004 41.0547L43.2695 40.6972L43.6387 40.8262C43.9317 40.9199 44.0957 40.9433 44.377 40.9199C45.0156 40.8613 45.1914 40.7324 46.4805 39.4492C47.8633 38.0664 47.9336 37.9551 47.9336 37.1875C47.9336 36.6367 47.834 36.3496 47.5 35.9453C47.125 35.4883 46.2168 35.2187 45.6192 35.3887Z" fill="white"/>
<path d="M30.5195 38.6113L29.8633 39.2676L30.1152 39.373C30.707 39.6191 31.4102 40.3105 31.709 40.9492L31.8379 41.2246L32.3711 40.6855L32.9102 40.1465L32.2598 39.502C31.7324 38.9746 31.5742 38.7754 31.3926 38.4062L31.1699 37.9551L30.5195 38.6113Z" fill="white"/>
<path d="M48.6016 38.4062C48.4199 38.7812 48.2793 38.9629 47.7402 39.502L47.0898 40.1465L47.623 40.6797L48.1562 41.2188L48.3672 40.8145C48.6367 40.2871 49.1934 39.7305 49.7207 39.4551L50.125 39.25L49.4687 38.6055L48.8184 37.9551L48.6016 38.4062Z" fill="white"/>
<path d="M28.1992 40.0586C27.8301 40.1523 27.3027 40.4688 27.0449 40.7441C26.916 40.8848 26.7227 41.1777 26.623 41.3945C26.4531 41.752 26.4355 41.8398 26.4355 42.3496C26.4355 42.877 26.4473 42.9297 26.6523 43.3516C26.916 43.8848 27.2559 44.2129 27.8008 44.4707C28.1582 44.6406 28.2461 44.6582 28.75 44.6582C29.2539 44.6582 29.3418 44.6406 29.6992 44.4707C30.2441 44.2129 30.584 43.8848 30.8477 43.3516C31.0527 42.9297 31.0645 42.877 31.0645 42.3438C31.0645 41.8105 31.0527 41.7578 30.8477 41.3359C30.4492 40.5391 29.7461 40.0645 28.8789 40.0234C28.6328 40.0117 28.3281 40.0293 28.1992 40.0586Z" fill="white"/>
<path d="M50.6992 40.0586C50.3301 40.1523 49.8027 40.4688 49.5449 40.7441C49.416 40.8848 49.2227 41.1777 49.123 41.3945C48.9531 41.752 48.9355 41.8398 48.9355 42.3496C48.9355 42.877 48.9473 42.9297 49.1523 43.3516C49.416 43.8848 49.7559 44.2129 50.3008 44.4707C50.6582 44.6406 50.7461 44.6582 51.25 44.6582C51.7539 44.6582 51.8418 44.6406 52.1992 44.4707C52.7441 44.2129 53.084 43.8848 53.3477 43.3516C53.5527 42.9297 53.5645 42.877 53.5645 42.3438C53.5645 41.8105 53.5527 41.7578 53.3477 41.3359C52.9492 40.5391 52.2461 40.0645 51.3789 40.0234C51.1328 40.0117 50.8281 40.0293 50.6992 40.0586Z" fill="white"/>
<path d="M27.3438 47.5879V49.8438H28.75H30.1562V47.5879C30.1562 46.3457 30.1445 45.332 30.1387 45.332C30.127 45.332 29.9629 45.3906 29.7695 45.4609C29.4883 45.5605 29.2949 45.584 28.75 45.584C28.2051 45.584 28.0117 45.5605 27.7305 45.4609C27.5371 45.3906 27.373 45.332 27.3613 45.332C27.3555 45.332 27.3438 46.3457 27.3438 47.5879Z" fill="white"/>
<path d="M49.8438 47.5879V49.8438H51.25H52.6562V47.5879C52.6562 46.3457 52.6445 45.332 52.6387 45.332C52.627 45.332 52.4629 45.3906 52.2695 45.4609C51.9883 45.5605 51.7949 45.584 51.25 45.584C50.7051 45.584 50.5117 45.5605 50.2305 45.4609C50.0371 45.3906 49.873 45.332 49.8613 45.332C49.8555 45.332 49.8438 46.3457 49.8438 47.5879Z" fill="white"/>
<path d="M36.2793 45.6777C35.5527 45.8594 34.9844 46.4805 34.873 47.2246L34.832 47.5H40H45.168L45.127 47.2246C45.0801 46.9141 44.8867 46.4922 44.6641 46.2285C44.582 46.1348 44.3535 45.9648 44.1484 45.8535L43.7793 45.6543L40.1172 45.6426C38.1016 45.6367 36.3789 45.6543 36.2793 45.6777Z" fill="white"/>
<path d="M34.375 48.5137C34.0879 48.6074 33.5957 49.1113 33.5078 49.4102C33.4668 49.5449 33.4375 49.8438 33.4375 50.0781C33.4375 50.3125 33.4668 50.6113 33.5078 50.7461C33.6016 51.0684 34.0879 51.5547 34.4102 51.6484C34.5742 51.6953 35.1484 51.7188 36.1562 51.7188H37.6562V52.8906V54.0625H36.8594H36.0625L35.8867 54.2383C35.6816 54.4492 35.6934 54.6543 35.9336 54.8711L36.0801 55H40.0059H43.9316L44.0723 54.8535C44.2656 54.666 44.2656 54.3965 44.0723 54.209C43.9375 54.0684 43.9023 54.0625 43.1348 54.0625H42.3438V52.8906V51.7188H43.8438C44.8516 51.7188 45.4258 51.6953 45.5898 51.6484C45.9121 51.5547 46.3984 51.0684 46.4922 50.7461C46.5801 50.4355 46.5859 49.7207 46.4922 49.4219C46.457 49.293 46.3105 49.0586 46.1699 48.9062C45.7246 48.4082 46.0996 48.4375 39.9766 48.4434C36.2207 48.4492 34.5156 48.4668 34.375 48.5137Z" fill="white"/>
<path d="M25.9375 50.8574C25.6504 50.9512 25.1582 51.4551 25.0703 51.7539C25.0234 51.9121 25 52.457 25 53.3535V54.7129L25.1465 54.8535L25.2871 55H28.75H32.2129L32.3535 54.8535L32.5 54.7129V53.3535C32.5 52.4746 32.4766 51.9121 32.4297 51.7656C32.3945 51.6367 32.248 51.4023 32.1074 51.25C31.6855 50.7754 31.7031 50.7812 28.7266 50.7871C27.0215 50.793 26.0723 50.8164 25.9375 50.8574Z" fill="white"/>
<path d="M48.4375 50.8574C48.1504 50.9512 47.6582 51.4551 47.5703 51.7539C47.5234 51.9121 47.5 52.457 47.5 53.3535V54.7129L47.6465 54.8535L47.7871 55H51.25H54.7129L54.8535 54.8535L55 54.7129V53.3535C55 52.4746 54.9766 51.9121 54.9297 51.7656C54.8945 51.6367 54.748 51.4023 54.6074 51.25C54.1855 50.7754 54.2031 50.7812 51.2266 50.7871C49.5215 50.793 48.5723 50.8164 48.4375 50.8574Z" fill="white"/>
</svg>
