<svg width="50" height="50" viewBox="0 0 50 50" fill="none" xmlns="http://www.w3.org/2000/svg">
<circle cx="25" cy="25" r="25" fill="#D9D9D9"/>
<path d="M15.4225 37C14.7325 37 14.1565 36.7973 13.6945 36.3918C13.2315 35.9855 13 35.4795 13 34.874V18.063C13 17.4575 13.2315 16.952 13.6945 16.5465C14.1565 16.1401 14.7325 15.937 15.4225 15.937H18.0775V13.7096C18.0775 13.5077 18.155 13.3392 18.31 13.204C18.466 13.068 18.659 13 18.889 13C19.119 13 19.3105 13.068 19.4635 13.204C19.6165 13.3401 19.693 13.5086 19.693 13.7096V15.937H30.4225V13.6595C30.4225 13.4726 30.4945 13.3159 30.6385 13.1896C30.7825 13.0632 30.961 13 31.174 13C31.387 13 31.565 13.0632 31.708 13.1896C31.851 13.3159 31.9225 13.4722 31.9225 13.6582V15.937H34.5775C35.2675 15.937 35.8435 16.1401 36.3055 16.5465C36.7685 16.952 37 17.4575 37 18.063V34.874C37 35.4795 36.769 35.985 36.307 36.3905C35.844 36.7968 35.2675 37 34.5775 37H15.4225ZM15.4225 35.6836H34.5775C34.8075 35.6836 35.019 35.5993 35.212 35.4308C35.404 35.2614 35.5 35.0758 35.5 34.874V23.3288H14.5V34.874C14.5 35.0758 14.596 35.2614 14.788 35.4308C14.981 35.5993 15.1925 35.6836 15.4225 35.6836ZM19 27.1267C18.787 27.1267 18.609 27.0635 18.466 26.9371C18.322 26.8108 18.25 26.6545 18.25 26.4685C18.25 26.2824 18.322 26.1262 18.466 25.9998C18.61 25.8735 18.788 25.8103 19 25.8103H31C31.213 25.8103 31.391 25.8735 31.534 25.9998C31.678 26.1262 31.75 26.2829 31.75 26.4698C31.75 26.6567 31.678 26.813 31.534 26.9385C31.391 27.064 31.213 27.1267 31 27.1267H19ZM19 32.3925C18.787 32.3925 18.609 32.3293 18.466 32.2029C18.322 32.0765 18.25 31.9203 18.25 31.7342C18.25 31.5482 18.322 31.392 18.466 31.2656C18.61 31.1392 18.788 31.076 19 31.076H26.5C26.713 31.076 26.891 31.1392 27.034 31.2656C27.178 31.392 27.25 31.5486 27.25 31.7356C27.25 31.9225 27.178 32.0787 27.034 32.2042C26.891 32.3297 26.713 32.3925 26.5 32.3925H19Z" fill="#686868"/>
</svg>
