<svg width="21" height="20" viewBox="0 0 21 20" fill="none" xmlns="http://www.w3.org/2000/svg">
<path fill-rule="evenodd" clip-rule="evenodd" d="M1.33714 0.689412C0.5 1.37882 0.5 2.48706 0.5 4.70588V15.2941C0.5 17.5129 0.5 18.6212 1.33714 19.3106C2.17429 20 3.52 20 6.21429 20H14.7857C17.48 20 18.8257 20 19.6629 19.3106C20.5 18.6212 20.5 17.5129 20.5 15.2941V4.70588C20.5 2.48706 20.5 1.37882 19.6629 0.689412C18.8257 -7.01231e-08 17.48 0 14.7857 0H6.21429C3.52 0 2.17429 -7.01231e-08 1.33714 0.689412ZM6.21429 4.70588C5.83541 4.70588 5.47204 4.82983 5.20413 5.05046C4.93622 5.27109 4.78571 5.57033 4.78571 5.88235C4.78571 6.19437 4.93622 6.49361 5.20413 6.71424C5.47204 6.93487 5.83541 7.05882 6.21429 7.05882H14.7857C15.1646 7.05882 15.528 6.93487 15.7959 6.71424C16.0638 6.49361 16.2143 6.19437 16.2143 5.88235C16.2143 5.57033 16.0638 5.27109 15.7959 5.05046C15.528 4.82983 15.1646 4.70588 14.7857 4.70588H6.21429ZM6.21429 9.41177C5.83541 9.41177 5.47204 9.53571 5.20413 9.75635C4.93622 9.97698 4.78571 10.2762 4.78571 10.5882C4.78571 10.9003 4.93622 11.1995 5.20413 11.4201C5.47204 11.6408 5.83541 11.7647 6.21429 11.7647H14.7857C15.1646 11.7647 15.528 11.6408 15.7959 11.4201C16.0638 11.1995 16.2143 10.9003 16.2143 10.5882C16.2143 10.2762 16.0638 9.97698 15.7959 9.75635C15.528 9.53571 15.1646 9.41177 14.7857 9.41177H6.21429ZM6.21429 14.1176C5.83541 14.1176 5.47204 14.2416 5.20413 14.4622C4.93622 14.6829 4.78571 14.9821 4.78571 15.2941C4.78571 15.6061 4.93622 15.9054 5.20413 16.126C5.47204 16.3466 5.83541 16.4706 6.21429 16.4706H11.9286C12.3075 16.4706 12.6708 16.3466 12.9387 16.126C13.2066 15.9054 13.3571 15.6061 13.3571 15.2941C13.3571 14.9821 13.2066 14.6829 12.9387 14.4622C12.6708 14.2416 12.3075 14.1176 11.9286 14.1176H6.21429Z" fill="#BEBBBB"/>
</svg>
