<svg width="80" height="80" viewBox="0 0 80 80" fill="none" xmlns="http://www.w3.org/2000/svg">
<circle cx="40" cy="40" r="40" fill="#002670"/>
<path d="M37.6198 25.123C37.2942 25.2754 37.2048 25.4629 36.9303 26.5176C36.7451 27.2324 36.6685 27.4316 36.5727 27.4727C36.5089 27.4961 35.2063 27.7422 33.6803 28.0234C30.5644 28.5859 30.2835 28.6562 29.5428 29.0137C27.8444 29.834 26.6887 31.2871 26.3631 33.0098C26.2929 33.3906 26.2673 34.0176 26.2673 35.6699V37.832L27.1165 38.3535C27.5826 38.6406 28.1828 38.9746 28.4446 39.0918C28.949 39.3262 29.5875 39.5488 29.6386 39.5078C29.6514 39.4902 29.6322 39.2207 29.5939 38.9043C29.5492 38.5879 29.4981 37.9023 29.479 37.3809C29.4343 36.25 29.4918 36.0449 29.9387 35.8047C30.2643 35.6348 30.5325 35.623 30.8645 35.7812C31.2796 35.9746 31.3498 36.1797 31.3945 37.3047C31.4136 37.8379 31.4775 38.6055 31.535 39.0156L31.6499 39.7656H34.9254H38.2073L42.5171 33.8359C44.886 30.5723 46.8142 27.9004 46.8015 27.8887C46.7951 27.877 46.3034 27.7832 45.716 27.6719C45.1286 27.5664 44.6242 27.4551 44.5986 27.4258C44.5731 27.3965 44.4518 26.9922 44.3369 26.5234C44.0815 25.4922 43.9729 25.2754 43.6345 25.1172C43.3919 25.0059 43.2642 25 40.6208 25C37.9966 25.0059 37.8433 25.0117 37.6198 25.123Z" fill="white"/>
<path d="M47.1781 27.5957C46.7631 27.8125 46.8333 27.877 47.6251 28.0293C48.0146 28.0996 48.3913 28.1582 48.4743 28.1641H48.6211L48.4743 27.918C48.2061 27.4785 47.6634 27.3438 47.1781 27.5957Z" fill="white"/>
<path d="M48.6145 28.3691C48.6145 28.4512 48.557 28.6152 48.4931 28.7383C48.4229 28.8555 46.4116 31.6445 44.0237 34.9316L39.6755 40.9082V41.5059V42.1094H40.2054C40.8567 42.1094 41.5782 42.2676 42.1209 42.5312C42.6381 42.7773 43.4171 43.4922 43.6852 43.9668C44.7962 45.9121 43.7555 48.2617 41.4633 48.9824C41.0546 49.1113 41.0036 49.1113 36.1318 49.1406L31.2217 49.1699L31.043 49.873C30.6216 51.5605 30.4172 52.873 30.4172 53.875C30.4172 54.4141 30.5641 54.7129 30.928 54.8828C31.1771 55 31.2856 55 40.5438 55H49.9106L49.8723 53.875C49.8276 52.5859 49.7574 52.0996 49.3551 50.459C48.8252 48.2676 48.6783 47.1016 48.6336 44.6582L48.6017 42.8418L48.7741 42.4316C49.4445 40.8379 49.8021 39.1738 49.8659 37.3926C49.9042 36.2148 49.9681 36.0215 50.3703 35.8047C50.5172 35.7285 50.7279 35.6641 50.8428 35.6641C51.1748 35.6641 51.5324 35.8691 51.6856 36.1504C51.8197 36.3848 51.8261 36.4492 51.7878 37.4512C51.7176 39.1973 51.4111 40.75 50.8045 42.4258L50.5108 43.2402L50.5491 44.8281C50.6002 46.9609 50.779 48.332 51.2642 50.248C51.6601 51.8242 51.807 52.8965 51.807 54.2207V55H53.0201C54.4312 55 54.6419 54.9473 54.8718 54.5312C54.9995 54.3027 54.9995 54.209 54.9995 43.9082C54.9995 32.4941 55.0186 33.0391 54.6164 32.0137C54.0225 30.5137 52.5795 29.207 50.945 28.6914C50.6193 28.5859 48.8507 28.2227 48.6783 28.2227C48.64 28.2227 48.6145 28.2871 48.6145 28.3691ZM41.0802 51.0156C41.3675 51.1504 41.591 51.4844 41.591 51.7773C41.591 52.2227 41.1185 52.6562 40.6268 52.6562C40.3331 52.6562 39.9373 52.4277 39.7968 52.1758C39.5605 51.7539 39.7074 51.291 40.1607 51.0391C40.4672 50.8691 40.7482 50.8633 41.0802 51.0156Z" fill="white"/>
<path d="M25.5076 40.0234C25.1181 40.7793 25.0415 41.1836 25.0096 42.6074C24.9712 44.1309 25.0351 44.5059 25.4437 45.2734C25.8204 45.9707 26.5292 46.6211 27.289 46.9668C28.2212 47.3828 28.1701 47.3828 33.2462 47.3828H37.7604V44.459V41.5293L34.0124 41.5059C30.7369 41.4883 30.1942 41.4707 29.7791 41.3828C28.5788 41.125 27.4742 40.6855 26.4462 40.0469C26.1333 39.8594 25.8396 39.6895 25.7949 39.6719C25.7374 39.6484 25.6417 39.7656 25.5076 40.0234Z" fill="white"/>
<path d="M39.6755 45.625V47.3945L40.2374 47.3711C41.1441 47.3301 41.7251 47.002 42.0635 46.334C42.2487 45.959 42.2487 45.291 42.0635 44.916C41.7251 44.248 41.1441 43.9199 40.2374 43.8789L39.6755 43.8555V45.625Z" fill="white"/>
</svg>
