<svg width="20" height="20" viewBox="0 0 20 20" fill="none" xmlns="http://www.w3.org/2000/svg">
<path d="M15.4128 0.286583C6.02382 2.13312 3.49795 2.64874 3.30275 2.74569C2.8538 2.97926 2.51025 3.51251 2.42827 4.09424C2.39704 4.33662 2.40484 4.47324 2.47902 4.97564L2.57271 5.57058L8.79563 5.59262L15.0224 5.61465L15.327 5.73805C15.9828 6.01128 16.5762 6.60182 16.8729 7.2805C17.1501 7.91511 17.1501 7.89748 17.1501 10.8237C17.1501 12.256 17.1618 13.4415 17.1813 13.4503C17.197 13.4635 17.5913 13.393 18.0597 13.3005C18.9381 13.1242 19.1685 13.036 19.4339 12.7848C19.7501 12.4896 20 11.9123 20 11.476C20 11.3746 19.6486 9.03008 19.2192 6.2713C18.618 2.41517 18.415 1.19883 18.3408 1.02255C18.2315 0.744911 17.9465 0.392351 17.7162 0.238106C17.5249 0.11471 17.154 -0.00427914 16.9744 0.000127792C16.912 0.000127792 16.2093 0.132338 15.4128 0.286583Z" fill="#002670"/>
<path d="M1.11653 6.97639C0.558267 7.17471 0.121023 7.75643 0.0273277 8.41308L0 8.58936H7.99532H15.9906L15.9672 8.36019C15.9126 7.85779 15.5495 7.31573 15.1005 7.06453L14.8663 6.93673L8.07339 6.92791C2.53367 6.92351 1.24927 6.93232 1.11653 6.97639Z" fill="#002670"/>
<path d="M0.0117111 11.4098V12.9082L8.00703 12.8994L15.9984 12.8862L16.0101 11.3966L16.018 9.91144H8.01483H0.0117111V11.4098Z" fill="#002670"/>
<path d="M0.0195168 16.4471L0.0312286 18.6638L0.175675 18.9987C0.351354 19.3998 0.577783 19.6465 0.940852 19.8405L1.20242 19.9815L7.89381 19.9947C15.2137 20.0079 14.8312 20.0167 15.2294 19.7567C15.6315 19.4923 15.9165 18.9811 15.9828 18.4258C15.9984 18.2627 16.0141 17.2535 16.018 16.1782V14.2303H8.01483H0.00780487L0.0195168 16.4471ZM4.93461 17.1918C5.09467 17.2932 5.24302 17.562 5.24302 17.7559C5.24302 17.9675 5.09076 18.2319 4.91509 18.3244C4.75893 18.4126 4.68475 18.417 3.31446 18.417C1.89732 18.417 1.8739 18.417 1.72164 18.32C1.32734 18.0688 1.32344 17.4651 1.71384 17.2007L1.86609 17.0949H3.32617C4.75112 17.0949 4.78626 17.0949 4.93461 17.1918Z" fill="#002670"/>
</svg>
