<svg width="20" height="20" viewBox="0 0 20 20" fill="none" xmlns="http://www.w3.org/2000/svg">
<path d="M9.18269 0.0153561C7.50203 0.189764 5.93759 0.721926 4.64581 1.55818L4.31057 1.77284L4.28376 1.4598C4.24353 0.967884 4.0111 0.726398 3.57305 0.726398C3.29145 0.726398 3.14842 0.797951 2.9741 1.03496C2.8847 1.15124 2.88023 1.21384 2.88023 2.49282C2.88023 3.7718 2.8847 3.83441 2.9741 3.95068C3.02326 4.01776 3.1216 4.11615 3.18865 4.16534C3.30486 4.25478 3.36744 4.25925 4.64581 4.25925C5.92418 4.25925 5.98676 4.25478 6.10298 4.16534C6.33988 3.99093 6.41139 3.84783 6.41139 3.56609C6.41139 3.36933 6.38905 3.27094 6.31753 3.18151C6.1432 2.94449 6.00911 2.87741 5.63811 2.85058L5.29394 2.82822L5.65152 2.61804C8.99496 0.654848 13.2011 1.14676 15.9679 3.82994C16.7546 4.59017 17.2552 5.27885 17.7245 6.22691C19.0118 8.85195 18.8867 11.9555 17.3938 14.433C16.8619 15.3139 16.0215 16.2575 15.2438 16.8433C12.6692 18.7931 9.22739 19.1598 6.35329 17.7869C5.40568 17.3353 4.7665 16.8836 3.99322 16.1099C3.1216 15.2469 2.57181 14.4508 2.1293 13.4044C1.7136 12.4206 1.50352 11.4949 1.43647 10.3277C1.39624 9.69268 1.36496 9.60324 1.09677 9.40648C0.922443 9.27679 0.502279 9.27679 0.327955 9.40648C-0.00281203 9.65243 -0.0475103 9.8805 0.0374164 10.8643C0.243029 13.1898 1.1951 15.2782 2.80871 16.9507C4.37315 18.5695 6.24601 19.5399 8.55691 19.9156C9.23186 20.0274 10.765 20.0274 11.4712 19.9201C13.581 19.5891 15.436 18.6724 16.9378 17.2235C18.538 15.6762 19.5169 13.8069 19.8969 11.5709C20.0131 10.8956 20.0354 9.28126 19.9416 8.68649C19.5438 6.24927 18.6006 4.39341 16.9557 2.80586C15.4673 1.37036 13.6704 0.462553 11.6187 0.122684C11.0779 0.0287724 9.63861 -0.0293636 9.18269 0.0153561Z" fill="#002670"/>
<path d="M9.18269 3.61523C6.75557 3.91933 4.65922 5.66786 3.88594 8.02906C3.65351 8.74904 3.5954 9.1381 3.59987 10.028C3.59987 10.9001 3.66692 11.3249 3.90829 12.0494C4.54301 13.941 6.07616 15.4749 7.9669 16.1099C8.70442 16.3558 9.11565 16.4185 10.0096 16.4185C10.9036 16.4185 11.3148 16.3558 12.0523 16.1099C13.9699 15.4659 15.4986 13.9186 16.1333 11.9823C16.3568 11.2936 16.4193 10.8688 16.4238 10.0504C16.4238 8.90556 16.2406 8.09614 15.7489 7.11678C14.542 4.69298 11.8869 3.27984 9.18269 3.61523ZM10.403 5.83333C10.4655 5.87805 10.5594 5.97643 10.6086 6.04351C10.698 6.15978 10.7024 6.23133 10.7158 7.8949L10.7293 9.62555L11.6724 10.2516C12.1909 10.596 12.6602 10.9403 12.7183 11.0163C12.9776 11.3517 12.8569 11.8571 12.468 12.0538C12.097 12.2461 12.03 12.2193 10.689 11.3204C10.0364 10.8777 9.45982 10.4618 9.40618 10.3947C9.32126 10.274 9.31679 10.198 9.30338 8.33762C9.29444 7.2733 9.30338 6.34313 9.31679 6.26263C9.34808 6.08376 9.53581 5.85569 9.71907 5.77519C9.89787 5.69022 10.2555 5.72153 10.403 5.83333Z" fill="#002670"/>
</svg>
