<svg width="80" height="80" viewBox="0 0 80 80" fill="none" xmlns="http://www.w3.org/2000/svg">
<circle cx="40" cy="40" r="40" fill="#002670"/>
<path d="M39.1102 25.0645C37.7569 25.2578 36.5126 25.8496 35.7582 26.6758L35.4704 26.9922H34.8016C33.6972 26.9922 32.7873 27.2734 32.0329 27.8418C31.364 28.3516 30.9052 29.1016 30.9052 29.7051C30.9052 29.9629 30.874 29.9922 30.2985 30.4316C29.3186 31.1758 28.9297 31.873 28.9375 32.9102C28.9453 33.8184 29.4041 34.6562 30.2519 35.2891C30.4463 35.4355 30.5941 35.5762 30.5785 35.5938C30.563 35.6172 30.353 35.8984 30.1119 36.2207C29.583 36.9238 29.2408 37.5566 28.8131 38.6113C28.0587 40.4629 27.1954 41.6406 25.5622 43.0352C24.8233 43.6621 24.8233 43.7266 25.4999 44.2832C26.721 45.2852 27.3587 46.082 27.8331 47.2129C28.0742 47.7871 28.1598 48.2031 28.2531 49.2051C28.3153 49.7969 28.3775 50.1016 28.5253 50.4004C29.0075 51.4023 30.1119 52.1582 31.4962 52.4219C32.7017 52.6562 33.6116 52.5391 35.0582 51.959C35.556 51.7656 35.9915 51.6016 36.0382 51.6016C36.0848 51.6016 36.1159 52.1992 36.1159 53.3008V55H42.2989H48.4818V52.8438C48.4896 50.4473 48.544 50.0488 48.9407 49.416C49.0729 49.2051 49.6639 48.5371 50.2472 47.9277C52.0671 46.041 52.5649 45.3848 53.0704 44.2246C53.5681 43.0762 53.6459 42.6309 53.6459 41.084C53.6459 39.8418 53.6304 39.6074 53.4748 39.0625C53.1793 38.0488 52.8137 37.3164 51.9971 36.1211C51.9816 36.0977 52.106 36.0332 52.2693 35.9746C53.327 35.6113 54.2448 34.9023 54.6803 34.1113C55.2869 33.0156 55.0147 31.6387 53.9959 30.7188C53.7004 30.4434 53.6926 30.4316 53.6926 29.957C53.6926 28.6211 52.6038 27.5078 50.9005 27.1094C50.6283 27.0449 50.255 26.9922 50.0761 26.9922C49.7728 26.9922 49.7184 26.9688 49.5628 26.7695C48.7385 25.7617 46.8952 25 45.262 25C44.5154 25 43.551 25.1816 42.8666 25.4453C42.6411 25.5332 42.61 25.5273 42.1044 25.3574C41.21 25.0469 40.0668 24.9355 39.1102 25.0645ZM41.0234 26.1016C42.3378 26.377 43.3799 27.1562 43.7688 28.1582C43.8388 28.334 43.8932 28.5801 43.8932 28.7031V28.9258H44.5543H45.2153V28.7031C45.2153 28.1055 44.7176 27.1211 44.1265 26.5293C43.9476 26.3594 43.8154 26.2129 43.831 26.2012C43.8465 26.1895 44.041 26.1426 44.2743 26.0898C45.122 25.9023 46.2108 26.002 47.0819 26.3535C47.463 26.5059 48.3263 27.0684 48.3263 27.1621C48.3263 27.1855 48.1474 27.2617 47.9374 27.3379C47.7196 27.4141 47.5252 27.502 47.5019 27.5312C47.4785 27.5547 47.6263 27.7422 47.8285 27.9414C48.0307 28.1465 48.2018 28.3164 48.2096 28.3281C48.2174 28.334 48.3807 28.2754 48.5674 28.1992C49.2518 27.9121 50.1539 27.9004 50.9239 28.1582C51.5772 28.375 52.1993 28.9785 52.3316 29.5293L52.386 29.7402L51.9349 29.623C51.686 29.5586 51.2505 29.4883 50.955 29.4707L50.4261 29.4355V29.9102C50.4261 30.4434 50.3795 30.4023 51.0794 30.4727C51.8805 30.5547 52.946 31.1465 53.3348 31.7266C54.2137 33.0508 53.4048 34.5859 51.5227 35.1484C51.1105 35.2715 50.9394 35.2832 48.1707 35.3184C44.9431 35.3594 44.8654 35.3652 44.0876 35.7578C43.1855 36.209 42.7188 36.8418 42.6566 37.7148L42.61 38.2715L41.9722 38.2891L41.3267 38.3066V38.0254C41.3267 36.7715 40.4557 35.8047 39.0091 35.4414C38.7135 35.3711 38.068 35.3418 35.6415 35.3184L32.6473 35.2832L32.0562 35.0605C30.3996 34.4453 29.7541 32.9922 30.5863 31.7441C30.9674 31.1816 31.7451 30.707 32.6473 30.4844C32.725 30.4668 32.7717 30.4141 32.7484 30.373C32.7328 30.3379 32.6706 30.1211 32.6084 29.9043C32.5228 29.5645 32.4839 29.5059 32.3673 29.5293C32.2506 29.5527 32.2351 29.5352 32.274 29.4062C32.4217 28.9375 32.9895 28.4102 33.6039 28.1699C33.9538 28.041 34.7938 27.9062 34.8793 27.9707C34.9182 28 34.9105 28.123 34.8716 28.252C34.8327 28.3809 34.7938 28.5859 34.7938 28.7031V28.9258H35.4549H36.1159V28.7031C36.1159 27.8887 36.987 26.8633 38.0914 26.377C38.9313 26.0078 40.0668 25.9023 41.0234 26.1016ZM32.1884 36.1738C32.5151 36.2559 33.0672 36.2793 35.5715 36.3027C38.4724 36.3379 38.5735 36.3438 38.8846 36.4668C39.2968 36.6309 39.6313 36.8828 39.8179 37.1699C40.0279 37.4922 40.0668 38.5117 39.8879 39.0801C39.8101 39.3145 39.7324 39.5195 39.7168 39.543C39.7013 39.5664 39.3513 39.4316 38.9313 39.2383L38.1769 38.8926L36.917 39.8418C36.217 40.3633 35.6493 40.8145 35.6493 40.8496C35.6571 40.8789 35.8437 41.1426 36.077 41.4355C36.3726 41.8047 36.4737 41.9688 36.4037 41.998C36.357 42.0215 35.9682 42.0977 35.5482 42.1738L34.7938 42.3086L34.8093 43.6855L34.8327 45.0625L35.6493 45.2148C36.2404 45.332 36.4581 45.3965 36.4426 45.4551C36.427 45.502 36.2404 45.7539 36.0304 46.0117C35.8204 46.2754 35.6493 46.5156 35.6493 46.5391C35.6493 46.5684 36.217 47.0137 36.9014 47.5352L38.1614 48.4844L38.8535 48.168C39.2346 47.9922 39.5846 47.8398 39.6313 47.834C39.6779 47.8281 39.8101 48.0977 39.9268 48.4375L40.129 49.0527L41.9567 49.0703L43.7843 49.082L43.9632 48.5137C44.0643 48.1973 44.1654 47.9043 44.1965 47.8691C44.2354 47.8164 44.4532 47.8926 44.9431 48.1152C45.332 48.291 45.682 48.4316 45.7209 48.4375C45.7675 48.4375 46.3664 48.0098 47.0586 47.4824L48.3185 46.5332L47.8596 45.9648L47.4008 45.3965L47.6885 45.3379C47.8441 45.3027 48.2407 45.2324 48.5596 45.168L49.1429 45.0625V43.6914V42.3203L48.5596 42.2148C48.2407 42.1504 47.8441 42.0801 47.6885 42.0449L47.4008 41.9863L47.8596 41.418L48.3185 40.8496L47.0275 39.877L45.7364 38.8984L44.9898 39.2383C44.4921 39.4668 44.2276 39.5605 44.1965 39.5137C44.1654 39.4727 44.0876 39.25 44.0099 39.0098C43.8465 38.4883 43.8777 37.5801 44.0799 37.2168C44.2432 36.9238 44.6087 36.6309 45.0209 36.4668C45.3164 36.3438 45.4331 36.3379 47.9763 36.3203L50.6283 36.3027L50.955 36.7305C51.5927 37.5801 52.106 38.7227 52.3004 39.7539C52.4327 40.4863 52.3471 42.4082 52.1449 43.0527C51.7483 44.3594 51.1339 45.3203 49.8662 46.6328C47.2141 49.3984 47.2374 49.3457 47.183 52.1113L47.1441 54.0039H42.2522H37.3603V52.5098V51.0156L37.8891 50.8164C38.6902 50.5059 38.6513 50.5527 38.3791 50.1602C38.2547 49.9668 38.1147 49.7793 38.0758 49.7324C38.0136 49.668 37.5625 49.832 35.8982 50.5059C34.7394 50.9746 33.5961 51.4023 33.3472 51.4609C31.9784 51.7598 30.4463 51.2207 29.8397 50.2188C29.6763 49.9492 29.6219 49.7266 29.5364 48.9238C29.4197 47.8926 29.3108 47.459 28.9842 46.709C28.6031 45.8184 27.7087 44.6523 26.8921 43.9668L26.5577 43.6855L26.9621 43.3223C28.3231 42.1094 29.3497 40.6562 30.0108 39.0156C30.3685 38.125 30.6252 37.6211 31.0063 37.041C31.2629 36.6484 31.7295 36.0742 31.784 36.0742C31.7918 36.0742 31.9784 36.1211 32.1884 36.1738ZM42.9288 39.7832C43.0222 40.0703 43.1155 40.3105 43.131 40.3281C43.1466 40.3398 43.4188 40.4277 43.7299 40.5273L44.3054 40.7031L44.8809 40.4395C45.192 40.293 45.4953 40.1758 45.5498 40.1758C45.6042 40.1758 45.8842 40.3516 46.1719 40.5742L46.693 40.9668L46.3042 41.4531L45.9231 41.9336L46.1642 42.3555C46.2886 42.5898 46.413 42.7949 46.4208 42.8008C46.4364 42.8125 46.7552 42.8828 47.1363 42.9531L47.8207 43.082L47.8441 43.6797L47.8674 44.2715L47.5719 44.3301C47.4085 44.3594 47.0897 44.4238 46.8564 44.4648L46.4364 44.5469L46.1797 44.998L45.9231 45.4492L46.2653 45.8828C46.4597 46.1172 46.6153 46.3398 46.6153 46.3691C46.6153 46.3926 46.3742 46.5977 46.0786 46.8203L45.542 47.2246L44.9043 46.9434L44.2743 46.668L43.8232 46.8203C43.5743 46.9023 43.3332 46.9727 43.2866 46.9727C43.1544 46.9727 43.0766 47.125 42.9133 47.6348L42.7733 48.0918L41.9567 48.0742L41.1401 48.0566L40.9845 47.5762C40.8912 47.3125 40.7901 47.0723 40.7434 47.043C40.7045 47.0137 40.4323 46.9199 40.1523 46.832L39.639 46.6738L39.0557 46.9375C38.7291 47.084 38.4336 47.207 38.3947 47.207C38.3636 47.207 38.0914 47.0254 37.7958 46.8027L37.2592 46.3984L37.6325 45.918L38.0058 45.4434L37.788 45.0508C37.6636 44.834 37.5392 44.6289 37.5003 44.5996C37.4614 44.5645 37.1425 44.4883 36.7926 44.418L36.1548 44.3008V43.6914V43.0879L36.8081 42.9531C37.1659 42.8828 37.4847 42.8008 37.5158 42.7715C37.5392 42.748 37.6636 42.5488 37.7803 42.332L37.998 41.9336L37.6325 41.459L37.2592 40.9844L37.7958 40.5801C38.0914 40.3574 38.3636 40.1758 38.3947 40.1758C38.4336 40.1758 38.7291 40.2988 39.0557 40.4453L39.639 40.709L40.1523 40.5508C40.7901 40.3516 40.8212 40.3281 40.9301 39.9707C40.9845 39.8066 41.0623 39.5781 41.1012 39.4551L41.1789 39.2324L41.9644 39.25L42.7577 39.2676L42.9288 39.7832Z" fill="white"/>
<path d="M39.3435 27.0567C38.9701 27.1329 38.4491 27.5137 38.2469 27.836C38.0602 28.1348 38.0135 28.5508 38.1302 28.8672C38.1769 28.9961 38.0135 29.125 36.3181 30.2735C35.2993 30.9649 34.4049 31.5274 34.3349 31.5215C34.2649 31.5157 34.0549 31.4805 33.8605 31.4454C33.4172 31.3575 32.9972 31.4102 32.5228 31.6036C31.364 32.0782 31.1929 33.2969 32.1884 33.959C32.6006 34.2286 32.9194 34.3164 33.4872 34.3164C34.1171 34.3106 34.5138 34.1758 34.926 33.8301C35.3226 33.4844 35.4548 33.1504 35.3848 32.6524L35.3382 32.2715L36.9092 31.2051C37.7802 30.6192 38.6124 30.045 38.7679 29.9336C39.0479 29.7403 39.0635 29.7344 39.3512 29.8047C39.5223 29.8457 39.709 29.8985 39.7712 29.9219C39.8412 29.9454 40.0667 30.4786 40.3623 31.2989L40.8445 32.6407L40.5412 32.8692C40.0512 33.2383 39.8879 33.8067 40.1212 34.3223C40.4945 35.1426 41.7311 35.5411 42.7655 35.1719C43.2399 35.002 43.5199 34.7852 43.7376 34.4219C43.8465 34.2344 43.9554 34.1289 44.072 34.1114C44.1654 34.0938 45.2386 33.9649 46.4597 33.8243L48.6762 33.5664L48.9873 33.8184C49.4306 34.1758 49.8506 34.3164 50.4416 34.3164C51.5616 34.3106 52.3626 33.7129 52.3704 32.8809C52.3704 32.2012 51.8338 31.6563 50.9783 31.4688C50.0217 31.252 49.0651 31.6094 48.6373 32.336C48.5518 32.4942 48.4429 32.6172 48.3962 32.6172C48.3495 32.6172 47.2841 32.7403 46.0164 32.8868L43.7143 33.1504L43.4343 32.9161C43.1232 32.6524 42.6877 32.4414 42.4544 32.4414C42.3688 32.4414 42.2522 32.418 42.1977 32.3887C42.1433 32.3653 41.8788 31.7383 41.6066 31L41.1167 29.6582L41.4122 29.4356C41.9488 29.0254 42.0966 28.375 41.7622 27.836C41.5522 27.4961 41.0311 27.1329 40.6345 27.0508C40.3001 26.9805 39.6701 26.9805 39.3435 27.0567ZM40.4556 28.1231C40.8367 28.3868 40.5412 28.9258 40.0045 28.9258C39.4679 28.9258 39.1724 28.3868 39.5612 28.1231C39.8801 27.9004 40.129 27.9004 40.4556 28.1231ZM33.8994 32.5293C34.2416 32.7813 34.1249 33.1856 33.6816 33.3145C33.4405 33.3848 33.2694 33.3496 33.0283 33.1856C32.6394 32.9219 32.935 32.3829 33.4716 32.3829C33.6194 32.3829 33.7827 32.4356 33.8994 32.5293ZM50.7994 32.4766C51.2194 32.6934 51.1571 33.1504 50.6905 33.2969C50.0372 33.502 49.5084 32.9161 50.0061 32.5352C50.2394 32.3594 50.5427 32.336 50.7994 32.4766ZM42.3921 33.5079C42.6255 33.6719 42.6332 33.9942 42.3999 34.1817C42.1588 34.375 41.7 34.3692 41.49 34.1641C41 33.6954 41.8166 33.1036 42.3921 33.5079Z" fill="white"/>
<path d="M45.2153 30.8887V31.3867H45.8764H46.5375V30.8887V30.3906H45.8764H45.2153V30.8887Z" fill="white"/>
<path d="M36.738 33.3496V33.8477H37.3991H38.0602V33.3496V32.8516H37.3991H36.738V33.3496Z" fill="white"/>
<path d="M41.1712 41.3125C39.5691 41.6231 38.4958 42.8418 38.7602 44.0547C39.2113 46.1934 42.8666 46.8731 44.5699 45.1387C45.6587 44.0196 45.3087 42.461 43.7999 41.6817C43.5744 41.5645 43.2322 41.4297 43.0377 41.377C42.54 41.2481 41.6767 41.2188 41.1712 41.3125ZM42.7266 42.3496C43.4499 42.5957 43.8932 43.1055 43.8932 43.6914C43.8855 44.9981 41.8245 45.6368 40.5957 44.711C40.0435 44.3008 39.8802 43.7618 40.1213 43.2168C40.4868 42.4141 41.7156 42.0039 42.7266 42.3496Z" fill="white"/>
</svg>
