<svg width="21" height="20" viewBox="0 0 21 20" fill="none" xmlns="http://www.w3.org/2000/svg">
<path d="M3.78487 1.4372C3.90477 1.43809 4.02468 1.4389 4.14459 1.43963C4.43606 1.44158 4.72746 1.44464 5.0189 1.44833C5.02075 1.50924 5.02075 1.50924 5.02264 1.57138C5.02755 1.72437 5.03295 1.87734 5.03866 2.03031C5.04102 2.09609 5.0432 2.16186 5.04517 2.22764C5.05813 3.13591 5.05813 3.13591 5.69722 3.89122C6.29777 4.23442 6.95025 4.26083 7.69102 4.26059C7.79152 4.26082 7.79152 4.26082 7.89406 4.26105C8.11488 4.26147 8.33569 4.26156 8.5565 4.2616C8.71064 4.26175 8.86478 4.2619 9.01892 4.26205C9.34186 4.26232 9.66479 4.2624 9.98773 4.26238C10.4004 4.26237 10.813 4.26298 11.2256 4.26375C11.544 4.26424 11.8624 4.26433 12.1807 4.26431C12.3328 4.26436 12.4849 4.26456 12.6369 4.2649C12.8502 4.26534 13.0635 4.26521 13.2767 4.26494C13.3388 4.26519 13.4009 4.26544 13.4649 4.2657C14.1464 4.26354 14.75 4.20741 15.296 3.89783C15.8252 3.51146 15.9179 3.0551 15.9385 2.53129C15.9405 2.48451 15.9405 2.48451 15.9424 2.43677C15.9465 2.33833 15.9502 2.23988 15.9539 2.14143C15.9565 2.07419 15.9593 2.00695 15.962 1.93971C15.9686 1.77592 15.975 1.61213 15.9811 1.44833C16.3322 1.44389 16.6833 1.44068 17.0345 1.43854C17.1537 1.43765 17.2729 1.43644 17.3921 1.43489C18.3285 1.423 19.0692 1.45272 19.7805 1.93823C20.387 2.39252 20.5032 2.8722 20.4973 3.48311C20.4976 3.54821 20.498 3.61332 20.4985 3.67842C20.4995 3.85613 20.499 4.03382 20.4982 4.21153C20.4976 4.40365 20.4985 4.59576 20.4992 4.78787C20.5003 5.16375 20.5001 5.53963 20.4994 5.9155C20.4988 6.22108 20.4987 6.52666 20.499 6.83224C20.499 6.87579 20.4991 6.91933 20.4991 6.9642C20.4992 7.05268 20.4993 7.14116 20.4993 7.22963C20.5001 8.05861 20.4992 8.88759 20.4979 9.71657C20.4968 10.4273 20.497 11.1381 20.4981 11.8489C20.4995 12.675 20.5 13.5011 20.4992 14.3271C20.4991 14.4153 20.4991 14.5034 20.499 14.5916C20.4989 14.6566 20.4989 14.6566 20.4989 14.723C20.4987 15.0281 20.499 15.3332 20.4996 15.6382C20.5003 16.0102 20.5001 16.3822 20.4988 16.7542C20.4981 16.9438 20.4979 17.1335 20.4987 17.3232C20.4994 17.497 20.499 17.6708 20.4977 17.8447C20.4974 17.9073 20.4976 17.97 20.4982 18.0327C20.5033 18.6098 20.3474 19.0609 19.7805 19.4856C19.223 19.8661 18.607 20.0031 17.847 19.9981C17.7812 19.9984 17.7155 19.9987 17.6478 19.9989C17.4294 19.9997 17.2111 19.9991 16.9928 19.9985C16.8354 19.9988 16.6781 19.9991 16.5208 19.9995C16.139 20.0002 15.7573 20.0001 15.3755 19.9996C15.065 19.9992 14.7545 19.9991 14.444 19.9993C14.3997 19.9993 14.3554 19.9994 14.3097 19.9994C14.2197 19.9995 14.1297 19.9995 14.0396 19.9996C13.1968 20.0001 12.354 19.9995 11.5112 19.9985C10.7891 19.9977 10.067 19.9979 9.34492 19.9987C8.50496 19.9997 7.66501 20 6.82505 19.9995C6.73536 19.9994 6.64568 19.9994 6.55599 19.9993C6.51187 19.9993 6.46775 19.9993 6.42229 19.9992C6.11243 19.9991 5.80258 19.9993 5.49272 19.9998C5.07514 20.0003 4.65757 19.9999 4.23999 19.9989C4.08701 19.9987 3.93402 19.9987 3.78104 19.9991C3.57169 19.9996 3.36239 19.999 3.15304 19.9981C3.06295 19.9987 3.06295 19.9987 2.97103 19.9993C2.28414 19.9937 1.71605 19.8245 1.21949 19.4856C0.612976 19.0313 0.496795 18.5516 0.502718 17.9407C0.502431 17.8756 0.502035 17.8105 0.50154 17.7454C0.500506 17.5677 0.501012 17.39 0.501786 17.2123C0.502352 17.0202 0.501479 16.8281 0.500795 16.6359C0.499689 16.2601 0.499925 15.8842 0.500648 15.5083C0.501212 15.2027 0.501287 14.8972 0.501016 14.5916C0.500978 14.548 0.50094 14.5045 0.5009 14.4596C0.500821 14.3711 0.50074 14.2827 0.500658 14.1942C0.499948 13.3652 0.500763 12.5362 0.502103 11.7072C0.503216 10.9965 0.503023 10.2857 0.501874 9.57492C0.50054 8.74884 0.500017 7.92276 0.500781 7.09667C0.50086 7.00853 0.500939 6.92038 0.501016 6.83224C0.501054 6.78887 0.501093 6.74551 0.501132 6.70083C0.501347 6.39574 0.500985 6.09065 0.500398 5.78556C0.499698 5.41358 0.499891 5.04161 0.501216 4.66964C0.501869 4.47997 0.502129 4.29032 0.501303 4.10066C0.500557 3.92681 0.500975 3.75298 0.502294 3.57914C0.502571 3.51648 0.502434 3.45381 0.501827 3.39115C0.496664 2.81405 0.652577 2.36286 1.21949 1.93823C1.98078 1.41858 2.79144 1.42425 3.78487 1.4372ZM10.0017 6.74816C9.91325 6.87468 9.91984 6.96438 9.93943 7.10445C10.0785 7.23129 10.1605 7.27592 10.3754 7.32714C10.5024 7.33177 10.6295 7.33376 10.7566 7.33431C10.8745 7.33496 10.8745 7.33496 10.9948 7.33561C11.0807 7.33583 11.1666 7.33602 11.2525 7.33618C11.3407 7.33644 11.429 7.3367 11.5172 7.33695C11.7021 7.33742 11.8871 7.33768 12.0721 7.33784C12.3086 7.33808 12.545 7.33915 12.7814 7.34042C12.9637 7.34125 13.146 7.34148 13.3282 7.34155C13.4154 7.34168 13.5025 7.34204 13.5896 7.34262C13.7119 7.34339 13.8341 7.34322 13.9563 7.34301C14.0604 7.34326 14.0604 7.34326 14.1667 7.3435C14.3918 7.32461 14.5421 7.27696 14.7354 7.19353C14.8239 7.06701 14.8173 6.97731 14.7977 6.83724C14.6587 6.71041 14.5766 6.66577 14.3617 6.61455C14.2347 6.60992 14.1076 6.60794 13.9805 6.60738C13.8626 6.60674 13.8626 6.60674 13.7423 6.60608C13.6564 6.60587 13.5705 6.60567 13.4846 6.60551C13.3964 6.60525 13.3082 6.605 13.22 6.60474C13.035 6.60427 12.85 6.60401 12.665 6.60386C12.4286 6.60361 12.1921 6.60254 11.9557 6.60127C11.7734 6.60044 11.5911 6.60021 11.4089 6.60014C11.3217 6.60001 11.2346 6.59965 11.1475 6.59907C11.0253 6.5983 10.903 6.59847 10.7808 6.59868C10.6767 6.59844 10.6767 6.59844 10.5704 6.59819C10.3453 6.61708 10.195 6.66474 10.0017 6.74816ZM6.17117 7.61384C6.08944 7.67251 6.00769 7.73116 5.92592 7.78981C5.72722 7.93238 5.52872 8.07508 5.33032 8.21787C5.15596 8.16116 5.03061 8.10317 4.89773 8.00475C4.8492 7.96932 4.8492 7.96932 4.79968 7.93316C4.76668 7.90862 4.73368 7.88408 4.69968 7.85879C4.40455 7.62316 4.40455 7.62316 3.99508 7.53869C3.78281 7.53822 3.78281 7.53822 3.65251 7.59714C3.5405 7.74319 3.54864 7.83076 3.58633 7.99518C3.70364 8.13246 3.86325 8.2386 4.02233 8.35148C4.09992 8.40798 4.17744 8.46452 4.25493 8.5211C4.42115 8.64169 4.58763 8.76207 4.7554 8.88156C4.79111 8.90705 4.82683 8.93254 4.86362 8.9588C4.99 9.04133 5.07552 9.06329 5.24468 9.08633C5.47401 9.06203 5.5189 9.0372 5.68446 8.92981C5.75016 8.8872 5.75016 8.8872 5.81719 8.84373C6.04096 8.69328 6.25963 8.53952 6.47652 8.38401C6.52405 8.35006 6.57159 8.31611 6.62056 8.28114C6.72003 8.21005 6.81942 8.1389 6.91873 8.0677C7.07129 7.95837 7.22418 7.84929 7.3771 7.74023C7.47399 7.67092 7.57087 7.60159 7.66772 7.53225C7.71352 7.49959 7.75932 7.46693 7.80651 7.43328C7.84854 7.40309 7.89057 7.37289 7.93388 7.34178C7.97097 7.31523 8.00805 7.28868 8.04626 7.26132C8.17156 7.16357 8.19459 7.11005 8.21491 6.97641C8.21088 6.83522 8.21088 6.83522 8.09423 6.73146C7.951 6.65239 7.951 6.65239 7.77502 6.62847C7.16886 6.72016 6.59908 7.30582 6.17117 7.61384ZM10.0017 8.52962C9.91325 8.65614 9.91984 8.74583 9.93943 8.88591C10.0785 9.01274 10.1605 9.05738 10.3754 9.10859C10.4655 9.11281 10.5558 9.1146 10.646 9.11485C10.7013 9.1151 10.7566 9.11536 10.8135 9.11562C10.9042 9.11569 10.9042 9.11569 10.9968 9.11577C11.0606 9.11599 11.1244 9.11621 11.1902 9.11644C11.4017 9.11709 11.6132 9.11739 11.8248 9.11764C11.9716 9.1179 12.1185 9.11815 12.2654 9.11841C12.5735 9.11888 12.8816 9.11914 13.1898 9.11929C13.5846 9.11954 13.9794 9.12061 14.3742 9.12188C14.6776 9.1227 14.9811 9.12294 15.2845 9.123C15.4301 9.12314 15.5756 9.1235 15.7212 9.12408C15.9248 9.12484 16.1285 9.12476 16.3321 9.12447C16.4223 9.12508 16.4223 9.12508 16.5143 9.12571C16.8393 9.12427 17.0717 9.10773 17.3514 8.97499C17.4399 8.84846 17.4333 8.75877 17.4137 8.61869C17.2746 8.49186 17.1926 8.44723 16.9777 8.39601C16.8876 8.3918 16.7973 8.39001 16.7071 8.38976C16.6518 8.3895 16.5965 8.38925 16.5396 8.38899C16.4791 8.38894 16.4186 8.38889 16.3563 8.38883C16.2925 8.38861 16.2287 8.38839 16.1629 8.38816C15.9514 8.38751 15.7399 8.38721 15.5283 8.38696C15.3815 8.38671 15.2346 8.38645 15.0877 8.3862C14.7796 8.38573 14.4715 8.38547 14.1633 8.38531C13.7685 8.38507 13.3737 8.384 12.9789 8.38273C12.6755 8.3819 12.372 8.38167 12.0686 8.3816C11.923 8.38147 11.7775 8.38111 11.6319 8.38052C11.4283 8.37976 11.2246 8.37985 11.021 8.38014C10.9308 8.37952 10.9308 8.37952 10.8388 8.37889C10.5138 8.38034 10.2814 8.39688 10.0017 8.52962ZM10.0017 11.0237C9.91325 11.1502 9.91984 11.2399 9.93943 11.38C10.0785 11.5068 10.1605 11.5514 10.3754 11.6026C10.5024 11.6073 10.6295 11.6093 10.7566 11.6098C10.8745 11.6105 10.8745 11.6105 10.9948 11.6111C11.0807 11.6113 11.1666 11.6115 11.2525 11.6117C11.3407 11.6119 11.429 11.6122 11.5172 11.6124C11.7021 11.6129 11.8871 11.6132 12.0721 11.6133C12.3086 11.6136 12.545 11.6146 12.7814 11.6159C12.9637 11.6167 13.146 11.617 13.3282 11.617C13.4154 11.6172 13.5025 11.6175 13.5896 11.6181C13.7119 11.6189 13.8341 11.6187 13.9563 11.6185C14.0604 11.6188 14.0604 11.6188 14.1667 11.619C14.3918 11.6001 14.5421 11.5525 14.7354 11.469C14.8239 11.3425 14.8173 11.2528 14.7977 11.1127C14.6587 10.9859 14.5766 10.9413 14.3617 10.8901C14.2347 10.8854 14.1076 10.8834 13.9805 10.8829C13.8626 10.8822 13.8626 10.8822 13.7423 10.8816C13.6564 10.8814 13.5705 10.8812 13.4846 10.881C13.3964 10.8807 13.3082 10.8805 13.22 10.8802C13.035 10.8798 12.85 10.8795 12.665 10.8794C12.4286 10.8791 12.1921 10.878 11.9557 10.8768C11.7734 10.8759 11.5911 10.8757 11.4089 10.8756C11.3217 10.8755 11.2346 10.8752 11.1475 10.8746C11.0253 10.8738 10.903 10.874 10.7808 10.8742C10.6767 10.8739 10.6767 10.8739 10.5704 10.8737C10.3453 10.8926 10.195 10.9402 10.0017 11.0237ZM6.17117 11.8893C6.08944 11.948 6.00769 12.0067 5.92592 12.0653C5.72722 12.2079 5.52872 12.3506 5.33032 12.4934C5.15596 12.4367 5.03061 12.3787 4.89773 12.2802C4.8492 12.2448 4.8492 12.2448 4.79968 12.2087C4.76668 12.1841 4.73368 12.1596 4.69968 12.1343C4.41726 11.9069 4.41726 11.9069 4.03012 11.8114C3.83266 11.8143 3.83266 11.8143 3.68755 11.8977C3.57696 12.0001 3.57696 12.0001 3.54351 12.1259C3.61038 12.352 3.7982 12.4657 4.02233 12.627C4.05874 12.6536 4.09515 12.6801 4.13267 12.7075C4.33908 12.8582 4.54642 13.0082 4.7554 13.1571C4.79111 13.1825 4.82683 13.208 4.86362 13.2343C4.99 13.3168 5.07552 13.3388 5.24468 13.3618C5.47401 13.3375 5.5189 13.3127 5.68446 13.2053C5.75016 13.1627 5.75016 13.1627 5.81719 13.1192C6.04096 12.9688 6.25963 12.815 6.47652 12.6595C6.52405 12.6256 6.57159 12.5916 6.62056 12.5566C6.72003 12.4855 6.81942 12.4144 6.91873 12.3432C7.07129 12.2339 7.22418 12.1248 7.3771 12.0157C7.47399 11.9464 7.57087 11.8771 7.66772 11.8077C7.71352 11.7751 7.75932 11.7424 7.80651 11.7088C7.84854 11.6786 7.89057 11.6484 7.93388 11.6173C7.97097 11.5907 8.00805 11.5642 8.04626 11.5368C8.17156 11.4391 8.19459 11.3855 8.21491 11.2519C8.21088 11.1107 8.21088 11.1107 8.09423 11.007C7.951 10.9279 7.951 10.9279 7.77502 10.904C7.16886 10.9957 6.59908 11.5813 6.17117 11.8893ZM10.0017 12.8051C9.91325 12.9316 9.91984 13.0213 9.93943 13.1614C10.0785 13.2882 10.1605 13.3329 10.3754 13.3841C10.4655 13.3883 10.5558 13.3901 10.646 13.3903C10.7013 13.3906 10.7566 13.3909 10.8135 13.3911C10.9042 13.3912 10.9042 13.3912 10.9968 13.3913C11.0606 13.3915 11.1244 13.3917 11.1902 13.3919C11.4017 13.3926 11.6132 13.3929 11.8248 13.3931C11.9716 13.3934 12.1185 13.3937 12.2654 13.3939C12.5735 13.3944 12.8816 13.3946 13.1898 13.3948C13.5846 13.395 13.9794 13.3961 14.3742 13.3974C14.6776 13.3982 14.9811 13.3984 15.2845 13.3985C15.4301 13.3986 15.5756 13.399 15.7212 13.3996C15.9248 13.4003 16.1285 13.4003 16.3321 13.4C16.4223 13.4006 16.4223 13.4006 16.5143 13.4012C16.8393 13.3998 17.0717 13.3832 17.3514 13.2505C17.4399 13.124 17.4333 13.0343 17.4137 12.8942C17.2746 12.7674 17.1926 12.7227 16.9777 12.6715C16.8876 12.6673 16.7973 12.6655 16.7071 12.6653C16.6518 12.665 16.5965 12.6647 16.5396 12.6645C16.4791 12.6644 16.4186 12.6644 16.3563 12.6643C16.2925 12.6641 16.2287 12.6639 16.1629 12.6637C15.9514 12.663 15.7399 12.6627 15.5283 12.6625C15.3815 12.6622 15.2346 12.6619 15.0877 12.6617C14.7796 12.6612 14.4715 12.661 14.1633 12.6608C13.7685 12.6606 13.3737 12.6595 12.9789 12.6582C12.6755 12.6574 12.372 12.6572 12.0686 12.6571C11.923 12.657 11.7775 12.6566 11.6319 12.656C11.4283 12.6553 11.2246 12.6553 11.021 12.6556C10.9308 12.655 10.9308 12.655 10.8388 12.6544C10.5138 12.6558 10.2814 12.6724 10.0017 12.8051ZM10.0017 15.2992C9.91325 15.4257 9.91984 15.5154 9.93943 15.6554C10.0785 15.7823 10.1605 15.8269 10.3754 15.8781C10.5024 15.8828 10.6295 15.8847 10.7566 15.8853C10.8745 15.8859 10.8745 15.8859 10.9948 15.8866C11.0807 15.8868 11.1666 15.887 11.2525 15.8872C11.3407 15.8874 11.429 15.8877 11.5172 15.8879C11.7021 15.8884 11.8871 15.8887 12.0721 15.8888C12.3086 15.8891 12.545 15.8901 12.7814 15.8914C12.9637 15.8922 13.146 15.8925 13.3282 15.8925C13.4154 15.8927 13.5025 15.893 13.5896 15.8936C13.7119 15.8944 13.8341 15.8942 13.9563 15.894C14.0604 15.8942 14.0604 15.8942 14.1667 15.8945C14.3918 15.8756 14.5421 15.8279 14.7354 15.7445C14.8239 15.618 14.8173 15.5283 14.7977 15.3882C14.6587 15.2614 14.5766 15.2168 14.3617 15.1655C14.2347 15.1609 14.1076 15.1589 13.9805 15.1584C13.8626 15.1577 13.8626 15.1577 13.7423 15.1571C13.6564 15.1569 13.5705 15.1567 13.4846 15.1565C13.3964 15.1562 13.3082 15.156 13.22 15.1557C13.035 15.1553 12.85 15.155 12.665 15.1548C12.4286 15.1546 12.1921 15.1535 11.9557 15.1523C11.7734 15.1514 11.5911 15.1512 11.4089 15.1511C11.3217 15.151 11.2346 15.1506 11.1475 15.1501C11.0253 15.1493 10.903 15.1495 10.7808 15.1497C10.6767 15.1494 10.6767 15.1494 10.5704 15.1492C10.3453 15.1681 10.195 15.2157 10.0017 15.2992ZM6.17117 16.1648C6.08944 16.2235 6.00769 16.2822 5.92592 16.3408C5.72722 16.4834 5.52872 16.6261 5.33032 16.7689C5.15596 16.7122 5.03061 16.6542 4.89773 16.5557C4.8492 16.5203 4.8492 16.5203 4.79968 16.4842C4.76668 16.4596 4.73368 16.4351 4.69968 16.4098C4.41726 16.1824 4.41726 16.1824 4.03012 16.0869C3.83266 16.0898 3.83266 16.0898 3.68755 16.1732C3.57696 16.2756 3.57696 16.2756 3.54351 16.4014C3.61038 16.6274 3.7982 16.7412 4.02233 16.9025C4.05874 16.929 4.09515 16.9556 4.13267 16.983C4.33908 17.1337 4.54642 17.2837 4.7554 17.4326C4.79111 17.458 4.82683 17.4835 4.86362 17.5098C4.99 17.5923 5.07552 17.6143 5.24468 17.6373C5.47401 17.613 5.5189 17.5882 5.68446 17.4808C5.75016 17.4382 5.75016 17.4382 5.81719 17.3947C6.04096 17.2443 6.25963 17.0905 6.47652 16.935C6.52405 16.9011 6.57159 16.8671 6.62056 16.8321C6.72003 16.761 6.81942 16.6899 6.91873 16.6187C7.07129 16.5094 7.22418 16.4003 7.3771 16.2912C7.47399 16.2219 7.57087 16.1526 7.66772 16.0832C7.71352 16.0506 7.75932 16.0179 7.80651 15.9843C7.84854 15.9541 7.89057 15.9239 7.93388 15.8928C7.97097 15.8662 8.00805 15.8397 8.04626 15.8123C8.17156 15.7146 8.19459 15.661 8.21491 15.5274C8.21088 15.3862 8.21088 15.3862 8.09423 15.2825C7.951 15.2034 7.951 15.2034 7.77502 15.1795C7.16886 15.2712 6.59908 15.8568 6.17117 16.1648ZM10.0017 17.0806C9.91325 17.2071 9.91984 17.2968 9.93943 17.4369C10.0785 17.5637 10.1605 17.6084 10.3754 17.6596C10.4655 17.6638 10.5558 17.6656 10.646 17.6658C10.7013 17.6661 10.7566 17.6664 10.8135 17.6666C10.9042 17.6667 10.9042 17.6667 10.9968 17.6668C11.0606 17.667 11.1244 17.6672 11.1902 17.6674C11.4017 17.6681 11.6132 17.6684 11.8248 17.6686C11.9716 17.6689 12.1185 17.6691 12.2654 17.6694C12.5735 17.6699 12.8816 17.6701 13.1898 17.6703C13.5846 17.6705 13.9794 17.6716 14.3742 17.6729C14.6776 17.6737 14.9811 17.6739 15.2845 17.674C15.4301 17.6741 15.5756 17.6745 15.7212 17.6751C15.9248 17.6758 16.1285 17.6758 16.3321 17.6755C16.4223 17.6761 16.4223 17.6761 16.5143 17.6767C16.8393 17.6753 17.0717 17.6587 17.3514 17.526C17.4399 17.3995 17.4333 17.3098 17.4137 17.1697C17.2746 17.0429 17.1926 16.9982 16.9777 16.947C16.8876 16.9428 16.7973 16.941 16.7071 16.9408C16.6518 16.9405 16.5965 16.9402 16.5396 16.94C16.4791 16.9399 16.4186 16.9399 16.3563 16.9398C16.2925 16.9396 16.2287 16.9394 16.1629 16.9392C15.9514 16.9385 15.7399 16.9382 15.5283 16.938C15.3815 16.9377 15.2346 16.9374 15.0877 16.9372C14.7796 16.9367 14.4715 16.9365 14.1633 16.9363C13.7685 16.9361 13.3737 16.935 12.9789 16.9337C12.6755 16.9329 12.372 16.9327 12.0686 16.9326C11.923 16.9325 11.7775 16.9321 11.6319 16.9315C11.4283 16.9308 11.2246 16.9308 11.021 16.9311C10.9308 16.9305 10.9308 16.9305 10.8388 16.9299C10.5138 16.9313 10.2814 16.9479 10.0017 17.0806Z" fill="#BEBBBB"/>
<path d="M7.73067 0.0102153C7.79674 0.00991616 7.86281 0.009617 7.93088 0.00930878C8.14923 0.00846291 8.36757 0.00828867 8.58592 0.00819292C8.73789 0.00790667 8.88986 0.00760702 9.04183 0.00729452C9.36043 0.00676115 9.67903 0.00659617 9.99763 0.00664893C10.4054 0.00665798 10.8132 0.00544226 11.221 0.00390796C11.5349 0.00291642 11.8488 0.00273695 12.1627 0.00278404C12.313 0.00267907 12.4633 0.00228587 12.6137 0.00159648C12.8242 0.000721462 13.0346 0.000980728 13.2451 0.0015168C13.3069 0.00101626 13.3687 0.000515714 13.4323 0C13.8861 0.00292882 14.2192 0.0729819 14.5636 0.288807C14.5972 0.317799 14.6307 0.346792 14.6653 0.376662C14.6998 0.40554 14.7344 0.434417 14.7699 0.464169C14.9421 0.642861 15.0001 0.802496 15.0026 1.01799C15.0034 1.06437 15.0042 1.11075 15.005 1.15853C15.0052 1.20818 15.0053 1.25782 15.0054 1.30897C15.0061 1.38613 15.0061 1.38613 15.0067 1.46486C15.0073 1.57353 15.0076 1.6822 15.0076 1.79088C15.0079 1.95695 15.0101 2.12297 15.0125 2.28903C15.0129 2.39472 15.0131 2.50041 15.0132 2.60609C15.0141 2.65565 15.015 2.7052 15.0159 2.75626C15.0137 3.02415 15.0038 3.20342 14.7354 3.40792C14.3896 3.62684 14.064 3.61142 13.6162 3.60912C13.504 3.60959 13.504 3.60959 13.3896 3.61007C13.1852 3.61071 12.9809 3.61056 12.7765 3.61C12.5622 3.60955 12.3479 3.60997 12.1336 3.61024C11.7738 3.61057 11.414 3.61014 11.0542 3.60929C10.6388 3.60832 10.2234 3.60864 9.80791 3.60962C9.45063 3.61043 9.09337 3.61054 8.73609 3.61007C8.52296 3.6098 8.30985 3.60976 8.09672 3.61035C7.85905 3.6108 7.62143 3.61011 7.38377 3.60912C7.31348 3.60948 7.24319 3.60984 7.17077 3.61021C6.78636 3.60724 6.55634 3.59271 6.26458 3.40792C5.95114 3.16806 5.97916 2.92153 5.98235 2.61079C5.98211 2.55962 5.98187 2.50845 5.98162 2.45573C5.98146 2.3477 5.98191 2.23966 5.98296 2.13163C5.98429 1.96692 5.98297 1.8023 5.98137 1.6376C5.98154 1.53241 5.98186 1.42721 5.98235 1.32202C5.98184 1.27306 5.98134 1.22411 5.98082 1.17367C5.98664 0.829891 6.06141 0.589762 6.38696 0.324123C6.4275 0.300126 6.46805 0.276128 6.50983 0.251404C6.55021 0.226717 6.5906 0.202031 6.63221 0.176596C6.98546 0.00255762 7.31524 0.00994556 7.73067 0.0102153Z" fill="#BEBBBB"/>
</svg>
