<svg width="80" height="80" viewBox="0 0 80 80" fill="none" xmlns="http://www.w3.org/2000/svg">
<circle cx="40" cy="40" r="40" fill="#002670"/>
<path d="M38.9973 25.0671C37.9863 25.249 37.1079 25.6538 36.4864 26.2346C35.8814 26.792 35.6079 27.3846 35.6079 28.1238C35.6079 28.9334 36.0389 29.6785 36.8427 30.2652L37.315 30.6114H39.9834H42.6601L43.0496 30.3532C43.5385 30.0247 44.0109 29.4673 44.2346 28.951C44.4667 28.4347 44.4252 27.5899 44.1601 27.0619C43.696 26.1642 42.6767 25.4543 41.4088 25.1551C40.7293 24.9908 39.6354 24.9498 38.9973 25.0671Z" fill="white"/>
<path d="M25.531 31.9256C24.9592 32.1016 25.0007 31.4504 25.0007 39.9985C25.0007 48.5702 24.9592 47.8955 25.5476 48.0715C25.9619 48.1947 54.0381 48.1947 54.4524 48.0715C55.0408 47.8955 54.9994 48.5702 54.9994 39.9985C54.9994 31.4269 55.0408 32.1016 54.4524 31.9256C54.0464 31.8024 25.9205 31.8082 25.531 31.9256ZM33.2379 33.803C33.5942 33.9086 33.7848 34.1022 33.7848 34.3721C33.7848 34.6596 33.5279 34.8767 33.097 34.9588C32.0031 35.17 32.0446 35.082 32.0446 37.1824C32.0446 38.6726 32.028 38.919 31.9037 39.0598C31.6219 39.4001 30.9424 39.4588 30.5446 39.183L30.3043 39.0129V37.1296C30.3043 35.3754 30.3126 35.2287 30.4783 34.9295C30.8927 34.1374 32.3512 33.539 33.2379 33.803ZM40.3729 33.8147C40.7293 33.9321 40.9116 34.2078 40.9116 34.6303V34.9705L41.558 34.9295C42.4447 34.8767 43.1573 34.7476 43.7706 34.5364C44.1766 34.3897 44.3507 34.3604 44.5744 34.3897C44.9473 34.4366 45.2208 34.6537 45.2788 34.9353C45.3534 35.3402 44.7899 35.6687 43.5551 35.9386C43.0745 36.0442 42.569 36.1087 41.2679 36.2202L40.9116 36.2495V36.5429V36.8304H41.3508C42.4115 36.8304 43.9197 36.6309 44.7153 36.3845C44.9556 36.3082 45.2374 36.2437 45.3368 36.2437C45.6434 36.2437 46.0246 36.4549 46.1323 36.6778C46.4721 37.4053 44.8644 37.904 41.558 38.0918L40.9116 38.1328V38.4262V38.7254L42.0137 38.6902C43.3811 38.6433 44.475 38.5142 45.3948 38.2912C46.2235 38.0918 46.3147 38.0859 46.6296 38.2208C47.1019 38.4144 47.1931 38.9014 46.8119 39.1772C46.5218 39.3766 45.3617 39.6524 44.2264 39.7873C43.5717 39.8636 41.5662 39.9985 41.0607 39.9985C40.9364 39.9985 40.9116 40.0513 40.9116 40.2919V40.5852H41.3508C42.4115 40.5852 43.9197 40.3857 44.7153 40.1393C44.9556 40.0631 45.2374 39.9985 45.3368 39.9985C45.6434 39.9985 46.0246 40.2097 46.1323 40.4327C46.4721 41.1602 44.8644 41.6589 41.558 41.8466L40.9116 41.8877V42.316V42.7501L41.2679 42.6563C41.4585 42.6093 41.9889 42.5565 42.4447 42.5389C43.7374 42.492 44.6158 42.6915 45.3948 43.2078C46.1489 43.7065 46.3727 44.3812 45.9915 44.9913C45.4528 45.8479 43.6877 46.3935 42.0055 46.2175C41.3839 46.153 40.4392 45.8948 40.1492 45.7071C40.0166 45.6191 39.9834 45.6191 39.8591 45.7071C39.5442 45.9066 38.6492 46.1471 37.978 46.2175C36.7018 46.3466 35.3428 46.0708 34.5555 45.5252C33.5611 44.8446 33.5859 43.8825 34.6052 43.2078C35.3842 42.6915 36.2626 42.492 37.5554 42.5389C38.0112 42.5507 38.5415 42.6035 38.7404 42.6563L39.0885 42.7443V42.316V41.8877L38.5332 41.8525C36.5692 41.7234 35.5416 41.5826 34.6964 41.3127C33.9174 41.0663 33.6688 40.7788 33.9008 40.3857C34.0251 40.1804 34.3898 39.9985 34.6798 39.9985C34.771 39.9985 35.0444 40.0631 35.2847 40.1393C36.0803 40.3857 37.5885 40.5852 38.6492 40.5852H39.0885V40.2919C39.0885 40.0513 39.0636 39.9985 38.9476 39.9985C38.4338 39.9985 36.4283 39.8636 35.7737 39.7873C34.6384 39.6524 33.4782 39.3766 33.1882 39.1772C32.807 38.9014 32.9064 38.3792 33.3788 38.2032C33.6937 38.0918 33.8428 38.0976 34.4561 38.2619C35.3759 38.5025 37.2156 38.7078 38.5084 38.7078H39.0885V38.4203V38.1328L38.5332 38.0976C36.4615 37.9627 35.4588 37.816 34.6135 37.5168C33.9423 37.2821 33.7102 37.0181 33.8677 36.6778C33.9754 36.4549 34.3566 36.2437 34.6632 36.2437C34.7627 36.2437 35.061 36.3141 35.3262 36.3962C35.9726 36.6016 37.0913 36.76 38.2018 36.8069L39.0885 36.848V36.5488V36.2495L38.7404 36.2202C36.8593 36.0559 36.2377 35.9503 35.4339 35.6452C35.1273 35.5338 34.9118 35.4047 34.8207 35.2815C34.5306 34.906 34.8538 34.4542 35.4505 34.3897C35.6659 34.3604 35.8565 34.4014 36.2377 34.5364C36.8261 34.7476 37.5554 34.8767 38.4504 34.9295L39.0885 34.9705V34.6303C39.0885 34.2137 39.2708 33.938 39.6105 33.8147C39.942 33.6974 40.0332 33.6974 40.3729 33.8147ZM48.1709 33.9262C48.7013 34.0905 49.1902 34.4308 49.4554 34.8121C49.6543 35.0937 49.6543 35.1231 49.6792 37.0533L49.704 39.007L49.4554 39.1772C49.0576 39.4588 48.3781 39.4001 48.0964 39.0598C47.972 38.919 47.9555 38.6726 47.9555 37.1824C47.9555 35.082 47.9969 35.17 46.903 34.9588C46.4721 34.8767 46.2152 34.6596 46.2152 34.3721C46.2152 33.7737 47.0853 33.5742 48.1709 33.9262ZM31.7877 40.198L32.0031 40.3505V42.8088V45.2671L31.8042 45.4196C31.4065 45.7188 30.6275 45.6543 30.3955 45.3023C30.2712 45.1028 30.2712 40.5324 30.3955 40.3329C30.6192 39.9809 31.3733 39.9047 31.7877 40.198ZM49.2814 40.0983C49.414 40.1511 49.5549 40.2567 49.6046 40.3329C49.7289 40.5324 49.7289 45.1028 49.6046 45.3023C49.3725 45.6543 48.5936 45.7188 48.1958 45.4196L47.9969 45.2671V42.8147C47.9969 40.4444 48.0052 40.3564 48.1626 40.2332C48.4693 39.9868 48.9002 39.934 49.2814 40.0983Z" fill="white"/>
<path d="M36.4532 43.8649C35.9477 43.9881 35.6079 44.1876 35.6079 44.3694C35.6079 44.6921 36.4366 44.9855 37.3482 44.9855C38.0029 44.9855 38.5415 44.8681 38.8564 44.6511C39.1547 44.4457 39.1465 44.2697 38.8398 44.082C38.3012 43.7651 37.257 43.6713 36.4532 43.8649Z" fill="white"/>
<path d="M41.7569 43.8649C41.2514 43.9881 40.9116 44.1876 40.9116 44.3694C40.9116 44.6921 41.7403 44.9855 42.6518 44.9855C43.3065 44.9855 43.8452 44.8681 44.1601 44.6511C44.4584 44.4457 44.4501 44.2697 44.1435 44.082C43.6048 43.7651 42.5607 43.6713 41.7569 43.8649Z" fill="white"/>
<path d="M33.7848 51.2924C33.7848 52.4482 33.818 53.3165 33.876 53.5043C34.05 54.091 34.6301 54.6014 35.4008 54.8537C36.0306 55.059 36.9836 55.0473 37.6134 54.8244C38.1272 54.6483 38.5664 54.3374 38.8564 53.9502C39.047 53.7038 39.047 53.6627 39.0719 51.5389L39.0967 49.3857H36.4366H33.7848V51.2924Z" fill="white"/>
<path d="M40.9282 51.5389C40.953 53.6627 40.953 53.7038 41.1436 53.9502C41.4337 54.3374 41.8729 54.6484 42.3867 54.8244C42.7844 54.9652 42.9585 54.9886 43.522 54.9886C44.3838 54.9828 44.9059 54.8302 45.4611 54.3961C46.1572 53.8622 46.1655 53.8211 46.1987 51.4509L46.2235 49.3857H43.5634H40.9033L40.9282 51.5389Z" fill="white"/>
</svg>
