<svg width="50" height="50" viewBox="0 0 50 50" fill="none" xmlns="http://www.w3.org/2000/svg">
<circle cx="25" cy="25" r="25" fill="#D9D9D9"/>
<path d="M14.9452 13.0871C14.0074 13.3442 13.2465 14.1318 13.0536 15.0586C13.0161 15.2461 13 16.1461 13.0107 17.7587C13.0268 20.1052 13.0321 20.1802 13.1393 20.3248C13.3483 20.6087 13.5198 20.6945 13.8574 20.6945C14.195 20.6945 14.3665 20.6087 14.5755 20.3248C14.6827 20.1802 14.688 20.0944 14.7148 17.7212C14.7416 15.3479 14.747 15.2622 14.8541 15.1175C14.9131 15.0371 15.031 14.9193 15.1114 14.8604C15.256 14.7532 15.3364 14.7479 17.9301 14.7211C20.5238 14.6943 20.6041 14.6889 20.7488 14.5818C21.0328 14.3728 21.1186 14.2014 21.1186 13.8639C21.1186 13.5264 21.0328 13.355 20.7488 13.146C20.6041 13.0335 20.5345 13.0335 17.914 13.0228C15.7276 13.0121 15.1703 13.0282 14.9452 13.0871Z" fill="#686868"/>
<path d="M29.3712 13.0817C28.7388 13.355 28.7067 14.2818 29.3122 14.63C29.3926 14.6782 30.1214 14.6996 32.0881 14.7211C34.671 14.7479 34.7514 14.7532 34.8961 14.8604C34.9765 14.9193 35.0944 15.0371 35.1533 15.1175C35.2605 15.2622 35.2658 15.3479 35.2926 17.7212C35.3194 20.0944 35.3248 20.1802 35.432 20.3248C35.641 20.6087 35.8124 20.6945 36.15 20.6945C36.4877 20.6945 36.6591 20.6087 36.8681 20.3248C36.9753 20.1802 36.9807 20.1052 36.9967 17.7587C37.0075 16.1461 36.9914 15.2461 36.9539 15.0586C36.7556 14.121 35.9946 13.3335 35.0408 13.0871C34.6121 12.9746 29.623 12.9692 29.3712 13.0817Z" fill="#686868"/>
<path d="M17.7372 16.4836C17.4853 16.5479 17.0245 16.8157 16.8798 16.9872C16.8048 17.0782 16.6815 17.2711 16.6011 17.4211L16.4564 17.6943L16.4404 20.0623L16.4243 22.4355H25.0037H33.5832L33.5671 20.0623L33.551 17.6943L33.4063 17.4211C33.192 17.014 33.0312 16.8479 32.6561 16.6443L32.3185 16.4622L25.1109 16.4514C21.1454 16.4514 17.8283 16.4622 17.7372 16.4836Z" fill="#686868"/>
<path d="M13.5091 24.2249C13.1501 24.3803 12.9464 24.7928 13.0214 25.1946C13.0697 25.4464 13.3376 25.7411 13.5788 25.8107C13.7181 25.8536 17.271 25.8643 25.1216 25.8536L36.4662 25.8375L36.6109 25.725C36.8949 25.516 36.9807 25.3446 36.9807 25.0071C36.9807 24.6696 36.8949 24.4982 36.6109 24.2892L36.4662 24.1767L25.068 24.166C15.6741 24.1553 13.6431 24.166 13.5091 24.2249Z" fill="#686868"/>
<path d="M16.4404 29.9465L16.4564 32.3198L16.6386 32.6573C16.8423 33.0323 17.0084 33.1931 17.4157 33.4074L17.689 33.552H25.0037H32.3185L32.5972 33.4074C32.9508 33.2198 33.2188 32.952 33.4063 32.5984L33.551 32.3198L33.5671 29.9465L33.5832 27.5786H25.0037H16.4243L16.4404 29.9465Z" fill="#686868"/>
<path d="M13.5091 29.3679C13.3108 29.459 13.134 29.6465 13.0589 29.8447C13.0214 29.9465 13 30.8198 13 32.368C13 34.9342 13.0107 35.0574 13.3001 35.6253C13.6163 36.2467 14.3504 36.8039 15.0524 36.9539C15.24 36.9914 16.2046 37.0075 17.9676 36.9967C20.5345 36.9807 20.6041 36.9753 20.7488 36.8682C21.0329 36.6592 21.1186 36.4878 21.1186 36.1503C21.1186 35.8128 21.0329 35.6413 20.7488 35.4324C20.6041 35.3253 20.5238 35.3199 17.9301 35.2931C15.3364 35.2663 15.2561 35.261 15.1114 35.1538C15.031 35.0949 14.9131 34.977 14.8541 34.8967C14.747 34.752 14.7416 34.6663 14.7148 32.293C14.688 29.9197 14.6827 29.834 14.5755 29.6894C14.5165 29.609 14.404 29.4912 14.329 29.4376C14.1468 29.3037 13.7234 29.2662 13.5091 29.3679Z" fill="#686868"/>
<path d="M35.8285 29.3519C35.6731 29.4162 35.4695 29.5983 35.3837 29.7483C35.3355 29.8233 35.3087 30.5894 35.2926 32.3037C35.2659 34.6663 35.2605 34.752 35.1533 34.8967C35.0944 34.977 34.9765 35.0949 34.8961 35.1538C34.7514 35.261 34.671 35.2663 32.0774 35.2931C29.4837 35.3199 29.4033 35.3253 29.2586 35.4324C28.9746 35.6413 28.8889 35.8128 28.8889 36.1503C28.8889 36.4878 28.9746 36.6592 29.2586 36.8682C29.4033 36.9753 29.473 36.9807 32.0398 36.9967C33.8029 37.0075 34.7675 36.9914 34.955 36.9539C35.9143 36.7503 36.7556 35.9146 36.9539 34.9449C36.9914 34.7681 37.0075 33.8091 36.9967 32.2555C36.9807 29.909 36.9753 29.834 36.8681 29.6894C36.8092 29.609 36.6967 29.4912 36.6216 29.4376C36.4555 29.3144 36.0268 29.2662 35.8285 29.3519Z" fill="#686868"/>
</svg>
