<svg width="50" height="50" viewBox="0 0 50 50" fill="none" xmlns="http://www.w3.org/2000/svg">
<circle cx="25" cy="25" r="25" fill="#00A9FF"/>
<path d="M19.5523 15.7168C17.7278 16.241 16.2178 18.0698 15.7208 20.3619C15.5824 20.9959 15.5949 21.9407 15.7522 22.4833C15.9032 23.0136 16.287 23.7756 16.8595 24.6717C17.6082 25.8421 17.7718 26.3054 18.2688 28.7194C18.7847 31.237 19.1559 32.2733 19.8606 33.1999C20.389 33.8948 21.0937 34.3215 21.7983 34.3703C23 34.4496 23.4907 33.5474 24.252 29.8167C24.4911 28.6462 24.5729 28.4999 25.0007 28.4999C25.4285 28.4999 25.5103 28.6462 25.7494 29.8167C26.3597 32.8098 26.7623 33.84 27.4858 34.2484C27.6997 34.3642 27.8067 34.3825 28.1779 34.3642C29.1405 34.3094 30.015 33.6205 30.6442 32.4074C31.0405 31.6454 31.3425 30.6335 31.7326 28.7377C32.2296 26.2993 32.3932 25.8421 33.1419 24.6717C34.0919 23.1721 34.375 22.4345 34.375 21.4165C34.375 19.4109 33.1607 17.1737 31.5313 16.1984C30.7763 15.7473 30.3925 15.6375 29.4676 15.6375C28.4862 15.6375 28.0584 15.7595 27.1146 16.3081C26.1017 16.8994 25.8626 16.9725 25.0007 16.9725C24.1388 16.9725 23.8871 16.8933 22.9056 16.3142C22.0122 15.796 21.5656 15.6558 20.6596 15.6314C20.0996 15.6132 19.848 15.6314 19.5523 15.7168ZM20.8169 18.1978C21.1189 18.4843 20.9804 18.8074 20.4394 19.0513C19.9298 19.289 19.4516 19.9778 19.244 20.8008C19.1874 21.008 19.1119 21.2885 19.0804 21.4165C19.0301 21.5933 18.9672 21.6725 18.8225 21.7335C18.5897 21.8249 18.3003 21.7518 18.2059 21.5811C18.036 21.2763 18.2185 20.4533 18.6149 19.6487C19.2188 18.4478 20.3261 17.7163 20.8169 18.1978Z" fill="white"/>
</svg>
