<svg width="12" height="12" viewBox="0 0 12 12" fill="none" xmlns="http://www.w3.org/2000/svg">
<path d="M2.67765 0.0193342C2.80616 0.0655779 2.91529 0.130984 3.02841 0.206395C3.04917 0.192018 3.04917 0.192018 3.07034 0.17735C3.09806 0.158451 3.09806 0.158451 3.12633 0.13917C3.14451 0.126691 3.16269 0.114213 3.18142 0.101356C3.29928 0.0290329 3.39399 0.0108954 3.53264 0.00764294C3.56305 0.00643727 3.59347 0.00523161 3.6248 0.00398941C3.71838 0.00973723 3.78178 0.0441348 3.86321 0.0892994C4.01814 0.171742 4.14757 0.176944 4.32039 0.174244C4.84314 0.180723 5.25377 0.318636 5.62407 0.69743C5.63794 0.710541 5.6518 0.723653 5.66609 0.737162C5.75258 0.82574 5.8062 0.933144 5.8623 1.04232C5.8701 1.05737 5.8779 1.07242 5.88593 1.08792C5.99688 1.31351 6.03209 1.53231 6.03142 1.78202C6.03162 1.80973 6.03182 1.83744 6.03202 1.86599C6.03257 1.95676 6.03259 2.04752 6.03256 2.13829C6.03267 2.18563 6.03281 2.23296 6.03296 2.2803C6.03341 2.4287 6.03348 2.5771 6.03332 2.7255C6.03316 2.87843 6.0337 3.03134 6.03456 3.18426C6.03528 3.31595 6.03555 3.44763 6.03546 3.57931C6.03541 3.65781 6.03554 3.73629 6.03611 3.81479C6.03662 3.90211 6.0364 3.98939 6.03599 4.07671C6.0363 4.10265 6.03661 4.12858 6.03693 4.1553C6.03501 4.32934 6.03501 4.32934 5.96754 4.40875C5.88173 4.44956 5.83151 4.44041 5.74099 4.41526C5.69209 4.37813 5.67325 4.35813 5.66197 4.29723C5.66192 4.27875 5.66188 4.26027 5.66183 4.24124C5.6616 4.21997 5.66138 4.19871 5.66115 4.1768C5.66125 4.15351 5.66136 4.13023 5.66147 4.10624C5.66131 4.08167 5.66114 4.0571 5.66097 4.03178C5.66051 3.95023 5.66052 3.86868 5.66052 3.78713C5.66024 3.73035 5.65993 3.67357 5.65958 3.61678C5.65873 3.46688 5.65826 3.31697 5.65791 3.16706C5.65733 2.92803 5.65639 2.68901 5.65506 2.44999C5.65468 2.36682 5.65459 2.28365 5.65452 2.20047C5.65295 1.70294 5.63026 1.28487 5.27349 0.905042C5.08512 0.722553 4.85165 0.623986 4.59516 0.580517C4.59516 0.688544 4.59516 0.796572 4.59516 0.907873C4.61831 0.909802 4.64146 0.911732 4.66531 0.913719C4.86352 0.943567 5.02658 1.06313 5.15638 1.21185C5.24951 1.36556 5.32305 1.51137 5.32289 1.69264C5.32293 1.73321 5.32293 1.73321 5.32298 1.77461C5.3229 1.80431 5.32281 1.83401 5.32273 1.86461C5.32272 1.89618 5.32273 1.92776 5.32274 1.95933C5.32275 2.04507 5.32261 2.13082 5.32244 2.21656C5.3223 2.30616 5.32228 2.39575 5.32226 2.48535C5.32218 2.65503 5.32199 2.82471 5.32176 2.99438C5.3215 3.18755 5.32137 3.38072 5.32125 3.57388C5.32101 3.97126 5.32059 4.36863 5.32007 4.766C5.338 4.76551 5.35593 4.76502 5.3744 4.76452C5.45567 4.76257 5.53694 4.76136 5.61822 4.76016C5.64644 4.75937 5.67465 4.75859 5.70372 4.75778C5.73085 4.75748 5.75798 4.75718 5.78593 4.75687C5.81091 4.75638 5.8359 4.75589 5.86163 4.75539C5.94437 4.76861 5.97118 4.79387 6.0216 4.85953C6.03348 4.92533 6.03348 4.92533 6.03371 5.00225C6.034 5.03116 6.0343 5.06007 6.0346 5.08986C6.03443 5.12148 6.03424 5.15309 6.03403 5.1847C6.03409 5.21752 6.03418 5.25034 6.0343 5.28316C6.03443 5.3522 6.03423 5.42122 6.0338 5.49026C6.03327 5.57731 6.03357 5.66434 6.03412 5.75139C6.0361 6.12406 6.02976 6.48555 5.92807 6.84706C5.92159 6.87054 5.91511 6.89402 5.90844 6.91821C5.89211 6.97157 5.87393 7.02312 5.85353 7.07504C5.84663 7.09305 5.83974 7.11106 5.83264 7.12962C5.70904 7.4412 5.5338 7.71269 5.32007 7.96942C5.30274 7.99034 5.28541 8.01126 5.26755 8.03281C5.14254 8.17764 5.00433 8.29784 4.85239 8.41369C4.83445 8.42759 4.81652 8.44148 4.79804 8.4558C4.43881 8.72108 3.99075 8.93345 3.54287 8.97487C3.54878 9.07428 3.55527 9.17364 3.56187 9.273C3.56351 9.30076 3.56515 9.32852 3.56685 9.35712C3.5974 9.80442 3.73813 10.1728 4.05732 10.4947C4.3893 10.7829 4.80014 10.9369 5.24051 10.9106C5.65954 10.8651 6.05286 10.6951 6.32697 10.367C6.64223 9.95161 6.70354 9.53913 6.70282 9.03119C6.70286 8.9998 6.70291 8.9684 6.70297 8.937C6.70307 8.86919 6.70311 8.80137 6.70309 8.73356C6.70305 8.62317 6.70317 8.51278 6.70331 8.4024C6.7035 8.24211 6.70362 8.08182 6.70369 7.92154C6.70382 7.6679 6.70422 7.41427 6.70466 7.16064C6.70481 7.07372 6.70495 6.98679 6.7051 6.89987C6.70514 6.87815 6.70518 6.85643 6.70521 6.83406C6.70563 6.58716 6.70601 6.34026 6.70636 6.09336C6.7064 6.07081 6.70643 6.04825 6.70646 6.02502C6.70697 5.65968 6.70723 5.29433 6.7074 4.92899C6.70759 4.55325 6.70814 4.17751 6.70899 3.80177C6.7095 3.57037 6.70973 3.33898 6.70959 3.10758C6.70951 2.94886 6.70978 2.79013 6.71031 2.63141C6.7106 2.54001 6.71075 2.44861 6.71049 2.35721C6.70937 1.93409 6.70957 1.53712 6.90144 1.14901C6.90932 1.13269 6.9172 1.11637 6.92532 1.09956C7.009 0.933269 7.11614 0.790997 7.23759 0.650665C7.25097 0.634931 7.26435 0.619197 7.27814 0.602986C7.60239 0.251471 8.10909 0.0322944 8.58109 0.0104744C9.22 -0.00639331 9.72911 0.163317 10.1986 0.606822C10.5847 1.00549 10.7702 1.51818 10.7734 2.06805C10.7736 2.09247 10.7739 2.1169 10.7741 2.14207C10.7749 2.2224 10.7754 2.30274 10.776 2.38308C10.7765 2.43894 10.777 2.4948 10.7775 2.55066C10.7788 2.69738 10.7799 2.84411 10.7811 2.99084C10.7822 3.14068 10.7835 3.29052 10.7848 3.44036C10.7873 3.73415 10.7897 4.02794 10.792 4.32173C10.8108 4.32936 10.8296 4.33699 10.8489 4.34484C10.8738 4.35506 10.8987 4.36528 10.9244 4.37581C10.9489 4.38584 10.9735 4.39588 10.9988 4.40622C11.4198 4.59118 11.7188 4.94732 11.8881 5.36811C12.06 5.82726 12.0284 6.33566 11.8306 6.77965C11.7345 6.98305 11.6077 7.136 11.4468 7.29133C11.4302 7.30857 11.4137 7.32581 11.3967 7.34357C11.0894 7.64621 10.6508 7.76651 10.2308 7.77067C9.76499 7.76606 9.33713 7.61817 9.00566 7.28438C8.98552 7.26353 8.96539 7.24267 8.94464 7.22118C8.9274 7.20466 8.91015 7.18814 8.89239 7.17112C8.59266 6.86677 8.46919 6.43436 8.46526 6.01844C8.46971 5.547 8.61306 5.11637 8.95158 4.78025C8.97244 4.76012 8.9933 4.73998 9.01479 4.71924C9.03131 4.702 9.04783 4.68476 9.06485 4.66699C9.22868 4.50567 9.45232 4.39414 9.66955 4.32173C9.67173 4.01297 9.67339 3.7042 9.6744 3.39543C9.67489 3.25203 9.67554 3.10864 9.67661 2.96524C9.67763 2.82667 9.67819 2.6881 9.67843 2.54952C9.6786 2.49685 9.67893 2.44417 9.67944 2.39149C9.68296 2.011 9.6792 1.67567 9.41232 1.37553C9.22159 1.18805 9.01018 1.11014 8.74587 1.10663C8.46692 1.11003 8.25806 1.20167 8.05823 1.39535C7.80533 1.66483 7.79158 1.99823 7.79293 2.35216C7.79288 2.38372 7.79281 2.41528 7.79272 2.44684C7.79253 2.53279 7.79263 2.61874 7.79278 2.7047C7.79288 2.7977 7.79272 2.89071 7.79258 2.98372C7.79238 3.14471 7.79234 3.3057 7.79239 3.46669C7.79247 3.69993 7.79219 3.93317 7.79182 4.16641C7.79121 4.54553 7.79074 4.92464 7.79043 5.30376C7.79041 5.32642 7.79039 5.34909 7.79037 5.37243C7.79011 5.69374 7.78999 6.01504 7.78992 6.33635C7.78991 6.35896 7.78991 6.38157 7.7899 6.40487C7.7899 6.42745 7.78989 6.45004 7.78989 6.47331C7.7898 6.85087 7.78935 7.22843 7.78861 7.606C7.78817 7.83842 7.78803 8.07084 7.78828 8.30326C7.78843 8.46276 7.78824 8.62226 7.78779 8.78176C7.78754 8.87355 7.78744 8.96533 7.78775 9.05712C7.79058 9.95367 7.58957 10.6469 6.94638 11.3014C6.46023 11.7678 5.81074 12.0009 5.14323 12C5.12783 12 5.11243 12 5.09657 12C4.83967 11.9992 4.60596 11.9752 4.36132 11.8977C4.31805 11.8846 4.31805 11.8846 4.2739 11.8712C3.60881 11.6517 3.06739 11.1574 2.74658 10.541C2.5908 10.2269 2.48683 9.87977 2.48829 9.52747C2.48832 9.51158 2.48836 9.49569 2.48839 9.47932C2.48852 9.42906 2.48881 9.3788 2.48911 9.32854C2.48923 9.29425 2.48934 9.25997 2.48943 9.22569C2.48969 9.14208 2.49009 9.05848 2.49057 8.97487C2.47281 8.97233 2.45505 8.96978 2.43674 8.96716C2.28285 8.94358 2.1405 8.91205 1.99512 8.8565C1.97632 8.84939 1.95752 8.84229 1.93815 8.83497C1.61438 8.70884 1.32937 8.54407 1.06413 8.32016C1.04207 8.30192 1.02 8.28369 0.997267 8.2649C0.454954 7.79692 0.0917356 7.08947 0.0118386 6.3794C0.00310209 6.22118 0.00495143 6.06254 0.00504481 5.90414C0.00490466 5.85648 0.00474547 5.80882 0.00456882 5.76116C0.00415773 5.63241 0.00404622 5.50366 0.00401629 5.37491C0.00398294 5.29432 0.00388271 5.21372 0.00375903 5.13312C0.00332708 4.85151 0.00313536 4.5699 0.00317224 4.28828C0.00320034 4.02646 0.00270654 3.76465 0.00196817 3.50283C0.00135529 3.27741 0.00110587 3.052 0.00113571 2.82658C0.0011476 2.69223 0.00101671 2.55787 0.000519494 2.42352C6.44035e-05 2.29711 6.44204e-05 2.17072 0.000403172 2.04431C0.000451792 1.99815 0.000343415 1.95198 5.90226e-05 1.90582C-0.00265499 1.43442 0.0874804 1.03173 0.425722 0.680441C0.443477 0.662898 0.461232 0.645356 0.479524 0.627282C0.495591 0.610704 0.511658 0.594126 0.528211 0.577046C0.875748 0.240495 1.32835 0.168235 1.79272 0.175489C1.9708 0.174731 2.08488 0.137243 2.24022 0.0512912C2.37951 -0.0190516 2.52712 -0.00373009 2.67765 0.0193342ZM2.23335 0.486986C2.15596 0.538575 2.12638 0.539333 2.03604 0.54252C1.95384 0.548935 1.91377 0.552237 1.84312 0.596592C1.80237 0.66838 1.79887 0.709639 1.81243 0.79096C1.84045 0.850278 1.84045 0.850278 1.90597 0.884491C1.94628 0.888758 1.98677 0.891501 2.02727 0.893259C2.13185 0.898391 2.1867 0.91599 2.26988 0.979483C2.36566 1.05071 2.43506 1.06678 2.55378 1.05886C2.66013 1.0377 2.72168 0.984245 2.79165 0.904951C2.83116 0.803973 2.83338 0.710835 2.81795 0.603899C2.76737 0.500874 2.71514 0.435574 2.6075 0.393456C2.45433 0.372677 2.35553 0.385669 2.23335 0.486986ZM3.24179 0.536674C3.20228 0.637652 3.20006 0.73079 3.21549 0.837726C3.26607 0.940751 3.3183 1.00605 3.42595 1.04817C3.54601 1.06446 3.63262 1.06298 3.74017 1.00433C3.75995 0.98793 3.77972 0.971533 3.80009 0.954639C3.87748 0.90305 3.90706 0.902292 3.9974 0.899105C4.0796 0.89269 4.11967 0.889388 4.19032 0.845033C4.23107 0.773245 4.23457 0.731986 4.22101 0.650665C4.19299 0.591347 4.19299 0.591347 4.12747 0.557134C4.08716 0.552867 4.04667 0.550124 4.00617 0.548366C3.90159 0.543234 3.84674 0.525635 3.76356 0.462142C3.66779 0.39092 3.59838 0.374843 3.47966 0.382769C3.37331 0.403928 3.31176 0.45738 3.24179 0.536674ZM7.50861 0.918651C7.14411 1.33501 7.07006 1.81153 7.07083 2.34804C7.07079 2.37944 7.07074 2.41084 7.07068 2.44223C7.07057 2.51005 7.07053 2.57786 7.07056 2.64568C7.0706 2.75606 7.07047 2.86645 7.07033 2.97684C7.07014 3.13712 7.07003 3.29741 7.06995 3.4577C7.06982 3.71133 7.06943 3.96496 7.06898 4.2186C7.06884 4.30552 7.06869 4.39244 7.06854 4.47936C7.0685 4.50108 7.06847 4.5228 7.06843 4.54518C7.06801 4.79208 7.06763 5.03897 7.06728 5.28587C7.06725 5.30843 7.06721 5.33098 7.06718 5.35422C7.06667 5.71956 7.06642 6.0849 7.06624 6.45024C7.06605 6.82598 7.06551 7.20172 7.06465 7.57746C7.06414 7.80886 7.06391 8.04025 7.06406 8.27165C7.06413 8.43038 7.06386 8.5891 7.06333 8.74783C7.06304 8.83923 7.06289 8.93062 7.06316 9.02202C7.06536 9.8577 7.06536 9.85771 6.87221 10.2185C6.86429 10.2338 6.85638 10.249 6.84822 10.2647C6.60609 10.7145 6.22456 11.0287 5.74099 11.1962C5.70943 11.2074 5.70943 11.2074 5.67723 11.2189C5.17984 11.3637 4.61953 11.2835 4.17032 11.0388C3.72276 10.7816 3.42118 10.3859 3.26566 9.8937C3.20809 9.67398 3.20397 9.46034 3.20506 9.23429C3.20526 9.16999 3.20458 9.10575 3.20384 9.04146C3.2038 9.00045 3.20382 8.95944 3.20389 8.91843C3.20362 8.89928 3.20336 8.88014 3.20309 8.86042C3.20471 8.72962 3.20471 8.72962 3.25716 8.67144C3.3069 8.6485 3.34832 8.63424 3.4022 8.62514C3.42893 8.62025 3.42893 8.62025 3.4562 8.61526C3.47515 8.61192 3.49411 8.60858 3.51364 8.60514C3.98705 8.51245 4.39626 8.31257 4.75885 7.9928C4.77359 7.98114 4.78833 7.96947 4.80352 7.95746C5.27623 7.58168 5.57336 6.92369 5.64867 6.33568C5.69087 5.94004 5.67464 5.53738 5.67084 5.14013C5.55509 5.14013 5.43933 5.14013 5.32007 5.14013C5.31975 5.19119 5.31975 5.19119 5.31941 5.24329C5.31847 5.37146 5.31693 5.49962 5.31522 5.62779C5.31457 5.68291 5.31407 5.73803 5.31374 5.79315C5.309 6.5369 5.13434 7.12402 4.61708 7.67714C4.17674 8.10532 3.57104 8.30681 2.96521 8.3038C2.33009 8.28979 1.74798 8.02351 1.30674 7.56534C0.933228 7.13779 0.738053 6.62267 0.729353 6.05808C0.728867 6.03181 0.728381 6.00553 0.72788 5.97847C0.726356 5.89485 0.724975 5.81123 0.723598 5.72761C0.722588 5.6708 0.721568 5.61399 0.720538 5.55718C0.718039 5.41816 0.715669 5.27914 0.713367 5.14013C0.597615 5.14013 0.481863 5.14013 0.362603 5.14013C0.352773 6.16837 0.385413 7.07598 1.12661 7.86895C1.55614 8.29268 2.05797 8.50608 2.63718 8.63604C2.76623 8.66595 2.76623 8.66595 2.81795 8.71766C2.82504 8.77573 2.82504 8.77573 2.82681 8.84883C2.82759 8.87549 2.82837 8.90216 2.82917 8.92963C2.83013 8.97228 2.83013 8.97228 2.83111 9.01579C2.83291 9.07379 2.83473 9.13179 2.83659 9.18979C2.83817 9.24286 2.83976 9.29593 2.84134 9.349C2.86136 10.0102 3.12504 10.589 3.6006 11.0507C4.06662 11.4599 4.67101 11.669 5.28908 11.6351C5.81622 11.5934 6.28451 11.3855 6.67636 11.0325C6.6946 11.0162 6.71284 10.9999 6.73163 10.9831C7.18664 10.5533 7.393 9.96141 7.42466 9.349C7.42757 9.24096 7.42789 9.13302 7.42773 9.02495C7.42777 8.99373 7.42782 8.96251 7.42788 8.93129C7.42799 8.86409 7.42802 8.79688 7.428 8.72968C7.42796 8.62027 7.42808 8.51087 7.42822 8.40146C7.42841 8.24263 7.42853 8.0838 7.4286 7.92497C7.42873 7.67371 7.42913 7.42244 7.42957 7.17118C7.42972 7.08504 7.42987 6.9989 7.43002 6.91276C7.43005 6.89123 7.43009 6.86971 7.43013 6.84754C7.43055 6.60309 7.43093 6.35864 7.43128 6.11419C7.43131 6.09186 7.43134 6.06954 7.43137 6.04654C7.43189 5.68456 7.43214 5.32258 7.43231 4.96059C7.4325 4.58826 7.43305 4.21593 7.4339 3.84359C7.43442 3.61429 7.43464 3.38499 7.4345 3.15569C7.43443 2.99854 7.43469 2.84139 7.43522 2.68424C7.43552 2.5937 7.43566 2.50317 7.4354 2.41263C7.43516 2.32956 7.43536 2.2465 7.43589 2.16344C7.43606 2.11956 7.43577 2.07568 7.43547 2.0318C7.43925 1.63315 7.58893 1.32488 7.86896 1.04817C8.17379 0.771728 8.53804 0.722587 8.93286 0.739628C9.24549 0.764013 9.52924 0.939349 9.73971 1.16508C9.95631 1.44398 10.0446 1.74777 10.0511 2.09509C10.0516 2.11669 10.0521 2.13829 10.0526 2.16054C10.0541 2.22915 10.0555 2.29776 10.0569 2.36636C10.0579 2.41304 10.0589 2.45971 10.0599 2.50639C10.0624 2.62046 10.0648 2.73455 10.0671 2.84863C10.1751 2.84863 10.2832 2.84863 10.3945 2.84863C10.3968 2.71229 10.3985 2.57596 10.3996 2.43961C10.4001 2.39339 10.4007 2.34718 10.4015 2.30098C10.4077 1.94089 10.3889 1.60229 10.2176 1.27615C10.2058 1.2532 10.2058 1.2532 10.1938 1.2298C9.9809 0.837213 9.60101 0.563291 9.17994 0.432914C8.5599 0.270435 7.95246 0.465478 7.50861 0.918651ZM0.720675 0.910796C0.399111 1.24941 0.358571 1.62965 0.359948 2.07432C0.359945 2.10355 0.359941 2.13277 0.359938 2.16289C0.359951 2.24229 0.360068 2.3217 0.360232 2.40111C0.360379 2.48437 0.360392 2.56763 0.36042 2.65088C0.360492 2.80822 0.360684 2.96555 0.360919 3.12289C0.361181 3.30215 0.361309 3.48141 0.361426 3.66067C0.36167 4.02911 0.362086 4.39756 0.362603 4.766C0.478355 4.766 0.594108 4.766 0.713367 4.766C0.713401 4.72649 0.713434 4.68698 0.713468 4.64628C0.713859 4.27336 0.714854 3.90044 0.716456 3.52752C0.717265 3.33581 0.717859 3.14411 0.71794 2.9524C0.718012 2.7852 0.718494 2.61801 0.71946 2.45081C0.719956 2.36238 0.720254 2.27395 0.720059 2.18551C0.719881 2.10206 0.720258 2.01862 0.721039 1.93517C0.72132 1.89038 0.721033 1.84558 0.72072 1.80079C0.724067 1.54485 0.793195 1.32151 0.973518 1.13421C1.11386 1.00849 1.2574 0.955604 1.43828 0.907873C1.43828 0.799846 1.43828 0.691818 1.43828 0.580517C1.16762 0.580517 0.91475 0.729213 0.720675 0.910796ZM3.00503 1.21185C2.99119 1.22143 2.97736 1.23102 2.9631 1.24089C2.93538 1.25979 2.93538 1.25979 2.90711 1.27907C2.88893 1.29155 2.87075 1.30403 2.85203 1.31689C2.68515 1.41929 2.49467 1.42981 2.3035 1.39891C2.23554 1.36749 2.23554 1.36749 2.17342 1.32876C2.03431 1.2482 1.90821 1.24363 1.75105 1.24254C1.72845 1.2421 1.70586 1.24166 1.68258 1.24121C1.50108 1.24406 1.33749 1.28999 1.20566 1.42068C1.03865 1.61638 1.05732 1.87102 1.05808 2.11436C1.05802 2.14849 1.05793 2.18262 1.05783 2.21676C1.05762 2.309 1.0577 2.40123 1.05785 2.49347C1.05797 2.59055 1.05786 2.68762 1.05778 2.7847C1.0577 2.9479 1.05781 3.11109 1.05803 3.27429C1.05829 3.46193 1.05821 3.64956 1.05795 3.8372C1.05774 3.99909 1.05771 4.16098 1.05783 4.32287C1.0579 4.4192 1.05791 4.51552 1.05776 4.61185C1.05664 5.41166 1.08474 6.09733 1.6692 6.71114C2.06022 7.08849 2.57493 7.25786 3.11081 7.24949C3.62803 7.23152 4.06781 6.9939 4.43147 6.63661C4.44609 6.6223 4.46071 6.60798 4.47577 6.59323C4.90515 6.13868 4.97295 5.54408 4.97271 4.94852C4.97278 4.91403 4.97286 4.87954 4.97294 4.84505C4.97315 4.75235 4.97321 4.65965 4.97322 4.56695C4.97324 4.50888 4.97329 4.45082 4.97335 4.39276C4.97356 4.18981 4.97366 3.98687 4.97364 3.78392C4.97363 3.5953 4.97388 3.40668 4.97424 3.21806C4.97455 3.05549 4.97468 2.89293 4.97466 2.73036C4.97465 2.63353 4.97472 2.5367 4.97497 2.43987C4.9752 2.3489 4.9752 2.25793 4.97503 2.16695C4.975 2.13371 4.97506 2.10046 4.9752 2.06722C4.98049 1.72086 4.98049 1.72086 4.82778 1.42068C4.69595 1.28999 4.53236 1.24406 4.35086 1.24121C4.31697 1.24187 4.31697 1.24187 4.2824 1.24254C4.25864 1.2427 4.23488 1.24287 4.21041 1.24304C4.04652 1.24798 3.93786 1.28117 3.79726 1.36712C3.65716 1.43327 3.5054 1.42183 3.35579 1.39891C3.22728 1.35266 3.11815 1.28726 3.00503 1.21185ZM10.0671 3.19937C10.0671 3.31511 10.0671 3.43086 10.0671 3.55011C10.1751 3.55011 10.2832 3.55011 10.3945 3.55011C10.3945 3.43436 10.3945 3.31862 10.3945 3.19937C10.2864 3.19937 10.1784 3.19937 10.0671 3.19937ZM10.0671 3.90085C10.0671 4.24808 10.0671 4.59531 10.0671 4.95306C10.1751 4.95306 10.2832 4.95306 10.3945 4.95306C10.3945 4.60583 10.3945 4.2586 10.3945 3.90085C10.2864 3.90085 10.1784 3.90085 10.0671 3.90085ZM10.7686 4.71924C10.7376 4.9444 10.7376 4.9444 10.8097 5.14725C10.8462 5.1731 10.8836 5.19766 10.9218 5.22096C11.1087 5.33872 11.2117 5.56304 11.2597 5.77146C11.2996 6.09589 11.2612 6.38654 11.0668 6.65707C10.8948 6.85855 10.6784 7.00782 10.4101 7.04082C10.0802 7.06646 9.78821 7.0198 9.52906 6.79865C9.31675 6.59301 9.20018 6.36152 9.18922 6.06394C9.18668 5.75264 9.25622 5.52224 9.45909 5.28042C9.53169 5.20843 9.60797 5.15 9.69294 5.09336C9.69811 5.03193 9.69952 4.97624 9.69732 4.91507C9.697 4.89855 9.69669 4.88203 9.69636 4.86501C9.69553 4.82421 9.69428 4.78341 9.69294 4.74262C9.45525 4.77669 9.2579 4.98831 9.10833 5.16351C8.86821 5.49452 8.80781 5.86283 8.8511 6.26249C8.9165 6.63086 9.13995 6.93829 9.43744 7.15715C9.76706 7.37224 10.1119 7.44459 10.4993 7.37974C10.8826 7.29458 11.1992 7.0718 11.4175 6.74622C11.6128 6.42574 11.666 6.04609 11.5953 5.67783C11.4944 5.29188 11.2574 4.98539 10.9162 4.78354C10.8465 4.7396 10.8465 4.7396 10.7686 4.71924ZM9.66955 5.58439C9.55056 5.77146 9.53567 5.94993 9.55263 6.16896C9.59519 6.33555 9.69614 6.48338 9.83982 6.57834C10.035 6.68924 10.2346 6.72423 10.457 6.66739C10.6666 6.58016 10.7915 6.44318 10.8855 6.23911C10.9383 6.08088 10.9353 5.88071 10.8709 5.72615C10.7624 5.52243 10.614 5.40036 10.3945 5.32719C10.0931 5.30356 9.87475 5.35415 9.66955 5.58439ZM1.29797 6.87044C1.32917 6.98458 1.37993 7.06834 1.4529 7.1598C1.46344 7.17313 1.47399 7.18646 1.48485 7.2002C1.82322 7.62237 2.27777 7.88083 2.81795 7.94604C3.35479 7.98856 3.84061 7.83497 4.25956 7.49885C4.44774 7.33673 4.62922 7.14418 4.73547 6.9172C4.72775 6.90177 4.72003 6.88634 4.71208 6.87044C4.70096 6.88292 4.68984 6.8954 4.67838 6.90825C4.28178 7.33038 3.71121 7.57612 3.13492 7.60051C2.50144 7.61732 1.90122 7.42385 1.4318 6.98425C1.404 6.95616 1.37653 6.92775 1.34958 6.89884C1.34027 6.88947 1.33096 6.8801 1.32136 6.87044C1.31364 6.87044 1.30593 6.87044 1.29797 6.87044Z" fill="black"/>
<path d="M10.2308 5.80371C10.326 5.82356 10.3604 5.85754 10.4178 5.93524C10.4324 6.00539 10.4324 6.00539 10.4178 6.07553C10.3604 6.15323 10.326 6.18721 10.2308 6.20706C10.1355 6.18721 10.1011 6.15323 10.0437 6.07553C10.0291 6.00539 10.0291 6.00539 10.0437 5.93524C10.1011 5.85754 10.1355 5.82356 10.2308 5.80371Z" fill="black"/>
</svg>
