<svg width="16" height="16" viewBox="0 0 16 16" fill="none" xmlns="http://www.w3.org/2000/svg">
<path d="M5.72245 2.72641C6.73603 0.908803 7.24242 0 8 0C8.75758 0 9.26397 0.908803 10.2775 2.72641L10.5399 3.19681C10.8279 3.71361 10.9719 3.97201 11.1959 4.14241C11.4199 4.31281 11.6999 4.37601 12.2599 4.50241L12.7687 4.61761C14.7366 5.06322 15.7198 5.28562 15.9542 6.03842C16.1878 6.79042 15.5174 7.57522 14.1759 9.14403L13.8287 9.54963C13.4479 9.99523 13.2567 10.2184 13.1711 10.4936C13.0855 10.7696 13.1143 11.0672 13.1719 11.6616L13.2247 12.2032C13.4271 14.2968 13.5287 15.3432 12.9159 15.808C12.3031 16.2736 11.3815 15.8488 9.53996 15.0008L9.06237 14.7816C8.53919 14.54 8.27759 14.42 8 14.42C7.72241 14.42 7.46081 14.54 6.93762 14.7816L6.46084 15.0008C4.61848 15.8488 3.6969 16.2729 3.08492 15.8088C2.47133 15.3432 2.57293 14.2968 2.77532 12.2032L2.82812 11.6624C2.88572 11.0672 2.91452 10.7696 2.82812 10.4944C2.74332 10.2184 2.55213 9.99523 2.17134 9.55043L1.82415 9.14403C0.482577 7.57602 -0.187808 6.79122 0.0457869 6.03842C0.280181 5.28562 1.26416 5.06242 3.23211 4.61761L3.7409 4.50241C4.30009 4.37601 4.57928 4.31281 4.80408 4.14241C5.02807 3.97201 5.17207 3.71361 5.46006 3.19681L5.72245 2.72641Z" fill="white"/>
</svg>
