<svg width="25" height="25" viewBox="0 0 25 25" fill="none" xmlns="http://www.w3.org/2000/svg">
<circle cx="12.5" cy="12.5" r="12.5" fill="url(#paint0_linear_744_1718)"/>
<path d="M11.696 18.14C11.0053 18.14 10.3287 18.042 9.666 17.846C9.01267 17.6407 8.462 17.3607 8.014 17.006L8.798 15.592C9.15267 15.8813 9.582 16.1147 10.086 16.292C10.59 16.4693 11.1173 16.558 11.668 16.558C12.3213 16.558 12.83 16.4273 13.194 16.166C13.558 15.8953 13.74 15.5313 13.74 15.074C13.74 14.626 13.572 14.2713 13.236 14.01C12.9 13.7487 12.3587 13.618 11.612 13.618H10.716V12.372L13.516 9.04L13.754 9.726H8.49V8.2H15.168V9.418L12.368 12.75L11.416 12.19H11.962C13.166 12.19 14.0667 12.4607 14.664 13.002C15.2707 13.534 15.574 14.22 15.574 15.06C15.574 15.6107 15.434 16.1193 15.154 16.586C14.874 17.0527 14.4447 17.4307 13.866 17.72C13.2967 18 12.5733 18.14 11.696 18.14Z" fill="white"/>
<defs>
<linearGradient id="paint0_linear_744_1718" x1="18.5" y1="1.25" x2="3.75" y2="22.75" gradientUnits="userSpaceOnUse">
<stop stop-color="#002670" stop-opacity="0.49"/>
<stop offset="1" stop-color="#C5DFF8"/>
</linearGradient>
</defs>
</svg>
