<svg width="26" height="26" viewBox="0 0 26 26" fill="none" xmlns="http://www.w3.org/2000/svg">
<path d="M11.7925 0.0290089C4.97927 0.689926 -0.211974 6.55175 0.00665836 13.349C0.0727565 15.3267 0.499852 17.04 1.3693 18.7838C2.63533 21.336 4.65895 23.3594 7.21644 24.6304C11.3603 26.6945 16.2617 26.4098 20.1259 23.883C21.636 22.8967 23.0698 21.4326 24.046 19.8769C24.4223 19.2871 24.9816 18.1381 25.2358 17.4467C25.4951 16.7451 25.7951 15.5351 25.9019 14.7471C26.0188 13.9489 26.0341 12.0984 25.9324 11.3917C25.6324 9.28185 24.9612 7.48212 23.8477 5.80441C23.38 5.09265 22.9071 4.51308 22.2461 3.84708C20.2174 1.79823 17.6955 0.527239 14.8126 0.100185C14.1923 0.00867271 12.4433 -0.0319996 11.7925 0.0290089ZM15.7889 6.64326C16.0329 7.77191 16.6024 8.57009 17.4464 8.97173C17.8786 9.18017 18.4124 9.33269 18.6921 9.33269H18.8548V10.4512V11.5696H18.565C17.8582 11.5696 17.1261 11.3612 16.2871 10.9291C15.9922 10.7765 15.738 10.6545 15.7228 10.6545C15.7126 10.6545 15.7126 11.1426 15.7329 11.7323C15.7685 13.1152 15.6821 15.6978 15.5804 16.1452C15.3262 17.2484 14.7516 18.1991 13.933 18.8448C12.3111 20.1412 10.318 20.1717 8.74686 18.9312C8.12147 18.433 7.55201 17.523 7.30796 16.6282C7.17068 16.1198 7.11983 15.0217 7.21135 14.5539C7.50117 13.0745 8.69093 11.7781 10.1807 11.3205C10.5874 11.1934 11.3552 11.0612 11.6755 11.0612H11.8891V12.2001V13.3389L11.523 13.4253C10.2824 13.7252 9.73325 14.1116 9.44343 14.8691C9.2909 15.2809 9.32141 15.9063 9.5197 16.2977C9.94171 17.1315 10.6281 17.5484 11.523 17.5077C12.4433 17.4721 13.0026 16.9841 13.3229 15.9419L13.4398 15.5606L13.4551 10.8426L13.4703 6.12978H14.5737H15.677L15.7889 6.64326Z" fill="black"/>
</svg>
