<svg width="25" height="25" viewBox="0 0 25 25" fill="none" xmlns="http://www.w3.org/2000/svg">
<circle cx="12.5" cy="12.5" r="12.5" fill="url(#paint0_linear_744_1714)"/>
<path d="M8.49 18V16.782L12.382 13.086C12.7087 12.778 12.9513 12.5073 13.11 12.274C13.2687 12.0407 13.3713 11.826 13.418 11.63C13.474 11.4247 13.502 11.2333 13.502 11.056C13.502 10.608 13.348 10.2627 13.04 10.02C12.732 9.768 12.2793 9.642 11.682 9.642C11.206 9.642 10.772 9.726 10.38 9.894C9.99733 10.062 9.666 10.3187 9.386 10.664L8.112 9.684C8.49467 9.17067 9.008 8.774 9.652 8.494C10.3053 8.20467 11.0333 8.06 11.836 8.06C12.5453 8.06 13.1613 8.17667 13.684 8.41C14.216 8.634 14.622 8.956 14.902 9.376C15.1913 9.796 15.336 10.2953 15.336 10.874C15.336 11.1913 15.294 11.5087 15.21 11.826C15.126 12.134 14.9673 12.4607 14.734 12.806C14.5007 13.1513 14.16 13.5387 13.712 13.968L10.366 17.146L9.988 16.46H15.714V18H8.49Z" fill="white"/>
<defs>
<linearGradient id="paint0_linear_744_1714" x1="18.5" y1="1.25" x2="3.75" y2="22.75" gradientUnits="userSpaceOnUse">
<stop stop-color="#002670" stop-opacity="0.49"/>
<stop offset="1" stop-color="#C5DFF8"/>
</linearGradient>
</defs>
</svg>
