<svg width="36" height="12" viewBox="0 0 36 12" fill="none" xmlns="http://www.w3.org/2000/svg">
<path fill-rule="evenodd" clip-rule="evenodd" d="M8.83513 11.9066H5.79366L3.51293 2.5973C3.40468 2.16907 3.17482 1.7905 2.83672 1.61207C1.99294 1.16367 1.06315 0.806818 0.0488281 0.626839V0.268433H4.94839C5.62461 0.268433 6.13176 0.806818 6.21629 1.43209L7.39966 8.14717L10.4396 0.268433H13.3966L8.83513 11.9066ZM15.0871 11.9066H12.2147L14.58 0.268433H17.4524L15.0871 11.9066ZM21.1686 3.49252C21.2531 2.8657 21.7603 2.50729 22.3519 2.50729C23.2817 2.4173 24.2946 2.59728 25.1398 3.04413L25.647 0.538385C24.8017 0.179979 23.8719 0 23.0282 0C20.2403 0 18.2116 1.61205 18.2116 3.84938C18.2116 5.55142 19.6486 6.44511 20.6629 6.98349C21.7603 7.52033 22.1829 7.87874 22.0984 8.41557C22.0984 9.22082 21.2531 9.57923 20.4093 9.57923C19.395 9.57923 18.3807 9.31081 17.4524 8.86241L16.9452 11.3697C17.9595 11.8166 19.0569 11.9965 20.0712 11.9965C23.1972 12.085 25.1398 10.4745 25.1398 8.05716C25.1398 5.01304 21.1686 4.83461 21.1686 3.49252ZM35.1926 11.9066L32.9118 0.268433H30.462C29.9549 0.268433 29.4477 0.626839 29.2787 1.16367L25.0553 11.9066H28.0123L28.6025 10.2061H32.2356L32.5737 11.9066H35.1926ZM30.8847 3.40258L31.7285 7.78879H29.3632L30.8847 3.40258Z" fill="black"/>
</svg>
