<svg width="80" height="80" viewBox="0 0 80 80" fill="none" xmlns="http://www.w3.org/2000/svg">
<circle cx="40" cy="40" r="40" fill="#002670"/>
<path d="M42.535 25.1144C42.4411 25.185 41.0802 27.1715 39.514 29.5288L36.6748 33.8108L37.0326 34.3052C37.2321 34.5789 37.4843 34.9938 37.5899 35.241L37.7776 35.6825L40.3059 31.8773C41.6903 29.7936 42.8576 28.0809 42.8869 28.0809C42.9221 28.0809 45.3742 31.736 48.3424 36.2034C52.6715 42.719 53.7802 44.3435 53.9444 44.4142C54.3844 44.5907 54.8947 44.1317 54.9769 43.4695C55.0649 42.7808 55.059 42.7808 52.0086 38.1899L49.1343 33.8637V30.9502C49.1343 28.3546 49.1226 28.0014 49.0287 27.7277C48.7413 26.8625 47.9728 26.7742 47.5974 27.5688C47.4683 27.8425 47.4625 27.9484 47.4449 29.5729L47.4214 31.2857L45.3917 28.2309C44.2713 26.5535 43.28 25.132 43.192 25.0791C42.9691 24.9643 42.7462 24.9731 42.535 25.1144Z" fill="white"/>
<path d="M42.5642 30.1645C42.4352 30.2439 41.5318 31.5418 40.2061 33.5371L38.0474 36.7772V37.5189C38.0474 37.9426 38.0063 38.49 37.9477 38.7902C37.8655 39.2317 37.8655 39.3199 37.9359 39.3817C38.1412 39.576 38.7865 40.6266 39.0153 41.1563C39.5315 42.3129 39.8424 43.9021 39.7955 45.1205C39.7368 46.6125 39.115 47.7073 37.9653 48.3518L37.537 48.5902L37.6192 49.0846C37.7306 49.8174 37.801 51.2742 37.7541 51.8922C37.6954 52.625 37.4314 53.4372 37.056 54.0552L36.7451 54.5673H38.2058C39.3086 54.5673 39.7485 54.532 40.0008 54.4349C40.5756 54.2142 41.0449 53.6491 41.3206 52.8457L41.479 52.4043L41.5083 49.3142C41.5494 45.7826 41.5553 45.7473 42.0363 45.094C42.3003 44.7408 42.6405 44.5025 42.8869 44.5025C43.3092 44.5025 43.9369 45.1823 44.1246 45.8444C44.2185 46.1799 44.2361 46.5772 44.2654 49.27C44.2947 52.1394 44.3006 52.3425 44.4179 52.7221C44.676 53.5608 45.1864 54.2053 45.773 54.4349C46.2422 54.6203 50.5773 54.6291 51.0876 54.4437C51.8971 54.1612 52.4603 53.19 52.601 51.8392C52.689 50.9475 52.648 44.5554 52.5482 44.1935C52.4485 43.858 43.4793 30.3322 43.233 30.1556C42.9983 29.9879 42.8282 29.9967 42.5642 30.1645Z" fill="white"/>
<path d="M30.0694 34.932C29.5356 35.1439 29.125 35.5059 28.7202 36.1151C27.5177 37.925 27.5529 40.6972 28.8023 42.4454L29.1778 42.9751L28.9314 43.0899C28.6264 43.2223 27.8403 43.8138 27.4942 44.1758C27.1012 44.5731 26.3386 45.7032 26.0453 46.3212C25.4059 47.6632 25.007 49.4643 25.0011 51.0358C24.9953 51.901 25.007 51.9893 25.1595 52.3866C25.4587 53.1459 26.0688 53.7462 27.0308 54.2142C28.4738 54.9205 30.5211 55.1765 32.3278 54.8763C34.5569 54.5144 36.0352 53.5608 36.4751 52.2012C36.5866 51.848 36.5924 51.7156 36.5631 50.8239C36.5221 49.5879 36.3578 48.6697 35.9941 47.5484C35.3371 45.5443 34.1756 43.9463 32.8499 43.2135L32.4217 42.9839L32.8147 42.3924C33.4482 41.4389 33.7064 40.5118 33.7064 39.2052C33.7064 36.3535 31.8761 34.1992 30.0694 34.932Z" fill="white"/>
<path d="M34.3222 35.2234C34.1227 35.3735 33.8881 35.6119 33.7942 35.7619C33.6241 36.0268 33.6241 36.0356 33.7239 36.274C33.8998 36.6713 34.1521 37.5454 34.2283 38.0133C34.3281 38.6313 34.3163 39.8673 34.2049 40.5295C34.0993 41.1475 33.8881 41.8273 33.6711 42.2688C33.5948 42.4189 33.5303 42.5866 33.5303 42.6219C33.5303 42.6661 33.6711 42.7985 33.8412 42.9309C34.7563 43.6108 35.9647 45.4118 36.3812 46.7273C36.5044 47.1246 36.5572 47.1335 37.1614 46.8863C37.9298 46.5596 38.446 46.0299 38.5809 45.403C38.6455 45.1028 38.6161 44.4318 38.5105 43.752C38.2583 42.1628 37.308 40.5648 36.3342 40.0969C36.2111 40.0351 36.1113 39.9556 36.1113 39.9203C36.1113 39.885 36.2052 39.7173 36.3225 39.5495C37.1848 38.3135 36.9854 36.1416 35.9295 35.2852C35.6714 35.0733 35.5247 35.0115 35.1434 34.985C34.7152 34.9585 34.6448 34.9762 34.3222 35.2234Z" fill="white"/>
</svg>
