<svg width="24" height="24" viewBox="0 0 24 24" fill="none" xmlns="http://www.w3.org/2000/svg">
<path d="M11.532 0.0265789C10.7773 0.159624 10.2147 0.481998 9.6569 1.09604L9.25844 1.54123L4.94565 9.92809C2.57362 14.5437 0.520363 18.5606 0.384416 18.8574C0.112523 19.4458 1.59159e-05 19.9064 1.59159e-05 20.4488C-0.00467189 22.0453 1.02665 23.4781 2.48455 23.9079C2.77051 23.9949 3.36586 24 12.0008 24C20.6357 24 21.2311 23.9949 21.5171 23.9079C22.5437 23.606 23.3922 22.7873 23.7813 21.7229C24.0953 20.8479 24.0719 19.8757 23.7063 19.0365C23.5141 18.6066 14.9635 1.96083 14.7338 1.57705C14.6447 1.42865 14.4103 1.14721 14.2181 0.947651C13.8291 0.553637 13.3228 0.246613 12.8212 0.108452C12.4555 0.00611115 11.8602 -0.0297089 11.532 0.0265789ZM12.4602 6.67364C12.6805 6.79645 12.8212 6.96019 12.9149 7.2007C12.9759 7.36956 12.9852 7.85056 12.9852 10.9106C12.9852 14.2264 12.9759 14.4413 12.8962 14.6358C12.5399 15.475 11.4992 15.4852 11.1054 14.6511C11.0211 14.4669 11.0164 14.3032 11.0164 10.9259C11.0164 7.85056 11.0257 7.36956 11.0867 7.2007C11.3117 6.62247 11.9352 6.38197 12.4602 6.67364ZM12.5352 17.6293C12.629 17.7009 12.7649 17.8493 12.8352 17.9568C12.9477 18.1359 12.9618 18.2075 12.9618 18.5503C12.9618 18.8932 12.9477 18.9648 12.8352 19.1439C12.7649 19.2514 12.629 19.3998 12.5305 19.4714C12.3852 19.5789 12.3055 19.5993 12.0008 19.5993C11.6961 19.5993 11.6164 19.5789 11.4711 19.4714C11.0914 19.19 10.9179 18.6476 11.0586 18.1768C11.1242 17.967 11.3961 17.6446 11.5977 17.5474C11.832 17.4297 12.3243 17.4757 12.5352 17.6293Z" fill="#F7BA1E"/>
</svg>
