<svg width="26" height="26" viewBox="0 0 26 26" fill="none" xmlns="http://www.w3.org/2000/svg">
<path d="M11.7542 0.0514088C6.04187 0.594957 1.25454 4.96366 0.222872 10.582C-0.686823 15.5146 1.22913 20.4268 5.22366 23.4189C8.57784 25.9283 12.9586 26.6598 16.9582 25.3848C19.7432 24.4958 22.1877 22.6467 23.8343 20.1881C24.6373 18.9841 25.4148 17.1706 25.6943 15.8448C26.167 13.635 26.0908 11.3491 25.4707 9.31204C23.7886 3.72924 18.676 -0.0552692 12.8976 0.000610352C12.5215 0.00568962 12.0083 0.0310898 11.7542 0.0514088ZM14.9813 5.19225C17.004 5.67484 18.6506 6.81273 19.7686 8.50434C21.1001 10.5109 21.4152 12.9899 20.6377 15.286C19.8652 17.5669 18.0204 19.4058 15.7487 20.1627C14.656 20.5284 13.3194 20.6554 12.2573 20.4979C11.3374 20.3608 10.9309 20.2389 9.63492 19.6953C9.52311 19.6445 9.2131 19.7106 7.47503 20.1728C6.36205 20.4624 5.44727 20.7011 5.44219 20.6961C5.43202 20.691 5.67596 19.7868 5.97581 18.6844L6.52467 16.683L6.28582 16.2054C5.99614 15.6213 5.76744 14.9355 5.62006 14.2192C5.48284 13.5182 5.4676 12.1873 5.59973 11.4913C5.99105 9.36284 7.13961 7.56964 8.88785 6.36062C9.67049 5.82216 10.8089 5.34465 11.7542 5.15669C12.3945 5.03478 12.4097 5.03478 13.4567 5.05002C14.3003 5.06526 14.529 5.08558 14.9813 5.19225Z" fill="#56C400"/>
<path d="M12.7198 6.35544C10.5396 6.50783 8.47623 7.90988 7.45981 9.94691C7.25145 10.3635 6.98209 11.1864 6.8957 11.6792C6.79406 12.2379 6.8093 13.4825 6.92111 14.0159C7.08882 14.8134 7.33784 15.4434 7.82064 16.2815L7.93753 16.4949L7.62244 17.648C7.44965 18.283 7.31243 18.8164 7.32768 18.8266C7.33784 18.8367 7.88163 18.7046 8.53213 18.5319L9.72135 18.217L10.2041 18.476C11.124 18.9637 11.9371 19.1821 12.9841 19.2329C13.7769 19.2685 14.3816 19.1974 15.0931 18.9891C17.3953 18.3084 19.0927 16.4593 19.6162 14.0667C19.7687 13.3708 19.7687 12.2125 19.6111 11.476C18.9962 8.58043 16.5161 6.46719 13.5837 6.33512C13.3906 6.32496 12.9993 6.33512 12.7198 6.35544ZM11.1647 9.28653C11.2714 9.39321 11.3273 9.51005 11.7288 10.4955C12.0439 11.2778 12.0489 11.2423 11.5814 11.8265C11.4391 12.0043 11.3222 12.1871 11.3222 12.2329C11.3222 12.3649 11.8558 13.1117 12.2065 13.4724C12.6436 13.9194 13.0806 14.2343 13.6295 14.5036C14.2647 14.8134 14.3003 14.8084 14.6866 14.3359C15.1744 13.7416 15.2202 13.701 15.3523 13.7365C15.5048 13.7822 16.9583 14.4579 17.1056 14.5544C17.1971 14.6153 17.2174 14.6763 17.2174 14.8693C17.2174 15.3113 17.0853 15.6364 16.7905 15.9259C16.384 16.3222 16.0282 16.4746 15.4387 16.4949C14.8848 16.5203 14.5951 16.4542 13.7972 16.1495C12.8773 15.7939 12.1963 15.3418 11.3832 14.5544C10.3617 13.5638 9.54855 12.3497 9.38593 11.5877C9.29445 11.1407 9.34527 10.4854 9.50282 10.1552C9.67052 9.78944 10.0059 9.37797 10.2143 9.27637C10.4633 9.15445 11.0376 9.15953 11.1647 9.28653Z" fill="#56C400"/>
</svg>
