<svg width="20" height="22" viewBox="0 0 20 22" fill="none" xmlns="http://www.w3.org/2000/svg">
<path d="M8.00715 3.38561C8.89403 1.7952 9.33712 1 10 1C10.6629 1 11.106 1.7952 11.9929 3.38561L12.2224 3.79721C12.4744 4.24941 12.6004 4.47551 12.7964 4.62461C12.9924 4.77371 13.2374 4.82901 13.7274 4.93961L14.1726 5.04041C15.8946 5.43031 16.7548 5.62491 16.9599 6.28362C17.1643 6.94162 16.5777 7.62832 15.4039 9.00102L15.1001 9.35593C14.7669 9.74583 14.5996 9.94113 14.5247 10.1819C14.4498 10.4234 14.475 10.6838 14.5254 11.2039L14.5716 11.6778C14.7487 13.5097 14.8376 14.4253 14.3014 14.832C13.7652 15.2394 12.9588 14.8677 11.3475 14.1257L10.9296 13.9339C10.4718 13.7225 10.2429 13.6175 10 13.6175C9.75711 13.6175 9.52821 13.7225 9.07042 13.9339L8.65323 14.1257C7.04117 14.8677 6.23479 15.2387 5.6993 14.8327C5.16241 14.4253 5.25131 13.5097 5.42841 11.6778L5.47461 11.2046C5.52501 10.6838 5.5502 10.4234 5.47461 10.1826C5.40041 9.94113 5.23311 9.74583 4.89992 9.35663L4.59613 9.00102C3.42225 7.62902 2.83567 6.94232 3.04006 6.28362C3.24516 5.62491 4.10614 5.42961 5.8281 5.04041L6.27329 4.93961C6.76258 4.82901 7.00687 4.77371 7.20357 4.62461C7.39956 4.47551 7.52556 4.24941 7.77755 3.79721L8.00715 3.38561Z" fill="white"/>
<path d="M16.1459 17.0224C16.526 16.3408 16.7159 16 17 16C17.2841 16 17.474 16.3408 17.8541 17.0224L17.9525 17.1988C18.0605 17.3926 18.1145 17.4895 18.1985 17.5534C18.2825 17.6173 18.3875 17.641 18.5975 17.6884L18.7883 17.7316C19.5262 17.8987 19.8949 17.9821 19.9828 18.2644C20.0704 18.5464 19.819 18.8407 19.3159 19.429L19.1857 19.5811C19.043 19.7482 18.9713 19.8319 18.9392 19.9351C18.9071 20.0386 18.9179 20.1502 18.9395 20.3731L18.9593 20.5762C19.0352 21.3613 19.0733 21.7537 18.8435 21.928C18.6137 22.1026 18.2681 21.9433 17.5775 21.6253L17.3984 21.5431C17.2022 21.4525 17.1041 21.4075 17 21.4075C16.8959 21.4075 16.7978 21.4525 16.6016 21.5431L16.4228 21.6253C15.7319 21.9433 15.3863 22.1023 15.1568 21.9283C14.9267 21.7537 14.9648 21.3613 15.0407 20.5762L15.0605 20.3734C15.0821 20.1502 15.0929 20.0386 15.0605 19.9354C15.0287 19.8319 14.957 19.7482 14.8143 19.5814L14.6841 19.429C14.181 18.841 13.9296 18.5467 14.0172 18.2644C14.1051 17.9821 14.4741 17.8984 15.212 17.7316L15.4028 17.6884C15.6125 17.641 15.7172 17.6173 15.8015 17.5534C15.8855 17.4895 15.9395 17.3926 16.0475 17.1988L16.1459 17.0224Z" fill="white"/>
<path d="M1.43061 0.681602C1.68401 0.227201 1.8106 0 2 0C2.1894 0 2.31599 0.227201 2.56939 0.681602L2.63498 0.799202C2.70698 0.928403 2.74298 0.993003 2.79898 1.0356C2.85498 1.0782 2.92498 1.094 3.06498 1.1256L3.19217 1.1544C3.68416 1.2658 3.92995 1.3214 3.98855 1.5096C4.04695 1.69761 3.87936 1.89381 3.54396 2.28601L3.45717 2.38741C3.36197 2.49881 3.31417 2.55461 3.29277 2.62341C3.27137 2.69241 3.27857 2.76681 3.29297 2.91541L3.30617 3.05081C3.35677 3.57421 3.38217 3.83581 3.22897 3.95201C3.07577 4.06841 2.84538 3.96221 2.38499 3.75021L2.26559 3.69541C2.1348 3.63501 2.0694 3.60501 2 3.60501C1.9306 3.60501 1.8652 3.63501 1.73441 3.69541L1.61521 3.75021C1.15462 3.96221 0.924225 4.06821 0.771229 3.95221C0.617832 3.83581 0.643232 3.57421 0.693831 3.05081L0.70703 2.91561C0.72143 2.76681 0.72863 2.69241 0.70703 2.62361C0.685831 2.55461 0.638032 2.49881 0.542834 2.38761L0.456036 2.28601C0.120644 1.89401 -0.0469519 1.69781 0.0114467 1.5096C0.0700454 1.3214 0.31604 1.2656 0.808028 1.1544L0.935225 1.1256C1.07502 1.094 1.14482 1.0782 1.20102 1.0356C1.25702 0.993003 1.29302 0.928403 1.36501 0.799202L1.43061 0.681602Z" fill="white"/>
</svg>
