<svg width="50" height="50" viewBox="0 0 50 50" fill="none" xmlns="http://www.w3.org/2000/svg">
<circle cx="25" cy="25" r="25" fill="#002670"/>
<path d="M25 25C26.8186 25 28.5628 24.3679 29.8487 23.2426C31.1347 22.1174 31.8571 20.5913 31.8571 19C31.8571 17.4087 31.1347 15.8826 29.8487 14.7574C28.5628 13.6321 26.8186 13 25 13C23.1814 13 21.4372 13.6321 20.1513 14.7574C18.8653 15.8826 18.1429 17.4087 18.1429 19C18.1429 20.5913 18.8653 22.1174 20.1513 23.2426C21.4372 24.3679 23.1814 25 25 25ZM19.8571 27.5875C15.8929 28.6047 13 31.8109 13 35.6078C13 36.3766 13.7125 37 14.5911 37H35.4089C36.2875 37 37 36.3766 37 35.6078C37 31.8109 34.1071 28.6047 30.1429 27.5875V29.9688C31.6214 30.3016 32.7143 31.4781 32.7143 32.875V34.75C32.7143 35.1625 32.3286 35.5 31.8571 35.5H31C30.5286 35.5 30.1429 35.1625 30.1429 34.75C30.1429 34.3375 30.5286 34 31 34V32.875C31 32.0453 30.2339 31.375 29.2857 31.375C28.3375 31.375 27.5714 32.0453 27.5714 32.875V34C28.0429 34 28.4286 34.3375 28.4286 34.75C28.4286 35.1625 28.0429 35.5 27.5714 35.5H26.7143C26.2429 35.5 25.8571 35.1625 25.8571 34.75V32.875C25.8571 31.4781 26.95 30.3016 28.4286 29.9688V27.2922C28.1071 27.2641 27.7804 27.25 27.4482 27.25H22.5518C22.2196 27.25 21.8929 27.2641 21.5714 27.2922V30.3578C22.8089 30.6812 23.7143 31.6844 23.7143 32.875C23.7143 34.3234 22.3696 35.5 20.7143 35.5C19.0589 35.5 17.7143 34.3234 17.7143 32.875C17.7143 31.6844 18.6196 30.6812 19.8571 30.3578V27.5875ZM20.7143 34C21.0553 34 21.3823 33.8815 21.6234 33.6705C21.8645 33.4595 22 33.1734 22 32.875C22 32.5766 21.8645 32.2905 21.6234 32.0795C21.3823 31.8685 21.0553 31.75 20.7143 31.75C20.3733 31.75 20.0463 31.8685 19.8051 32.0795C19.564 32.2905 19.4286 32.5766 19.4286 32.875C19.4286 33.1734 19.564 33.4595 19.8051 33.6705C20.0463 33.8815 20.3733 34 20.7143 34Z" fill="white"/>
</svg>
