<svg width="236" height="220" viewBox="0 0 236 220" fill="none" xmlns="http://www.w3.org/2000/svg">
<path d="M117.53 219.468C182.441 219.468 235.061 189.087 235.061 151.61C235.061 114.134 182.441 83.7531 117.53 83.7531C52.6202 83.7531 0 114.134 0 151.61C0 189.087 52.6202 219.468 117.53 219.468Z" fill="#F0F0F0"/>
<path d="M93.2102 203.03C115.594 203.03 133.739 192.554 133.739 179.632C133.739 166.71 115.594 156.235 93.2102 156.235C70.8267 156.235 52.6814 166.71 52.6814 179.632C52.6814 192.554 70.8267 203.03 93.2102 203.03Z" fill="#E0E0E0"/>
<path d="M208.466 150.358L203.711 147.614C203.711 147.614 202.549 137.437 203.322 129.555C204.41 118.48 211.564 105.15 220.095 108.283C228.625 111.416 216.183 122.691 213.415 132.084C210.646 141.478 208.466 150.358 208.466 150.358Z" fill="#002670"/>
<path opacity="0.15" d="M208.466 150.358L203.711 147.614C203.711 147.614 202.549 137.437 203.322 129.555C204.41 118.48 211.564 105.15 220.095 108.283C228.625 111.416 216.183 122.691 213.415 132.084C210.646 141.478 208.466 150.358 208.466 150.358Z" fill="black"/>
<path d="M205.966 149.206C206.042 149.202 206.114 149.168 206.165 149.112C206.216 149.056 206.244 148.982 206.241 148.906C205.408 124.297 217.66 111.915 217.78 111.795C217.834 111.741 217.865 111.667 217.865 111.59C217.865 111.514 217.834 111.44 217.78 111.386C217.753 111.359 217.722 111.338 217.687 111.324C217.653 111.309 217.615 111.302 217.578 111.302C217.54 111.302 217.503 111.309 217.468 111.324C217.434 111.338 217.402 111.359 217.376 111.386C217.246 111.506 204.819 124.067 205.662 148.926C205.663 148.965 205.672 149.003 205.688 149.038C205.704 149.073 205.727 149.104 205.756 149.13C205.784 149.156 205.817 149.176 205.853 149.189C205.89 149.202 205.928 149.208 205.966 149.206Z" fill="white"/>
<path d="M211.454 152.069L208.072 150.119C208.072 150.119 207.493 143.135 210.92 134.654C213.913 127.27 221.297 121.139 225.018 122.426C228.74 123.713 228.645 126.352 226.829 129.121C225.013 131.89 213.983 138.48 211.454 152.069Z" fill="#002670"/>
<path d="M209.668 151.331C209.744 151.33 209.817 151.299 209.871 151.245C209.925 151.191 209.956 151.118 209.957 151.042C209.887 135.477 224.5 124.96 224.649 124.856C224.68 124.834 224.707 124.807 224.727 124.775C224.747 124.743 224.761 124.707 224.767 124.67C224.773 124.633 224.772 124.595 224.763 124.558C224.753 124.521 224.737 124.487 224.714 124.457C224.67 124.395 224.603 124.353 224.529 124.34C224.454 124.327 224.377 124.344 224.315 124.387C224.165 124.491 209.314 135.187 209.379 151.042C209.379 151.118 209.409 151.192 209.463 151.246C209.518 151.301 209.591 151.331 209.668 151.331Z" fill="white"/>
<path d="M32.5519 144.247L36.942 141.284C36.942 141.284 38.8726 129.81 37.0767 119.687C34.5524 105.489 24.7395 100.77 21.2473 102.266C17.7552 103.763 17.0069 107.989 23.5272 116.09C27.3935 120.855 32.4172 131.027 32.5519 144.247Z" fill="#002670"/>
<g opacity="0.15">
<path d="M32.5519 144.247L36.942 141.284C36.942 141.284 38.8726 129.81 37.0767 119.687C34.5524 105.489 24.7395 100.77 21.2473 102.266C17.7552 103.763 17.0069 107.989 23.5272 116.09C27.3935 120.855 32.4172 131.027 32.5519 144.247Z" fill="black"/>
</g>
<path d="M34.0582 138.56H34.0133C33.9685 138.557 33.9247 138.545 33.885 138.524C33.8452 138.503 33.8102 138.474 33.7825 138.439C33.7547 138.403 33.7347 138.362 33.7237 138.319C33.7128 138.275 33.7112 138.23 33.719 138.186C35.3054 124.821 29.6631 110.313 23.5219 104.541C23.4628 104.482 23.4297 104.401 23.4297 104.317C23.4297 104.233 23.4628 104.152 23.5219 104.092C23.5512 104.063 23.5861 104.039 23.6247 104.023C23.6632 104.006 23.7046 103.998 23.7464 103.998C23.7882 103.998 23.8296 104.006 23.8682 104.023C23.9067 104.039 23.9417 104.063 23.9709 104.092C30.2268 109.969 35.9739 124.716 34.3675 138.275C34.3581 138.352 34.3218 138.422 34.2652 138.474C34.2085 138.527 34.1351 138.557 34.0582 138.56Z" fill="white"/>
<path d="M21.0576 152C20.3592 152.419 18.3238 150.907 17.7601 150.543C16.7939 149.912 16.0069 149.043 15.4752 148.019C14.8787 146.857 14.6573 145.539 14.8416 144.247C14.9438 143.572 15.0921 142.906 15.2856 142.252C15.4602 141.598 15.6348 140.944 15.7845 140.286C16.0057 139.645 16.0907 138.966 16.0339 138.29C15.8394 136.958 14.6371 136.045 13.5396 135.262C12.3323 134.389 11.0452 133.237 11.0452 131.63C11.1067 130.368 11.5898 129.163 12.4171 128.208C13.1654 127.21 14.0634 126.342 14.7369 125.3C15.2635 124.577 15.5323 123.699 15.5001 122.805C15.4134 122.254 15.2166 121.727 14.9214 121.254C14.3328 120.216 13.5695 119.258 13.1554 118.156C12.7413 117.053 12.7713 115.636 13.6543 114.813C14.3577 114.14 15.4303 114.03 16.4031 114.075C17.3198 114.166 18.2053 114.457 18.9973 114.928C21.5765 116.3 23.093 119.293 25.8219 120.336C26.8745 120.735 28.0219 120.805 29.1145 121.074C30.207 121.344 31.3345 121.877 31.8583 122.87C32.891 124.841 31.09 127.325 31.8284 129.415C32.4869 131.271 34.3228 131.95 35.3604 133.611C35.7816 134.349 35.9563 135.202 35.8593 136.045C35.8008 137.47 35.4812 138.872 34.9164 140.181C34.2669 141.539 33.5338 142.855 32.7214 144.122C32.7214 144.122 21.1624 151.935 21.0576 152Z" fill="#002670"/>
<path d="M27.8023 147.864C27.7604 147.863 27.719 147.854 27.6805 147.838C27.642 147.821 27.6072 147.797 27.578 147.767C27.5488 147.737 27.5259 147.701 27.5104 147.662C27.495 147.623 27.4874 147.582 27.488 147.54C27.7674 134.908 21.5514 121.099 17.1513 117.108C17.0888 117.052 17.0511 116.973 17.0464 116.889C17.0417 116.805 17.0705 116.722 17.1264 116.659C17.1556 116.629 17.1906 116.606 17.2291 116.589C17.2677 116.573 17.3091 116.565 17.3509 116.565C17.3927 116.565 17.4341 116.573 17.4726 116.589C17.5112 116.606 17.5461 116.629 17.5754 116.659C22.0653 120.7 28.406 134.748 28.1216 147.555C28.121 147.596 28.1122 147.637 28.0958 147.675C28.0794 147.712 28.0557 147.747 28.026 147.775C27.9964 147.804 27.9614 147.827 27.923 147.842C27.8846 147.857 27.8436 147.865 27.8023 147.864Z" fill="white"/>
<path d="M25.4726 132.473C25.4431 132.481 25.4123 132.481 25.3828 132.473C21.302 131.296 16.2434 131.176 16.1935 131.171C16.1518 131.171 16.1106 131.162 16.0724 131.145C16.0342 131.128 15.9997 131.104 15.9709 131.074C15.9421 131.044 15.9196 131.008 15.9047 130.969C15.8898 130.93 15.8829 130.889 15.8842 130.847C15.8834 130.805 15.8914 130.763 15.9076 130.724C15.9238 130.685 15.9479 130.65 15.9784 130.621C16.0089 130.592 16.0451 130.57 16.0847 130.555C16.1243 130.541 16.1664 130.535 16.2085 130.538C16.2584 130.538 21.3968 130.663 25.5574 131.86C25.6378 131.884 25.7054 131.939 25.7456 132.013C25.7857 132.087 25.7952 132.173 25.7719 132.254C25.7525 132.318 25.7128 132.374 25.6589 132.414C25.6049 132.453 25.5395 132.474 25.4726 132.473Z" fill="white"/>
<path d="M143.053 135.561L141.162 134.469C140.847 134.264 140.585 133.988 140.397 133.663C140.209 133.338 140.1 132.973 140.08 132.598V54.015C140.1 53.6406 140.208 53.2762 140.396 52.9513C140.583 52.6263 140.844 52.3499 141.157 52.1442L193.714 21.8025C194.049 21.6329 194.419 21.5445 194.794 21.5445C195.169 21.5445 195.539 21.6329 195.874 21.8025L197.765 22.8951C198.08 23.0996 198.342 23.3756 198.53 23.7007C198.718 24.0258 198.827 24.3908 198.847 24.7658V103.349C198.827 103.723 198.718 104.088 198.531 104.413C198.344 104.738 198.083 105.014 197.77 105.22L145.213 135.566C144.878 135.736 144.508 135.825 144.132 135.824C143.757 135.823 143.387 135.733 143.053 135.561Z" fill="#455A64"/>
<path d="M198.847 24.5912C198.773 24.0325 198.319 23.828 197.775 24.1422L145.213 54.4889C144.895 54.6883 144.633 54.9646 144.45 55.2921L140.394 52.9524C140.575 52.6224 140.838 52.3442 141.157 52.1442L193.714 21.8025C194.049 21.6329 194.419 21.5445 194.794 21.5445C195.169 21.5445 195.539 21.6329 195.874 21.8025L197.765 22.8951C198.057 23.0831 198.305 23.332 198.492 23.6247C198.679 23.9175 198.8 24.2472 198.847 24.5912Z" fill="#455A64"/>
<path d="M145.029 135.651C144.709 135.781 144.366 135.84 144.022 135.825C143.677 135.811 143.34 135.722 143.033 135.566L141.137 134.469C140.824 134.263 140.563 133.987 140.376 133.662C140.189 133.337 140.08 132.972 140.06 132.598V54.0149C140.073 53.6398 140.181 53.2741 140.374 52.9523L144.43 55.2921C144.233 55.6143 144.123 55.9821 144.111 56.3597V134.943C144.131 135.561 144.52 135.846 145.029 135.651Z" fill="#263238"/>
<path d="M144.131 56.3697V134.943C144.131 135.631 144.629 135.911 145.213 135.566L197.77 105.22C198.083 105.014 198.344 104.738 198.531 104.413C198.719 104.088 198.827 103.723 198.847 103.349V24.7658C198.847 24.0774 198.349 23.798 197.77 24.1422L145.213 54.4889C144.897 54.6944 144.634 54.9721 144.446 55.299C144.257 55.626 144.149 55.9929 144.131 56.3697Z" fill="#37474F"/>
<path d="M131.858 86.3023C131.18 85.8982 128.032 84.1073 127.867 84.0125C127.739 83.9359 127.629 83.8316 127.547 83.7071C127.464 83.5826 127.411 83.4411 127.39 83.2932C127.37 83.1452 127.382 82.9945 127.428 82.8522C127.473 82.7099 127.55 82.5796 127.653 82.471L140.08 69.141L144.131 71.4657L131.708 84.8057C131.611 84.9096 131.537 85.0332 131.491 85.1681C131.445 85.3031 131.429 85.4462 131.443 85.588C131.457 85.7299 131.502 85.867 131.573 85.9902C131.645 86.1134 131.742 86.2198 131.858 86.3023Z" fill="#455A64"/>
<path d="M144.131 71.4806L131.709 84.8056C131.571 84.9529 131.481 85.1386 131.45 85.3381C131.42 85.5376 131.451 85.7416 131.539 85.9232C131.627 86.1048 131.768 86.2554 131.944 86.3551C132.119 86.4549 132.321 86.499 132.522 86.4819L144.131 85.524V71.4806Z" fill="#37474F"/>
<path d="M171.489 47.4896C177.615 43.9526 182.579 46.8211 182.579 53.8952C182.579 60.9693 177.615 69.5649 171.489 73.102C165.363 76.639 160.399 73.7705 160.399 66.7014C160.399 59.6323 165.363 51.0267 171.489 47.4896Z" fill="#002670"/>
<path d="M171.409 53.0571C173.405 51.9097 175.006 52.8376 175.006 55.1324C174.938 56.3799 174.577 57.5937 173.952 58.6755C173.327 59.7572 172.456 60.6764 171.409 61.3584C169.414 62.5058 167.807 61.5779 167.807 59.2831C167.876 58.0352 168.238 56.821 168.863 55.7393C169.489 54.6575 170.361 53.7385 171.409 53.0571Z" fill="white"/>
<path d="M178.503 65.2896C178.503 61.5231 175.854 59.9915 172.592 61.8773L170.551 63.0546C167.288 64.9404 164.639 69.54 164.639 73.2966V74.3292C165.255 74.5261 165.898 74.6254 166.545 74.6236C168.295 74.5641 170 74.0481 171.489 73.1269C174.325 71.3801 176.724 69.0083 178.503 66.1926V65.2896Z" fill="white"/>
<path d="M164.465 108.118L178.513 100.006C179.112 99.6622 179.596 99.9416 179.596 100.63V105.155C179.575 105.53 179.467 105.895 179.278 106.22C179.09 106.545 178.828 106.821 178.513 107.026L164.465 115.137C163.866 115.482 163.382 115.202 163.382 114.514V109.989C163.402 109.614 163.511 109.249 163.699 108.924C163.887 108.599 164.15 108.323 164.465 108.118Z" fill="#002670"/>
<path d="M157.585 98.0109L185.378 81.9571C186.091 81.543 186.675 81.8773 186.675 82.7054V84.3866C186.65 84.8365 186.52 85.2742 186.295 85.6643C186.069 86.0544 185.755 86.3858 185.378 86.6316L157.57 102.685C156.857 103.099 156.278 102.765 156.278 101.937V100.271C156.301 99.8174 156.431 99.376 156.659 98.983C156.886 98.59 157.203 98.2568 157.585 98.0109Z" fill="#FAFAFA"/>
<path d="M160.838 86.3921C161.217 86.1726 161.511 86.1377 161.721 86.2924C161.93 86.447 162.035 86.7912 162.035 87.32C162.046 87.8027 161.938 88.2806 161.721 88.7119C161.525 89.1018 161.218 89.4247 160.838 89.6398L160.09 90.0738V91.6852C160.088 91.7407 160.074 91.7952 160.05 91.8449C160.032 91.89 160.001 91.9284 159.96 91.9546L159.581 92.1741C159.568 92.1838 159.552 92.1891 159.536 92.1891C159.52 92.1891 159.504 92.1838 159.491 92.1741C159.464 92.1403 159.451 92.0973 159.456 92.0544V87.3899C159.456 87.3347 159.467 87.2802 159.491 87.2302C159.51 87.1859 159.541 87.1478 159.581 87.1205L160.838 86.3921ZM160.09 89.1709L160.813 88.7518C160.988 88.6532 161.135 88.5126 161.242 88.3427C161.355 88.1424 161.411 87.9143 161.402 87.6842C161.402 87.4148 161.347 87.2602 161.242 87.2153C161.168 87.1973 161.091 87.1965 161.016 87.2129C160.942 87.2293 160.872 87.2626 160.813 87.3101L160.09 87.7291V89.1709Z" fill="#FAFAFA"/>
<path d="M164.125 84.4914C164.175 84.4615 164.215 84.4615 164.24 84.4914C164.272 84.5362 164.294 84.5872 164.305 84.6411L165.457 88.5423C165.457 88.5423 165.457 88.5722 165.457 88.5872C165.457 88.6428 165.443 88.6974 165.418 88.7468C165.4 88.792 165.368 88.8304 165.328 88.8566L164.988 89.0511C164.929 89.0861 164.884 89.0911 164.859 89.0511C164.835 89.0261 164.817 88.9951 164.809 88.9614L164.604 88.2779L163.108 89.136L162.908 90.0539C162.894 90.1036 162.876 90.152 162.853 90.1986C162.829 90.2594 162.782 90.3091 162.724 90.3383L162.384 90.5328C162.372 90.5434 162.356 90.5492 162.339 90.5492C162.323 90.5492 162.307 90.5434 162.295 90.5328C162.268 90.5006 162.256 90.4594 162.26 90.4181C162.257 90.3999 162.257 90.3814 162.26 90.3632L163.407 85.135C163.421 85.0581 163.443 84.9829 163.472 84.9105C163.496 84.858 163.536 84.8144 163.587 84.7858L164.125 84.4914ZM164.385 87.5146L163.886 85.7536L163.387 88.1083L164.385 87.5146Z" fill="#FAFAFA"/>
<path d="M167.204 82.6406C167.371 82.5352 167.561 82.4719 167.757 82.456C167.897 82.4435 168.036 82.4749 168.157 82.5458C168.266 82.6168 168.351 82.7195 168.401 82.8401C168.455 82.9629 168.486 83.095 168.491 83.2292C168.494 83.2847 168.482 83.3399 168.456 83.3889C168.438 83.434 168.407 83.4724 168.366 83.4986L168.037 83.6882C167.982 83.7181 167.942 83.7231 167.917 83.6882C167.886 83.6679 167.861 83.6405 167.842 83.6084C167.822 83.5635 167.793 83.5231 167.757 83.4897C167.721 83.4562 167.679 83.4304 167.633 83.4138C167.481 83.3921 167.326 83.4316 167.204 83.5236C167.123 83.5758 167.046 83.6341 166.974 83.6982C166.9 83.7663 166.835 83.8434 166.78 83.9277C166.727 84.0089 166.683 84.0959 166.65 84.1871C166.62 84.2739 166.605 84.3648 166.605 84.4565C166.599 84.5404 166.615 84.6245 166.65 84.7009C166.665 84.7277 166.687 84.7504 166.713 84.7669C166.739 84.7834 166.769 84.7933 166.8 84.7957C166.892 84.8117 166.987 84.8117 167.079 84.7957L167.513 84.7009C167.675 84.653 167.843 84.6328 168.012 84.6411C168.132 84.6407 168.249 84.6792 168.346 84.7508C168.437 84.8276 168.503 84.9302 168.536 85.0452C168.585 85.2068 168.606 85.3753 168.601 85.544C168.6 85.7669 168.568 85.9886 168.506 86.2025C168.445 86.4225 168.356 86.6338 168.241 86.8311C168.12 87.0334 167.977 87.2209 167.812 87.3899C167.645 87.5639 167.453 87.7134 167.244 87.8339C167.09 87.9274 166.921 87.9933 166.745 88.0284C166.601 88.0561 166.453 88.044 166.316 87.9935C166.191 87.9356 166.088 87.8395 166.021 87.7191C165.94 87.5652 165.895 87.3944 165.892 87.2203C165.891 87.1635 165.903 87.1073 165.927 87.0556C165.949 87.0132 165.981 86.9771 166.021 86.9509L166.351 86.7613C166.4 86.7314 166.44 86.7214 166.47 86.7363C166.5 86.7513 166.52 86.7763 166.54 86.8212C166.561 86.8725 166.588 86.9211 166.62 86.9658C166.651 87.0093 166.694 87.0423 166.745 87.0606C166.81 87.0758 166.879 87.0758 166.944 87.0606C167.05 87.0356 167.151 86.9935 167.244 86.9359C167.34 86.8807 167.432 86.8173 167.518 86.7463C167.686 86.6136 167.819 86.4425 167.907 86.2474C167.947 86.1475 167.967 86.0408 167.967 85.9332C167.972 85.8941 167.968 85.8545 167.957 85.8167C167.946 85.779 167.927 85.7439 167.902 85.7137C167.875 85.6899 167.843 85.6722 167.809 85.6619C167.774 85.6515 167.738 85.6488 167.703 85.6538C167.589 85.6584 167.477 85.6769 167.368 85.7087C167.239 85.7386 167.089 85.7735 166.914 85.8034C166.781 85.8369 166.642 85.847 166.505 85.8334C166.397 85.8264 166.295 85.7824 166.216 85.7087C166.13 85.6241 166.069 85.5169 166.041 85.3994C166.001 85.226 165.983 85.0484 165.986 84.8705C165.986 84.6509 166.018 84.4324 166.081 84.222C166.141 84.0055 166.228 83.7976 166.341 83.6034C166.449 83.4105 166.579 83.2313 166.73 83.0696C166.867 82.9049 167.026 82.7604 167.204 82.6406Z" fill="#FAFAFA"/>
<path d="M170.481 80.7548C170.647 80.6462 170.838 80.581 171.035 80.5652C171.174 80.5534 171.314 80.5847 171.434 80.655C171.541 80.7279 171.624 80.8302 171.674 80.9494C171.728 81.0721 171.759 81.2042 171.763 81.3385C171.769 81.3941 171.757 81.4501 171.729 81.4981C171.711 81.5433 171.68 81.5817 171.639 81.6079L171.309 81.7974C171.26 81.8274 171.22 81.8374 171.19 81.7974C171.158 81.7774 171.133 81.7477 171.12 81.7126C171.074 81.6251 170.998 81.5576 170.905 81.5231C170.831 81.5121 170.755 81.5162 170.682 81.5351C170.609 81.5539 170.541 81.5872 170.481 81.6328C170.398 81.6837 170.32 81.7422 170.247 81.8074C170.174 81.8757 170.111 81.9528 170.057 82.0369C170.002 82.117 169.959 82.2043 169.928 82.2963C169.897 82.3828 169.88 82.4738 169.878 82.5657C169.872 82.6497 169.887 82.7338 169.923 82.8102C169.938 82.837 169.96 82.8596 169.986 82.8761C170.012 82.8926 170.041 82.9025 170.072 82.905C170.165 82.9211 170.259 82.9211 170.352 82.905L170.786 82.8102C170.948 82.765 171.116 82.7448 171.285 82.7503C171.405 82.7492 171.522 82.7878 171.619 82.8601C171.71 82.938 171.777 83.04 171.813 83.1544C171.857 83.3169 171.878 83.485 171.873 83.6533C171.873 83.8762 171.841 84.0979 171.778 84.3118C171.718 84.5318 171.629 84.743 171.514 84.9404C171.394 85.1446 171.25 85.3338 171.085 85.5041C170.917 85.6738 170.727 85.8214 170.521 85.9431C170.367 86.0363 170.199 86.1021 170.022 86.1377C169.88 86.1649 169.734 86.1528 169.598 86.1028C169.471 86.0466 169.366 85.9502 169.299 85.8284C169.217 85.6749 169.174 85.5035 169.174 85.3295C169.168 85.2739 169.181 85.2179 169.209 85.1699C169.227 85.1247 169.258 85.0863 169.299 85.0601L169.628 84.8705C169.678 84.8406 169.723 84.8306 169.748 84.8456C169.765 84.8535 169.781 84.8652 169.793 84.8799C169.805 84.8946 169.813 84.9119 169.818 84.9304C169.84 84.9807 169.867 85.0291 169.898 85.0751C169.93 85.1189 169.976 85.1519 170.027 85.1699C170.093 85.185 170.161 85.185 170.227 85.1699C170.333 85.1449 170.434 85.1028 170.526 85.0451C170.621 84.9887 170.711 84.9253 170.796 84.8556C170.883 84.7872 170.961 84.7065 171.025 84.6161C171.09 84.5299 171.143 84.4361 171.185 84.3367C171.225 84.2368 171.245 84.1301 171.245 84.0224C171.249 83.9834 171.246 83.9437 171.235 83.906C171.224 83.8683 171.205 83.8332 171.18 83.8029C171.153 83.7792 171.121 83.7615 171.087 83.7512C171.052 83.7408 171.016 83.7381 170.98 83.7431C170.869 83.7499 170.759 83.7683 170.651 83.7979C170.521 83.8279 170.367 83.8628 170.197 83.8927C170.062 83.9261 169.922 83.9363 169.783 83.9227C169.675 83.917 169.572 83.8727 169.494 83.7979C169.409 83.713 169.35 83.6057 169.324 83.4886C169.28 83.3177 169.259 83.1414 169.264 82.9648C169.266 82.7437 169.298 82.5238 169.359 82.3113C169.421 82.0956 169.508 81.8879 169.618 81.6927C169.726 81.4986 169.859 81.3192 170.012 81.1589C170.147 81.0006 170.305 80.8643 170.481 80.7548Z" fill="#FAFAFA"/>
<path d="M174.118 81.3784L173.714 83.768C173.702 83.8399 173.682 83.9102 173.654 83.9775C173.635 84.0313 173.598 84.077 173.549 84.1072L173.17 84.3267C173.12 84.3567 173.085 84.3567 173.061 84.3267C173.027 84.2857 173.008 84.235 173.006 84.1821L172.407 79.9665C172.407 79.9665 172.407 79.9266 172.407 79.9117C172.408 79.8562 172.422 79.8017 172.447 79.752C172.466 79.7077 172.497 79.6696 172.537 79.6423L172.881 79.4427C172.91 79.4311 172.942 79.4311 172.971 79.4427C173.001 79.4427 173.021 79.4826 173.031 79.5625L173.425 82.4011L173.769 80.2709C173.778 80.2178 173.793 80.1659 173.814 80.1162C173.834 80.0531 173.876 79.9997 173.934 79.9665L174.318 79.7421C174.373 79.7121 174.412 79.7171 174.437 79.7421C174.459 79.7738 174.474 79.8093 174.482 79.8468L174.832 81.5779L175.226 78.2853C175.23 78.2206 175.249 78.1576 175.281 78.1007C175.304 78.0635 175.334 78.0312 175.37 78.006L175.715 77.8064C175.727 77.7967 175.743 77.7914 175.759 77.7914C175.776 77.7914 175.791 77.7967 175.804 77.8064C175.819 77.8228 175.829 77.8418 175.836 77.8623C175.843 77.8828 175.846 77.9045 175.844 77.9261C175.846 77.946 175.846 77.9661 175.844 77.986L175.246 82.89C175.236 82.9617 175.217 83.032 175.191 83.0995C175.168 83.1527 175.13 83.1979 175.081 83.2292L174.697 83.4487C174.652 83.4737 174.617 83.4737 174.592 83.4487C174.567 83.4029 174.547 83.3543 174.532 83.304L174.118 81.3784Z" fill="#FAFAFA"/>
<path d="M176.453 79.2632C176.464 78.9866 176.497 78.7113 176.552 78.44C176.609 78.1749 176.696 77.9172 176.812 77.6718C176.922 77.4332 177.063 77.2101 177.231 77.0083C177.401 76.808 177.606 76.6392 177.835 76.5094C178.01 76.3901 178.216 76.3227 178.428 76.3148C178.587 76.3165 178.739 76.379 178.852 76.4894C178.973 76.6252 179.06 76.7876 179.107 76.9634C179.171 77.1925 179.206 77.4288 179.211 77.6668C179.211 77.7566 179.211 77.8563 179.211 77.9661C179.211 78.0759 179.211 78.1906 179.211 78.3103C179.211 78.4301 179.211 78.5448 179.211 78.6546C179.211 78.7643 179.211 78.8691 179.211 78.9639C179.201 79.2388 179.167 79.5125 179.112 79.782C179.054 80.0463 178.969 80.3038 178.857 80.5503C178.744 80.7881 178.601 81.011 178.433 81.2138C178.263 81.4121 178.06 81.5807 177.835 81.7127C177.655 81.8311 177.446 81.8983 177.231 81.9072C177.153 81.9088 177.076 81.8946 177.004 81.8654C176.932 81.8363 176.867 81.7928 176.812 81.7376C176.682 81.5979 176.592 81.4255 176.552 81.2387C176.493 81.0087 176.46 80.7728 176.453 80.5353C176.453 80.4455 176.453 80.3457 176.453 80.236C176.453 80.1262 176.453 80.0115 176.453 79.8918C176.453 79.772 176.453 79.6623 176.453 79.5475C176.453 79.4328 176.448 79.353 176.453 79.2632ZM178.578 78.0709C178.589 77.9488 178.575 77.8258 178.538 77.7092C178.5 77.5926 178.439 77.4848 178.358 77.3924C178.229 77.2777 178.049 77.2826 177.835 77.3924C177.602 77.5293 177.417 77.7349 177.306 77.9811C177.164 78.2719 177.089 78.5906 177.086 78.914C177.086 79.0986 177.086 79.3031 177.086 79.5276C177.086 79.7521 177.086 79.9516 177.086 80.1312C177.075 80.2533 177.089 80.3763 177.127 80.4929C177.164 80.6095 177.225 80.7173 177.306 80.8097C177.435 80.9195 177.615 80.9095 177.835 80.7848C178.064 80.6469 178.246 80.4436 178.358 80.2011C178.5 79.912 178.575 79.595 178.578 79.2732C178.578 79.0836 178.578 78.879 178.578 78.6546C178.578 78.4301 178.583 78.2505 178.578 78.0709Z" fill="#FAFAFA"/>
<path d="M181.387 74.5188C181.781 74.2943 182.075 74.2594 182.28 74.424C182.401 74.5576 182.491 74.7163 182.543 74.8888C182.596 75.0613 182.61 75.2433 182.584 75.4218C182.588 75.7606 182.536 76.0978 182.429 76.4195C182.328 76.7192 182.17 76.9968 181.965 77.2377L182.614 78.6495C182.616 78.6727 182.616 78.6961 182.614 78.7193C182.614 78.7643 182.604 78.8087 182.584 78.849C182.57 78.8853 182.546 78.9165 182.514 78.9388L182.115 79.1683C182.05 79.2032 182.005 79.2082 181.975 79.1683C181.949 79.1421 181.927 79.1118 181.91 79.0785L181.297 77.7465L180.673 78.1057V79.7919C180.674 79.8471 180.662 79.9016 180.638 79.9516C180.618 79.9949 180.587 80.0326 180.548 80.0613L180.169 80.2808C180.157 80.2914 180.141 80.2972 180.124 80.2972C180.108 80.2972 180.092 80.2914 180.079 80.2808C180.065 80.2655 180.054 80.2474 180.047 80.2277C180.041 80.2079 180.038 80.1869 180.04 80.1661V75.5016C180.041 75.4461 180.055 75.3916 180.079 75.3419C180.097 75.2968 180.129 75.2584 180.169 75.2322L181.387 74.5188ZM180.683 77.2027L181.387 76.8236C181.558 76.7276 181.705 76.5926 181.816 76.4295C181.931 76.2373 181.987 76.0149 181.975 75.7909C181.975 75.5215 181.92 75.3719 181.816 75.3419C181.664 75.3213 181.51 75.3607 181.387 75.4517L180.708 75.8408L180.683 77.2027Z" fill="#FAFAFA"/>
<path d="M184.729 72.5981C184.91 72.48 185.118 72.4081 185.333 72.3886C185.489 72.3829 185.641 72.4384 185.757 72.5433C185.889 72.6822 185.98 72.8548 186.021 73.0421C186.088 73.2896 186.125 73.5442 186.131 73.8004C186.131 74.1497 186.131 74.5088 186.131 74.873C186.121 75.17 186.084 75.4656 186.021 75.756C185.964 76.026 185.877 76.2887 185.762 76.5393C185.651 76.7694 185.51 76.9841 185.343 77.1778C185.176 77.3762 184.977 77.5448 184.754 77.6767L183.572 78.3203C183.559 78.3308 183.543 78.3366 183.527 78.3366C183.511 78.3366 183.495 78.3308 183.482 78.3203C183.467 78.3052 183.456 78.2871 183.449 78.2673C183.443 78.2475 183.44 78.2264 183.442 78.2055V73.541C183.444 73.4855 183.457 73.431 183.482 73.3814C183.5 73.3362 183.531 73.2978 183.572 73.2716L184.729 72.5981ZM185.497 74.1497C185.495 74.0146 185.475 73.8804 185.438 73.7506C185.414 73.6523 185.364 73.5625 185.293 73.4911C185.262 73.4598 185.224 73.4353 185.183 73.419C185.142 73.4027 185.098 73.395 185.053 73.3964C184.929 73.4047 184.808 73.446 184.704 73.5161L184.076 73.8753V77.128L184.729 76.7538C184.856 76.6802 184.969 76.5857 185.063 76.4744C185.156 76.365 185.235 76.2443 185.298 76.1152C185.36 75.9778 185.407 75.8339 185.438 75.6862C185.472 75.5321 185.492 75.3751 185.497 75.2173C185.512 74.8531 185.512 74.4989 185.497 74.1497Z" fill="#FAFAFA"/>
<path d="M116.223 0.191211C117.084 0.38282 117.914 0.695216 118.688 1.11912C119.429 1.51737 120.092 2.04444 120.648 2.67562C121.18 3.28278 121.575 3.99743 121.806 4.7709C122.041 5.59885 122.058 6.47363 121.856 7.31019C121.722 7.97345 121.459 8.60398 121.082 9.16601C120.738 9.64662 120.329 10.0765 119.865 10.4431C119.41 10.7966 118.924 11.1088 118.413 11.376L116.977 12.1393C116.544 12.3651 116.133 12.6306 115.749 12.9325C115.402 13.1987 115.136 13.5563 114.981 13.9652C114.905 14.152 114.779 14.3143 114.617 14.4342C114.54 14.4938 114.451 14.5351 114.356 14.555C114.261 14.5749 114.162 14.5728 114.068 14.5489L111.953 14.0799C111.851 14.0586 111.754 14.0171 111.669 13.958C111.583 13.8989 111.51 13.8234 111.454 13.7357C111.394 13.6542 111.355 13.5599 111.338 13.4602C111.322 13.3605 111.329 13.2584 111.359 13.162C111.53 12.5069 111.83 11.8928 112.242 11.3561C112.619 10.8813 113.054 10.4571 113.539 10.0939C114.012 9.74815 114.512 9.44276 115.036 9.18098C115.535 8.92655 116.034 8.6821 116.468 8.43765C116.871 8.22064 117.251 7.96144 117.6 7.66439C117.906 7.40796 118.119 7.05696 118.204 6.66664C118.283 6.32769 118.279 5.97457 118.192 5.63748C118.105 5.30039 117.938 4.98936 117.705 4.73099C117.122 4.09408 116.342 3.67081 115.49 3.5287C113.913 3.17949 112.583 3.70996 111.499 5.12012C111.394 5.27404 111.262 5.4076 111.11 5.51423C110.938 5.59959 110.739 5.61392 110.556 5.55414L108.306 5.05526C108.146 5.02425 108.004 4.93099 107.912 4.79585C107.863 4.72364 107.83 4.64172 107.815 4.55564C107.801 4.46956 107.805 4.38134 107.827 4.29697C108.018 3.60375 108.374 2.96705 108.865 2.44115C109.418 1.83125 110.075 1.32449 110.805 0.944517C111.604 0.526656 112.465 0.240285 113.355 0.0964255C114.308 -0.0586306 115.282 -0.0264357 116.223 0.191211ZM113.834 16.2451C114.032 16.2915 114.203 16.4136 114.312 16.5851C114.422 16.7567 114.459 16.9641 114.417 17.163L113.879 19.6075C113.86 19.7099 113.821 19.8072 113.762 19.8932C113.704 19.9791 113.628 20.0518 113.539 20.1064C113.456 20.164 113.361 20.2035 113.262 20.2224C113.162 20.2413 113.059 20.2391 112.961 20.2161L110.546 19.6624C110.443 19.6451 110.346 19.6058 110.26 19.5473C110.173 19.4887 110.101 19.4123 110.047 19.3231C109.991 19.2389 109.953 19.1441 109.935 19.0446C109.917 18.9451 109.92 18.843 109.942 18.7444L110.486 16.3C110.533 16.1018 110.655 15.9295 110.826 15.8196C110.997 15.7097 111.205 15.6709 111.404 15.7113L113.834 16.2451Z" fill="#002670"/>
<path d="M118.887 23.5935C119.488 23.4971 120.099 23.4854 120.703 23.5586C121.28 23.6271 121.841 23.796 122.359 24.0574C122.854 24.3138 123.289 24.6706 123.637 25.1051C123.949 25.5303 124.17 26.0163 124.283 26.5319C124.397 27.0475 124.401 27.5811 124.295 28.0983C124.2 28.496 124.047 28.8776 123.841 29.2308C123.643 29.5744 123.412 29.8984 123.153 30.1986C122.898 30.4979 122.654 30.7823 122.429 31.0567C122.21 31.3123 122.014 31.5879 121.846 31.8798C121.688 32.1357 121.608 32.4323 121.616 32.7329C121.612 32.8734 121.572 33.0106 121.501 33.132C121.465 33.1879 121.418 33.2356 121.362 33.2717C121.306 33.3078 121.243 33.3316 121.177 33.3415L119.68 33.581C119.611 33.5937 119.539 33.5923 119.469 33.5769C119.4 33.5614 119.334 33.5323 119.276 33.4912C119.217 33.4542 119.168 33.4036 119.133 33.3438C119.097 33.2839 119.076 33.2165 119.072 33.147C119.009 32.6827 119.043 32.2106 119.172 31.7601C119.289 31.3613 119.457 30.9791 119.671 30.6227C119.88 30.2806 120.121 29.9583 120.389 29.6598C120.653 29.3605 120.888 29.0811 121.117 28.8117C121.322 28.5712 121.5 28.3084 121.646 28.0285C121.776 27.7875 121.823 27.5107 121.781 27.2403C121.743 27.0023 121.649 26.7769 121.506 26.5832C121.362 26.3895 121.174 26.2333 120.958 26.1278C120.421 25.8687 119.814 25.795 119.232 25.9182C118.704 25.9954 118.213 26.2339 117.826 26.6009C117.44 26.968 117.176 27.4458 117.071 27.9686C117.042 28.0944 116.992 28.2142 116.922 28.3228C116.833 28.4175 116.712 28.4761 116.582 28.4875L115.006 28.7419C114.895 28.7631 114.781 28.7398 114.687 28.677C114.639 28.644 114.598 28.6011 114.568 28.5512C114.538 28.5013 114.519 28.4456 114.512 28.3877C114.465 27.8926 114.542 27.3937 114.737 26.936C114.934 26.4033 115.224 25.91 115.595 25.4792C116 25.0075 116.479 24.6034 117.012 24.2819C117.586 23.9333 118.223 23.6995 118.887 23.5935ZM121.461 34.4939C121.53 34.483 121.6 34.4858 121.668 34.5021C121.736 34.5183 121.799 34.5478 121.856 34.5887C121.914 34.6274 121.964 34.678 122.002 34.7374C122.04 34.7967 122.065 34.8633 122.075 34.933L122.354 36.6441C122.376 36.7829 122.342 36.9246 122.26 37.0386C122.178 37.1525 122.054 37.2295 121.915 37.2527L120.244 37.5271C120.106 37.5486 119.964 37.5145 119.85 37.4323C119.792 37.3932 119.743 37.3423 119.706 37.283C119.669 37.2237 119.645 37.1573 119.636 37.0881L119.356 35.377C119.344 35.3083 119.345 35.2377 119.362 35.1698C119.378 35.1019 119.409 35.0382 119.451 34.9828C119.49 34.925 119.541 34.876 119.6 34.839C119.66 34.8021 119.726 34.778 119.795 34.7683L121.461 34.4939Z" fill="#002670"/>
<g opacity="0.2">
<path d="M118.887 23.5935C119.488 23.4971 120.099 23.4854 120.703 23.5586C121.28 23.6271 121.841 23.796 122.359 24.0574C122.854 24.3138 123.289 24.6706 123.637 25.1051C123.949 25.5303 124.17 26.0163 124.283 26.5319C124.397 27.0475 124.401 27.5811 124.295 28.0983C124.2 28.496 124.047 28.8776 123.841 29.2308C123.643 29.5744 123.412 29.8984 123.153 30.1986C122.898 30.4979 122.654 30.7823 122.429 31.0567C122.21 31.3123 122.014 31.5879 121.846 31.8798C121.688 32.1357 121.608 32.4323 121.616 32.7329C121.612 32.8734 121.572 33.0106 121.501 33.132C121.465 33.1879 121.418 33.2356 121.362 33.2717C121.306 33.3078 121.243 33.3316 121.177 33.3415L119.68 33.581C119.611 33.5937 119.539 33.5923 119.469 33.5769C119.4 33.5614 119.334 33.5323 119.276 33.4912C119.217 33.4542 119.168 33.4036 119.133 33.3438C119.097 33.2839 119.076 33.2165 119.072 33.147C119.009 32.6827 119.043 32.2106 119.172 31.7601C119.289 31.3613 119.457 30.9791 119.671 30.6227C119.88 30.2806 120.121 29.9583 120.389 29.6598C120.653 29.3605 120.888 29.0811 121.117 28.8117C121.322 28.5712 121.5 28.3084 121.646 28.0285C121.776 27.7875 121.823 27.5107 121.781 27.2403C121.743 27.0023 121.649 26.7769 121.506 26.5832C121.362 26.3895 121.174 26.2333 120.958 26.1278C120.421 25.8687 119.814 25.795 119.232 25.9182C118.704 25.9954 118.213 26.2339 117.826 26.6009C117.44 26.968 117.176 27.4458 117.071 27.9686C117.042 28.0944 116.992 28.2142 116.922 28.3228C116.833 28.4175 116.712 28.4761 116.582 28.4875L115.006 28.7419C114.895 28.7631 114.781 28.7398 114.687 28.677C114.639 28.644 114.598 28.6011 114.568 28.5512C114.538 28.5013 114.519 28.4456 114.512 28.3877C114.465 27.8926 114.542 27.3937 114.737 26.936C114.934 26.4033 115.224 25.91 115.595 25.4792C116 25.0075 116.479 24.6034 117.012 24.2819C117.586 23.9333 118.223 23.6995 118.887 23.5935ZM121.461 34.4939C121.53 34.483 121.6 34.4858 121.668 34.5021C121.736 34.5183 121.799 34.5478 121.856 34.5887C121.914 34.6274 121.964 34.678 122.002 34.7374C122.04 34.7967 122.065 34.8633 122.075 34.933L122.354 36.6441C122.376 36.7829 122.342 36.9246 122.26 37.0386C122.178 37.1525 122.054 37.2295 121.915 37.2527L120.244 37.5271C120.106 37.5486 119.964 37.5145 119.85 37.4323C119.792 37.3932 119.743 37.3423 119.706 37.283C119.669 37.2237 119.645 37.1573 119.636 37.0881L119.356 35.377C119.344 35.3083 119.345 35.2377 119.362 35.1698C119.378 35.1019 119.409 35.0382 119.451 34.9828C119.49 34.925 119.541 34.876 119.6 34.839C119.66 34.8021 119.726 34.778 119.795 34.7683L121.461 34.4939Z" fill="black"/>
</g>
<path d="M132.995 26.2824C133.063 26.3297 133.121 26.3904 133.165 26.4607C133.209 26.5311 133.238 26.6096 133.25 26.6915C133.266 26.7727 133.265 26.8562 133.247 26.9369C133.229 27.0177 133.194 27.0938 133.145 27.1604L131.958 28.8317C131.91 28.8997 131.85 28.9573 131.779 29.0011C131.709 29.0448 131.631 29.0738 131.549 29.0861C131.468 29.102 131.384 29.1009 131.303 29.0828C131.223 29.0648 131.146 29.0303 131.08 28.9813L129.443 27.819C129.375 27.7723 129.318 27.7117 129.275 27.6412C129.232 27.5707 129.204 27.4918 129.194 27.4099C129.178 27.3287 129.179 27.2451 129.197 27.1644C129.215 27.0837 129.25 27.0076 129.299 26.9409L130.501 25.2697C130.598 25.1342 130.745 25.0426 130.909 25.0145C131.074 24.9865 131.242 25.0244 131.379 25.12L132.995 26.2824ZM139.9 14.9629C140.497 15.381 141.028 15.8854 141.476 16.4595C141.914 16.9936 142.252 17.6019 142.474 18.2555C142.681 18.8818 142.751 19.5454 142.679 20.2011C142.594 20.9003 142.329 21.5656 141.91 22.1318C141.599 22.5895 141.199 22.9798 140.733 23.2792C140.323 23.5361 139.878 23.7311 139.411 23.8579C138.956 23.9767 138.492 24.0568 138.024 24.0973L136.697 24.2171C136.299 24.2489 135.905 24.3173 135.52 24.4216C135.164 24.5023 134.839 24.6822 134.582 24.9404C134.466 25.0584 134.319 25.1414 134.158 25.1799C134.081 25.2019 134.001 25.2052 133.922 25.1896C133.844 25.1739 133.771 25.1398 133.709 25.0901L132.262 24.0624C132.124 23.9637 132.029 23.8153 131.998 23.6484C131.979 23.5674 131.98 23.4833 132 23.4027C132.02 23.3221 132.058 23.2473 132.112 23.1844C132.45 22.7459 132.873 22.3795 133.355 22.1068C133.788 21.8699 134.251 21.6905 134.732 21.573C135.195 21.4606 135.667 21.3888 136.143 21.3585C136.612 21.3286 137.051 21.2937 137.46 21.2537C137.835 21.2207 138.204 21.1471 138.563 21.0342C138.876 20.9298 139.147 20.7246 139.331 20.4505C139.498 20.2192 139.606 19.9509 139.647 19.6686C139.688 19.3863 139.66 19.0984 139.566 18.8292C139.33 18.1643 138.878 17.5972 138.284 17.2178C137.206 16.4496 136.03 16.4246 134.756 17.143C134.628 17.2246 134.486 17.2821 134.337 17.3126C134.26 17.318 134.182 17.308 134.108 17.2832C134.035 17.2583 133.967 17.2192 133.908 17.1679L132.372 16.0754C132.316 16.0385 132.269 15.9907 132.232 15.935C132.195 15.8793 132.17 15.8168 132.157 15.7511C132.145 15.6832 132.148 15.6136 132.164 15.5466C132.18 15.4797 132.21 15.4168 132.252 15.362C132.615 14.8975 133.086 14.5292 133.624 14.2894C134.236 14.0124 134.89 13.8436 135.56 13.7905C136.296 13.729 137.037 13.788 137.755 13.9651C138.529 14.1517 139.258 14.4909 139.9 14.9629Z" fill="#002670"/>
<g opacity="0.6">
<path d="M132.995 26.2824C133.063 26.3297 133.121 26.3904 133.165 26.4607C133.209 26.5311 133.238 26.6096 133.25 26.6915C133.266 26.7727 133.265 26.8562 133.247 26.9369C133.229 27.0177 133.194 27.0938 133.145 27.1604L131.958 28.8317C131.91 28.8997 131.85 28.9573 131.779 29.0011C131.709 29.0448 131.631 29.0738 131.549 29.0861C131.468 29.102 131.384 29.1009 131.303 29.0828C131.223 29.0648 131.146 29.0303 131.08 28.9813L129.443 27.819C129.375 27.7723 129.318 27.7117 129.275 27.6412C129.232 27.5707 129.204 27.4918 129.194 27.4099C129.178 27.3287 129.179 27.2451 129.197 27.1644C129.215 27.0837 129.25 27.0076 129.299 26.9409L130.501 25.2697C130.598 25.1342 130.745 25.0426 130.909 25.0145C131.074 24.9865 131.242 25.0244 131.379 25.12L132.995 26.2824ZM139.9 14.9629C140.497 15.381 141.028 15.8854 141.476 16.4595C141.914 16.9936 142.252 17.6019 142.474 18.2555C142.681 18.8818 142.751 19.5454 142.679 20.2011C142.594 20.9003 142.329 21.5656 141.91 22.1318C141.599 22.5895 141.199 22.9798 140.733 23.2792C140.323 23.5361 139.878 23.7311 139.411 23.8579C138.956 23.9767 138.492 24.0568 138.024 24.0973L136.697 24.2171C136.299 24.2489 135.905 24.3173 135.52 24.4216C135.164 24.5023 134.839 24.6822 134.582 24.9404C134.466 25.0584 134.319 25.1414 134.158 25.1799C134.081 25.2019 134.001 25.2052 133.922 25.1896C133.844 25.1739 133.771 25.1398 133.709 25.0901L132.262 24.0624C132.124 23.9637 132.029 23.8153 131.998 23.6484C131.979 23.5674 131.98 23.4833 132 23.4027C132.02 23.3221 132.058 23.2473 132.112 23.1844C132.45 22.7459 132.873 22.3795 133.355 22.1068C133.788 21.8699 134.251 21.6905 134.732 21.573C135.195 21.4606 135.667 21.3888 136.143 21.3585C136.612 21.3286 137.051 21.2937 137.46 21.2537C137.835 21.2207 138.204 21.1471 138.563 21.0342C138.876 20.9298 139.147 20.7246 139.331 20.4505C139.498 20.2192 139.606 19.9509 139.647 19.6686C139.688 19.3863 139.66 19.0984 139.566 18.8292C139.33 18.1643 138.878 17.5972 138.284 17.2178C137.206 16.4496 136.03 16.4246 134.756 17.143C134.628 17.2246 134.486 17.2821 134.337 17.3126C134.26 17.318 134.182 17.308 134.108 17.2832C134.035 17.2583 133.967 17.2192 133.908 17.1679L132.372 16.0754C132.316 16.0385 132.269 15.9907 132.232 15.935C132.195 15.8793 132.17 15.8168 132.157 15.7511C132.145 15.6832 132.148 15.6136 132.164 15.5466C132.18 15.4797 132.21 15.4168 132.252 15.362C132.615 14.8975 133.086 14.5292 133.624 14.2894C134.236 14.0124 134.89 13.8436 135.56 13.7905C136.296 13.729 137.037 13.788 137.755 13.9651C138.529 14.1517 139.258 14.4909 139.9 14.9629Z" fill="white"/>
</g>
<path d="M95.8442 70.443H78.1191V27.4997C78.1191 23.7699 79.6008 20.1928 82.2382 17.5554C84.8756 14.918 88.4527 13.4363 92.1825 13.4363H93.8188C97.5486 13.4363 101.126 14.918 103.763 17.5554C106.4 20.1928 107.882 23.7699 107.882 27.4997V58.4301C107.876 61.6184 106.604 64.6739 104.348 66.926C102.091 69.1782 99.0326 70.443 95.8442 70.443Z" fill="#263238"/>
<path d="M76.393 173.825C76.0795 175.605 75.9127 177.407 75.8941 179.213C75.8293 182.486 75.2306 183.648 75.1508 186.332C75.056 189.4 75.5898 190.548 76.832 192.274C78.0742 194 81.3219 195.561 82.7288 192.648C84.1356 189.734 83.9311 187.824 83.4871 184.816C83.0331 181.703 82.9882 179.981 82.7088 177.612C82.4793 175.521 82.2099 173.93 82.2099 173.93L76.393 173.825Z" fill="#263238"/>
<path d="M85.682 152.089L74.9062 151.895C75.0659 159.088 76.2083 167.076 76.4029 173.845C76.4428 175.117 76.373 183.718 76.8519 186.317C77.5752 190.248 82.2348 189.715 82.4842 187.365C82.7336 185.015 82.1849 174.973 82.1998 173.935C82.1549 169.605 84.1953 162.296 85.248 154.524C85.2929 154.15 85.6321 152.463 85.682 152.089Z" fill="#FFA8A7"/>
<path d="M99.5259 168.228C99.5259 168.228 99.1018 167.998 99.027 168.452C98.9222 168.991 98.7626 170.104 98.5281 170.992C98.2188 172.224 97.9594 174.254 98.144 175.262C98.3286 176.27 100.673 177.557 102.195 178.026C104.07 178.605 105.78 179.622 107.184 180.994C108.68 182.411 111.938 183.748 114.168 183.733C116.787 183.733 118.613 182.86 119.476 181.458C120.339 180.056 118.688 179.887 115.694 177.966L113.375 176.469C108.63 173.371 106.889 171.715 105.557 168.617L99.5259 168.228Z" fill="#263238"/>
<path d="M105.597 166.307C105.517 164.082 107.054 145.17 107.054 145.17L96.822 149.834C99.0121 162.915 99.481 166.003 99.516 168.143C99.4711 168.322 99.4526 168.507 99.4611 168.692C99.4611 171.231 102.34 172.603 104.575 174.299C106.475 175.788 108.499 177.109 110.626 178.25C112.252 179.063 115.555 179.138 115.964 178.096C113.24 176.015 109.279 172.902 107.114 170.528C106.056 169.41 105.677 168.537 105.597 166.307Z" fill="#FFA8A7"/>
<path d="M79.3213 81.8923C75.3901 90.5178 75.3901 97.1928 76.0436 108.203C76.6223 118.305 77.5852 127.21 77.5852 127.21C77.4355 129.001 74.9461 132.498 74.6218 140.421C74.3225 147.824 75.1207 157.238 75.1207 157.238C75.1207 157.238 80.7131 160.336 84.8488 157.208C84.8488 157.208 88.8398 138.156 90.0072 128.886C91.005 120.8 92.8009 110.468 92.8009 110.468L96.5774 128.832C95.7623 131.437 95.1715 134.107 94.8114 136.814C94.2826 142.266 97.3357 152.972 97.3357 152.972C97.3357 152.972 103.113 154.693 106.64 151.565C106.64 151.565 107.957 134.16 108.451 127.594C109.109 118.799 107.722 94.9928 106.64 82.3861L79.3213 81.8923Z" fill="#455A64"/>
<path d="M92.811 110.453L94.3625 96.6141C94.3625 96.6141 101.317 95.6862 104.47 92.7229C103.567 94.1347 102.365 95.3306 100.949 96.2256C99.5321 97.1205 97.9358 97.6926 96.2732 97.9012L94.0283 110.777L96.5776 128.832L92.811 110.453Z" fill="#263238"/>
<path d="M120.973 78.4899C121.26 75.9645 121.387 73.4235 121.352 70.882C121.197 68.687 120.803 68.3278 117.735 64.4415C113.594 59.1884 110.057 54.464 106.316 49.7696C103.642 46.4171 100.828 45.9033 98.0941 46.0529C96.1784 46.1577 99.92 55.3719 101.801 60.8247L112.542 72.3886C112.874 72.845 113.027 73.4081 112.971 73.9701L112.322 83.8079L115.54 88.1182C115.54 88.1182 120.414 83.9177 120.973 78.4899Z" fill="#FFA8A7"/>
<path d="M87.7373 46.3522C85.657 46.4969 81.8755 46.8511 81.8755 46.8511C79.6954 48.0684 79.1417 49.0711 78.7376 51.9646C78.563 53.2018 79.5707 56.4894 80.4338 61.1639L82.0701 69.8294L81.8905 74.1297C81.0424 76.7538 79.1217 80.0115 77.4255 84.8157C85.7568 89.4652 92.7411 89.6398 99.0768 88.8067C103.906 88.1831 106.465 87.0157 107.318 85.8583C107.139 81.114 106.819 78.1806 106.72 73.2218C106.685 71.1414 106.809 69.0362 106.894 66.6416C110.132 63.9776 110.172 59.5475 108.391 56.664C104.285 50.014 100.289 45.8284 97.645 46.0429L87.7373 46.3522Z" fill="#002670"/>
<path opacity="0.6" d="M87.7373 46.3522C85.657 46.4969 81.8755 46.8511 81.8755 46.8511C79.6954 48.0684 79.1417 49.0711 78.7376 51.9646C78.563 53.2018 79.5707 56.4894 80.4338 61.1639L82.0701 69.8294L81.8905 74.1297C81.0424 76.7538 79.1217 80.0115 77.4255 84.8157C85.7568 89.4652 92.7411 89.6398 99.0768 88.8067C103.906 88.1831 106.465 87.0157 107.318 85.8583C107.139 81.114 106.819 78.1806 106.72 73.2218C106.685 71.1414 106.809 69.0362 106.894 66.6416C110.132 63.9776 110.172 59.5475 108.391 56.664C104.285 50.014 100.289 45.8284 97.645 46.0429L87.7373 46.3522Z" fill="white"/>
<path opacity="0.1" d="M100.444 66.7065C100.444 66.7065 96.6423 69.6598 92.2971 68.1183C91.0769 67.7338 89.9766 67.0409 89.1026 66.1066C88.2287 65.1724 87.6106 64.0284 87.3083 62.7853C87.3083 62.7853 86.8493 67.7491 92.322 69.4403C97.6251 71.0716 100.444 66.7065 100.444 66.7065Z" fill="black"/>
<path d="M105.602 32.7279C105.438 39.9317 103.108 41.7077 101.93 42.2066C100.753 42.7054 98.4981 42.4061 96.3031 42.0419V46.3921C96.3031 46.3921 98.8374 49.0462 98.6478 51.0267C98.4582 53.0072 94.6568 53.2317 91.8232 51.2911C90.2596 50.2171 88.8455 48.9405 87.6176 47.4947C87.3819 47.2157 87.2528 46.8621 87.2534 46.4969V36.3198C87.2534 36.3198 86.0512 37.5919 83.9259 36.1352C83.4674 35.8426 83.0747 35.4577 82.773 35.0051C82.4712 34.5525 82.2669 34.0421 82.173 33.5063C82.0792 32.9704 82.0979 32.4209 82.2279 31.8927C82.3579 31.3645 82.5964 30.8691 82.9282 30.4381C83.8561 29.3455 86.2108 29.2707 87.3383 30.9369C87.9768 32.1791 88.0616 33.4313 88.775 32.9324C90.6708 31.5655 89.6531 28.4425 91.9429 26.9459C92.6943 26.5537 93.4749 26.2201 94.2776 25.9482C98.3634 24.5363 101.905 23.349 102.759 20.5553C104.365 21.4732 105.802 24.232 105.602 32.7279Z" fill="#FFA8A7"/>
<path d="M97.5453 39.1634C98.0688 39.1634 98.4931 38.7391 98.4931 38.2156C98.4931 37.6921 98.0688 37.2677 97.5453 37.2677C97.0218 37.2677 96.5974 37.6921 96.5974 38.2156C96.5974 38.7391 97.0218 39.1634 97.5453 39.1634Z" fill="#B16668"/>
<path d="M96.9169 31.6354C96.9166 31.8305 96.8592 32.0213 96.7516 32.1841C96.644 32.347 96.491 32.4747 96.3116 32.5514C96.1322 32.6282 95.9342 32.6507 95.7421 32.616C95.5501 32.5814 95.3724 32.4912 95.231 32.3566C95.0897 32.222 94.991 32.0489 94.947 31.8588C94.9031 31.6687 94.9158 31.4698 94.9838 31.2868C95.0517 31.1039 95.1718 30.9449 95.3292 30.8295C95.4866 30.7141 95.6743 30.6474 95.8693 30.6376C96.0044 30.6308 96.1395 30.6516 96.2664 30.6987C96.3933 30.7458 96.5092 30.8183 96.6072 30.9116C96.7052 31.0049 96.7832 31.1172 96.8365 31.2416C96.8897 31.3661 96.9171 31.5 96.9169 31.6354Z" fill="#263238"/>
<path d="M104.475 31.7351C104.485 31.8572 104.471 31.9801 104.433 32.0966C104.395 32.2131 104.335 32.3209 104.255 32.4138C104.175 32.5067 104.077 32.5827 103.968 32.6375C103.858 32.6923 103.739 32.7247 103.617 32.7329C103.493 32.7443 103.369 32.7293 103.252 32.689C103.135 32.6486 103.028 32.5838 102.938 32.4989C102.848 32.414 102.777 32.3108 102.729 32.1964C102.682 32.0819 102.66 31.9587 102.664 31.8349C102.651 31.7119 102.663 31.5877 102.7 31.4696C102.737 31.3516 102.798 31.2424 102.878 31.1486C102.959 31.0549 103.058 30.9785 103.169 30.9243C103.28 30.8701 103.401 30.8392 103.524 30.8334C103.648 30.8276 103.771 30.8471 103.887 30.8907C104.003 30.9343 104.108 31.001 104.197 31.0869C104.286 31.1727 104.357 31.2758 104.404 31.3898C104.452 31.5039 104.476 31.6265 104.475 31.7501V31.7351Z" fill="#263238"/>
<path d="M95.6346 34.1996C94.7742 34.1996 93.9489 33.8581 93.3399 33.2501C92.731 32.6421 92.3883 31.8173 92.387 30.9569C92.387 28.7518 94.6618 28.7518 95.6346 28.7518C96.6075 28.7518 98.8773 28.7518 98.8773 30.9569C98.876 31.8165 98.534 32.6405 97.9261 33.2483C97.3183 33.8562 96.4943 34.1982 95.6346 34.1996ZM95.6346 29.2607C93.6391 29.2607 92.9008 29.7596 92.9008 30.9569C92.9008 31.6846 93.1899 32.3825 93.7044 32.897C94.219 33.4116 94.9169 33.7007 95.6446 33.7007C96.3723 33.7007 97.0702 33.4116 97.5848 32.897C98.0994 32.3825 98.3885 31.6846 98.3885 30.9569C98.3685 29.7346 97.6002 29.2607 95.6346 29.2607Z" fill="#455A64"/>
<path d="M103.871 34.1996C103.011 34.1996 102.185 33.8581 101.576 33.2501C100.967 32.6421 100.625 31.8173 100.623 30.9569C100.623 28.7518 102.898 28.7518 103.871 28.7518C104.844 28.7518 107.114 28.7518 107.114 30.9569C107.112 31.8165 106.77 32.6405 106.162 33.2483C105.555 33.8562 104.731 34.1982 103.871 34.1996ZM103.871 29.2607C101.905 29.2607 101.137 29.7596 101.137 30.9569C101.137 31.6846 101.426 32.3825 101.941 32.897C102.455 33.4116 103.153 33.7007 103.881 33.7007C104.609 33.7007 105.307 33.4116 105.821 32.897C106.336 32.3825 106.625 31.6846 106.625 30.9569C106.605 29.7346 105.837 29.2607 103.871 29.2607Z" fill="#455A64"/>
<path d="M99.3811 29.9093L99.5407 35.9706L102.729 34.9828L99.3811 29.9093Z" fill="#F28F8F"/>
<path d="M96.2982 42.057C93.9834 41.7526 89.2192 40.3857 88.4758 38.5C88.775 39.453 89.3581 40.2919 90.1471 40.9046C91.5689 42.1268 96.2982 43.4987 96.2982 43.4987V42.057Z" fill="#F28F8F"/>
<path d="M96.4129 26.9659L94.2976 28.258C94.1309 27.9676 94.0825 27.6242 94.1624 27.299C94.2423 26.9739 94.4444 26.692 94.7267 26.5119C94.8662 26.4273 95.0215 26.3718 95.1831 26.3488C95.3447 26.3258 95.5092 26.3358 95.6669 26.3783C95.8245 26.4207 95.9718 26.4947 96.1001 26.5957C96.2283 26.6967 96.3347 26.8226 96.4129 26.9659Z" fill="#263238"/>
<path d="M105.019 28.4026L102.664 27.5795C102.709 27.4234 102.786 27.2783 102.89 27.1531C102.994 27.0279 103.122 26.9253 103.267 26.8514C103.412 26.7776 103.57 26.7342 103.732 26.7238C103.895 26.7135 104.057 26.7364 104.21 26.7912C104.526 26.9047 104.786 27.1353 104.937 27.4353C105.087 27.7353 105.116 28.0816 105.019 28.4026Z" fill="#263238"/>
<path d="M98.6229 31.2163C98.5891 31.2163 98.5556 31.2095 98.5244 31.1965C98.4932 31.1834 98.4649 31.1642 98.4412 31.14C98.4175 31.1159 98.3989 31.0872 98.3864 31.0558C98.3739 31.0243 98.3678 30.9907 98.3685 30.9569C98.3685 30.5428 99.1866 30.2734 99.925 30.2734C100.663 30.2734 101.137 30.5428 101.137 30.9569C101.122 31.0111 101.089 31.0588 101.044 31.0927C100.999 31.1267 100.944 31.145 100.888 31.145C100.831 31.145 100.777 31.1267 100.732 31.0927C100.687 31.0588 100.654 31.0111 100.638 30.9569C100.638 30.907 100.384 30.7823 99.9399 30.7823C99.5824 30.7747 99.2268 30.8356 98.8923 30.9619C98.8923 30.9966 98.8853 31.0309 98.8716 31.0628C98.8579 31.0947 98.8378 31.1234 98.8125 31.1473C98.7873 31.1711 98.7575 31.1895 98.7249 31.2014C98.6922 31.2133 98.6575 31.2183 98.6229 31.2163Z" fill="#455A64"/>
<path d="M92.6513 30.9969H92.6214L86.9192 30.498C86.6528 30.2339 86.3354 30.0268 85.9863 29.8893L92.6813 30.508C92.7484 30.5167 92.8094 30.5513 92.8514 30.6045C92.8933 30.6576 92.9128 30.725 92.9057 30.7923C92.8941 30.8508 92.8622 30.9034 92.8157 30.9408C92.7692 30.9782 92.711 30.998 92.6513 30.9969Z" fill="#455A64"/>
<path d="M69.2391 36.9435C71.1049 34.4491 72.377 32.5683 74.0782 30.4581C75.046 29.2458 75.6646 28.3778 76.5726 27.1355C77.2111 26.2775 77.5703 25.5541 78.2987 25.2897C79.0856 24.9673 79.7948 24.4809 80.379 23.8629C80.7381 23.4656 81.0714 23.0457 81.3767 22.6057C82.446 21.1665 83.7161 19.888 85.1482 18.8093C86.6449 17.6818 88.3161 16.8138 89.8577 15.7412C90.7756 15.0976 91.7584 14.03 90.6409 13.0323C90.2981 12.7436 89.888 12.5463 89.4486 12.4586C86.7297 11.8699 84.365 12.8028 81.706 13.4813C80.551 13.7696 79.4214 14.1516 78.3286 14.6237C77.7911 14.8363 77.287 15.1253 76.832 15.4818C76.1958 16.1232 75.6744 16.869 75.2904 17.6868C74.1281 19.7621 71.6337 21.618 69.8876 23.2593C67.8472 25.1799 66.0213 26.941 63.6916 29.0562C61.5963 30.9669 59.5459 32.723 57.6252 34.8083C56.0338 36.5294 56.6274 37.8764 56.837 38.3453C58.1341 41.0093 59.5858 41.9672 61.3269 43.6184C64.3201 46.477 74.6718 54.7035 78.0991 57.4224C78.8355 58.0007 79.4138 58.7558 79.7803 59.6174L80.4388 61.139C84.35 61.8574 86.9592 55.9856 83.7215 48.9165C83.1853 47.7734 82.3662 46.7861 81.3418 46.048C77.251 43.0697 69.2391 36.9435 69.2391 36.9435Z" fill="#FFA8A7"/>
<path d="M69.239 36.9434C67.9941 38.4749 66.3351 39.6161 64.4597 40.231C64.4597 40.231 66.9541 40.8696 70.3714 37.8015L69.239 36.9434Z" fill="#F28F8F"/>
<path d="M119.955 73.2866L119.316 72.7379C119.221 72.675 119.112 72.6355 118.999 72.6225C118.885 72.6095 118.77 72.6234 118.663 72.663L111.734 74.5488C111.384 74.6652 111.065 74.8556 110.796 75.107C110.527 75.3584 110.316 75.6649 110.177 76.0055L105.188 90.3881C105.128 90.5053 105.105 90.6379 105.121 90.7686C105.137 90.8993 105.191 91.0222 105.278 91.1215L105.937 91.6902C106.032 91.7563 106.143 91.7981 106.258 91.812C106.374 91.8259 106.491 91.8115 106.6 91.77L113.539 89.8843C113.888 89.7679 114.208 89.5775 114.477 89.3261C114.746 89.0746 114.957 88.7681 115.096 88.4275C116.094 85.5989 119.087 76.8735 120.085 74.0449C120.204 73.6907 120.145 73.4213 119.955 73.2866Z" fill="#455A64"/>
<path d="M105.842 90.9419L110.83 76.5593C110.969 76.2189 111.18 75.9128 111.449 75.6621C111.718 75.4114 112.038 75.2222 112.387 75.1075L119.311 73.2218C119.955 73.0472 120.309 73.4163 120.08 74.0449C119.082 76.8736 116.089 85.5989 115.091 88.4276C114.952 88.7682 114.74 89.0746 114.472 89.3261C114.203 89.5775 113.883 89.7679 113.534 89.8843L106.61 91.79C105.971 91.9397 105.627 91.5705 105.842 90.9419Z" fill="#002670"/>
<path d="M111.634 75.5066C111.273 75.7794 110.994 76.1449 110.825 76.5642L105.837 90.9418C105.779 91.056 105.756 91.184 105.768 91.3111C105.78 91.4382 105.828 91.5592 105.906 91.6602L105.288 91.1314C105.199 91.0334 105.143 90.9106 105.126 90.7796C105.109 90.6485 105.132 90.5154 105.193 90.398L110.182 76.0154C110.34 75.6244 110.596 75.2807 110.925 75.0177L111.634 75.5066Z" fill="#37474F"/>
<path d="M118.054 79.8418C117.555 81.3035 115.824 82.2813 112.961 82.9598C110.097 83.6383 108.516 86.6764 108.97 87.5994C109.424 88.5223 114.053 89.3853 115.904 89.1209C117.755 88.8565 119.611 86.1825 120.174 85.3544C120.738 84.5263 121.387 78.7493 120.793 77.9561C120.199 77.1628 118.947 77.2876 118.947 77.2876L118.054 79.8418Z" fill="#F28F8F"/>
</svg>
