<svg width="50" height="50" viewBox="0 0 50 50" fill="none" xmlns="http://www.w3.org/2000/svg">
<circle cx="25" cy="25" r="25" fill="#002670"/>
<path fill-rule="evenodd" clip-rule="evenodd" d="M34.25 21.5C34.25 20.096 34.25 19.393 33.913 18.889C33.767 18.6705 33.5795 18.483 33.361 18.337C32.92 18.042 32.327 18.005 31.246 18.001C31.25 18.292 31.25 18.597 31.25 18.911V20.25H32.25C32.4489 20.25 32.6397 20.329 32.7803 20.4697C32.921 20.6103 33 20.8011 33 21C33 21.1989 32.921 21.3897 32.7803 21.5303C32.6397 21.671 32.4489 21.75 32.25 21.75H31.25V23.25H32.25C32.4489 23.25 32.6397 23.329 32.7803 23.4697C32.921 23.6103 33 23.8011 33 24C33 24.1989 32.921 24.3897 32.7803 24.5303C32.6397 24.671 32.4489 24.75 32.25 24.75H31.25V26.25H32.25C32.4489 26.25 32.6397 26.329 32.7803 26.4697C32.921 26.6103 33 26.8011 33 27C33 27.1989 32.921 27.3897 32.7803 27.5303C32.6397 27.671 32.4489 27.75 32.25 27.75H31.25V34.25H29.75V19C29.75 17.114 29.75 16.172 29.164 15.586C28.578 15 27.636 15 25.75 15H23.75C21.864 15 20.922 15 20.336 15.586C19.75 16.172 19.75 17.114 19.75 19V34.25H18.25V27.75H17.25C17.0511 27.75 16.8603 27.671 16.7197 27.5303C16.579 27.3897 16.5 27.1989 16.5 27C16.5 26.8011 16.579 26.6103 16.7197 26.4697C16.8603 26.329 17.0511 26.25 17.25 26.25H18.25V24.75H17.25C17.0511 24.75 16.8603 24.671 16.7197 24.5303C16.579 24.3897 16.5 24.1989 16.5 24C16.5 23.8011 16.579 23.6103 16.7197 23.4697C16.8603 23.329 17.0511 23.25 17.25 23.25H18.25V21.75H17.25C17.0511 21.75 16.8603 21.671 16.7197 21.5303C16.579 21.3897 16.5 21.1989 16.5 21C16.5 20.8011 16.579 20.6103 16.7197 20.4697C16.8603 20.329 17.0511 20.25 17.25 20.25H18.25V18.91C18.25 18.597 18.25 18.292 18.254 18C17.173 18.005 16.58 18.042 16.139 18.337C15.9205 18.483 15.733 18.6705 15.587 18.889C15.25 19.393 15.25 20.096 15.25 21.5V34.25H14.75C14.5511 34.25 14.3603 34.329 14.2197 34.4697C14.079 34.6103 14 34.8011 14 35C14 35.1989 14.079 35.3897 14.2197 35.5303C14.3603 35.671 14.5511 35.75 14.75 35.75H34.75C34.9489 35.75 35.1397 35.671 35.2803 35.5303C35.421 35.3897 35.5 35.1989 35.5 35C35.5 34.8011 35.421 34.6103 35.2803 34.4697C35.1397 34.329 34.9489 34.25 34.75 34.25H34.25V21.5ZM24.75 17.25C24.9489 17.25 25.1397 17.329 25.2803 17.4697C25.421 17.6103 25.5 17.8011 25.5 18V19.25H26.75C26.9489 19.25 27.1397 19.329 27.2803 19.4697C27.421 19.6103 27.5 19.8011 27.5 20C27.5 20.1989 27.421 20.3897 27.2803 20.5303C27.1397 20.671 26.9489 20.75 26.75 20.75H25.5V22C25.5 22.1989 25.421 22.3897 25.2803 22.5303C25.1397 22.671 24.9489 22.75 24.75 22.75C24.5511 22.75 24.3603 22.671 24.2197 22.5303C24.079 22.3897 24 22.1989 24 22V20.75H22.75C22.5511 20.75 22.3603 20.671 22.2197 20.5303C22.079 20.3897 22 20.1989 22 20C22 19.8011 22.079 19.6103 22.2197 19.4697C22.3603 19.329 22.5511 19.25 22.75 19.25H24V18C24 17.8011 24.079 17.6103 24.2197 17.4697C24.3603 17.329 24.5511 17.25 24.75 17.25ZM22 25C22 24.8011 22.079 24.6103 22.2197 24.4697C22.3603 24.329 22.5511 24.25 22.75 24.25H26.75C26.9489 24.25 27.1397 24.329 27.2803 24.4697C27.421 24.6103 27.5 24.8011 27.5 25C27.5 25.1989 27.421 25.3897 27.2803 25.5303C27.1397 25.671 26.9489 25.75 26.75 25.75H22.75C22.5511 25.75 22.3603 25.671 22.2197 25.5303C22.079 25.3897 22 25.1989 22 25ZM22 28C22 27.8011 22.079 27.6103 22.2197 27.4697C22.3603 27.329 22.5511 27.25 22.75 27.25H26.75C26.9489 27.25 27.1397 27.329 27.2803 27.4697C27.421 27.6103 27.5 27.8011 27.5 28C27.5 28.1989 27.421 28.3897 27.2803 28.5303C27.1397 28.671 26.9489 28.75 26.75 28.75H22.75C22.5511 28.75 22.3603 28.671 22.2197 28.5303C22.079 28.3897 22 28.1989 22 28ZM24.75 31.25C24.9489 31.25 25.1397 31.329 25.2803 31.4697C25.421 31.6103 25.5 31.8011 25.5 32V34.25H24V32C24 31.8011 24.079 31.6103 24.2197 31.4697C24.3603 31.329 24.5511 31.25 24.75 31.25Z" fill="white"/>
</svg>
