<svg width="26" height="26" viewBox="0 0 26 26" fill="none" xmlns="http://www.w3.org/2000/svg">
<path d="M12.0345 0.0182419C11.9511 0.0286598 11.654 0.0651207 11.383 0.0963745C7.67726 0.518286 4.24256 2.65909 2.0848 5.89895C1.33948 7.01363 0.609803 8.72732 0.312719 10.0556C0.0521199 11.1963 0 11.6963 0 13.0089C0 14.6757 0.18242 15.806 0.68277 17.2489C2.18382 21.593 5.89997 24.8485 10.3927 25.7652C11.3413 25.958 11.8625 26.0048 13.0248 25.9996C15.1565 25.9996 16.8399 25.6142 18.7058 24.7026C22.6721 22.765 25.3094 19.0876 25.9296 14.6237C26.0235 13.9778 26.0235 12.0401 25.9296 11.3942C25.5752 8.84191 24.5485 6.50317 22.938 4.59676C20.9053 2.18509 17.9814 0.570372 14.8229 0.117208C14.26 0.0338688 12.3889 -0.0338459 12.0345 0.0182419ZM17.4549 5.18014C19.4251 5.62809 20.603 6.86258 20.947 8.8367C21.0616 9.47738 21.0616 16.5405 20.947 17.1812C20.5665 19.3688 19.1436 20.6606 16.8295 20.9263C16.2093 20.994 9.78811 20.994 9.16789 20.9263C7.41145 20.7283 6.17621 19.947 5.50907 18.6084C5.29538 18.1865 5.09732 17.551 5.02436 17.0457C4.98266 16.754 4.97224 15.4831 4.98266 12.7485C5.00351 8.87837 5.00351 8.86795 5.12338 8.42521C5.2589 7.91996 5.56119 7.24282 5.80615 6.88862C6.47329 5.91979 7.67726 5.26869 9.09492 5.0968C9.30861 5.07076 11.1693 5.05513 13.2332 5.06034C16.8087 5.07076 17.0067 5.07596 17.4549 5.18014Z" fill="url(#paint0_radial_126_588)"/>
<path d="M10.9922 6.55535C8.8657 6.59182 8.73019 6.60744 8.01615 6.94601C7.34901 7.25854 6.79654 7.98777 6.55679 8.86805C6.46298 9.21183 6.45776 9.46185 6.45776 13.009C6.45776 16.5406 6.46298 16.8114 6.55679 17.15C6.79133 18.0251 7.34901 18.7595 8.01615 19.072C8.81879 19.4523 8.66765 19.4419 12.9988 19.4419C17.33 19.4419 17.1788 19.4523 17.9815 19.072C18.6486 18.7595 19.2011 18.0303 19.4408 17.15C19.5346 16.8062 19.5399 16.5562 19.5399 13.009C19.5399 9.46185 19.5346 9.21183 19.4408 8.86805C19.2011 7.98777 18.6486 7.25854 17.9815 6.94601C17.3248 6.63349 17.0694 6.59181 15.683 6.57098C14.995 6.56056 14.0933 6.54494 13.6764 6.53452C13.2594 6.52931 12.0554 6.53973 10.9922 6.55535ZM17.7261 8.09194C17.9971 8.29509 18.0805 8.46177 18.0805 8.78992C18.0805 9.1337 17.9867 9.30559 17.6896 9.50352C17.5645 9.59207 17.4446 9.62332 17.2466 9.62332C16.7619 9.62332 16.4335 9.28996 16.4283 8.79513C16.4283 8.47218 16.5534 8.25342 16.8296 8.08153C17.0016 7.97735 17.0902 7.95651 17.3143 7.97214C17.4811 7.98256 17.6427 8.03465 17.7261 8.09194ZM13.9682 8.89409C15.9019 9.35247 17.2205 11.0245 17.2205 13.009C17.2205 15.3738 15.3651 17.2281 12.9988 17.2281C10.6378 17.2281 8.7771 15.3686 8.7771 13.009C8.7771 11.0401 10.0853 9.36809 11.9981 8.89409C12.5506 8.75867 13.4106 8.75867 13.9682 8.89409Z" fill="url(#paint1_radial_126_588)"/>
<path d="M12.1649 10.4202C11.701 10.5765 11.3727 10.7796 11.0495 11.1078C10.544 11.6182 10.2886 12.2641 10.2886 13.009C10.2886 13.7694 10.5596 14.4258 11.0756 14.9362C11.602 15.4571 12.2431 15.7175 12.9988 15.7175C13.7598 15.7175 14.4165 15.4467 14.9272 14.931C15.4484 14.4049 15.709 13.7642 15.709 13.009C15.709 11.7641 14.9325 10.7379 13.7337 10.3837C13.3063 10.2587 12.5871 10.2744 12.1649 10.4202Z" fill="url(#paint2_radial_126_588)"/>
<defs>
<radialGradient id="paint0_radial_126_588" cx="0" cy="0" r="1" gradientUnits="userSpaceOnUse" gradientTransform="translate(2 19.5) rotate(-37.7757) scale(25.3032)">
<stop offset="0.0289996" stop-color="#FFDD55"/>
<stop offset="0.113931" stop-color="#FFDD55"/>
<stop offset="0.511748" stop-color="#FF543E"/>
<stop offset="0.999" stop-color="#C837AB"/>
</radialGradient>
<radialGradient id="paint1_radial_126_588" cx="0" cy="0" r="1" gradientUnits="userSpaceOnUse" gradientTransform="translate(7.46408 16.2147) rotate(-37.4062) scale(12.6684 12.6253)">
<stop offset="0.0289996" stop-color="#FFDD55"/>
<stop offset="0.113931" stop-color="#FFDD55"/>
<stop offset="0.511748" stop-color="#FF543E"/>
<stop offset="0.999" stop-color="#C837AB"/>
</radialGradient>
<radialGradient id="paint2_radial_126_588" cx="0" cy="0" r="1" gradientUnits="userSpaceOnUse" gradientTransform="translate(10.7055 14.363) rotate(-37.7634) scale(5.27431 5.27373)">
<stop offset="0.0289996" stop-color="#FFDD55"/>
<stop offset="0.113931" stop-color="#FFDD55"/>
<stop offset="0.511748" stop-color="#FF543E"/>
<stop offset="0.999" stop-color="#C837AB"/>
</radialGradient>
</defs>
</svg>
