<svg width="50" height="50" viewBox="0 0 50 50" fill="none" xmlns="http://www.w3.org/2000/svg">
<circle cx="25" cy="25" r="25" fill="#002670"/>
<path d="M23 30C22.7167 30 22.4793 29.904 22.288 29.712C22.0967 29.52 22.0007 29.2827 22 29C21.9993 28.7173 22.0953 28.48 22.288 28.288C22.4807 28.096 22.718 28 23 28H24C24.2833 28 24.521 28.096 24.713 28.288C24.905 28.48 25.0007 28.7173 25 29C24.9993 29.2827 24.9033 29.5203 24.712 29.713C24.5207 29.9057 24.2833 30.0013 24 30H23ZM22 35C20.6167 35 19.4377 34.5123 18.463 33.537C17.4883 32.5617 17.0007 31.3827 17 30V21C16.45 21 15.9793 20.8043 15.588 20.413C15.1967 20.0217 15.0007 19.5507 15 19V17C15 16.45 15.196 15.9793 15.588 15.588C15.98 15.1967 16.4507 15.0007 17 15H27C27.55 15 28.021 15.196 28.413 15.588C28.805 15.98 29.0007 16.4507 29 17V19C29 19.55 28.8043 20.021 28.413 20.413C28.0217 20.805 27.5507 21.0007 27 21V24C27 24.55 26.8043 25.021 26.413 25.413C26.0217 25.805 25.5507 26.0007 25 26H23C22.7167 26 22.4793 25.904 22.288 25.712C22.0967 25.52 22.0007 25.2827 22 25C21.9993 24.7173 22.0953 24.48 22.288 24.288C22.4807 24.096 22.718 24 23 24H25V21H19V30C19 30.8333 19.2917 31.5417 19.875 32.125C20.4583 32.7083 21.1667 33 22 33C22.3 33 22.5877 32.9583 22.863 32.875C23.1383 32.7917 23.3923 32.675 23.625 32.525C23.8417 32.3917 24.075 32.3583 24.325 32.425C24.575 32.4917 24.7667 32.6417 24.9 32.875C25.05 33.1083 25.0917 33.3623 25.025 33.637C24.9583 33.9117 24.8083 34.1243 24.575 34.275C24.1917 34.5083 23.7877 34.6877 23.363 34.813C22.9383 34.9383 22.484 35.0007 22 35ZM30.5 32C31.2 32 31.7917 31.7583 32.275 31.275C32.7583 30.7917 33 30.2 33 29.5C33 28.8 32.7583 28.2083 32.275 27.725C31.7917 27.2417 31.2 27 30.5 27C29.8 27 29.2083 27.2417 28.725 27.725C28.2417 28.2083 28 28.8 28 29.5C28 30.2 28.2417 30.7917 28.725 31.275C29.2083 31.7583 29.8 32 30.5 32ZM30.5 34C29.25 34 28.1877 33.5627 27.313 32.688C26.4383 31.8133 26.0007 30.7507 26 29.5C25.9993 28.2493 26.437 27.187 27.313 26.313C28.189 25.439 29.2513 25.0013 30.5 25C31.7487 24.9987 32.8113 25.4363 33.688 26.313C34.5647 27.1897 35.002 28.252 35 29.5C35 29.9333 34.9417 30.35 34.825 30.75C34.7083 31.15 34.5333 31.5333 34.3 31.9L36.3 33.9C36.4833 34.0833 36.575 34.3167 36.575 34.6C36.575 34.8833 36.4833 35.1167 36.3 35.3C36.1167 35.4833 35.8833 35.575 35.6 35.575C35.3167 35.575 35.0833 35.4833 34.9 35.3L32.9 33.3C32.5333 33.5333 32.15 33.7083 31.75 33.825C31.35 33.9417 30.9333 34 30.5 34Z" fill="white"/>
</svg>
