<svg width="12" height="12" viewBox="0 0 12 12" fill="none" xmlns="http://www.w3.org/2000/svg">
<path d="M5.28166 0.0331125C4.54394 0.101109 4.01566 0.223031 3.32796 0.480945C2.13073 0.928776 1.23985 1.59466 0.639672 2.49501C0.292695 3.01787 0.108266 3.48681 0.0301181 4.05422C-0.226207 5.90416 1.15857 8.18317 3.99378 10.5841C4.44391 10.9663 5.6724 11.8877 5.81619 11.9534C5.95061 12.0167 6.05064 12.0144 6.18818 11.9534C6.33197 11.8877 7.54795 10.971 8.00746 10.5841C10.8427 8.18317 12.2212 5.91354 11.9711 4.05187C11.8961 3.50791 11.7023 3.01084 11.3584 2.49501C10.8802 1.7752 10.2144 1.2031 9.32972 0.759959C8.14187 0.164414 6.68832 -0.0981884 5.28166 0.0331125ZM6.43512 0.513769C8.80457 0.670862 10.7395 1.95574 11.2209 3.68845C11.6773 5.32502 10.6801 7.31096 8.27941 9.55246C7.56358 10.2207 6.11315 11.393 6.00062 11.393C5.94435 11.393 5.07847 10.7318 4.52831 10.2676C1.85878 8.0167 0.49588 5.8643 0.683435 4.20427C0.921005 2.11518 3.13415 0.553629 5.9381 0.492667C6.01625 0.492667 6.23819 0.502047 6.43512 0.513769Z" fill="#002670"/>
<path d="M5.61931 2.01445C4.46585 2.1223 3.48431 2.65923 2.98416 3.45173C2.38399 4.40601 2.66532 5.54786 3.68124 6.28643C4.68466 7.01327 6.15697 7.20554 7.39171 6.76474C8.13567 6.50214 8.67021 6.1012 9.01718 5.54786C9.82679 4.26298 9.02343 2.7366 7.24166 2.18092C6.78215 2.03789 6.10383 1.96755 5.61931 2.01445ZM6.53208 2.53965C7.22291 2.64985 7.81996 2.95466 8.21695 3.3978C8.52016 3.73778 8.6577 4.08713 8.6577 4.50917C8.65458 5.18678 8.22945 5.77763 7.46673 6.16216C7.17602 6.30987 6.7884 6.42711 6.4508 6.47166C6.32889 6.48807 6.08507 6.4951 5.86313 6.48807C5.40675 6.474 5.03789 6.39194 4.6409 6.21609C4.34394 6.08479 3.94069 5.79405 3.75626 5.57834C3.60309 5.40249 3.44992 5.11878 3.3874 4.89839C3.33114 4.70143 3.33114 4.29815 3.3874 4.1012C3.60935 3.32042 4.41271 2.71316 5.45364 2.542C5.70371 2.49979 6.27888 2.49979 6.53208 2.53965Z" fill="#002670"/>
</svg>
