<svg width="150" height="150" viewBox="0 0 150 150" fill="none" xmlns="http://www.w3.org/2000/svg">
<circle cx="75" cy="75" r="75" fill="#C5DFF8"/>
<path d="M51.4844 35.193C50.3594 35.6932 50 36.5216 50 38.6004V39.9758H46.4531C42.4375 39.9758 41.4375 40.1165 39.75 40.9449C38.3125 41.6326 36.6719 43.2737 35.9844 44.6804C35.125 46.4154 35 47.2907 35 51.417V55.1369H75H115V51.417C115 47.2907 114.875 46.4154 114.016 44.6804C113.344 43.2894 111.688 41.6326 110.266 40.9449C108.969 40.304 107.5 39.9758 105.906 39.9758H104.703L104.656 43.9927C104.609 48.3848 104.578 48.5723 103.625 49.26C103.031 49.7133 101.766 49.7602 101.141 49.3695C100.062 48.6974 100.094 48.8224 100 42.3828C99.9219 36.8029 99.9062 36.5372 99.5938 36.1308C98.5 34.6616 96.625 34.6303 95.6719 36.0527C95.3594 36.5216 95.3125 36.7716 95.3125 38.2721V39.9758H92.4219H89.5312V43.9927C89.5312 47.7439 89.5156 48.0565 89.2188 48.5411C88.2656 50.1041 86.0312 50.0259 85.2031 48.416C84.8438 47.7439 84.8438 47.6189 84.8438 42.289C84.8438 36.2715 84.8125 36.0996 83.8906 35.4275C83.1875 34.9273 81.9375 34.9117 81.3125 35.3806C80.375 36.0683 80.2344 36.4278 80.1875 38.2721L80.125 39.9758H77.3281H74.5312V43.8521C74.5312 47.5564 74.5156 47.7596 74.1875 48.416C73.375 49.979 71.1719 50.1041 70.2031 48.6192C69.9531 48.2441 69.9219 47.6502 69.8438 42.3828C69.7656 36.8029 69.75 36.5372 69.4375 36.1308C68.8594 35.3337 68.3281 35.0523 67.4531 35.0523C66.8438 35.0523 66.5 35.1461 66.1094 35.4275C65.3594 35.9745 65.1562 36.5841 65.1562 38.4128V39.9758H62.2656H59.375V43.9927C59.375 47.7439 59.3594 48.0565 59.0625 48.5411C58.4062 49.6195 57.0625 49.9634 55.9375 49.3382C54.7656 48.6817 54.7812 48.7286 54.6875 42.2109C54.6094 36.6466 54.5938 36.3809 54.2812 35.9589C53.6406 35.0836 52.4688 34.7554 51.4844 35.193Z" fill="#002670"/>
<path d="M35 83.5524C35 106.716 35 107.326 35.3125 108.498C35.7031 110.077 36.3906 111.249 37.5625 112.437C38.75 113.609 39.9219 114.297 41.5 114.687C42.6875 115 43.2969 115 75 115C106.656 115 107.312 115 108.5 114.687C110.141 114.281 111.125 113.703 112.359 112.499C113.609 111.264 114.281 110.108 114.688 108.498C115 107.326 115 106.716 115 83.5524V59.826H75H35V83.5524ZM59.8438 67.9848C60.125 68.188 60.5156 68.5475 60.6875 68.782C61 69.2196 61.0156 69.3915 61.0156 74.9871C61.0156 80.5826 61 80.7546 60.6875 81.1922C60.5156 81.4267 60.125 81.7862 59.8438 81.9737C59.3281 82.3332 59.2812 82.3332 53.6719 82.3332C48.0625 82.3332 48.0156 82.3332 47.5 81.9737C47.2188 81.7862 46.8281 81.4267 46.6562 81.1922C46.3438 80.7546 46.3281 80.5826 46.3281 74.9871C46.3281 69.3915 46.3438 69.2196 46.6562 68.782C46.8281 68.5475 47.2188 68.188 47.5 67.9848C48.0156 67.641 48.0625 67.641 53.6719 67.641C59.2812 67.641 59.3281 67.641 59.8438 67.9848ZM102.5 67.9848C102.781 68.188 103.172 68.5475 103.344 68.782C103.656 69.2196 103.672 69.3915 103.672 74.9871C103.672 80.5826 103.656 80.7546 103.344 81.1922C103.172 81.4267 102.781 81.7862 102.5 81.9737C101.984 82.3332 101.938 82.3332 96.3281 82.3332C90.7188 82.3332 90.6719 82.3332 90.1562 81.9737C89.875 81.7862 89.4844 81.4267 89.3125 81.1922C89 80.7546 88.9844 80.5826 88.9844 74.9871C88.9844 69.3915 89 69.2196 89.3125 68.782C89.4844 68.5475 89.875 68.188 90.1562 67.9848C90.6719 67.641 90.7188 67.641 96.3281 67.641C101.938 67.641 101.984 67.641 102.5 67.9848ZM81.5625 69.5009C82.5469 70.2043 82.8906 71.3297 82.4375 72.3769C82.3125 72.6582 80.4688 74.612 78.3438 76.722C74.0781 80.9578 73.8125 81.1297 72.6094 80.7702C72.125 80.6295 71.4844 80.0981 69.9062 78.5507C68.7656 77.4254 67.7188 76.2844 67.5938 76.003C66.8906 74.5338 67.8125 72.8614 69.4375 72.6895C70.3281 72.5801 70.9219 72.9083 72.2344 74.1743L73.2812 75.2215L76.2188 72.2831C78.0156 70.4856 79.3281 69.2978 79.6094 69.204C80.2188 69.0164 81.0781 69.1415 81.5625 69.5009ZM59.8438 88.0382C60.1406 88.2257 60.5156 88.6009 60.7031 88.8978C61 89.4136 61.0156 89.695 61.0156 95.0717C61.0156 100.433 61 100.73 60.7031 101.246C60.5156 101.574 60.0938 101.933 59.6875 102.136C59.0156 102.496 58.8906 102.496 53.6719 102.496C48.4688 102.496 48.3281 102.496 47.6562 102.136C47.1406 101.886 46.8594 101.605 46.6094 101.089C46.25 100.417 46.25 100.292 46.25 95.0717C46.2656 87.1316 45.75 87.6318 53.9062 87.6943C59.0156 87.7256 59.3281 87.7412 59.8438 88.0382ZM81.2031 88.0538C81.4375 88.2257 81.7969 88.6165 82 88.8978C82.3438 89.4136 82.3438 89.4605 82.3438 95.0717C82.3438 100.683 82.3438 100.73 82 101.246C81.7969 101.527 81.4375 101.918 81.2031 102.09C80.7656 102.402 80.5938 102.418 75 102.418C69.4062 102.418 69.2344 102.402 68.7969 102.09C68.5625 101.918 68.2031 101.527 68.0156 101.246C67.6562 100.73 67.6562 100.683 67.6562 95.1186C67.6562 89.101 67.6562 89.0698 68.4844 88.3039C68.6875 88.1007 69.0625 87.8819 69.3125 87.8037C69.5625 87.7256 72.2344 87.6787 75.2656 87.6943C80.5781 87.7256 80.7812 87.7412 81.2031 88.0538ZM102.5 88.0382C102.828 88.2257 103.188 88.6477 103.406 89.0541C103.75 89.7262 103.75 89.8513 103.75 95.0717C103.75 100.277 103.75 100.417 103.406 101.089C103.141 101.605 102.859 101.886 102.344 102.136C101.672 102.496 101.531 102.496 96.3281 102.496C88.4844 102.496 89 102.996 88.9375 95.4312C88.8906 89.8825 88.9531 89.2261 89.5781 88.5071C90.2656 87.6943 90.7031 87.6474 96.5625 87.6943C101.656 87.7256 101.984 87.7412 102.5 88.0382Z" fill="#002670"/>
<path d="M50.9375 74.9871V77.6442H53.6719H56.4062V74.9871V72.33H53.6719H50.9375V74.9871Z" fill="#002670"/>
<path d="M93.5938 74.9871V77.6442H96.3281H99.0625V74.9871V72.33H96.3281H93.5938V74.9871Z" fill="#002670"/>
<path d="M51.0156 92.5396C50.9688 92.649 50.9531 93.8681 50.9688 95.228L51.0156 97.7288H53.6719H56.3281V95.0717V92.4145L53.7031 92.3677C51.6562 92.3364 51.0625 92.3677 51.0156 92.5396Z" fill="#002670"/>
<path d="M72.3438 95.0717V97.807H75H77.6562V95.0717V92.3365H75H72.3438V95.0717Z" fill="#002670"/>
<path d="M93.6719 92.5396C93.625 92.649 93.6094 93.8681 93.625 95.228L93.6719 97.7288H96.3281H98.9844V95.0717V92.4145L96.3594 92.3677C94.3125 92.3364 93.7188 92.3677 93.6719 92.5396Z" fill="#002670"/>
</svg>
