<svg width="50" height="50" viewBox="0 0 50 50" fill="none" xmlns="http://www.w3.org/2000/svg">
<circle cx="25" cy="25" r="25" fill="#002670"/>
<mask id="mask0_595_3028" style="mask-type:luminance" maskUnits="userSpaceOnUse" x="15" y="13" width="20" height="24">
<path d="M19.5 16.5C19.5 16.1022 19.658 15.7206 19.9393 15.4393C20.2206 15.158 20.6022 15 21 15H29C29.197 15 29.392 15.0388 29.574 15.1142C29.756 15.1896 29.9214 15.3001 30.0607 15.4393C30.1999 15.5786 30.3104 15.744 30.3858 15.926C30.4612 16.108 30.5 16.303 30.5 16.5C30.5 16.697 30.4612 16.892 30.3858 17.074C30.3104 17.256 30.1999 17.4214 30.0607 17.5607C29.9214 17.6999 29.756 17.8104 29.574 17.8858C29.392 17.9612 29.197 18 29 18H21C20.6022 18 20.2206 17.842 19.9393 17.5607C19.658 17.2794 19.5 16.8978 19.5 16.5ZM19.55 21.56C19.6905 21.3853 19.8684 21.2442 20.0707 21.1473C20.2729 21.0504 20.4943 21.0001 20.7185 21H29.2805C29.5049 20.9999 29.7265 21.0502 29.9289 21.1471C30.1313 21.244 30.3094 21.3851 30.45 21.56L32.669 24.3215C32.8831 24.588 32.9997 24.9197 32.9995 25.2615V33.5C32.9995 33.8978 32.8415 34.2794 32.5602 34.5607C32.2789 34.842 31.8973 35 31.4995 35H18.5C18.1022 35 17.7206 34.842 17.4393 34.5607C17.158 34.2794 17 33.8978 17 33.5V25.2615C16.9998 24.9197 17.1164 24.588 17.3305 24.3215L19.55 21.56Z" fill="white" stroke="white" stroke-width="4" stroke-linejoin="round"/>
<path d="M22 28H28M25 25V31" stroke="black" stroke-width="4" stroke-linecap="round" stroke-linejoin="round"/>
</mask>
<g mask="url(#mask0_595_3028)">
<path d="M13 13H37V37H13V13Z" fill="#F5F5F5"/>
</g>
</svg>
