<svg width="50" height="50" viewBox="0 0 50 50" fill="none" xmlns="http://www.w3.org/2000/svg">
<circle cx="25" cy="25" r="25" fill="#002670"/>
<path d="M30.423 28.385H24.183C23.9123 28.385 23.6917 28.4683 23.521 28.635C23.3503 28.8017 23.247 28.9927 23.211 29.208C23.1743 29.418 23.2043 29.6293 23.301 29.842C23.3977 30.0547 23.578 30.2087 23.842 30.304L29.259 32.444C29.4003 32.498 29.5403 32.519 29.679 32.507C29.819 32.4943 29.9427 32.4463 30.05 32.363C30.1573 32.2797 30.2463 32.177 30.317 32.055C30.3877 31.9323 30.423 31.7963 30.423 31.647V28.385ZM25 17C25.8253 17 26.5317 17.2937 27.119 17.881C27.7063 18.4683 28 19.1747 28 20C28 20.8253 27.7063 21.5317 27.119 22.119C26.5317 22.7063 25.8253 23 25 23C24.1747 23 23.4683 22.7063 22.881 22.119C22.2937 21.5317 22 20.8253 22 20C22 19.1747 22.2937 18.4683 22.881 17.881C23.4683 17.2937 24.1747 17 25 17ZM33.84 24.385C34.156 24.385 34.4283 24.4923 34.657 24.707C34.8857 24.9217 35 25.1883 35 25.507C35 25.7757 34.9247 26.01 34.774 26.21C34.6233 26.41 34.4207 26.5523 34.166 26.637L31.423 27.385H24.183C23.6297 27.385 23.1597 27.5783 22.773 27.965C22.3863 28.3523 22.193 28.8223 22.193 29.375C22.193 29.7137 22.2953 30.0203 22.5 30.295C22.7047 30.5697 22.9573 30.7853 23.258 30.942L24.373 31.385H19V28.385C19 27.271 19.3883 26.3257 20.165 25.549C20.941 24.773 21.886 24.385 23 24.385H33.84Z" fill="white"/>
</svg>
