<svg width="20" height="21" viewBox="0 0 20 21" fill="none" xmlns="http://www.w3.org/2000/svg">
<path d="M0.4 0.582031C0.282051 0.628906 0.164103 0.71875 0.102564 0.8125C0 0.964844 0 1.02344 0 10.5C0 19.9805 0 20.0352 0.102564 20.1875C0.169231 20.2891 0.276923 20.3711 0.410256 20.4219C0.610256 20.5 0.692308 20.5 10 20.5C19.3077 20.5 19.3897 20.5 19.5897 20.4219C19.7231 20.3711 19.8308 20.2891 19.8974 20.1875C20 20.0352 20 19.9727 20 12.6094V5.1875H17.2256H14.4513L14.2462 5.10156C14.1231 5.04688 14 4.95312 13.9436 4.86719C13.8513 4.73047 13.8462 4.60547 13.8462 2.60938V0.5H7.22051C0.717949 0.503906 0.584615 0.503906 0.4 0.582031ZM11.8974 4.09375C12.1282 4.18359 12.3077 4.40625 12.3077 4.60156C12.3077 4.79688 12.1282 5.01953 11.8974 5.10938C11.7026 5.1875 11.6051 5.1875 7.68718 5.1875H3.68205L3.47692 5.10156C2.95897 4.87891 2.95385 4.34375 3.46667 4.10938L3.66667 4.01562H7.68205C11.6051 4.01562 11.7026 4.01562 11.8974 4.09375ZM16.5128 6.4375C16.7436 6.52734 16.9231 6.75 16.9231 6.94531C16.9231 7.14062 16.7436 7.36328 16.5128 7.45312C16.3128 7.53125 16.2256 7.53125 9.99487 7.53125H3.68205L3.47692 7.44531C2.95897 7.22266 2.95385 6.6875 3.46667 6.45312L3.66667 6.35938H9.98974C16.2256 6.35938 16.3128 6.35938 16.5128 6.4375ZM16.5128 8.78125C16.7436 8.87109 16.9231 9.09375 16.9231 9.28906C16.9231 9.48438 16.7436 9.70703 16.5128 9.79688C16.3128 9.875 16.2256 9.875 9.99487 9.875H3.68205L3.47692 9.78906C2.95897 9.56641 2.95385 9.03125 3.46667 8.79688L3.66667 8.70312H9.98974C16.2256 8.70312 16.3128 8.70312 16.5128 8.78125ZM16.5128 11.125C16.7436 11.2148 16.9231 11.4375 16.9231 11.6328C16.9231 11.8281 16.7436 12.0508 16.5128 12.1406C16.3179 12.2148 16.2154 12.2188 13.8462 12.2188C11.4769 12.2188 11.3744 12.2148 11.1795 12.1406C10.6564 11.9375 10.6462 11.375 11.159 11.1406L11.359 11.0469H13.8359C16.2154 11.0469 16.3179 11.0508 16.5128 11.125ZM5.85641 11.3633C6.29744 11.4375 6.66667 11.5938 7 11.8477C7.90769 12.5391 7.91795 13.5977 7.02564 14.293C6.8718 14.4141 6.69744 14.5312 6.64103 14.5547C6.54872 14.5938 6.59487 14.6406 7.20513 15.1055L7.8718 15.6172L8.30769 15.2891C8.77436 14.9375 8.97949 14.8359 9.23077 14.8359C9.48718 14.8359 9.77949 14.9727 9.89744 15.1484C10.1128 15.4688 10.0051 15.6797 9.38974 16.1445L8.97436 16.4531L9.43077 16.8086C9.7641 17.0664 9.90256 17.2031 9.94872 17.3242C10.0718 17.6367 9.84103 17.9492 9.43077 18.0469C9.08718 18.125 8.86154 18.043 8.33333 17.6445L7.86667 17.2969L7.46154 17.6133C6.84615 18.0859 6.54872 18.1719 6.13333 17.9883C5.78462 17.8359 5.65128 17.5156 5.82564 17.2461C5.8718 17.1758 6.10256 16.9727 6.33846 16.7891L6.76923 16.457L5.69231 15.6367L4.61538 14.8164V15.6289C4.61538 16.3672 4.60513 16.4531 4.51282 16.5938C4.39487 16.7695 4.10256 16.9062 3.84103 16.9062C3.60513 16.9062 3.28718 16.7539 3.17436 16.5859C3.08205 16.4492 3.07692 16.3203 3.07692 14.1133C3.07692 11.8594 3.08205 11.7812 3.17949 11.6328C3.3641 11.3555 3.51795 11.3242 4.62564 11.3203C5.15385 11.3203 5.70769 11.3398 5.85641 11.3633ZM16.5128 13.4688C16.7436 13.5586 16.9231 13.7812 16.9231 13.9766C16.9231 14.1719 16.7436 14.3945 16.5128 14.4844C16.3179 14.5586 16.2154 14.5625 13.841 14.5625C11.3795 14.5625 11.3744 14.5625 11.1692 14.4766C10.6513 14.2539 10.6462 13.7188 11.159 13.4844L11.359 13.3906H13.8359C16.2154 13.3906 16.3179 13.3945 16.5128 13.4688Z" fill="#002670"/>
<path d="M4.61523 13.0781V13.6641H5.07677C5.64088 13.6641 5.86652 13.5938 6.04088 13.3594C6.17934 13.168 6.18447 13.0039 6.05113 12.8047C5.89216 12.5703 5.65113 12.4922 5.07677 12.4922H4.61523V13.0781Z" fill="#002670"/>
<path d="M15.3848 2.43359V4.01562H17.4719H19.5643L17.4873 2.43359C16.3437 1.5625 15.4053 0.851562 15.4002 0.851562C15.3899 0.851562 15.3848 1.5625 15.3848 2.43359Z" fill="#002670"/>
</svg>
