<svg width="50" height="50" viewBox="0 0 50 50" fill="none" xmlns="http://www.w3.org/2000/svg">
<circle cx="25" cy="25" r="25" fill="#002670"/>
<path d="M33 19H29V17C29 15.9 28.1 15 27 15H23C21.9 15 21 15.9 21 17V19H17C15.9 19 15 19.9 15 21V33C15 34.1 15.9 35 17 35H33C34.1 35 35 34.1 35 33V21C35 19.9 34.1 19 33 19ZM23 17H27V19H23V17ZM28 28H26V30C26 30.55 25.55 31 25 31C24.45 31 24 30.55 24 30V28H22C21.45 28 21 27.55 21 27C21 26.45 21.45 26 22 26H24V24C24 23.45 24.45 23 25 23C25.55 23 26 23.45 26 24V26H28C28.55 26 29 26.45 29 27C29 27.55 28.55 28 28 28Z" fill="white"/>
</svg>
