<svg width="26" height="26" viewBox="0 0 26 26" fill="none" xmlns="http://www.w3.org/2000/svg">
<path d="M11.7632 0.0326118C7.69515 0.454948 4.13054 2.6684 1.96431 6.11833C-1.10705 11.0083 -0.527355 17.5011 3.35761 21.7295C5.51875 24.0803 8.19348 25.4797 11.4072 25.9376C12.0123 26.0241 14.0108 26.019 14.6362 25.9325C17.7991 25.4949 20.4738 24.1007 22.6299 21.76C24.4046 19.8366 25.5385 17.3738 25.9352 14.6058C26.0216 14.0053 26.0216 12.0005 25.9352 11.4001C25.6351 9.28331 24.9639 7.48711 23.8503 5.80794C23.3825 5.09556 22.9096 4.51549 22.2485 3.84891C20.2196 1.7932 17.7076 0.526186 14.8142 0.0987625C14.1887 0.00716972 12.3835 -0.0335369 11.7632 0.0326118ZM11.9005 8.13333C12.9531 9.67003 13.8277 10.9269 13.843 10.9319C13.8582 10.937 14.9515 9.6802 16.2787 8.14351L18.6839 5.34489L19.3348 5.32963C19.7162 5.32454 19.9755 5.33472 19.9653 5.36525C19.9602 5.39069 19.3399 6.11833 18.5975 6.97827C17.855 7.84329 16.6143 9.2884 15.8414 10.189L14.4328 11.8224L17.133 15.7608C18.6178 17.9234 19.9806 19.9079 20.1636 20.1623L20.4891 20.6355H18.2568H16.0244L14.0006 17.6842C12.887 16.061 11.9615 14.733 11.9462 14.7381C11.931 14.7381 10.7818 16.061 9.39863 17.6741L6.87645 20.6101L6.20523 20.6253L5.53401 20.6406L8.45282 17.2416L11.3716 13.8476L11.2089 13.6135C11.0258 13.3642 5.76283 5.6909 5.61028 5.45684L5.52384 5.31945L7.75108 5.32963L9.98341 5.34489L11.9005 8.13333Z" fill="black"/>
<path d="M11.9869 13.0131L16.655 19.6941L17.6516 19.7094C18.2008 19.7145 18.6534 19.7043 18.6534 19.684C18.6534 19.6585 16.5634 16.6564 14.0108 13.0029L9.36812 6.36255L8.34094 6.34728L7.31885 6.3371L11.9869 13.0131Z" fill="black"/>
</svg>
